<?xml version="1.0" encoding="UTF-8"?>
<svg xmlns="http://www.w3.org/2000/svg" xmlns:xlink="http://www.w3.org/1999/xlink" width="302px" height="179px" viewBox="0 0 302 179" version="1.1">
<defs>
<linearGradient id="linear0" gradientUnits="userSpaceOnUse" x1="59.997299" y1="19.8643" x2="59.997299" y2="56.908298" gradientTransform="matrix(2.796296,0,0,2.796875,0,0)">
<stop offset="0" style="stop-color:rgb(87.058824%,91.372549%,100%);stop-opacity:1;"/>
<stop offset="1" style="stop-color:rgb(69.803922%,72.941176%,80%);stop-opacity:1;"/>
</linearGradient>
<linearGradient id="linear1" gradientUnits="userSpaceOnUse" x1="20.8416" y1="29.147499" x2="20.8416" y2="51.1455" gradientTransform="matrix(2.796296,0,0,2.796875,0,0)">
<stop offset="0" style="stop-color:rgb(87.058824%,91.372549%,100%);stop-opacity:1;"/>
<stop offset="1" style="stop-color:rgb(69.803922%,72.941176%,80%);stop-opacity:1;"/>
</linearGradient>
</defs>
<g id="surface1">
<path style=" stroke:none;fill-rule:nonzero;fill:url(#linear0);" d="M 230.371094 131.957031 C 235.265625 129.636719 237.839844 129.894531 239.902344 129.636719 C 242.992188 127.921875 249.539062 122.730469 250.980469 115.722656 C 252.5625 108.046875 254.535156 96.609375 251.359375 85.574219 C 250.914062 84.015625 250.363281 82.464844 249.691406 80.933594 C 246 74.242188 233.976562 59.871094 215.425781 55.9375 C 146.171875 54.082031 110.972656 59.460938 102.03125 62.378906 C 99.117188 69.597656 98.953125 90.46875 99.230469 100.003906 C 99.746094 128.351562 95.882812 136.597656 93.304688 143.554688 C 91.246094 149.121094 85.234375 154.632812 82.484375 156.695312 C 96.140625 156.695312 113.402344 156.4375 119.070312 155.921875 C 121.84375 157.46875 129.902344 160.199219 139.9375 158.757812 C 148.800781 158.140625 177.640625 152.144531 190.949219 149.222656 C 198.074219 147.964844 197.019531 144.664062 199.007812 142.78125 C 199.46875 142.347656 200.085938 141.992188 201 141.75 C 207.441406 139.945312 222.332031 135.460938 230.371094 131.957031 Z M 230.371094 131.957031 "/>
<path style=" stroke:none;fill-rule:nonzero;fill:rgb(0%,0%,0%);fill-opacity:1;" d="M 181.585938 110.027344 C 181.300781 102.972656 181.019531 100.996094 179.890625 94.222656 C 186.097656 94.222656 189.484375 93.660156 195.128906 92.8125 C 195.128906 96.199219 195.691406 104.101562 196.257812 107.769531 C 192.308594 108.335938 185.816406 108.898438 181.585938 110.027344 Z M 181.585938 110.027344 "/>
<path style="fill:none;stroke-width:0.201817;stroke-linecap:butt;stroke-linejoin:miter;stroke:rgb(100%,100%,100%);stroke-opacity:1;stroke-miterlimit:4;" d="M 16.300859 24.405028 C 17.208868 23.899441 18.420012 24.001397 19.832316 24.909218 C 21.244619 25.817039 25.079212 29.953911 25.584903 38.22905 " transform="matrix(2.796296,0,0,2.796875,0,0)"/>
<path style="fill:none;stroke-width:0.201817;stroke-linecap:butt;stroke-linejoin:miter;stroke:rgb(100%,100%,100%);stroke-opacity:1;stroke-miterlimit:4;" d="M 88.248707 47.108939 C 89.054739 47.00838 91.477028 45.696927 94.403611 43.476257 C 95.507192 42.092179 96.188897 40.543296 96.56607 38.935754 C 98.715956 29.76257 94.059965 22.318436 87.340697 16.938547 C 83.708661 14.02933 78.945106 11.22905 75.533785 9.874302 C 68.67203 7.149441 63.828849 7.048883 48.59106 7.856145 C 33.354667 8.663408 21.04346 19.662011 17.512003 22.286313 C 17.125052 22.484637 16.791184 22.689944 16.502018 22.899441 M 88.248707 47.108939 C 87.441277 47.210894 86.431291 47.108939 84.514694 48.018156 C 82.596699 48.925978 74.928911 51.347765 73.010917 51.851955 C 72.653301 51.946927 72.410234 52.086592 72.231426 52.255587 M 88.248707 47.108939 C 89.458454 46.437151 92.021834 44.405028 92.587593 41.660615 C 93.206436 38.653631 93.980339 34.175978 92.735668 29.854749 M 26.593491 57.705307 C 31.940966 57.705307 38.702142 57.603352 40.921875 57.402235 C 41.424772 57.695531 42.170737 57.988827 43.180722 58.209497 M 26.593491 57.705307 C 25.786062 58.006983 24.574917 58.410615 22.960058 58.410615 C 22.325849 58.410615 21.441587 58.364525 20.515418 58.209497 M 26.593491 57.705307 C 27.669133 56.898045 30.024369 54.73743 30.831798 52.558659 C 31.840387 49.833799 33.354667 46.604749 33.152111 35.505587 C 33.02918 28.751397 33.205195 24.013966 34.248707 20.772346 M 37.490998 16.231844 C 41.426169 13.709497 44.959023 12.900838 57.672548 12.497207 C 70.387469 12.094972 73.717767 12.094972 74.625776 17.946927 M 37.490998 16.231844 C 41.153767 13.402235 45.121068 11.610335 49.701625 11.034916 C 53.925962 10.505587 59.50952 10.177374 64.130588 10.177374 C 71.094319 10.177374 74.222061 11.420391 78.762107 13.810056 C 82.596699 15.828212 89.964145 23.194134 92.083299 28.037709 C 92.344526 28.636872 92.561051 29.244413 92.735668 29.854749 M 37.490998 16.231844 C 35.950176 17.219274 34.920633 18.685754 34.248707 20.772346 M 34.248707 20.772346 C 37.750828 19.628492 51.5372 17.523743 78.661527 18.25 C 82.191587 19.023743 89.948779 22.427374 92.735668 29.854749 M 20.515418 58.209497 C 19.087748 57.97067 17.560896 57.473464 16.704574 56.494413 C 15.290873 54.879888 14.181705 53.163408 13.374276 52.458101 C 12.566846 51.751397 12.062552 49.430168 12.062552 48.825419 C 12.062552 48.219274 11.428342 47.335196 11.255122 45.696927 C 10.963162 42.927374 10.548272 40.046089 11.456281 37.421788 C 12.305619 34.97067 11.658837 31.469274 13.273696 28.945531 C 14.711144 26.699721 14.148179 24.613128 16.502018 22.899441 M 20.515418 58.209497 C 20.825538 57.569832 21.748913 56.050279 22.960058 55.081006 C 24.474338 53.870112 25.382347 46.100559 26.593491 43.879888 C 27.804636 41.660615 27.198365 33.99162 26.089197 30.963687 C 24.978632 27.937151 24.373758 26.019553 22.455764 25.312849 C 20.539166 24.607542 19.731736 22 16.502018 22.899441 M 43.180722 58.209497 C 44.605598 58.52095 46.557119 58.688547 49.095354 58.51257 C 52.566743 58.269553 63.862376 55.921788 69.075745 54.777933 C 71.865428 54.286313 71.451935 52.993017 72.231426 52.255587 M 43.180722 58.209497 C 44.412821 56.965084 46.81695 55.206704 50.810793 54.576816 C 52.728787 54.273743 54.847941 54.173184 57.975683 53.769553 M 72.231426 52.255587 C 71.919909 51.851955 70.791184 51.125698 68.77261 51.448324 C 66.754036 51.77095 65.039994 52.121508 64.433723 52.255587 " transform="matrix(2.796296,0,0,2.796875,0,0)"/>
<path style=" stroke:none;fill-rule:nonzero;fill:url(#linear1);" d="M 71.824219 112.285156 C 71.824219 95.292969 65.757812 81.523438 58.277344 81.523438 C 50.800781 81.523438 44.734375 95.292969 44.734375 112.285156 C 44.734375 129.273438 50.800781 143.046875 58.277344 143.046875 C 65.757812 143.046875 71.824219 129.273438 71.824219 112.285156 Z M 71.824219 112.285156 "/>
<path style="fill:none;stroke-width:0.201817;stroke-linecap:butt;stroke-linejoin:miter;stroke:rgb(100%,100%,100%);stroke-opacity:1;stroke-miterlimit:4;" d="M 21.346596 52.759777 C 18.058206 52.759777 15.39285 46.977654 15.39285 39.843575 C 15.39285 32.710894 17.813742 27.027933 21.85089 27.027933 " transform="matrix(2.796296,0,0,2.796875,0,0)"/>
<path style=" stroke:none;fill-rule:nonzero;fill:rgb(0%,0%,0%);fill-opacity:1;" d="M 164.9375 150.105469 C 164.9375 149.011719 164.054688 148.128906 162.964844 148.128906 C 161.875 148.128906 160.988281 149.011719 160.988281 150.105469 C 160.988281 151.195312 161.875 152.078125 162.964844 152.078125 C 164.054688 152.078125 164.9375 151.195312 164.9375 150.105469 Z M 164.9375 150.105469 "/>
<path style=" stroke:none;fill-rule:nonzero;fill:rgb(0%,0%,0%);fill-opacity:1;" d="M 170.019531 148.976562 C 170.019531 147.882812 169.132812 147 168.042969 147 C 166.953125 147 166.066406 147.882812 166.066406 148.976562 C 166.066406 150.066406 166.953125 150.949219 168.042969 150.949219 C 169.132812 150.949219 170.019531 150.066406 170.019531 148.976562 Z M 170.019531 148.976562 "/>
<path style=" stroke:none;fill-rule:nonzero;fill:rgb(0%,0%,0%);fill-opacity:1;" d="M 175.097656 147.847656 C 175.097656 146.757812 174.214844 145.871094 173.121094 145.871094 C 172.03125 145.871094 171.148438 146.757812 171.148438 147.847656 C 171.148438 148.9375 172.03125 149.824219 173.121094 149.824219 C 174.214844 149.824219 175.097656 148.9375 175.097656 147.847656 Z M 175.097656 147.847656 "/>
<path style=" stroke:none;fill-rule:nonzero;fill:rgb(0%,0%,0%);fill-opacity:1;" d="M 180.175781 146.714844 C 180.175781 145.625 179.292969 144.742188 178.203125 144.742188 C 177.109375 144.742188 176.226562 145.625 176.226562 146.714844 C 176.226562 147.808594 177.109375 148.691406 178.203125 148.691406 C 179.292969 148.691406 180.175781 147.808594 180.175781 146.714844 Z M 180.175781 146.714844 "/>
<path style=" stroke:none;fill-rule:nonzero;fill:rgb(0%,0%,0%);fill-opacity:1;" d="M 181.605469 58.722656 C 181.523438 56.859375 175.777344 55.597656 168.769531 55.910156 C 161.765625 56.21875 156.152344 57.980469 156.234375 59.84375 C 156.316406 61.707031 162.0625 62.96875 169.070312 62.65625 C 176.074219 62.347656 181.6875 60.585938 181.605469 58.722656 Z M 181.605469 58.722656 "/>
</g>
</svg>
