<svg width="294" height="387" viewBox="0 0 294 387" fill="none" xmlns="http://www.w3.org/2000/svg">
<path d="M52.8705 291.653C43.4137 265.037 47.7027 254.483 47.7027 254.483L121.909 258.95L122.022 258.957L203.72 263.876C203.72 263.876 203.398 275.169 194.13 300.157C184.862 325.145 205.886 335.928 188.805 353.934C171.724 371.94 189.37 379.222 189.37 379.222L48.1107 370.718C48.1107 370.718 66.5032 365.606 51.7056 345.681C36.908 325.756 62.3273 318.27 52.8705 291.653Z" fill="url(#paint0_linear_3724_3613)"/>
<rect x="95.7804" y="291.79" width="7" height="9" rx="3.5" transform="rotate(176.238 95.7804 291.79)" fill="url(#paint1_linear_3724_3613)"/>
<rect x="117.036" y="325.467" width="7.00001" height="37" rx="3.5" transform="rotate(176.238 117.036 325.467)" fill="url(#paint2_linear_3724_3613)"/>
<rect x="135.405" y="315.24" width="7.00001" height="35" rx="3.5" transform="rotate(176.238 135.405 315.24)" fill="url(#paint3_linear_3724_3613)"/>
<rect x="152.986" y="293.039" width="7" height="14" rx="3.5" transform="rotate(176.238 152.986 293.039)" fill="url(#paint4_linear_3724_3613)"/>
<rect x="96.8303" y="307.755" width="7" height="11" rx="3.5" transform="rotate(176.238 96.8303 307.755)" fill="url(#paint5_linear_3724_3613)"/>
<rect x="-0.320766" y="0.365923" width="24.086" height="24.086" rx="12.043" transform="matrix(-0.997845 0.065618 0.065618 0.997845 197.357 47.4729)" stroke="white" stroke-width="0.688172"/>
<rect width="20.6452" height="20.6452" rx="10.3226" transform="matrix(-0.997845 0.065618 0.065618 0.997845 196.097 49.6469)" fill="white"/>
<rect width="10.3226" height="10.3226" rx="5.16129" transform="matrix(-0.997845 0.065618 0.065618 0.997845 163.217 63.5328)" fill="white"/>
<rect width="2.06452" height="2.06452" rx="1.03226" transform="matrix(-0.997845 0.065618 0.065618 0.997845 150.079 63.0179)" fill="white"/>
<rect x="-0.320766" y="0.365923" width="9.63441" height="9.63441" rx="4.8172" transform="matrix(-0.997845 0.065618 0.065618 0.997845 159.707 20.2934)" stroke="white" stroke-width="0.688172"/>
<rect x="-0.320766" y="0.365923" width="4.12903" height="4.12903" rx="2.06452" transform="matrix(-0.997845 0.065618 0.065618 0.997845 157.141 23.2212)" stroke="white" stroke-width="0.688172"/>
<rect x="-0.320766" y="0.365923" width="119.742" height="255.312" rx="19.6129" transform="matrix(-0.997845 0.065618 0.065618 0.997845 122.635 12.3867)" stroke="white" stroke-width="0.688172"/>
<rect width="196.817" height="251.871" rx="17.8925" transform="matrix(-0.997845 0.065618 0.065618 0.997845 201.718 9.27673)" fill="white" fill-opacity="0.1"/>
<rect width="116.301" height="251.871" rx="17.8925" transform="matrix(-0.997845 0.065618 0.065618 0.997845 121.375 14.5602)" fill="url(#paint6_linear_3724_3613)"/>
<rect width="32.3441" height="9.63441" rx="4.8172" transform="matrix(-0.997845 0.065618 0.065618 0.997845 79.8036 22.1217)" fill="black"/>
<rect width="5.50538" height="5.50538" rx="2.75269" transform="matrix(-0.997845 0.065618 0.065618 0.997845 55.2181 25.8068)" fill="white"/>
<rect x="-0.320766" y="0.365923" width="61.2473" height="63.3118" rx="16.8602" transform="matrix(-0.997845 0.065618 0.065618 0.997845 199.174 12.1811)" stroke="white" stroke-width="0.688172"/>
<rect x="-0.320766" y="0.365923" width="24.086" height="24.086" rx="12.043" transform="matrix(-0.997845 0.065618 0.065618 0.997845 194.683 17.3037)" stroke="white" stroke-width="0.688172"/>
<rect width="20.6452" height="20.6452" rx="10.3226" transform="matrix(-0.997845 0.065618 0.065618 0.997845 193.423 19.4774)" fill="white"/>
<rect x="-0.320766" y="0.365923" width="24.086" height="24.086" rx="12.043" transform="matrix(-0.997845 0.065618 0.065618 0.997845 167.522 34.2624)" stroke="white" stroke-width="0.688172"/>
<rect width="20.6452" height="20.6452" rx="10.3226" transform="matrix(-0.997845 0.065618 0.065618 0.997845 166.263 36.4364)" fill="white"/>
<rect x="-0.320766" y="0.365923" width="200.946" height="255.312" rx="19.6129" transform="matrix(-0.997845 0.065618 0.065618 0.997845 203.665 7.05809)" stroke="white" stroke-width="0.688172"/>
<path d="M43.8109 139.414C43.0935 139.477 42.4603 139.377 41.9112 139.114C41.3663 138.846 40.9278 138.436 40.5959 137.884C40.264 137.332 40.0631 136.656 39.9932 135.857L39.992 135.844C39.9233 135.058 40.0026 134.37 40.2298 133.778C40.4617 133.186 40.8229 132.713 41.3134 132.359C41.8085 132.004 42.4147 131.796 43.132 131.733C43.754 131.679 44.2969 131.741 44.7609 131.92C45.2291 132.094 45.6113 132.358 45.9075 132.712C46.208 133.061 46.4131 133.47 46.5229 133.941L46.5327 133.975L45.1094 134.099L45.1014 134.086C44.9879 133.73 44.7731 133.445 44.4569 133.23C44.1404 133.01 43.737 132.922 43.2466 132.965C42.8381 133.001 42.4953 133.136 42.2185 133.371C41.9413 133.601 41.7401 133.916 41.615 134.316C41.4944 134.715 41.4573 135.18 41.5038 135.711L41.505 135.725C41.5526 136.27 41.673 136.73 41.8661 137.107C42.0591 137.484 42.3125 137.766 42.6263 137.953C42.9397 138.136 43.2984 138.21 43.7024 138.175C44.1655 138.134 44.5311 137.999 44.7993 137.77C45.0719 137.54 45.2498 137.22 45.3329 136.811L45.3435 136.775L46.7594 136.645L46.7512 136.707C46.707 137.196 46.5692 137.633 46.3376 138.02C46.1061 138.406 45.7792 138.723 45.3571 138.97C44.9392 139.212 44.4238 139.36 43.8109 139.414ZM48.011 138.903L47.1101 128.606L48.5879 128.477L49.4887 138.773L48.011 138.903ZM54.1088 138.513C53.387 138.576 52.7538 138.476 52.2092 138.213C51.6642 137.945 51.226 137.537 50.8945 136.99C50.5675 136.442 50.3698 135.777 50.3015 134.997L50.3009 134.99C50.2334 134.218 50.3129 133.532 50.5394 132.931C50.7704 132.33 51.1261 131.846 51.6063 131.479C52.0912 131.112 52.6763 130.898 53.3619 130.838C54.0519 130.778 54.6579 130.88 55.1798 131.146C55.7062 131.411 56.1277 131.811 56.4444 132.346C56.7608 132.876 56.9515 133.514 57.0166 134.258L57.0619 134.776L51.0828 135.299L50.9904 134.243L56.2341 133.785L55.6116 134.827L55.5598 134.235C55.5137 133.708 55.3939 133.279 55.2003 132.949C55.0108 132.613 54.7678 132.371 54.4712 132.223C54.1746 132.075 53.8425 132.017 53.4747 132.05C53.107 132.082 52.7858 132.201 52.5111 132.408C52.2406 132.611 52.0366 132.894 51.8992 133.258C51.7664 133.622 51.7222 134.058 51.7667 134.566L51.8185 135.159C51.861 135.645 51.9791 136.053 52.1727 136.384C52.3663 136.714 52.6209 136.958 52.9364 137.113C53.2565 137.268 53.6231 137.327 54.0362 137.291C54.354 137.263 54.6227 137.196 54.8421 137.09C55.0657 136.979 55.2444 136.852 55.3781 136.707C55.5164 136.562 55.6073 136.424 55.6506 136.292L55.6731 136.235L57.1032 136.11L57.0949 136.173C57.0528 136.423 56.963 136.678 56.8256 136.937C56.6877 137.192 56.4959 137.431 56.25 137.653C56.0087 137.876 55.7096 138.064 55.3526 138.219C55.0001 138.373 54.5855 138.471 54.1088 138.513ZM60.4512 137.938C59.9836 137.979 59.5559 137.927 59.1681 137.782C58.7845 137.633 58.4715 137.402 58.2291 137.089C57.9867 136.776 57.8461 136.397 57.8072 135.953L57.806 135.939C57.767 135.494 57.8406 135.106 58.0265 134.774C58.217 134.441 58.5088 134.169 58.902 133.956C59.2992 133.738 59.7891 133.586 60.3715 133.498L63.088 133.096L63.1792 134.138L60.667 134.522C60.1613 134.598 59.7963 134.74 59.572 134.947C59.3472 135.15 59.2494 135.417 59.2784 135.748L59.2795 135.762C59.3089 136.098 59.4616 136.352 59.7374 136.525C60.0129 136.693 60.3481 136.76 60.7431 136.725C61.1108 136.693 61.4313 136.592 61.7046 136.421C61.9821 136.246 62.1916 136.026 62.3332 135.762C62.4744 135.494 62.5311 135.201 62.5033 134.883L62.2995 132.554C62.2638 132.145 62.1094 131.845 61.8365 131.654C61.5678 131.458 61.186 131.382 60.6911 131.425C60.278 131.461 59.9461 131.564 59.6955 131.732C59.4494 131.9 59.2948 132.119 59.2316 132.39L59.2197 132.412L57.7965 132.536L57.7991 132.488C57.8224 132.074 57.9526 131.706 58.1897 131.383C58.4309 131.056 58.7598 130.789 59.1764 130.583C59.5976 130.377 60.0873 130.25 60.6458 130.201C61.2677 130.146 61.8031 130.2 62.2519 130.362C62.7048 130.519 63.0588 130.774 63.3138 131.127C63.573 131.475 63.7252 131.908 63.7705 132.425L64.2131 137.485L62.7422 137.614L62.6504 136.565L62.5415 136.574C62.4181 136.837 62.2551 137.066 62.0527 137.262C61.8499 137.454 61.614 137.607 61.345 137.722C61.076 137.837 60.778 137.909 60.4512 137.938ZM65.5996 137.364L64.9526 129.968L66.4304 129.839L66.5281 130.956L66.6438 130.946C66.7909 130.535 67.0317 130.203 67.3664 129.949C67.701 129.696 68.1385 129.545 68.6787 129.498C69.5096 129.425 70.166 129.608 70.6481 130.046C71.1302 130.484 71.4097 131.144 71.4868 132.025L71.9056 136.812L70.4211 136.942L70.0326 132.502C69.9786 131.884 69.8091 131.437 69.5241 131.16C69.2432 130.878 68.8304 130.761 68.2856 130.809C67.927 130.84 67.6229 130.947 67.3735 131.129C67.1237 131.306 66.9389 131.546 66.819 131.85C66.7033 132.148 66.6629 132.497 66.6979 132.896L67.0774 137.234L65.5996 137.364ZM76.3827 136.564C75.6609 136.628 75.0277 136.527 74.4831 136.264C73.9381 135.996 73.4999 135.588 73.1684 135.041C72.8414 134.493 72.6437 133.829 72.5754 133.048L72.5748 133.041C72.5073 132.269 72.5868 131.583 72.8133 130.982C73.0443 130.381 73.4 129.897 73.8803 129.53C74.3651 129.163 74.9502 128.949 75.6358 128.889C76.3258 128.829 76.9318 128.932 77.4537 129.197C77.9801 129.462 78.4016 129.862 78.7183 130.397C79.0347 130.927 79.2254 131.565 79.2905 132.309L79.3358 132.827L73.3567 133.35L73.2643 132.295L78.508 131.836L77.8856 132.878L77.8337 132.286C77.7876 131.759 77.6678 131.331 77.4742 131C77.2847 130.664 77.0417 130.422 76.7451 130.275C76.4485 130.127 76.1164 130.069 75.7486 130.101C75.3809 130.133 75.0597 130.253 74.785 130.46C74.5145 130.662 74.3105 130.945 74.1731 131.309C74.0403 131.673 73.9961 132.109 74.0406 132.618L74.0924 133.21C74.1349 133.696 74.253 134.104 74.4466 134.435C74.6402 134.766 74.8948 135.009 75.2103 135.164C75.5304 135.319 75.897 135.379 76.3101 135.342C76.6279 135.315 76.8966 135.248 77.116 135.142C77.3396 135.031 77.5183 134.903 77.652 134.758C77.7903 134.614 77.8812 134.475 77.9245 134.343L77.947 134.287L79.3771 134.161L79.3688 134.224C79.3267 134.475 79.2369 134.73 79.0995 134.989C78.9616 135.243 78.7698 135.482 78.5239 135.705C78.2826 135.927 77.9835 136.116 77.6265 136.27C77.274 136.425 76.8594 136.523 76.3827 136.564ZM83.3924 135.931C82.775 135.985 82.2212 135.877 81.7312 135.609C81.2452 135.336 80.8501 134.925 80.5458 134.375C80.2461 133.825 80.0622 133.161 79.9943 132.385L79.9931 132.371C79.9248 131.591 79.9905 130.903 80.1901 130.309C80.3898 129.715 80.7054 129.244 81.1369 128.895C81.568 128.542 82.0969 128.338 82.7234 128.283C83.0639 128.253 83.3864 128.28 83.6911 128.363C83.9953 128.442 84.2694 128.569 84.5135 128.744C84.7572 128.915 84.9566 129.128 85.1117 129.385L85.2206 129.375L84.8644 125.303L86.3489 125.173L87.2498 135.47L85.7652 135.599L85.6633 134.435L85.5543 134.444C85.4325 134.725 85.2689 134.973 85.0635 135.187C84.8577 135.397 84.6141 135.567 84.3327 135.697C84.0509 135.823 83.7375 135.9 83.3924 135.931ZM83.7038 134.627C84.1124 134.591 84.4576 134.458 84.7394 134.228C85.0211 133.997 85.2248 133.684 85.3503 133.289C85.4755 132.889 85.5152 132.428 85.4695 131.906L85.4683 131.892C85.4222 131.366 85.3008 130.919 85.104 130.552C84.9117 130.184 84.6569 129.912 84.3393 129.734C84.026 129.551 83.665 129.477 83.2564 129.513C82.8478 129.548 82.5028 129.684 82.2215 129.919C81.9442 130.149 81.7429 130.462 81.6173 130.857C81.4959 131.247 81.4585 131.708 81.5049 132.239L81.5061 132.253C81.5522 132.779 81.6691 133.227 81.8568 133.595C82.0491 133.962 82.3017 134.235 82.6147 134.413C82.9322 134.592 83.2952 134.663 83.7038 134.627ZM91.8682 135.065L91.2212 127.67L92.7058 127.54L93.3528 134.936L91.8682 135.065ZM91.8547 126.283C91.6005 126.305 91.3746 126.234 91.1771 126.068C90.9797 125.902 90.8698 125.692 90.8475 125.438C90.8253 125.184 90.8972 124.96 91.0633 124.767C91.2291 124.57 91.439 124.46 91.6933 124.438C91.9475 124.416 92.1734 124.487 92.3709 124.653C92.5679 124.814 92.6776 125.022 92.6998 125.276C92.7221 125.53 92.6504 125.756 92.4846 125.954C92.3189 126.151 92.109 126.261 91.8547 126.283ZM94.8006 134.809L94.1536 127.413L95.6313 127.284L95.729 128.401L95.8448 128.391C95.9918 127.98 96.2327 127.648 96.5673 127.394C96.902 127.141 97.3394 126.991 97.8797 126.943C98.7105 126.871 99.367 127.053 99.849 127.491C100.331 127.93 100.611 128.589 100.688 129.47L101.107 134.257L99.622 134.387L99.2336 129.947C99.1795 129.33 99.01 128.882 98.7251 128.605C98.4442 128.323 98.0314 128.206 97.4866 128.254C97.1279 128.285 96.8239 128.392 96.5745 128.574C96.3247 128.751 96.1398 128.992 96.02 129.295C95.9043 129.593 95.8639 129.942 95.8988 130.342L96.2783 134.68L94.8006 134.809Z" fill="#131517"/>
<path d="M42.6539 168.795C39.859 169.039 37.659 168.335 36.054 166.681C34.4697 165.026 33.5254 162.459 33.2211 158.981C32.9168 155.502 33.401 152.811 34.6738 150.905C35.9672 148.998 38.0114 147.922 40.8064 147.677C43.6014 147.433 45.791 148.138 47.3753 149.794C48.9803 151.448 49.935 154.013 50.2393 157.492C50.5436 160.97 50.049 163.663 48.7555 165.57C47.4828 167.475 45.4489 168.55 42.6539 168.795ZM42.2899 164.633C43.0559 164.566 43.6589 164.305 44.0988 163.849C44.537 163.373 44.8188 162.66 44.9443 161.71C45.0887 160.738 45.0939 159.486 44.9599 157.954C44.8259 156.421 44.6042 155.2 44.295 154.288C44.0046 153.354 43.6032 152.7 43.0908 152.328C42.5766 151.935 41.9365 151.772 41.1705 151.839C40.4252 151.904 39.8231 152.176 39.3642 152.654C38.9243 153.11 38.6321 153.824 38.4877 154.796C38.3621 155.746 38.3664 156.987 38.5004 158.519C38.6345 160.051 38.8467 161.284 39.137 162.218C39.4463 163.13 39.858 163.782 40.3722 164.175C40.9053 164.546 41.5445 164.699 42.2899 164.633ZM61.0868 167.182C58.2919 167.427 56.0919 166.722 54.4869 165.068C52.9026 163.413 51.9583 160.846 51.654 157.368C51.3497 153.89 51.8339 151.198 53.1067 149.292C54.4001 147.385 56.4443 146.309 59.2393 146.065C62.0342 145.82 64.2239 146.526 65.8082 148.181C67.4132 149.835 68.3679 152.401 68.6722 155.879C68.9765 159.357 68.4819 162.05 67.1884 163.957C65.9156 165.863 63.8818 166.938 61.0868 167.182ZM60.7228 163.021C61.4888 162.954 62.0918 162.692 62.5317 162.237C62.9699 161.76 63.2517 161.047 63.3772 160.097C63.5216 159.125 63.5268 157.873 63.3928 156.341C63.2588 154.809 63.0371 153.587 62.7279 152.675C62.4375 151.741 62.0361 151.088 61.5237 150.715C61.0095 150.322 60.3694 150.159 59.6034 150.226C58.858 150.291 58.256 150.563 57.7971 151.041C57.3572 151.497 57.065 152.211 56.9206 153.183C56.795 154.133 56.7993 155.374 56.9333 156.906C57.0674 158.438 57.2796 159.671 57.5699 160.605C57.8792 161.517 58.2909 162.17 58.8051 162.563C59.3382 162.933 59.9774 163.086 60.7228 163.021ZM72.7965 149.885C73.7695 149.8 74.5469 149.983 75.1287 150.432C75.7312 150.88 76.0713 151.55 76.1492 152.44C76.2253 153.309 76.0056 154.017 75.4901 154.563C74.9952 155.107 74.2613 155.421 73.2882 155.506C72.3359 155.59 71.5585 155.407 70.956 154.959C70.3536 154.511 70.0143 153.853 69.9382 152.983C69.8603 152.093 70.0791 151.375 70.5947 150.829C71.1102 150.283 71.8441 149.969 72.7965 149.885ZM73.7148 160.382C74.6879 160.297 75.4653 160.479 76.047 160.929C76.6495 161.377 76.9897 162.046 77.0676 162.936C77.1436 163.806 76.9239 164.514 76.4084 165.059C75.9136 165.603 75.1796 165.918 74.2066 166.003C73.2542 166.086 72.4768 165.904 71.8744 165.456C71.2719 165.008 70.9326 164.349 70.8565 163.48C70.7787 162.59 70.9975 161.872 71.513 161.326C72.0285 160.78 72.7625 160.465 73.7148 160.382ZM86.6859 164.943C84.4914 165.135 82.622 164.87 81.0778 164.15C79.5525 163.407 78.4379 162.232 77.734 160.625L82.4559 158.084C82.6246 158.82 82.8635 159.404 83.1725 159.836C83.5004 160.246 83.9115 160.533 84.4057 160.698C84.8982 160.843 85.4654 160.887 86.1072 160.831C86.6869 160.781 87.1653 160.645 87.5423 160.424C87.9383 160.181 88.2338 159.863 88.4289 159.47C88.6241 159.078 88.699 158.623 88.6537 158.105C88.6066 157.567 88.4547 157.142 88.198 156.831C87.962 156.517 87.6306 156.307 87.2039 156.198C86.7978 156.087 86.3049 156.057 85.7253 156.108C85.4561 156.132 85.2086 156.164 84.9826 156.204C84.7549 156.224 84.4979 156.268 84.2117 156.334L83.9074 152.856C84.0748 152.862 84.2423 152.869 84.4097 152.875C84.5753 152.86 84.772 152.843 84.9998 152.823C85.9728 152.738 86.6492 152.481 87.0288 152.051C87.4274 151.599 87.5886 150.938 87.5125 150.069C87.4473 149.323 87.1801 148.773 86.7109 148.418C86.2625 148.061 85.6552 147.916 84.8892 147.983C84.0818 148.053 83.4383 148.329 82.9587 148.809C82.4774 149.268 82.2086 150.011 82.1524 151.038L77.3218 149.834C77.4499 148.675 77.8522 147.67 78.5287 146.818C79.2052 145.966 80.0844 145.284 81.1661 144.772C82.2686 144.259 83.503 143.942 84.8694 143.822C86.4429 143.685 87.7878 143.797 88.9043 144.158C90.0207 144.519 90.8955 145.1 91.5288 145.9C92.162 146.7 92.5285 147.669 92.6281 148.808C92.706 149.698 92.6263 150.456 92.3889 151.082C92.1723 151.706 91.8629 152.223 91.4608 152.634C91.0793 153.042 90.6793 153.359 90.2609 153.583C89.8406 153.787 89.4873 153.922 89.2011 153.989L89.2093 154.082C89.5819 154.05 90.0127 154.085 90.5015 154.188C90.9904 154.291 91.4771 154.489 91.9615 154.78C92.4442 155.051 92.8549 155.453 93.1936 155.987C93.5531 156.519 93.769 157.199 93.8415 158.027C93.9538 159.31 93.7091 160.448 93.1074 161.439C92.5264 162.429 91.6788 163.233 90.5647 163.852C89.4488 164.45 88.1559 164.814 86.6859 164.943ZM104.194 163.411C101.399 163.655 99.199 162.951 97.594 161.297C96.0097 159.642 95.0654 157.075 94.7611 153.597C94.4568 150.118 94.941 147.427 96.2138 145.521C97.5072 143.614 99.5515 142.538 102.346 142.293C105.141 142.049 107.331 142.754 108.915 144.41C110.52 146.064 111.475 148.629 111.779 152.108C112.084 155.586 111.589 158.279 110.296 160.186C109.023 162.091 106.989 163.166 104.194 163.411ZM103.83 159.249C104.596 159.182 105.199 158.921 105.639 158.465C106.077 157.989 106.359 157.276 106.484 156.326C106.629 155.354 106.634 154.102 106.5 152.569C106.366 151.037 106.144 149.816 105.835 148.904C105.545 147.97 105.143 147.316 104.631 146.944C104.117 146.551 103.477 146.388 102.71 146.455C101.965 146.52 101.363 146.792 100.904 147.27C100.464 147.726 100.172 148.44 100.028 149.412C99.9022 150.362 99.9064 151.603 100.04 153.135C100.174 154.667 100.387 155.9 100.677 156.834C100.986 157.746 101.398 158.398 101.912 158.791C102.445 159.162 103.085 159.315 103.83 159.249Z" fill="#131517"/>
<g opacity="0.15">
<rect x="152.822" y="101.822" width="78.3562" height="78.3562" rx="39.1781" fill="#2BD99C"/>
</g>
<g opacity="0.05">
<rect x="140" y="89" width="104" height="104" rx="52" fill="#2BD99C"/>
</g>
<rect x="163.507" y="112.507" width="56.9863" height="56.9863" rx="28.4931" fill="#2BD99C"/>
<path d="M179.534 141L188.438 149.904L206.247 132.096" stroke="#0D402E" stroke-width="3.56164" stroke-linecap="round" stroke-linejoin="round"/>
<path d="M178.824 269.033L267.932 283.44L266.353 293.206C264.384 305.383 263.4 311.472 260.278 315.739C257.532 319.493 253.668 322.282 249.24 323.705C244.206 325.323 238.118 324.338 225.941 322.37L206.408 319.212C194.232 317.243 188.143 316.259 183.875 313.137C180.121 310.391 177.333 306.527 175.91 302.099C174.292 297.065 175.276 290.977 177.245 278.8L178.824 269.033Z" fill="url(#paint7_linear_3724_3613)"/>
<path d="M200.111 241.021L197.512 240.601C189.928 239.375 182.786 244.529 181.56 252.113C180.049 261.458 186.4 270.258 195.744 271.769L251.011 280.705C260.356 282.215 269.157 275.865 270.667 266.52C271.894 258.935 266.739 251.793 259.155 250.567C258.157 250.405 257.178 250.247 256.216 250.092M208.071 242.308C222.951 244.714 233.94 246.49 248.347 248.819" stroke="white" stroke-width="0.36106"/>
<path d="M183.97 253.041C185.084 246.151 191.572 241.469 198.462 242.583L257.629 252.149C264.519 253.263 269.202 259.751 268.088 266.641C266.974 273.531 260.485 278.213 253.596 277.099L194.428 267.533C187.538 266.419 182.856 259.931 183.97 253.041Z" fill="white" fill-opacity="0.1"/>
<path d="M188.547 266.961C190.101 267.912 191.865 268.582 193.787 268.893L253.776 278.591C256.457 279.025 259.068 278.697 261.405 277.769" stroke="white" stroke-width="0.36106"/>
<rect x="204.408" y="269.146" width="9.0265" height="3.6106" transform="rotate(9.18389 204.408 269.146)" fill="white"/>
<rect x="234.705" y="274.044" width="9.0265" height="3.6106" transform="rotate(9.18389 234.705 274.044)" fill="white"/>
<path d="M199.729 243.385C193.261 243.62 189.484 249.383 187.603 255.457C186.301 259.657 190.083 265.001 195.607 265.895C199.448 266.515 204.893 265.018 211.074 265.244C218.97 265.533 225.036 263.317 223.642 254.7C222.997 250.712 220.576 246.524 214.978 245.618C211.769 245.1 209.479 244.729 207.775 244.454" stroke="white" stroke-width="0.36106"/>
<path d="M216.69 219.196C212.602 220.729 208.414 225.487 208.821 230.542C209.227 235.596 214.228 237.817 218.201 236.996C225.132 235.564 230.3 225.691 223.801 220.458C221.879 218.911 219.206 218.252 216.69 219.196Z" fill="white"/>
<path d="M208.003 233.336C205.229 232.4 199.724 228.918 196.652 224.368C192.078 217.594 197.519 203.413 208.174 207.395C215.072 209.974 219.848 215.5 220.128 218.289" stroke="white" stroke-width="0.36106"/>
<rect x="204.383" y="211.72" width="7.94332" height="4.17316" rx="2.08658" transform="rotate(43.685 204.383 211.72)" fill="white"/>
<rect x="217.711" y="232.112" width="7.58226" height="3.19508" rx="1.59754" transform="rotate(-44.2347 217.711 232.112)" fill="black"/>
<path d="M201.991 229.804L198.735 249.942L206.576 251.21C207.585 244.971 208.217 241.063 209.054 235.884" stroke="white" stroke-width="0.36106"/>
<path d="M198.735 249.942L206.577 251.21V251.21C206.322 252.784 204.839 253.855 203.264 253.6L201.125 253.254C199.551 253 198.48 251.517 198.735 249.942V249.942Z" stroke="white" stroke-width="0.36106"/>
<path d="M255.805 252.437C261.926 254.672 263.708 261.358 263.58 267.74C263.491 272.136 258.218 276.017 252.694 275.124C248.853 274.503 244.157 271.366 238.22 269.633C230.635 267.418 225.576 263.404 229.615 255.665C231.484 252.084 235.101 248.872 240.699 249.777C243.96 250.304 246.273 250.678 247.986 250.955" stroke="white" stroke-width="0.36106"/>
<path d="M247.4 224.161C250.797 226.904 253.272 232.74 251.293 237.409C249.315 242.078 243.869 242.609 240.357 240.578C234.23 237.035 232.437 226.036 240.254 223.118C242.565 222.255 245.31 222.472 247.4 224.161Z" fill="white"/>
<path d="M251.189 240.318C254.117 240.303 260.438 238.734 264.788 235.384C271.263 230.396 270.568 215.223 259.201 215.645C251.842 215.918 245.568 219.659 244.423 222.217" stroke="white" stroke-width="0.36106"/>
<rect width="7.94332" height="4.17316" rx="2.08658" transform="matrix(-0.903954 0.42763 0.42763 0.903954 261.436 220.944)" fill="white"/>
<rect width="7.58226" height="3.19508" rx="1.59754" transform="matrix(-0.460161 -0.887836 -0.887836 0.460161 242.362 236.098)" fill="black"/>
<path d="M258.008 238.86L254.752 258.999L246.911 257.731C247.919 251.492 248.551 247.584 249.388 242.405" stroke="white" stroke-width="0.36106"/>
<path d="M254.752 258.998L246.911 257.731V257.731C246.656 259.305 247.726 260.788 249.301 261.043L251.44 261.389C253.014 261.643 254.497 260.573 254.752 258.998V258.998Z" stroke="white" stroke-width="0.36106"/>
<rect width="7" height="9" rx="3.5" transform="matrix(0.987181 0.159604 0.159604 -0.987181 233.561 344.269)" fill="url(#paint8_linear_3724_3613)"/>
<rect width="7.00001" height="37" rx="3.5" transform="matrix(0.987181 0.159604 0.159604 -0.987181 209.219 375.788)" fill="url(#paint9_linear_3724_3613)"/>
<rect width="7.00001" height="35" rx="3.5" transform="matrix(0.987181 0.159604 0.159604 -0.987181 191.899 363.871)" fill="url(#paint10_linear_3724_3613)"/>
<rect width="7" height="14" rx="3.5" transform="matrix(0.987181 0.159604 0.159604 -0.987181 176.494 340.107)" fill="url(#paint11_linear_3724_3613)"/>
<rect width="7" height="11" rx="3.5" transform="matrix(0.987181 0.159604 0.159604 -0.987181 231.007 360.064)" fill="url(#paint12_linear_3724_3613)"/>
<defs>
<linearGradient id="paint0_linear_3724_3613" x1="116.684" y1="374.137" x2="123.655" y2="258.347" gradientUnits="userSpaceOnUse">
<stop stop-color="#4BA7D9" stop-opacity="0"/>
<stop offset="0.5" stop-color="#4BA7D9" stop-opacity="0.15"/>
<stop offset="1" stop-color="#4BA7D9" stop-opacity="0"/>
</linearGradient>
<linearGradient id="paint1_linear_3724_3613" x1="99.2804" y1="291.79" x2="99.2804" y2="300.79" gradientUnits="userSpaceOnUse">
<stop stop-color="#4BA7D9"/>
<stop offset="1" stop-color="#4BA7D9" stop-opacity="0.15"/>
</linearGradient>
<linearGradient id="paint2_linear_3724_3613" x1="120.536" y1="325.467" x2="120.536" y2="362.467" gradientUnits="userSpaceOnUse">
<stop stop-color="#4BA7D9"/>
<stop offset="1" stop-color="#4BA7D9" stop-opacity="0.15"/>
</linearGradient>
<linearGradient id="paint3_linear_3724_3613" x1="138.905" y1="315.24" x2="138.905" y2="350.24" gradientUnits="userSpaceOnUse">
<stop stop-color="#4BA7D9"/>
<stop offset="1" stop-color="#4BA7D9" stop-opacity="0.15"/>
</linearGradient>
<linearGradient id="paint4_linear_3724_3613" x1="156.486" y1="293.039" x2="156.486" y2="307.039" gradientUnits="userSpaceOnUse">
<stop stop-color="#4BA7D9"/>
<stop offset="1" stop-color="#4BA7D9" stop-opacity="0.15"/>
</linearGradient>
<linearGradient id="paint5_linear_3724_3613" x1="100.33" y1="307.755" x2="100.33" y2="318.755" gradientUnits="userSpaceOnUse">
<stop stop-color="#4BA7D9"/>
<stop offset="1" stop-color="#4BA7D9" stop-opacity="0.15"/>
</linearGradient>
<linearGradient id="paint6_linear_3724_3613" x1="58.1505" y1="0" x2="58.1505" y2="251.871" gradientUnits="userSpaceOnUse">
<stop stop-color="#DEE9FF"/>
<stop offset="1" stop-color="#B2BACC"/>
</linearGradient>
<linearGradient id="paint7_linear_3724_3613" x1="223.378" y1="276.237" x2="216.175" y2="320.791" gradientUnits="userSpaceOnUse">
<stop stop-color="#DEE9FF"/>
<stop offset="1" stop-color="#B2BACC"/>
</linearGradient>
<linearGradient id="paint8_linear_3724_3613" x1="3.5" y1="0" x2="3.5" y2="9" gradientUnits="userSpaceOnUse">
<stop stop-color="#4BA7D9"/>
<stop offset="1" stop-color="#4BA7D9" stop-opacity="0.15"/>
</linearGradient>
<linearGradient id="paint9_linear_3724_3613" x1="3.5" y1="0" x2="3.5" y2="37" gradientUnits="userSpaceOnUse">
<stop stop-color="#4BA7D9"/>
<stop offset="1" stop-color="#4BA7D9" stop-opacity="0.15"/>
</linearGradient>
<linearGradient id="paint10_linear_3724_3613" x1="3.5" y1="0" x2="3.5" y2="35" gradientUnits="userSpaceOnUse">
<stop stop-color="#4BA7D9"/>
<stop offset="1" stop-color="#4BA7D9" stop-opacity="0.15"/>
</linearGradient>
<linearGradient id="paint11_linear_3724_3613" x1="3.5" y1="0" x2="3.5" y2="14" gradientUnits="userSpaceOnUse">
<stop stop-color="#4BA7D9"/>
<stop offset="1" stop-color="#4BA7D9" stop-opacity="0.15"/>
</linearGradient>
<linearGradient id="paint12_linear_3724_3613" x1="3.5" y1="0" x2="3.5" y2="11" gradientUnits="userSpaceOnUse">
<stop stop-color="#4BA7D9"/>
<stop offset="1" stop-color="#4BA7D9" stop-opacity="0.15"/>
</linearGradient>
</defs>
</svg>
