<svg width="374" height="175" viewBox="0 0 374 175" fill="none" xmlns="http://www.w3.org/2000/svg">
<rect y="8" width="1" height="159" rx="0.5" fill="url(#paint0_linear_5204_4381)"/>
<rect x="13" y="18.5" width="1" height="138" rx="0.5" fill="url(#paint1_linear_5204_4381)"/>
<rect x="26" y="4" width="1" height="167" rx="0.5" fill="url(#paint2_linear_5204_4381)"/>
<rect x="39" y="15.5" width="1" height="144" rx="0.5" fill="url(#paint3_linear_5204_4381)"/>
<rect x="52" y="18.5" width="1" height="138" rx="0.5" fill="url(#paint4_linear_5204_4381)"/>
<rect x="65" y="20" width="1" height="135" rx="0.5" fill="url(#paint5_linear_5204_4381)"/>
<rect x="78" y="5" width="1" height="165" rx="0.5" fill="url(#paint6_linear_5204_4381)"/>
<rect x="91" y="10.5" width="1" height="154" rx="0.5" fill="url(#paint7_linear_5204_4381)"/>
<rect x="104" y="7" width="1" height="161" rx="0.5" fill="url(#paint8_linear_5204_4381)"/>
<rect x="117" y="12.5" width="1" height="150" rx="0.5" fill="url(#paint9_linear_5204_4381)"/>
<rect x="130" y="10.5" width="1" height="154" rx="0.5" fill="url(#paint10_linear_5204_4381)"/>
<rect x="143" y="2.5" width="1" height="170" rx="0.5" fill="url(#paint11_linear_5204_4381)"/>
<rect x="156" y="16" width="1" height="143" rx="0.5" fill="url(#paint12_linear_5204_4381)"/>
<rect x="169" y="7" width="1" height="161" rx="0.5" fill="url(#paint13_linear_5204_4381)"/>
<rect x="182" y="17" width="1" height="141" rx="0.5" fill="url(#paint14_linear_5204_4381)"/>
<rect x="195" y="3" width="1" height="169" rx="0.5" fill="url(#paint15_linear_5204_4381)"/>
<rect x="208" y="12.5" width="1" height="150" rx="0.5" fill="url(#paint16_linear_5204_4381)"/>
<rect x="221" y="6.5" width="1" height="162" rx="0.5" fill="url(#paint17_linear_5204_4381)"/>
<rect x="234" y="4" width="1" height="167" rx="0.5" fill="url(#paint18_linear_5204_4381)"/>
<rect x="247" y="20.5" width="1" height="134" rx="0.5" fill="url(#paint19_linear_5204_4381)"/>
<rect x="260" y="0.5" width="1" height="174" rx="0.5" fill="url(#paint20_linear_5204_4381)"/>
<rect x="273" y="19" width="1" height="137" rx="0.5" fill="url(#paint21_linear_5204_4381)"/>
<rect x="286" y="10.5" width="1" height="154" rx="0.5" fill="url(#paint22_linear_5204_4381)"/>
<rect x="299" y="2.5" width="1" height="170" rx="0.5" fill="url(#paint23_linear_5204_4381)"/>
<rect x="312" y="5" width="1" height="165" rx="0.5" fill="url(#paint24_linear_5204_4381)"/>
<rect x="325" y="7" width="1" height="161" rx="0.5" fill="url(#paint25_linear_5204_4381)"/>
<rect x="338" y="16" width="1" height="143" rx="0.5" fill="url(#paint26_linear_5204_4381)"/>
<rect x="351" y="19.5" width="1" height="136" rx="0.5" fill="url(#paint27_linear_5204_4381)"/>
<defs>
<linearGradient id="paint0_linear_5204_4381" x1="0.5" y1="8" x2="0.5" y2="167" gradientUnits="userSpaceOnUse">
<stop stop-color="white" stop-opacity="0.05"/>
<stop offset="1" stop-color="white" stop-opacity="0"/>
</linearGradient>
<linearGradient id="paint1_linear_5204_4381" x1="13.5" y1="18.5" x2="13.5" y2="156.5" gradientUnits="userSpaceOnUse">
<stop stop-color="white" stop-opacity="0.05"/>
<stop offset="1" stop-color="white" stop-opacity="0"/>
</linearGradient>
<linearGradient id="paint2_linear_5204_4381" x1="26.5" y1="4" x2="26.5" y2="171" gradientUnits="userSpaceOnUse">
<stop stop-color="white" stop-opacity="0.05"/>
<stop offset="1" stop-color="white" stop-opacity="0"/>
</linearGradient>
<linearGradient id="paint3_linear_5204_4381" x1="39.5" y1="15.5" x2="39.5" y2="159.5" gradientUnits="userSpaceOnUse">
<stop stop-color="white" stop-opacity="0.05"/>
<stop offset="1" stop-color="white" stop-opacity="0"/>
</linearGradient>
<linearGradient id="paint4_linear_5204_4381" x1="52.5" y1="18.5" x2="52.5" y2="156.5" gradientUnits="userSpaceOnUse">
<stop stop-color="white" stop-opacity="0.05"/>
<stop offset="1" stop-color="white" stop-opacity="0"/>
</linearGradient>
<linearGradient id="paint5_linear_5204_4381" x1="65.5" y1="20" x2="65.5" y2="155" gradientUnits="userSpaceOnUse">
<stop stop-color="white" stop-opacity="0.05"/>
<stop offset="1" stop-color="white" stop-opacity="0"/>
</linearGradient>
<linearGradient id="paint6_linear_5204_4381" x1="78.5" y1="5" x2="78.5" y2="170" gradientUnits="userSpaceOnUse">
<stop stop-color="white" stop-opacity="0.05"/>
<stop offset="1" stop-color="white" stop-opacity="0"/>
</linearGradient>
<linearGradient id="paint7_linear_5204_4381" x1="91.5" y1="10.5" x2="91.5" y2="164.5" gradientUnits="userSpaceOnUse">
<stop stop-color="white" stop-opacity="0.05"/>
<stop offset="1" stop-color="white" stop-opacity="0"/>
</linearGradient>
<linearGradient id="paint8_linear_5204_4381" x1="104.5" y1="7" x2="104.5" y2="168" gradientUnits="userSpaceOnUse">
<stop stop-color="white" stop-opacity="0.05"/>
<stop offset="1" stop-color="white" stop-opacity="0"/>
</linearGradient>
<linearGradient id="paint9_linear_5204_4381" x1="117.5" y1="12.5" x2="117.5" y2="162.5" gradientUnits="userSpaceOnUse">
<stop stop-color="white" stop-opacity="0.05"/>
<stop offset="1" stop-color="white" stop-opacity="0"/>
</linearGradient>
<linearGradient id="paint10_linear_5204_4381" x1="130.5" y1="10.5" x2="130.5" y2="164.5" gradientUnits="userSpaceOnUse">
<stop stop-color="white" stop-opacity="0.05"/>
<stop offset="1" stop-color="white" stop-opacity="0"/>
</linearGradient>
<linearGradient id="paint11_linear_5204_4381" x1="143.5" y1="2.5" x2="143.5" y2="172.5" gradientUnits="userSpaceOnUse">
<stop stop-color="white" stop-opacity="0.05"/>
<stop offset="1" stop-color="white" stop-opacity="0"/>
</linearGradient>
<linearGradient id="paint12_linear_5204_4381" x1="156.5" y1="16" x2="156.5" y2="159" gradientUnits="userSpaceOnUse">
<stop stop-color="white" stop-opacity="0.05"/>
<stop offset="1" stop-color="white" stop-opacity="0"/>
</linearGradient>
<linearGradient id="paint13_linear_5204_4381" x1="169.5" y1="7" x2="169.5" y2="168" gradientUnits="userSpaceOnUse">
<stop stop-color="white" stop-opacity="0.05"/>
<stop offset="1" stop-color="white" stop-opacity="0"/>
</linearGradient>
<linearGradient id="paint14_linear_5204_4381" x1="182.5" y1="17" x2="182.5" y2="158" gradientUnits="userSpaceOnUse">
<stop stop-color="white" stop-opacity="0.05"/>
<stop offset="1" stop-color="white" stop-opacity="0"/>
</linearGradient>
<linearGradient id="paint15_linear_5204_4381" x1="195.5" y1="3" x2="195.5" y2="172" gradientUnits="userSpaceOnUse">
<stop stop-color="white" stop-opacity="0.05"/>
<stop offset="1" stop-color="white" stop-opacity="0"/>
</linearGradient>
<linearGradient id="paint16_linear_5204_4381" x1="208.5" y1="12.5" x2="208.5" y2="162.5" gradientUnits="userSpaceOnUse">
<stop stop-color="white" stop-opacity="0.05"/>
<stop offset="1" stop-color="white" stop-opacity="0"/>
</linearGradient>
<linearGradient id="paint17_linear_5204_4381" x1="221.5" y1="6.5" x2="221.5" y2="168.5" gradientUnits="userSpaceOnUse">
<stop stop-color="white" stop-opacity="0.05"/>
<stop offset="1" stop-color="white" stop-opacity="0"/>
</linearGradient>
<linearGradient id="paint18_linear_5204_4381" x1="234.5" y1="4" x2="234.5" y2="171" gradientUnits="userSpaceOnUse">
<stop stop-color="white" stop-opacity="0.05"/>
<stop offset="1" stop-color="white" stop-opacity="0"/>
</linearGradient>
<linearGradient id="paint19_linear_5204_4381" x1="247.5" y1="20.5" x2="247.5" y2="154.5" gradientUnits="userSpaceOnUse">
<stop stop-color="white" stop-opacity="0.05"/>
<stop offset="1" stop-color="white" stop-opacity="0"/>
</linearGradient>
<linearGradient id="paint20_linear_5204_4381" x1="260.5" y1="0.5" x2="260.5" y2="174.5" gradientUnits="userSpaceOnUse">
<stop stop-color="white" stop-opacity="0.05"/>
<stop offset="1" stop-color="white" stop-opacity="0"/>
</linearGradient>
<linearGradient id="paint21_linear_5204_4381" x1="273.5" y1="19" x2="273.5" y2="156" gradientUnits="userSpaceOnUse">
<stop stop-color="white" stop-opacity="0.05"/>
<stop offset="1" stop-color="white" stop-opacity="0"/>
</linearGradient>
<linearGradient id="paint22_linear_5204_4381" x1="286.5" y1="10.5" x2="286.5" y2="164.5" gradientUnits="userSpaceOnUse">
<stop stop-color="white" stop-opacity="0.05"/>
<stop offset="1" stop-color="white" stop-opacity="0"/>
</linearGradient>
<linearGradient id="paint23_linear_5204_4381" x1="299.5" y1="2.5" x2="299.5" y2="172.5" gradientUnits="userSpaceOnUse">
<stop stop-color="white" stop-opacity="0.05"/>
<stop offset="1" stop-color="white" stop-opacity="0"/>
</linearGradient>
<linearGradient id="paint24_linear_5204_4381" x1="312.5" y1="5" x2="312.5" y2="170" gradientUnits="userSpaceOnUse">
<stop stop-color="white" stop-opacity="0.05"/>
<stop offset="1" stop-color="white" stop-opacity="0"/>
</linearGradient>
<linearGradient id="paint25_linear_5204_4381" x1="325.5" y1="7" x2="325.5" y2="168" gradientUnits="userSpaceOnUse">
<stop stop-color="white" stop-opacity="0.05"/>
<stop offset="1" stop-color="white" stop-opacity="0"/>
</linearGradient>
<linearGradient id="paint26_linear_5204_4381" x1="338.5" y1="16" x2="338.5" y2="159" gradientUnits="userSpaceOnUse">
<stop stop-color="white" stop-opacity="0.05"/>
<stop offset="1" stop-color="white" stop-opacity="0"/>
</linearGradient>
<linearGradient id="paint27_linear_5204_4381" x1="351.5" y1="19.5" x2="351.5" y2="155.5" gradientUnits="userSpaceOnUse">
<stop stop-color="white" stop-opacity="0.05"/>
<stop offset="1" stop-color="white" stop-opacity="0"/>
</linearGradient>
</defs>
</svg>
