<?xml version="1.0" encoding="UTF-8"?>
<svg xmlns="http://www.w3.org/2000/svg" xmlns:xlink="http://www.w3.org/1999/xlink" width="209px" height="257px" viewBox="0 0 209 257" version="1.1">
<defs>
<linearGradient id="linear0" gradientUnits="userSpaceOnUse" x1="36.148998" y1="0.515625" x2="36.148998" y2="63.483398" gradientTransform="matrix(4.019231,0,0,4.015625,0,0)">
<stop offset="0" style="stop-color:rgb(87.058824%,91.372549%,100%);stop-opacity:1;"/>
<stop offset="1" style="stop-color:rgb(69.803922%,72.941176%,80%);stop-opacity:1;"/>
</linearGradient>
</defs>
<g id="surface1">
<path style="fill:none;stroke-width:0.172043;stroke-linecap:butt;stroke-linejoin:miter;stroke:rgb(100%,100%,100%);stroke-opacity:1;stroke-miterlimit:4;" d="M 6.127766 10.064202 C 7.79067 10.064202 9.138681 11.412451 9.138681 13.074903 C 9.138681 14.738327 7.79067 16.085603 6.127766 16.085603 C 4.464862 16.085603 3.116851 14.738327 3.116851 13.074903 C 3.116851 11.412451 4.464862 10.064202 6.127766 10.064202 Z M 6.127766 10.064202 " transform="matrix(4.019231,0,0,4.015625,0,0)"/>
<path style=" stroke:none;fill-rule:nonzero;fill:rgb(100%,100%,100%);fill-opacity:1;" d="M 24.628906 42.144531 C 30.355469 42.144531 35 46.785156 35 52.507812 C 35 58.230469 30.355469 62.871094 24.628906 62.871094 C 18.898438 62.871094 14.253906 58.230469 14.253906 52.507812 C 14.253906 46.785156 18.898438 42.144531 24.628906 42.144531 Z M 24.628906 42.144531 "/>
<path style=" stroke:none;fill-rule:nonzero;fill:rgb(100%,100%,100%);fill-opacity:1;" d="M 53.332031 53.886719 C 56.195312 53.886719 58.515625 56.207031 58.515625 59.066406 C 58.515625 61.929688 56.195312 64.25 53.332031 64.25 C 50.464844 64.25 48.144531 61.929688 48.144531 59.066406 C 48.144531 56.207031 50.464844 53.886719 53.332031 53.886719 Z M 53.332031 53.886719 "/>
<path style=" stroke:none;fill-rule:nonzero;fill:rgb(100%,100%,100%);fill-opacity:1;" d="M 62.316406 52.503906 L 63.351562 53.542969 L 62.316406 54.578125 L 61.277344 53.542969 Z M 62.316406 52.503906 "/>
<path style="fill:none;stroke-width:0.172043;stroke-linecap:butt;stroke-linejoin:miter;stroke:rgb(100%,100%,100%);stroke-opacity:1;stroke-miterlimit:4;" d="M 13.269214 2.667315 C 13.933986 2.667315 14.473385 3.206226 14.473385 3.871595 C 14.473385 4.536965 13.933986 5.075875 13.269214 5.075875 C 12.603469 5.075875 12.06407 4.536965 12.06407 3.871595 C 12.06407 3.206226 12.603469 2.667315 13.269214 2.667315 Z M 13.269214 2.667315 " transform="matrix(4.019231,0,0,4.015625,0,0)"/>
<path style="fill:none;stroke-width:0.172043;stroke-linecap:butt;stroke-linejoin:miter;stroke:rgb(100%,100%,100%);stroke-opacity:1;stroke-miterlimit:4;" d="M 13.268242 3.355058 C 13.553005 3.355058 13.784315 3.585603 13.784315 3.870623 C 13.784315 4.155642 13.553005 4.38716 13.268242 4.38716 C 12.983478 4.38716 12.752168 4.155642 12.752168 3.870623 C 12.752168 3.585603 12.983478 3.355058 13.268242 3.355058 Z M 13.268242 3.355058 " transform="matrix(4.019231,0,0,4.015625,0,0)"/>
<path style="fill:none;stroke-width:0.172043;stroke-linecap:butt;stroke-linejoin:miter;stroke:rgb(100%,100%,100%);stroke-opacity:1;stroke-miterlimit:4;" d="M 26.084554 0.0856031 L 46.214339 0.0856031 C 48.922025 0.0856031 51.117524 2.281128 51.117524 4.9893 L 51.117524 59.0107 C 51.117524 61.718872 48.922025 63.914397 46.214339 63.914397 L 26.084554 63.914397 C 23.376869 63.914397 21.18137 61.718872 21.18137 59.0107 L 21.18137 4.9893 C 21.18137 2.281128 23.376869 0.0856031 26.084554 0.0856031 Z M 26.084554 0.0856031 " transform="matrix(4.019231,0,0,4.015625,0,0)"/>
<path style=" stroke:none;fill-rule:nonzero;fill:rgb(100%,100%,100%);fill-opacity:0.101961;" d="M 23.9375 2.070312 L 185.742188 2.070312 C 195.671875 2.070312 203.722656 10.113281 203.722656 20.03125 L 203.722656 236.960938 C 203.722656 246.882812 195.671875 254.925781 185.742188 254.925781 L 23.9375 254.925781 C 14.007812 254.925781 5.957031 246.882812 5.957031 236.960938 L 5.957031 20.03125 C 5.957031 10.113281 14.007812 2.070312 23.9375 2.070312 Z M 23.9375 2.070312 "/>
<path style=" stroke:none;fill-rule:nonzero;fill:url(#linear0);" d="M 104.839844 2.070312 L 185.742188 2.070312 C 195.671875 2.070312 203.722656 10.113281 203.722656 20.03125 L 203.722656 236.960938 C 203.722656 246.882812 195.671875 254.925781 185.742188 254.925781 L 104.839844 254.925781 C 94.910156 254.925781 86.859375 246.882812 86.859375 236.960938 L 86.859375 20.03125 C 86.859375 10.113281 94.910156 2.070312 104.839844 2.070312 Z M 104.839844 2.070312 "/>
<path style=" stroke:none;fill-rule:nonzero;fill:rgb(0%,0%,0%);fill-opacity:1;" d="M 133.886719 6.910156 L 156.707031 6.910156 C 159.378906 6.910156 161.546875 9.074219 161.546875 11.746094 C 161.546875 14.417969 159.378906 16.582031 156.707031 16.582031 L 133.886719 16.582031 C 131.214844 16.582031 129.046875 14.417969 129.046875 11.746094 C 129.046875 9.074219 131.214844 6.910156 133.886719 6.910156 Z M 133.886719 6.910156 "/>
<path style=" stroke:none;fill-rule:nonzero;fill:rgb(100%,100%,100%);fill-opacity:1;" d="M 156.707031 8.980469 C 158.234375 8.980469 159.472656 10.21875 159.472656 11.742188 C 159.472656 13.269531 158.234375 14.507812 156.707031 14.507812 C 155.179688 14.507812 153.941406 13.269531 153.941406 11.742188 C 153.941406 10.21875 155.179688 8.980469 156.707031 8.980469 Z M 156.707031 8.980469 "/>
<path style="fill:none;stroke-width:0.172043;stroke-linecap:butt;stroke-linejoin:miter;stroke:rgb(100%,100%,100%);stroke-opacity:1;stroke-miterlimit:4;" d="M 6.300763 1.289883 L 13.182715 1.289883 C 15.510392 1.289883 17.397802 3.177043 17.397802 5.504864 L 17.397802 12.902724 C 17.397802 15.230545 15.510392 17.117704 13.182715 17.117704 L 6.300763 17.117704 C 3.973086 17.117704 2.085676 15.230545 2.085676 12.902724 L 2.085676 5.504864 C 2.085676 3.177043 3.973086 1.289883 6.300763 1.289883 Z M 6.300763 1.289883 " transform="matrix(4.019231,0,0,4.015625,0,0)"/>
<path style="fill:none;stroke-width:0.172043;stroke-linecap:butt;stroke-linejoin:miter;stroke:rgb(100%,100%,100%);stroke-opacity:1;stroke-miterlimit:4;" d="M 6.299791 2.494163 C 7.962694 2.494163 9.310706 3.842412 9.310706 5.504864 C 9.310706 7.167315 7.962694 8.515564 6.299791 8.515564 C 4.636887 8.515564 3.288876 7.167315 3.288876 5.504864 C 3.288876 3.842412 4.636887 2.494163 6.299791 2.494163 Z M 6.299791 2.494163 " transform="matrix(4.019231,0,0,4.015625,0,0)"/>
<path style=" stroke:none;fill-rule:nonzero;fill:rgb(100%,100%,100%);fill-opacity:1;" d="M 25.320312 11.746094 C 31.046875 11.746094 35.691406 16.382812 35.691406 22.109375 C 35.691406 27.832031 31.046875 32.472656 25.320312 32.472656 C 19.589844 32.472656 14.945312 27.832031 14.945312 22.109375 C 14.945312 16.382812 19.589844 11.746094 25.320312 11.746094 Z M 25.320312 11.746094 "/>
<path style="fill:none;stroke-width:0.172043;stroke-linecap:butt;stroke-linejoin:miter;stroke:rgb(100%,100%,100%);stroke-opacity:1;stroke-miterlimit:4;" d="M 13.35474 6.279183 C 15.017644 6.279183 16.365655 7.627432 16.365655 9.289883 C 16.365655 10.953307 15.017644 12.300584 13.35474 12.300584 C 11.691836 12.300584 10.343825 10.953307 10.343825 9.289883 C 10.343825 7.627432 11.691836 6.279183 13.35474 6.279183 Z M 13.35474 6.279183 " transform="matrix(4.019231,0,0,4.015625,0,0)"/>
<path style=" stroke:none;fill-rule:nonzero;fill:rgb(100%,100%,100%);fill-opacity:1;" d="M 53.671875 26.945312 C 59.402344 26.945312 64.046875 31.585938 64.046875 37.308594 C 64.046875 43.03125 59.402344 47.671875 53.671875 47.671875 C 47.945312 47.671875 43.300781 43.03125 43.300781 37.308594 C 43.300781 31.585938 47.945312 26.945312 53.671875 26.945312 Z M 53.671875 26.945312 "/>
<path style="fill:none;stroke-width:0.172043;stroke-linecap:butt;stroke-linejoin:miter;stroke:rgb(100%,100%,100%);stroke-opacity:1;stroke-miterlimit:4;" d="M 5.783717 0.0856031 L 46.214339 0.0856031 C 48.922025 0.0856031 51.117524 2.281128 51.117524 4.9893 L 51.117524 59.0107 C 51.117524 61.718872 48.922025 63.914397 46.214339 63.914397 L 5.783717 63.914397 C 3.076032 63.914397 0.880532 61.718872 0.880532 59.0107 L 0.880532 4.9893 C 0.880532 2.281128 3.076032 0.0856031 5.783717 0.0856031 Z M 5.783717 0.0856031 " transform="matrix(4.019231,0,0,4.015625,0,0)"/>
</g>
</svg>
