<svg width="18" height="16" viewBox="0 0 18 16" fill="none" xmlns="http://www.w3.org/2000/svg">
<path d="M15.375 4.65C14.925 5.1 14.4083 5.44167 13.825 5.675C13.2417 5.90833 12.6583 6.025 12.075 6.025C11.4917 6.025 10.9167 5.9125 10.35 5.6875C9.78333 5.4625 9.275 5.11667 8.825 4.65L6.95 2.775C6.7 2.525 6.41667 2.3375 6.1 2.2125C5.78333 2.0875 5.45833 2.025 5.125 2.025C4.79167 2.025 4.46667 2.0875 4.15 2.2125C3.83333 2.3375 3.55 2.525 3.3 2.775L1.425 4.65L0 3.225L1.875 1.35C2.325 0.9 2.83333 0.5625 3.4 0.3375C3.96667 0.1125 4.54167 0 5.125 0C5.70833 0 6.27917 0.1125 6.8375 0.3375C7.39583 0.5625 7.9 0.9 8.35 1.35L10.225 3.225C10.4917 3.49167 10.7833 3.6875 11.1 3.8125C11.4167 3.9375 11.7417 4 12.075 4C12.4083 4 12.7375 3.9375 13.0625 3.8125C13.3875 3.6875 13.6833 3.49167 13.95 3.225L15.825 1.35L17.25 2.775L15.375 4.65ZM15.375 9.65C14.925 10.1 14.4125 10.4375 13.8375 10.6625C13.2625 10.8875 12.6833 11 12.1 11C11.5167 11 10.9375 10.8875 10.3625 10.6625C9.7875 10.4375 9.275 10.1 8.825 9.65L6.95 7.775C6.7 7.525 6.41667 7.3375 6.1 7.2125C5.78333 7.0875 5.45833 7.025 5.125 7.025C4.79167 7.025 4.46667 7.0875 4.15 7.2125C3.83333 7.3375 3.55 7.525 3.3 7.775L1.425 9.65L0 8.25L1.875 6.35C2.325 5.9 2.83333 5.5625 3.4 5.3375C3.96667 5.1125 4.54167 5 5.125 5C5.70833 5 6.27917 5.1125 6.8375 5.3375C7.39583 5.5625 7.9 5.9 8.35 6.35L10.225 8.225C10.4917 8.49167 10.7833 8.6875 11.1 8.8125C11.4167 8.9375 11.7417 9 12.075 9C12.4083 9 12.7375 8.9375 13.0625 8.8125C13.3875 8.6875 13.6833 8.49167 13.95 8.225L15.825 6.35L17.25 7.775L15.375 9.65ZM15.35 14.65C14.9 15.1 14.3917 15.4375 13.825 15.6625C13.2583 15.8875 12.6833 16 12.1 16C11.5167 16 10.9375 15.8875 10.3625 15.6625C9.7875 15.4375 9.275 15.1 8.825 14.65L6.925 12.775C6.675 12.525 6.39167 12.3375 6.075 12.2125C5.75833 12.0875 5.43333 12.025 5.1 12.025C4.76667 12.025 4.44167 12.0875 4.125 12.2125C3.80833 12.3375 3.525 12.525 3.275 12.775L1.4 14.65L0 13.25L1.875 11.35C2.325 10.9 2.83333 10.5625 3.4 10.3375C3.96667 10.1125 4.54167 10 5.125 10C5.70833 10 6.27917 10.1125 6.8375 10.3375C7.39583 10.5625 7.9 10.9 8.35 11.35L10.225 13.225C10.4917 13.4917 10.7875 13.6875 11.1125 13.8125C11.4375 13.9375 11.7667 14 12.1 14C12.4333 14 12.7583 13.9375 13.075 13.8125C13.3917 13.6875 13.6833 13.4917 13.95 13.225L15.825 11.35L17.225 12.775L15.35 14.65Z" fill="#027DF4"/>
</svg>
