<?xml version="1.0" encoding="UTF-8"?>
<svg xmlns="http://www.w3.org/2000/svg" xmlns:xlink="http://www.w3.org/1999/xlink" width="338px" height="200px" viewBox="0 0 337 200" version="1.1">
<defs>
<linearGradient id="linear0" gradientUnits="userSpaceOnUse" x1="59.997299" y1="19.8643" x2="59.997299" y2="56.908298" gradientTransform="matrix(3.12037,0,0,3.125,0,0)">
<stop offset="0" style="stop-color:rgb(87.058824%,91.372549%,100%);stop-opacity:1;"/>
<stop offset="1" style="stop-color:rgb(69.803922%,72.941176%,80%);stop-opacity:1;"/>
</linearGradient>
<linearGradient id="linear1" gradientUnits="userSpaceOnUse" x1="20.8416" y1="29.147499" x2="20.8416" y2="51.1455" gradientTransform="matrix(3.12037,0,0,3.125,0,0)">
<stop offset="0" style="stop-color:rgb(87.058824%,91.372549%,100%);stop-opacity:1;"/>
<stop offset="1" style="stop-color:rgb(69.803922%,72.941176%,80%);stop-opacity:1;"/>
</linearGradient>
</defs>
<g id="surface1">
<path style=" stroke:none;fill-rule:nonzero;fill:url(#linear0);" d="M 257.066406 147.4375 C 262.53125 144.847656 265.40625 145.136719 267.707031 144.847656 C 271.15625 142.929688 278.457031 137.132812 280.066406 129.300781 C 281.832031 120.722656 284.035156 107.941406 280.492188 95.613281 C 279.992188 93.871094 279.378906 92.140625 278.628906 90.429688 C 274.507812 82.949219 261.09375 66.894531 240.394531 62.5 C 163.113281 60.429688 123.835938 66.4375 113.855469 69.699219 C 110.605469 77.761719 110.417969 101.082031 110.730469 111.734375 C 111.308594 143.40625 106.996094 152.621094 104.121094 160.394531 C 101.820312 166.613281 95.113281 172.777344 92.042969 175.078125 C 107.28125 175.078125 126.542969 174.792969 132.871094 174.214844 C 135.964844 175.941406 144.957031 178.996094 156.15625 177.382812 C 166.046875 176.691406 198.226562 169.992188 213.082031 166.730469 C 221.03125 165.324219 219.851562 161.636719 222.074219 159.53125 C 222.582031 159.046875 223.273438 158.648438 224.292969 158.378906 C 231.480469 156.363281 248.097656 151.355469 257.066406 147.4375 Z M 257.066406 147.4375 "/>
<path style=" stroke:none;fill-rule:nonzero;fill:rgb(0%,0%,0%);fill-opacity:1;" d="M 202.628906 122.9375 C 202.3125 115.054688 202 112.847656 200.738281 105.277344 C 207.667969 105.277344 211.445312 104.648438 217.742188 103.703125 C 217.742188 107.484375 218.371094 116.316406 219.003906 120.414062 C 214.59375 121.046875 207.351562 121.675781 202.628906 122.9375 Z M 202.628906 122.9375 "/>
<path style="fill:none;stroke-width:0.201817;stroke-linecap:butt;stroke-linejoin:miter;stroke:rgb(100%,100%,100%);stroke-opacity:1;stroke-miterlimit:4;" d="M 16.300399 24.405 C 17.209245 23.9 18.419789 24.00125 19.833132 24.90875 C 21.245224 25.8175 25.079655 29.955 25.584152 38.22875 " transform="matrix(3.12037,0,0,3.125,0,0)"/>
<path style="fill:none;stroke-width:0.201817;stroke-linecap:butt;stroke-linejoin:miter;stroke:rgb(100%,100%,100%);stroke-opacity:1;stroke-miterlimit:4;" d="M 88.248238 47.11 C 89.055684 47.00875 91.476771 45.69625 94.403607 43.47625 C 95.506491 42.0925 96.188752 40.54375 96.56556 38.93625 C 98.714994 29.7625 94.059347 22.31875 87.339392 16.9375 C 83.709013 14.03 78.944455 11.22875 75.533151 9.87375 C 68.671736 7.15 63.82831 7.04875 48.590736 7.85625 C 33.354414 8.66375 21.043676 19.6625 17.510942 22.28625 C 17.125371 22.485 16.791126 22.69 16.501947 22.9 M 88.248238 47.11 C 87.440792 47.21 86.431797 47.11 84.515208 48.0175 C 82.597366 48.92625 74.928505 51.3475 73.010664 51.8525 C 72.652634 51.94625 72.411026 52.08625 72.23201 52.25625 M 88.248238 47.11 C 89.458782 46.43625 92.02258 44.405 92.587166 41.66 C 93.205582 38.65375 93.98048 34.175 92.736137 29.85375 M 26.593147 57.705 C 31.94107 57.705 38.702337 57.60375 40.921875 57.4025 C 41.425121 57.695 42.169974 57.98875 43.181473 58.21 M 26.593147 57.705 C 25.785701 58.0075 24.575158 58.41125 22.960265 58.41125 C 22.325575 58.41125 21.440514 58.365 20.515393 58.21 M 26.593147 57.705 C 27.669742 56.8975 30.024481 54.7375 30.830675 52.55875 C 31.840922 49.83375 33.354414 46.605 33.151614 35.505 C 33.028932 28.75125 33.205443 24.01375 34.248238 20.7725 M 37.491793 16.23125 C 41.426372 13.70875 44.959106 12.90125 57.672941 12.4975 C 70.386777 12.09375 73.717962 12.09375 74.625556 17.9475 M 37.491793 16.23125 C 41.153468 13.4025 45.120595 11.61 49.701131 11.035 C 53.926141 10.505 59.510664 10.1775 64.131259 10.1775 C 71.094075 10.1775 74.222459 11.42 78.762936 13.81 C 82.597366 15.8275 89.963279 23.19375 92.082669 28.0375 C 92.344306 28.6375 92.560877 29.24375 92.736137 29.85375 M 37.491793 16.23125 C 35.95076 17.21875 34.920484 18.68625 34.248238 20.7725 M 34.248238 20.7725 C 37.750927 19.62875 51.537602 17.5225 78.661536 18.25 C 82.191766 19.02375 89.949509 22.4275 92.736137 29.85375 M 20.515393 58.21 C 19.087027 57.97 17.561016 57.47375 16.704748 56.49375 C 15.291404 54.88 14.181009 53.16375 13.374815 52.4575 C 12.567368 51.75125 12.062871 49.43 12.062871 48.825 C 12.062871 48.22 11.428181 47.335 11.255425 45.69625 C 10.962491 42.92625 10.549379 40.04625 11.456973 37.4225 C 12.305731 34.97 11.658522 31.46875 13.273414 28.94625 C 14.711795 26.69875 14.148461 24.6125 16.501947 22.9 M 20.515393 58.21 C 20.825853 57.57 21.749722 56.05 22.960265 55.08125 C 24.473757 53.87 25.382604 46.1 26.593147 43.88 C 27.803691 41.66 27.199045 33.99125 26.08865 30.96375 C 24.978255 27.9375 24.373609 26.02 22.455768 25.31375 C 20.539178 24.6075 19.731732 22 16.501947 22.9 M 43.181473 58.21 C 44.606083 58.52125 46.557724 58.68875 49.095234 58.5125 C 52.566626 58.27 63.862111 55.9225 69.076085 54.77875 C 71.865217 54.28625 71.452105 52.9925 72.23201 52.25625 M 43.181473 58.21 C 44.413297 56.965 46.816858 55.2075 50.811526 54.57625 C 52.728116 54.27375 54.847506 54.1725 57.97589 53.77 M 72.23201 52.25625 C 71.920299 51.8525 70.791126 51.125 68.773136 51.44875 C 66.755147 51.77125 65.038854 52.12125 64.434208 52.25625 " transform="matrix(3.12037,0,0,3.125,0,0)"/>
<path style=" stroke:none;fill-rule:nonzero;fill:url(#linear1);" d="M 80.148438 125.457031 C 80.148438 106.476562 73.378906 91.085938 65.035156 91.085938 C 56.6875 91.085938 49.917969 106.476562 49.917969 125.457031 C 49.917969 144.441406 56.6875 159.828125 65.035156 159.828125 C 73.378906 159.828125 80.148438 144.441406 80.148438 125.457031 Z M 80.148438 125.457031 "/>
<path style="fill:none;stroke-width:0.201817;stroke-linecap:butt;stroke-linejoin:miter;stroke:rgb(100%,100%,100%);stroke-opacity:1;stroke-miterlimit:4;" d="M 21.346625 52.76 C 18.058003 52.76 15.392804 46.9775 15.392804 39.84375 C 15.392804 32.71 17.813891 27.02875 21.851122 27.02875 " transform="matrix(3.12037,0,0,3.125,0,0)"/>
<path style=" stroke:none;fill-rule:nonzero;fill:rgb(0%,0%,0%);fill-opacity:1;" d="M 184.054688 167.714844 C 184.054688 166.496094 183.066406 165.507812 181.851562 165.507812 C 180.632812 165.507812 179.648438 166.496094 179.648438 167.714844 C 179.648438 168.933594 180.632812 169.921875 181.851562 169.921875 C 183.066406 169.921875 184.054688 168.933594 184.054688 167.714844 Z M 184.054688 167.714844 "/>
<path style=" stroke:none;fill-rule:nonzero;fill:rgb(0%,0%,0%);fill-opacity:1;" d="M 189.722656 166.453125 C 189.722656 165.234375 188.734375 164.246094 187.519531 164.246094 C 186.300781 164.246094 185.316406 165.234375 185.316406 166.453125 C 185.316406 167.671875 186.300781 168.660156 187.519531 168.660156 C 188.734375 168.660156 189.722656 167.671875 189.722656 166.453125 Z M 189.722656 166.453125 "/>
<path style=" stroke:none;fill-rule:nonzero;fill:rgb(0%,0%,0%);fill-opacity:1;" d="M 195.390625 165.191406 C 195.390625 163.972656 194.402344 162.984375 193.1875 162.984375 C 191.96875 162.984375 190.980469 163.972656 190.980469 165.191406 C 190.980469 166.410156 191.96875 167.398438 193.1875 167.398438 C 194.402344 167.398438 195.390625 166.410156 195.390625 165.191406 Z M 195.390625 165.191406 "/>
<path style=" stroke:none;fill-rule:nonzero;fill:rgb(0%,0%,0%);fill-opacity:1;" d="M 201.058594 163.929688 C 201.058594 162.710938 200.070312 161.722656 198.855469 161.722656 C 197.636719 161.722656 196.648438 162.710938 196.648438 163.929688 C 196.648438 165.148438 197.636719 166.136719 198.855469 166.136719 C 200.070312 166.136719 201.058594 165.148438 201.058594 163.929688 Z M 201.058594 163.929688 "/>
<path style=" stroke:none;fill-rule:nonzero;fill:rgb(0%,0%,0%);fill-opacity:1;" d="M 202.652344 65.609375 C 202.558594 63.527344 196.148438 62.121094 188.328125 62.46875 C 180.511719 62.8125 174.25 64.78125 174.339844 66.863281 C 174.433594 68.949219 180.84375 70.355469 188.664062 70.007812 C 196.480469 69.660156 202.742188 67.691406 202.652344 65.609375 Z M 202.652344 65.609375 "/>
</g>
</svg>
