<svg width="143" height="123" viewBox="0 0 143 123" fill="none" xmlns="http://www.w3.org/2000/svg">
<g filter="url(#filter0_i_4952_18135)">
<rect x="2.89453" y="27.1367" width="125" height="88.0037" rx="16" transform="rotate(-8.48 2.89453 27.1367)" fill="white"/>
<rect x="3.4628" y="27.5575" width="124" height="87.0037" rx="15.5" transform="rotate(-8.48 3.4628 27.5575)" stroke="#DDDBE1"/>
<rect x="15.9414" y="33.2812" width="22" height="20" rx="4" transform="rotate(-8.48 15.9414 33.2812)" fill="url(#paint0_linear_4952_18135)"/>
<path d="M27.4102 35.6142L27.7175 37.6757C27.7703 38.0296 27.9356 38.3083 28.2134 38.5117C28.4912 38.715 28.8053 38.7906 29.1556 38.7384C29.341 38.7107 29.5078 38.646 29.6558 38.5441C29.8039 38.4422 29.9281 38.3039 30.0284 38.1293L30.2554 37.7443C31.083 38.0679 31.7765 38.5871 32.3359 39.3019C32.8954 40.0167 33.2434 40.8321 33.38 41.7483C33.588 43.1434 33.2851 44.3965 32.4713 45.5076C31.6575 46.6187 30.5603 47.2772 29.1798 47.4831C27.7992 47.6889 26.5576 47.3791 25.4551 46.5537C24.3526 45.7283 23.6973 44.6181 23.4893 43.223C23.2891 41.8799 23.5445 40.5381 24.2557 39.1975C24.9668 37.857 26.0183 36.6625 27.4102 35.6142Z" fill="white"/>
<path d="M26.1988 72.3614C25.4233 72.4771 24.6651 72.4863 23.924 72.3892C23.1815 72.2828 22.5686 72.0959 22.0851 71.8282L22.5949 70.0253C23.0543 70.2588 23.58 70.4305 24.1721 70.5404C24.7719 70.6397 25.3626 70.646 25.9442 70.5593C26.3873 70.4932 26.7365 70.3987 26.9918 70.2757C27.255 70.1421 27.4395 69.9872 27.5454 69.811C27.6512 69.6348 27.689 69.4451 27.6587 69.242C27.6202 68.9836 27.4884 68.7956 27.2632 68.6782C27.0368 68.5515 26.7505 68.4668 26.4044 68.4241C26.0569 68.3721 25.6739 68.3348 25.2553 68.3123C24.8446 68.2792 24.4265 68.2283 24.0011 68.1596C23.5849 68.0895 23.1955 67.9777 22.8329 67.8242C22.4703 67.6706 22.158 67.4435 21.8962 67.1429C21.6435 66.8408 21.4787 66.4313 21.4016 65.9144C21.319 65.3605 21.3917 64.8354 21.6197 64.339C21.8555 63.832 22.2534 63.3999 22.8136 63.0428C23.3815 62.675 24.1225 62.423 25.0364 62.2867C25.6456 62.1959 26.2567 62.1803 26.8695 62.2399C27.481 62.2903 28.0342 62.4248 28.5292 62.6435L28.0908 64.4499C27.5999 64.2589 27.1194 64.1371 26.6491 64.0845C26.1775 64.0227 25.7248 64.0242 25.2909 64.0889C24.857 64.1536 24.5092 64.2573 24.2474 64.4002C23.9856 64.543 23.8071 64.7064 23.7119 64.8905C23.6153 65.0653 23.5828 65.2589 23.6144 65.4712C23.6516 65.7205 23.7834 65.9084 24.0099 66.0351C24.235 66.1525 24.5206 66.2326 24.8667 66.2753C25.2128 66.3181 25.5912 66.356 26.0019 66.3892C26.4218 66.4209 26.8392 66.4672 27.2541 66.528C27.6781 66.5875 28.0715 66.694 28.4341 66.8475C28.7967 67.0011 29.1043 67.2289 29.3569 67.5309C29.6188 67.8316 29.7876 68.2358 29.8633 68.7435C29.9445 69.2881 29.8665 69.8093 29.6293 70.3071C29.3921 70.8048 28.9895 71.2376 28.4216 71.6054C27.8628 71.9718 27.1219 72.2238 26.1988 72.3614ZM34.536 71.0618C33.7421 71.1802 33.0111 71.1193 32.3431 70.8792C31.6843 70.6377 31.1322 70.2576 30.6868 69.7389C30.2493 69.2097 29.9755 68.5758 29.8654 67.8373C29.7539 67.0895 29.8309 66.4034 30.0964 65.7787C30.3697 65.1435 30.7869 64.6189 31.348 64.2049C31.9169 63.7804 32.5984 63.5089 33.3922 63.3906C34.1769 63.2736 34.9033 63.3352 35.5713 63.5753C36.238 63.8061 36.7894 64.1816 37.2255 64.7016C37.6616 65.2217 37.9361 65.8602 38.049 66.6172C38.1591 67.3557 38.0821 68.0418 37.818 68.6757C37.5525 69.3004 37.1353 69.825 36.5664 70.2495C35.9974 70.674 35.3206 70.9448 34.536 71.0618ZM34.2717 69.2894C34.6317 69.2357 34.9425 69.1044 35.2038 68.8956C35.4652 68.6868 35.6563 68.4177 35.7771 68.0883C35.8964 67.7496 35.9245 67.368 35.8611 66.9433C35.7965 66.5095 35.6583 66.1526 35.4467 65.8728C35.2352 65.5929 34.9739 65.3912 34.663 65.2677C34.352 65.1442 34.0165 65.1093 33.6565 65.163C33.2965 65.2167 32.9858 65.3479 32.7244 65.5568C32.463 65.7656 32.2673 66.0354 32.1373 66.3662C32.0166 66.6956 31.9885 67.0772 32.0532 67.5111C32.1165 67.9357 32.2547 68.2926 32.4676 68.5817C32.6885 68.8602 32.9543 69.0612 33.2653 69.1846C33.5762 69.3081 33.9117 69.3431 34.2717 69.2894ZM42.7566 61.9944C43.3474 61.9063 43.8914 61.9479 44.3888 62.1191C44.894 62.2797 45.3169 62.5846 45.6576 63.034C45.9969 63.4741 46.2229 64.0726 46.3358 64.8296L46.9717 69.0945L44.8115 69.4165L44.2252 65.484C44.1358 64.884 43.9358 64.4608 43.6255 64.2146C43.3243 63.9669 42.9337 63.8789 42.4537 63.9505C42.1121 64.0014 41.8139 64.1213 41.559 64.3103C41.3119 64.4887 41.132 64.7373 41.0191 65.0561C40.9154 65.3735 40.898 65.763 40.9668 66.2246L41.516 69.9079L39.3558 70.2299L38.2451 62.7803L40.3083 62.4727L40.6159 64.5359L40.1353 63.9706C40.3287 63.4322 40.6547 62.9919 41.1133 62.6499C41.5718 62.3079 42.1196 62.0894 42.7566 61.9944ZM48.2373 68.9058L47.1266 61.4561L49.2868 61.134L50.3975 68.5837L48.2373 68.9058ZM48.0519 60.2565C47.6549 60.3157 47.3146 60.2485 47.031 60.0549C46.7473 59.8613 46.58 59.5937 46.5291 59.2521C46.4782 58.9106 46.5601 58.6058 46.775 58.3379C46.9898 58.0699 47.2957 57.9064 47.6926 57.8472C48.0896 57.788 48.4292 57.8506 48.7115 58.035C48.9924 58.2102 49.1583 58.4685 49.2092 58.8101C49.2629 59.1701 49.183 59.4887 48.9695 59.7659C48.7639 60.0324 48.458 60.196 48.0519 60.2565ZM55.3266 67.962C54.5235 68.0818 53.784 68.0269 53.1081 67.7974C52.4308 67.5586 51.8688 67.1753 51.4221 66.6474C50.9846 66.1182 50.7108 65.4843 50.6007 64.7458C50.4892 63.998 50.5662 63.3118 50.8316 62.6872C51.1049 62.052 51.5314 61.526 52.1109 61.1093C52.6891 60.6834 53.3798 60.4106 54.1829 60.2908C54.9676 60.1738 55.6754 60.2381 56.3066 60.4838C56.9363 60.7201 57.4351 61.1223 57.8028 61.6903L56.2616 62.8402C56.0154 62.5183 55.7322 62.2963 55.4121 62.1742C55.1011 62.0507 54.7749 62.0144 54.4333 62.0653C54.064 62.1203 53.7441 62.253 53.4735 62.4632C53.2029 62.6734 53.0026 62.9439 52.8726 63.2747C52.7518 63.6041 52.7238 63.9857 52.7885 64.4196C52.8532 64.8535 52.9913 65.2103 53.2029 65.4902C53.4237 65.7687 53.6942 65.969 54.0144 66.0911C54.3346 66.2132 54.6793 66.2467 55.0485 66.1917C55.3901 66.1408 55.6922 66.0155 55.955 65.8159C56.2256 65.6057 56.431 65.3061 56.5712 64.9172L58.383 65.5813C58.1955 66.2226 57.8357 66.7528 57.3037 67.1718C56.7703 67.5816 56.1113 67.845 55.3266 67.962ZM59.3509 67.2488L57.9058 57.5559L62.1014 56.9304C62.9691 56.801 63.7382 56.8326 64.4086 57.0252C65.0776 57.2085 65.6221 57.5378 66.0421 58.0131C66.4622 58.4884 66.7265 59.0906 66.8353 59.8199C66.9426 60.5399 66.8647 61.1885 66.6016 61.7656C66.3385 62.3427 65.9144 62.8212 65.3294 63.2009C64.7429 63.5715 64.0158 63.8214 63.1481 63.9508L60.1987 64.3905L61.045 63.2311L61.5941 66.9143L59.3509 67.2488ZM61.0821 63.4803L59.9262 62.5627L62.751 62.1416C63.4433 62.0383 63.9382 61.8136 64.2358 61.4672C64.5333 61.1209 64.6428 60.6847 64.5644 60.1585C64.4845 59.6231 64.2518 59.2331 63.8662 58.9886C63.4806 58.7442 62.9416 58.6735 62.2493 58.7768L59.4245 59.1979L60.2625 57.9831L61.0821 63.4803ZM71.8078 65.5048C71.1893 65.597 70.6176 65.5596 70.0925 65.3925C69.5767 65.224 69.1485 64.9152 68.8078 64.4658C68.4658 64.0072 68.2377 63.3948 68.1234 62.6286L67.4958 58.4192L69.6559 58.0971L70.2361 61.9881C70.3283 62.6066 70.5257 63.0443 70.8282 63.3011C71.1385 63.5474 71.5337 63.6347 72.0138 63.5632C72.3461 63.5136 72.6312 63.4004 72.869 63.2233C73.1055 63.0371 73.2755 62.7853 73.3792 62.4679C73.4815 62.1412 73.4989 61.7517 73.4314 61.2994L72.8823 57.6161L75.0424 57.294L76.1531 64.7437L74.1038 65.0492L73.7982 62.9999L74.2609 63.5396C74.0887 64.0937 73.7779 64.5411 73.3286 64.8817C72.8871 65.2118 72.3802 65.4194 71.8078 65.5048ZM77.462 64.5485L75.9301 54.2741L78.0902 53.952L79.6221 64.2265L77.462 64.5485ZM83.4573 63.7679C82.8204 63.8629 82.1955 63.8805 81.5827 63.8209C80.9777 63.7507 80.4872 63.6257 80.1113 63.4458L80.6001 61.7876C80.9733 61.949 81.401 62.0645 81.8832 62.1342C82.3733 62.1932 82.8445 62.189 83.2968 62.1216C83.7953 62.0473 84.1371 61.9349 84.3223 61.7847C84.5168 61.633 84.5982 61.451 84.5665 61.2387C84.5403 61.0633 84.438 60.9464 84.2594 60.8881C84.0888 60.8192 83.8661 60.7816 83.5915 60.7754C83.3169 60.7692 83.0146 60.767 82.6847 60.7691C82.3639 60.7697 82.0365 60.7572 81.7024 60.7315C81.3669 60.6966 81.0536 60.6206 80.7625 60.5036C80.4714 60.3866 80.2228 60.2066 80.0167 59.9637C79.8199 59.7194 79.6898 59.3849 79.6265 58.9603C79.5563 58.4895 79.6282 58.0541 79.8423 57.6542C80.0655 57.2528 80.4205 56.9121 80.9072 56.6319C81.3925 56.3426 81.9951 56.1442 82.7152 56.0368C83.2229 55.9611 83.7481 55.9394 84.2908 55.9718C84.8335 56.0041 85.2961 56.1003 85.6785 56.2603L85.1876 57.9046C84.796 57.746 84.41 57.6573 84.0297 57.6385C83.6573 57.6091 83.3003 57.6198 82.9588 57.6708C82.4788 57.7423 82.1376 57.8593 81.9353 58.0215C81.733 58.1838 81.647 58.3665 81.6773 58.5696C81.7048 58.7542 81.8039 58.881 81.9746 58.9499C82.1546 59.0174 82.3825 59.0589 82.6585 59.0744C82.9344 59.0899 83.2328 59.0973 83.5535 59.0966C83.8821 59.0854 84.2142 59.0972 84.5497 59.1321C84.8852 59.167 85.1938 59.2437 85.4757 59.3621C85.7654 59.4699 86.0133 59.6452 86.2194 59.8882C86.4241 60.1219 86.5581 60.4511 86.6214 60.8757C86.6903 61.3373 86.613 61.7687 86.3898 62.17C86.1651 62.5621 85.8049 62.8989 85.309 63.1804C84.8223 63.4606 84.2051 63.6564 83.4573 63.7679ZM91.312 62.5968C90.4627 62.7234 89.6902 62.6688 88.9945 62.4328C88.308 62.1954 87.7467 61.8167 87.3105 61.2967C86.873 60.7674 86.5992 60.1335 86.4891 59.395C86.3777 58.6473 86.45 57.9618 86.7062 57.3385C86.9703 56.7046 87.3783 56.1814 87.9302 55.7689C88.4807 55.3471 89.1344 55.0798 89.8913 54.9669C90.6206 54.8582 91.2994 54.9174 91.9278 55.1445C92.564 55.3611 93.0963 55.7347 93.5245 56.2653C93.9514 56.7867 94.2247 57.449 94.3445 58.2521C94.3569 58.3352 94.3667 58.4328 94.374 58.545C94.3799 58.6479 94.3851 58.7462 94.3897 58.8399L88.3385 59.7421L88.1507 58.482L93.0663 57.7491L92.2913 58.2469C92.2335 57.8591 92.1047 57.5339 91.9051 57.2711C91.7056 57.0084 91.4556 56.8191 91.1552 56.7035C90.8535 56.5786 90.5181 56.5437 90.1488 56.5988C89.7795 56.6538 89.4642 56.7858 89.2028 56.9946C88.9493 57.1928 88.7661 57.4513 88.6532 57.7701C88.5389 58.0797 88.5114 58.433 88.5706 58.8299L88.6201 59.1622C88.6807 59.5684 88.822 59.9153 89.0442 60.2031C89.2743 60.4802 89.5632 60.6777 89.9111 60.7957C90.2668 60.9031 90.6662 60.9238 91.1093 60.8577C91.5063 60.7985 91.8435 60.6869 92.121 60.5228C92.4078 60.3574 92.6579 60.1361 92.8713 59.8589L94.2064 60.9338C93.9227 61.3724 93.5381 61.7365 93.0529 62.0259C92.5662 62.306 91.9859 62.4963 91.312 62.5968ZM99.8819 57.1718L99.0251 51.4253L100.299 51.2353L103.522 54.8172L102.858 54.9162L104.841 50.5582L106.101 50.3703L106.985 56.1127L105.531 56.3294L104.973 52.6759L105.222 52.6387L103.684 55.9962L102.992 56.0994L100.472 53.3469L100.791 53.2994L101.336 56.955L99.8819 57.1718ZM95.6447 57.8035L94.9655 53.2478L93.0131 53.5389L92.8356 52.3481L98.3051 51.5326L98.4826 52.7235L96.5164 53.0166L97.1956 57.5723L95.6447 57.8035ZM29.7172 85.9916C28.9694 86.1031 28.2546 86.087 27.5726 85.9433C26.8985 85.7891 26.2923 85.5208 25.7541 85.1387C25.2158 84.7566 24.7674 84.2808 24.4089 83.7115C24.0596 83.1407 23.8306 82.4907 23.7218 81.7615C23.6131 81.0322 23.6426 80.3437 23.8102 79.6958C23.9871 79.0467 24.2772 78.4608 24.6805 77.9383C25.0931 77.4144 25.6 76.9849 26.2012 76.65C26.801 76.3058 27.4794 76.0772 28.2363 75.9644C29.0764 75.8391 29.8554 75.874 30.5733 76.0689C31.2991 76.2532 31.9347 76.5925 32.4802 77.0868L31.2384 78.6308C30.8496 78.3019 30.4384 78.0754 30.0047 77.9513C29.5696 77.818 29.112 77.7872 28.632 77.8587C28.1797 77.9262 27.7753 78.0619 27.4188 78.2661C27.0623 78.4702 26.7663 78.7314 26.5306 79.0496C26.295 79.3678 26.1269 79.7279 26.0264 80.1298C25.9351 80.5303 25.9239 80.9613 25.9927 81.4229C26.0616 81.8844 26.198 82.2935 26.4022 82.6499C26.6155 83.005 26.8813 83.3004 27.1995 83.536C27.5178 83.7717 27.8771 83.9351 28.2776 84.0264C28.6781 84.1177 29.1046 84.1296 29.5569 84.0622C30.0369 83.9906 30.4663 83.8322 30.8449 83.587C31.2222 83.3326 31.5481 82.9868 31.8226 82.5495L33.4609 83.6641C33.0833 84.296 32.5749 84.8106 31.9359 85.2079C31.306 85.6037 30.5665 85.865 29.7172 85.9916ZM34.3643 85.1289L32.8325 74.8545L34.9926 74.5324L36.5245 84.8068L34.3643 85.1289ZM41.5505 84.1707C40.7013 84.2973 39.9288 84.2426 39.233 84.0067C38.5465 83.7693 37.9852 83.3906 37.5491 82.8706C37.1116 82.3413 36.8378 81.7074 36.7277 80.9689C36.6162 80.2212 36.6886 79.5357 36.9448 78.9124C37.2089 78.2785 37.6168 77.7553 38.1687 77.3428C38.7192 76.921 39.3729 76.6536 40.1299 76.5408C40.8591 76.4321 41.538 76.4913 42.1663 76.7184C42.8026 76.935 43.3348 77.3086 43.7631 77.8392C44.19 78.3606 44.4633 79.0229 44.583 79.826C44.5954 79.9091 44.6052 80.0067 44.6125 80.1189C44.6184 80.2218 44.6236 80.3201 44.6282 80.4138L38.5771 81.316L38.3892 80.0559L43.3049 79.323L42.5298 79.8207C42.472 79.433 42.3433 79.1078 42.1437 78.845C41.9441 78.5822 41.6941 78.393 41.3938 78.2774C41.0921 78.1525 40.7566 78.1176 40.3873 78.1727C40.0181 78.2277 39.7028 78.3597 39.4414 78.5685C39.1878 78.7667 39.0046 79.0252 38.8917 79.344C38.7774 79.6536 38.7499 80.0068 38.8091 80.4038L38.8586 80.7361C38.9192 81.1423 39.0606 81.4892 39.2828 81.777C39.5128 82.0541 39.8018 82.2516 40.1496 82.3696C40.5054 82.477 40.9048 82.4976 41.3479 82.4316C41.7448 82.3724 42.082 82.2608 42.3596 82.0967C42.6463 81.9313 42.8964 81.71 43.1099 81.4328L44.445 82.5077C44.1612 82.9463 43.7767 83.3104 43.2914 83.5998C42.8047 83.8799 42.2244 84.0702 41.5505 84.1707ZM50.2467 82.7609L50.0299 81.307L49.844 81.0092L49.4558 78.4059C49.387 77.9444 49.1902 77.6057 48.8655 77.3899C48.5501 77.1727 48.1015 77.1074 47.52 77.1942C47.123 77.2533 46.7403 77.3765 46.3719 77.5635C46.0113 77.7399 45.713 77.9543 45.4769 78.2065L44.4765 76.8128C44.84 76.4661 45.2962 76.1716 45.8451 75.9293C46.3941 75.687 46.964 75.5219 47.5548 75.4338C48.6902 75.2645 49.6117 75.4008 50.3193 75.8426C51.0268 76.2844 51.4652 77.073 51.6345 78.2085L52.2683 82.4595L50.2467 82.7609ZM47.9923 83.2103C47.4107 83.297 46.8978 83.2744 46.4535 83.1425C46.0078 83.0013 45.6487 82.7765 45.3762 82.4679C45.1037 82.1594 44.9359 81.7928 44.8725 81.3682C44.8065 80.9251 44.8548 80.5215 45.0176 80.1576C45.1896 79.7922 45.4972 79.4821 45.9405 79.2273C46.3824 78.9632 46.9818 78.7748 47.7388 78.6619L49.7189 78.3667L49.9068 79.6268L48.1621 79.8869C47.6543 79.9626 47.3159 80.098 47.1469 80.2931C46.987 80.4867 46.9257 80.7082 46.9628 80.9575C47.0041 81.2344 47.1433 81.4401 47.3804 81.5746C47.6254 81.6985 47.9371 81.7323 48.3156 81.6758C48.6756 81.6222 48.9863 81.4909 49.2477 81.2821C49.5077 81.064 49.6776 80.7792 49.7572 80.4276L50.2382 81.375C50.1528 81.8784 49.921 82.2857 49.5428 82.5969C49.1645 82.9081 48.6477 83.1126 47.9923 83.2103ZM56.9317 74.0357C57.5225 73.9476 58.0666 73.9892 58.564 74.1604C59.0692 74.321 59.4921 74.626 59.8327 75.0753C60.172 75.5154 60.3981 76.114 60.511 76.8709L61.1468 81.1358L58.9867 81.4578L58.4004 77.5253C58.3109 76.9253 58.111 76.5021 57.8006 76.2559C57.4995 76.0082 57.1089 75.9202 56.6289 75.9918C56.2873 76.0427 55.9891 76.1627 55.7342 76.3516C55.4871 76.53 55.3071 76.7786 55.1942 77.0974C55.0906 77.4148 55.0731 77.8043 55.142 78.2659L55.6911 81.9492L53.531 82.2713L52.4203 74.8216L54.4835 74.514L54.7911 76.5772L54.3105 76.0119C54.5039 75.4735 54.8299 75.0333 55.2884 74.6912C55.747 74.3492 56.2948 74.1307 56.9317 74.0357ZM65.8132 72.7115C66.4041 72.6235 66.9481 72.665 67.4455 72.8362C67.9507 72.9968 68.3736 73.3018 68.7143 73.7511C69.0535 74.1912 69.2796 74.7898 69.3925 75.5467L70.0283 79.8116L67.8682 80.1337L67.2819 76.2011C67.1924 75.6011 66.9925 75.1779 66.6821 74.9317C66.381 74.6841 65.9904 74.596 65.5104 74.6676C65.1688 74.7185 64.8706 74.8385 64.6157 75.0275C64.3686 75.2058 64.1886 75.4544 64.0757 75.7732C63.9721 76.0907 63.9547 76.4802 64.0235 76.9417L64.5726 80.625L62.4125 80.9471L61.3018 73.4974L63.365 73.1898L63.6726 75.253L63.192 74.6877C63.3854 74.1493 63.7114 73.7091 64.1699 73.367C64.6285 73.025 65.1763 72.8065 65.8132 72.7115ZM75.8635 78.9416L75.6467 77.4877L75.4608 77.1898L75.0727 74.5866C75.0039 74.125 74.8071 73.7864 74.4824 73.5706C74.1669 73.3534 73.7184 73.2881 73.1368 73.3748C72.7399 73.434 72.3572 73.5571 71.9887 73.7442C71.6281 73.9206 71.3298 74.1349 71.0938 74.3872L70.0933 72.9935C70.4568 72.6467 70.913 72.3523 71.462 72.11C72.0109 71.8677 72.5808 71.7025 73.1716 71.6145C74.307 71.4452 75.2286 71.5814 75.9361 72.0233C76.6437 72.4651 77.0821 73.2537 77.2514 74.3892L77.8852 78.6402L75.8635 78.9416ZM73.6091 79.391C73.0276 79.4777 72.5146 79.4551 72.0703 79.3231C71.6246 79.182 71.2655 78.9571 70.9931 78.6486C70.7206 78.3401 70.5527 77.9735 70.4894 77.5489C70.4233 77.1058 70.4717 76.7022 70.6345 76.3382C70.8065 75.9729 71.1141 75.6628 71.5574 75.408C71.9993 75.1439 72.5987 74.9555 73.3556 74.8426L75.3358 74.5474L75.5236 75.8075L73.7789 76.0676C73.2712 76.1433 72.9328 76.2787 72.7637 76.4737C72.6039 76.6674 72.5425 76.8889 72.5797 77.1381C72.621 77.4151 72.7602 77.6208 72.9972 77.7553C73.2422 77.8792 73.5539 77.9129 73.9324 77.8565C74.2924 77.8028 74.6031 77.6716 74.8645 77.4628C75.1245 77.2447 75.2944 76.9599 75.3741 76.6083L75.8551 77.5557C75.7697 78.0591 75.5379 78.4664 75.1596 78.7776C74.7814 79.0888 74.2646 79.2932 73.6091 79.391ZM87.5612 69.4691C88.152 69.381 88.6914 69.4232 89.1796 69.5958C89.6755 69.7578 90.0892 70.0641 90.4206 70.5148C90.7599 70.9549 90.986 71.5535 91.0988 72.3104L91.7347 76.5753L89.5746 76.8974L88.9883 72.9648C88.8988 72.3648 88.7081 71.9403 88.4162 71.6913C88.1243 71.4423 87.7522 71.3515 87.2998 71.4189C86.986 71.4657 86.7154 71.5815 86.4882 71.7664C86.2596 71.942 86.0974 72.1833 86.0016 72.4901C85.9058 72.7969 85.8909 73.1718 85.957 73.6149L86.5144 77.3536L84.3543 77.6757L83.768 73.7431C83.6785 73.1431 83.4878 72.7186 83.1959 72.4696C82.9132 72.2192 82.5457 72.1277 82.0934 72.1952C81.7795 72.242 81.509 72.3578 81.2818 72.5426C81.0532 72.7183 80.891 72.9595 80.7952 73.2663C80.6994 73.5731 80.6845 73.9481 80.7506 74.3912L81.308 78.1299L79.1478 78.4519L78.0371 71.0023L80.1003 70.6947L80.4038 72.7302L79.9273 72.1926C80.1101 71.6463 80.4176 71.2088 80.8499 70.8802C81.29 70.5409 81.8147 70.3258 82.424 70.235C83.1071 70.1331 83.7286 70.2198 84.2887 70.4949C84.8565 70.7593 85.2765 71.2346 85.5487 71.9206L84.7561 71.8265C84.9187 71.2077 85.2468 70.687 85.7405 70.2642C86.2435 69.8401 86.8504 69.575 87.5612 69.4691ZM92.9786 76.3899L91.8679 68.9402L94.028 68.6181L95.1387 76.0678L92.9786 76.3899ZM92.7931 67.7406C92.3961 67.7998 92.0558 67.7326 91.7722 67.539C91.4885 67.3454 91.3212 67.0778 91.2703 66.7362C91.2194 66.3947 91.3014 66.0899 91.5162 65.822C91.731 65.554 92.0369 65.3905 92.4339 65.3313C92.8308 65.2721 93.1704 65.3347 93.4527 65.5191C93.7336 65.6942 93.8995 65.9526 93.9504 66.2942C94.0041 66.6542 93.9242 66.9728 93.7108 67.25C93.5052 67.5165 93.1993 67.6801 92.7931 67.7406ZM100.068 75.4461C99.2647 75.5659 98.5252 75.511 97.8493 75.2815C97.172 75.0427 96.61 74.6594 96.1633 74.1315C95.7258 73.6023 95.452 72.9684 95.3419 72.2299C95.2304 71.4821 95.3074 70.7959 95.5728 70.1713C95.8462 69.5361 96.2726 69.0101 96.8521 68.5934C97.4303 68.1675 98.121 67.8947 98.9241 67.7749C99.7088 67.6579 100.417 67.7222 101.048 67.9679C101.678 68.2042 102.176 68.6064 102.544 69.1744L101.003 70.3243C100.757 70.0024 100.473 69.7804 100.153 69.6582C99.8423 69.5347 99.5161 69.4985 99.1745 69.5494C98.8053 69.6044 98.4853 69.7371 98.2147 69.9473C97.9441 70.1575 97.7438 70.428 97.6138 70.7588C97.493 71.0882 97.465 71.4698 97.5297 71.9037C97.5944 72.3375 97.7325 72.6944 97.9441 72.9743C98.1649 73.2528 98.4354 73.4531 98.7556 73.5752C99.0758 73.6973 99.4205 73.7308 99.7897 73.6758C100.131 73.6249 100.433 73.4996 100.696 73.3C100.967 73.0898 101.172 72.7902 101.312 72.4013L103.124 73.0654C102.937 73.7067 102.577 74.2369 102.045 74.6559C101.512 75.0657 100.852 75.3291 100.068 75.4461Z" fill="black"/>
<rect x="24.4961" y="90.6484" width="59" height="14" rx="7" transform="rotate(-8.48363 24.4961 90.6484)" fill="#027DF4" fill-opacity="0.08"/>
<path d="M30.6024 99.8468L29.7709 94.2717L31.1076 94.0723L33.2577 97.9223L33.3273 97.9119L34.2564 93.6027L35.5932 93.4033L36.4247 98.9783L35.3854 99.1333L34.8195 95.3394L34.2439 95.4252L35.114 93.6327L33.8787 99.3581L33.1485 99.467L30.3 94.3508L31.6515 95.8119L31.0758 95.8978L31.6417 99.6918L30.6024 99.8468ZM39.3339 98.6352C38.8986 98.7002 38.5108 98.6685 38.1704 98.5402C37.8297 98.4094 37.551 98.1916 37.3344 97.8869C37.1175 97.5796 36.9746 97.1954 36.9058 96.7344L36.9047 96.7266C36.8363 96.2682 36.8625 95.8614 36.9833 95.5064C37.1041 95.1513 37.3071 94.8617 37.5923 94.6375C37.8796 94.4103 38.2396 94.2645 38.6723 94.1999C39.1051 94.1354 39.4905 94.1687 39.8287 94.3C40.1694 94.4308 40.4496 94.6497 40.6691 94.9566C40.8883 95.2609 41.0321 95.6423 41.1004 96.1008L41.1016 96.1085C41.1704 96.5696 41.1458 96.9787 41.028 97.3359C40.9097 97.6906 40.7067 97.9802 40.419 98.2048C40.1335 98.4264 39.7718 98.5699 39.3339 98.6352ZM39.2019 97.7505C39.4028 97.7205 39.565 97.6424 39.6883 97.516C39.8116 97.3897 39.8959 97.2218 39.941 97.0123C39.9861 96.8028 39.9879 96.559 39.9464 96.2808L39.9453 96.2731C39.9038 95.9949 39.8311 95.7635 39.7272 95.5789C39.6229 95.3917 39.4921 95.2559 39.3346 95.1714C39.1794 95.084 39.0026 95.0551 38.8043 95.0847C38.606 95.1142 38.4441 95.1937 38.3185 95.323C38.1952 95.4494 38.111 95.6173 38.0659 95.8267C38.0204 96.0336 38.0184 96.2762 38.0599 96.5543L38.061 96.5621C38.1029 96.8428 38.1747 97.077 38.2764 97.2645C38.3807 97.4517 38.5102 97.5877 38.665 97.6726C38.8221 97.7545 39.001 97.7805 39.2019 97.7505ZM43.8062 97.9682C43.4198 98.0258 43.0822 98.0222 42.7935 97.9573C42.5069 97.8894 42.2723 97.773 42.0897 97.6081C41.9097 97.4427 41.7888 97.2409 41.7269 97.0026L41.7207 96.9877L42.8296 96.8223L42.8396 96.8366C42.9055 96.9611 43.0093 97.0562 43.1507 97.122C43.2948 97.1874 43.4775 97.2036 43.699 97.1705C43.8433 97.149 43.9666 97.1109 44.069 97.0561C44.171 96.9988 44.2478 96.9307 44.2992 96.852C44.3507 96.7732 44.3695 96.6874 44.3556 96.5947L44.3545 96.587C44.3376 96.4737 44.2772 96.3866 44.1733 96.3257C44.0695 96.2648 43.9057 96.2261 43.6821 96.2094L42.9487 96.1648C42.6698 96.1484 42.4321 96.0996 42.2357 96.0183C42.0389 95.9345 41.8835 95.8194 41.7695 95.6732C41.6581 95.5266 41.5867 95.3476 41.5552 95.1364L41.5546 95.1326C41.5146 94.8647 41.5533 94.6207 41.6705 94.4004C41.7899 94.1772 41.974 93.9905 42.2228 93.8402C42.4742 93.6895 42.7763 93.5878 43.1291 93.5352C43.5 93.4798 43.824 93.4894 44.1011 93.564C44.3777 93.6359 44.5996 93.7555 44.7667 93.9228C44.9361 94.0871 45.0456 94.2827 45.0952 94.5097L45.0975 94.5251L44.0505 94.6813L44.0437 94.6626C43.9956 94.5513 43.9031 94.4611 43.7664 94.3919C43.6293 94.3202 43.4552 94.3001 43.244 94.3316C43.1152 94.3508 43.0035 94.3872 42.9088 94.4409C42.8141 94.4945 42.7423 94.5605 42.6934 94.6388C42.6472 94.7168 42.6311 94.8035 42.6453 94.8988L42.6459 94.9027C42.657 94.9774 42.6862 95.0401 42.7332 95.0911C42.7803 95.142 42.8507 95.1815 42.9445 95.2096C43.0382 95.2378 43.1609 95.2576 43.3127 95.2692L44.0422 95.3144C44.4811 95.3438 44.816 95.436 45.0472 95.5911C45.2783 95.7462 45.4173 95.9809 45.4642 96.2951L45.4648 96.299C45.5066 96.5797 45.4633 96.8363 45.3347 97.0687C45.2062 97.3012 45.0101 97.4963 44.7467 97.6541C44.4828 97.8093 44.1693 97.914 43.8062 97.9682ZM48.0897 97.2542C47.5746 97.331 47.1902 97.2962 46.9367 97.1497C46.6828 97.0006 46.5251 96.7201 46.4636 96.3079L46.127 94.0517L45.4702 94.1496L45.3435 93.2997L46.0003 93.2017L45.8487 92.1856L46.9884 92.0156L47.14 93.0317L48.017 92.9009L48.1438 93.7508L47.2668 93.8817L47.5647 95.8791C47.5931 96.0697 47.6566 96.2037 47.755 96.2812C47.8557 96.3557 48.0013 96.3787 48.1919 96.3503C48.264 96.3396 48.323 96.3294 48.369 96.3199C48.4172 96.3075 48.4679 96.2947 48.5213 96.2814L48.6463 97.1198C48.5787 97.1431 48.4967 97.1671 48.4004 97.192C48.304 97.217 48.2005 97.2377 48.0897 97.2542ZM51.5887 94.9195L51.4527 94.0077L52.8822 93.7945C53.2171 93.7445 53.4645 93.6207 53.6246 93.4231C53.7869 93.2224 53.8444 92.9637 53.7972 92.6469L53.796 92.6392C53.7488 92.3224 53.6184 92.093 53.4051 91.9511C53.1943 91.8087 52.9214 91.7625 52.5866 91.8125L51.1571 92.0257L51.0194 91.1023L52.7348 90.8465C53.1263 90.7881 53.4807 90.8168 53.7982 90.9327C54.1153 91.046 54.3762 91.2335 54.5812 91.4952C54.7886 91.7565 54.9208 92.0778 54.9777 92.459L54.9788 92.4667C55.0361 92.8505 55.0036 93.1976 54.8814 93.5081C54.7618 93.8182 54.5669 94.0737 54.2967 94.2746C54.0265 94.4756 53.6956 94.6052 53.3041 94.6636L51.5887 94.9195ZM51.2676 96.7644L50.436 91.1893L51.6028 91.0153L52.4343 96.5903L51.2676 96.7644ZM58.0364 95.8456C57.6011 95.9105 57.2133 95.8788 56.8729 95.7506C56.5322 95.6197 56.2535 95.4019 56.0369 95.0972C55.8199 94.7899 55.6771 94.4058 55.6083 93.9447L55.6071 93.937C55.5388 93.4785 55.565 93.0718 55.6858 92.7167C55.8066 92.3617 56.0096 92.0721 56.2947 91.8478C56.5821 91.6207 56.9421 91.4748 57.3748 91.4103C57.8075 91.3457 58.193 91.3791 58.5311 91.5103C58.8719 91.6412 59.152 91.86 59.3716 92.167C59.5907 92.4713 59.7345 92.8527 59.8029 93.3112L59.8041 93.3189C59.8728 93.7799 59.8483 94.1891 59.7304 94.5463C59.6122 94.901 59.4092 95.1906 59.1215 95.4152C58.8359 95.6368 58.4742 95.7803 58.0364 95.8456ZM57.9044 94.9608C58.1053 94.9309 58.2674 94.8527 58.3908 94.7264C58.5141 94.6 58.5983 94.4321 58.6434 94.2226C58.6886 94.0132 58.6904 93.7694 58.6489 93.4912L58.6477 93.4835C58.6062 93.2053 58.5335 92.9739 58.4296 92.7893C58.3254 92.6021 58.1945 92.4663 58.0371 92.3818C57.8819 92.2944 57.7051 92.2654 57.5068 92.295C57.3085 92.3246 57.1465 92.4041 57.021 92.5334C56.8977 92.6597 56.8134 92.8276 56.7683 93.0371C56.7228 93.244 56.7208 93.4865 56.7623 93.7647L56.7635 93.7724C56.8054 94.0532 56.8771 94.2873 56.9788 94.4749C57.0831 94.6621 57.2127 94.7981 57.3675 94.883C57.5245 94.9648 57.7035 94.9908 57.9044 94.9608ZM61.0135 96.7522L60.1687 91.0883L61.2968 90.9201L61.3948 91.5769L61.4643 91.5665C61.5164 91.4034 61.5948 91.2587 61.6997 91.1325C61.8072 91.0059 61.9392 90.9019 62.0956 90.8207C62.2516 90.7368 62.43 90.6799 62.6309 90.65C62.9864 90.597 63.3061 90.6401 63.5902 90.7794C63.8743 90.9187 64.1103 91.1415 64.2982 91.4479C64.4882 91.7513 64.6171 92.1297 64.6847 92.583L64.6858 92.5907C64.7538 93.0466 64.7427 93.4485 64.6524 93.7963C64.5621 94.1442 64.4012 94.4249 64.1698 94.6385C63.9383 94.852 63.6436 94.9855 63.2856 95.0389C63.0898 95.0681 62.9038 95.0656 62.7276 95.0313C62.5535 94.9941 62.3951 94.9295 62.2524 94.8376C62.1122 94.7453 61.9946 94.6272 61.8994 94.4834L61.8299 94.4938L62.1416 96.584L61.0135 96.7522ZM62.7598 94.1616C62.9607 94.1316 63.1245 94.0558 63.2512 93.9343C63.3804 93.8123 63.4696 93.6515 63.5189 93.452C63.5707 93.2521 63.5772 93.022 63.5384 92.7619L63.5372 92.7541C63.4984 92.494 63.4251 92.2759 63.3172 92.0998C63.2119 91.9233 63.0796 91.7955 62.9204 91.7166C62.7637 91.6373 62.585 91.6126 62.3841 91.6426C62.1857 91.6722 62.0206 91.7481 61.8888 91.8705C61.7596 91.9924 61.669 92.1534 61.6172 92.3533C61.5676 92.5503 61.5624 92.7801 61.6016 93.0429L61.6028 93.0506C61.6412 93.3082 61.7145 93.5263 61.8228 93.705C61.9307 93.8811 62.0642 94.0086 62.2235 94.0876C62.3853 94.1661 62.564 94.1908 62.7598 94.1616ZM67.1084 94.4924C66.7916 94.5397 66.5158 94.5176 66.281 94.4263C66.0487 94.3345 65.8609 94.1782 65.7173 93.9574C65.5734 93.734 65.4763 93.4536 65.426 93.1162L65.0157 90.3654L66.1438 90.1971L66.5155 92.6891C66.5605 92.9904 66.6537 93.2095 66.7952 93.3464C66.9393 93.4829 67.1453 93.5311 67.4132 93.4912C67.5523 93.4704 67.6714 93.4303 67.7704 93.3708C67.8717 93.3083 67.9523 93.2304 68.0121 93.1372C68.0719 93.0441 68.1112 92.9368 68.13 92.8155C68.1509 92.6913 68.1507 92.5571 68.1291 92.4128L67.7626 89.9556L68.8908 89.7874L69.5253 94.0411L68.3971 94.2094L68.2991 93.5526L68.2296 93.5629C68.1883 93.7271 68.1181 93.8745 68.0191 94.0051C67.9197 94.1331 67.7933 94.2389 67.6399 94.3223C67.4864 94.4058 67.3093 94.4625 67.1084 94.4924ZM70.4585 93.9019L69.5814 88.0216L70.7096 87.8533L71.5867 93.7336L70.4585 93.9019ZM73.6849 93.4878C73.417 93.5277 73.1698 93.5119 72.9433 93.4404C72.7189 93.3659 72.5332 93.2422 72.3863 93.0693C72.239 92.8938 72.1462 92.6773 72.1077 92.4197L72.1066 92.412C72.0686 92.157 72.099 91.9286 72.1979 91.7269C72.2994 91.5249 72.4649 91.3541 72.6942 91.2145C72.9257 91.072 73.2163 90.9642 73.5661 90.8909L75.1358 90.5581L75.2384 91.2458L73.8381 91.5494C73.5979 91.5984 73.4253 91.6768 73.3203 91.7846C73.2153 91.8925 73.1743 92.0237 73.1973 92.1782L73.1985 92.1859C73.2227 92.3482 73.3035 92.4665 73.441 92.5407C73.5784 92.615 73.745 92.6376 73.9408 92.6084C74.1159 92.5822 74.2666 92.5242 74.3927 92.4343C74.5189 92.3444 74.613 92.2343 74.6752 92.1039C74.737 91.9709 74.7567 91.8297 74.7344 91.6804L74.5322 90.3243C74.5045 90.1388 74.4216 90.0064 74.2833 89.9269C74.1473 89.8445 73.9634 89.8206 73.7316 89.8552C73.5281 89.8856 73.3671 89.9451 73.2487 90.0339C73.1325 90.1197 73.0619 90.2289 73.037 90.3617L73.0315 90.3783L71.9884 90.5339L71.9871 90.4985C71.9807 90.2441 72.0423 90.0124 72.1717 89.8035C72.3037 89.5942 72.496 89.4181 72.7485 89.2751C73.0036 89.1318 73.3088 89.0336 73.6643 88.9806C74.0403 88.9245 74.3684 88.9348 74.6484 89.0115C74.928 89.0856 75.1522 89.2207 75.321 89.4167C75.492 89.6097 75.5999 89.8569 75.6449 90.1583L76.0782 93.0637L74.9655 93.2296L74.8814 92.6655L74.8119 92.6759C74.7593 92.818 74.6796 92.9458 74.5728 93.0591C74.4682 93.1695 74.3398 93.2624 74.1878 93.3377C74.038 93.4101 73.8704 93.4601 73.6849 93.4878ZM76.9458 92.9342L76.3113 88.6805L77.4395 88.5122L77.538 89.1729L77.6076 89.1625C77.6425 88.9203 77.7433 88.7223 77.91 88.5685C78.0762 88.412 78.2971 88.3132 78.5727 88.2721C78.65 88.2606 78.7254 88.2546 78.7991 88.2542C78.8753 88.2533 78.9429 88.2564 79.0019 88.2634L79.1488 89.2486C79.0608 89.2407 78.9722 89.2381 78.8831 89.2408C78.7962 89.2406 78.7089 89.2471 78.6213 89.2601C78.4076 89.292 78.2281 89.3596 78.0829 89.4629C77.9373 89.5636 77.8327 89.6924 77.7692 89.8493C77.7058 90.0062 77.689 90.1851 77.719 90.386L78.074 92.766L76.9458 92.9342Z" fill="#027DF4"/>
</g>
<defs>
<filter id="filter0_i_4952_18135" x="2.89453" y="8.70312" width="136.609" height="105.477" filterUnits="userSpaceOnUse" color-interpolation-filters="sRGB">
<feFlood flood-opacity="0" result="BackgroundImageFix"/>
<feBlend mode="normal" in="SourceGraphic" in2="BackgroundImageFix" result="shape"/>
<feColorMatrix in="SourceAlpha" type="matrix" values="0 0 0 0 0 0 0 0 0 0 0 0 0 0 0 0 0 0 127 0" result="hardAlpha"/>
<feOffset dy="1"/>
<feComposite in2="hardAlpha" operator="arithmetic" k2="-1" k3="1"/>
<feColorMatrix type="matrix" values="0 0 0 0 1 0 0 0 0 1 0 0 0 0 1 0 0 0 0.15 0"/>
<feBlend mode="normal" in2="shape" result="effect1_innerShadow_4952_18135"/>
</filter>
<linearGradient id="paint0_linear_4952_18135" x1="19.3025" y1="34.3924" x2="30.9082" y2="51.0182" gradientUnits="userSpaceOnUse">
<stop stop-color="#FF7238"/>
<stop offset="1" stop-color="#FF8840"/>
</linearGradient>
</defs>
</svg>
