<svg width="44" height="58" viewBox="0 0 44 58" fill="none" xmlns="http://www.w3.org/2000/svg">
<path d="M38.9087 26.9586C38.7668 24.4786 38.2839 18.95 37.488 16.6761C36.4932 13.8338 36.5287 13.1943 36.884 12.7324C37.2393 12.2705 38.3407 10.494 36.7064 8.29123C35.072 6.08844 29.3163 -0.910803 22.9922 2.0381" stroke="#111111" stroke-width="0.167921" stroke-linecap="round" stroke-linejoin="round"/>
<path d="M35.7997 26.967C35.61 23.9012 34.9981 17.3049 34.0686 15.4458C32.9066 13.1219 30.8733 13.1219 29.7113 11.794C28.5494 10.466 26.3598 6.50463 23.3552 4.63119C20.3507 2.75775 15.6494 1.59118 13.3871 4.03019C11.7121 5.83604 9.57208 8.34484 8.54517 10.1765C7.18162 12.6086 9.08146 15.436 11.9092 13.6141C13.199 12.7831 14.5284 11.6258 15.172 10.4997" stroke="#111111" stroke-width="0.167921" stroke-linecap="round" stroke-linejoin="round"/>
<path d="M8.33594 27.1531C8.69115 24.602 9.5049 19.1574 9.91825 17.7883C10.4349 16.0769 11.2422 14.979 12.7599 14.0748C14.2777 13.1706 16.0537 10.5549 16.7965 9.26322C17.5392 7.97154 21.7351 4.97121 26.9018 8.03895" stroke="#111111" stroke-width="0.167921" stroke-linecap="round" stroke-linejoin="round"/>
<path d="M5.66797 27.2399C5.91864 24.2965 6.57979 18.0326 7.21907 16.5239C8.01816 14.638 7.05925 13.9348 6.67568 13.3595C6.29212 12.7841 5.30124 11.4096 7.21907 9.10823C9.13689 6.80684 12.2054 1.24522 16.8402 1.02147C20.1847 0.860015 22.6137 1.614 24.7279 3.11529M24.7279 3.11529C25.5435 3.69445 26.3122 4.38482 27.0686 5.17675C28.5824 6.76189 29.3719 7.99969 30.1944 9.0118C32.3745 12.5924 37.5743 12.6216 35.1873 9.39601C34.0047 7.79783 30.7937 2.39627 24.7279 3.11529Z" stroke="#111111" stroke-width="0.167921" stroke-linecap="round" stroke-linejoin="round"/>
<path d="M20.1235 52.6657C14.666 57.7033 7.94916 56.0241 4.17093 49.3073C2.79029 46.8528 0.8125 40.4914 0.8125 36.7132C0.8125 32.935 2.91152 31.6755 4.59073 30.8359" stroke="#111111" stroke-width="0.167921" stroke-linecap="round" stroke-linejoin="round"/>
<path d="M12.145 52.245C13.8242 53.2525 18.0222 53.3319 20.198 52.6402L20.1212 50.5657C20.9608 49.5862 21.7165 47.6271 18.0222 47.6271C13.4044 47.6271 12.9846 45.5281 10.8855 40.4905C8.78653 35.4528 9.62613 32.934 10.8855 32.5142C12.145 32.0944 14.0224 32.7125 15.9232 34.6132C17.6024 36.2924 19.4215 40.7703 20.1212 43.0093C20.541 40.6304 21.4646 35.7887 21.8004 35.4528C18.8618 29.5756 15.9232 27.4766 10.8855 27.4766C7.59746 27.4766 5.74014 28.9073 4.72991 30.835C3.16383 33.1859 3.89221 37.4119 4.45216 39.2311C5.09263 41.2589 6.01115 43.3047 6.68751 45.1083C7.94692 48.4667 10.0459 50.9855 12.145 52.245Z" fill="url(#paint0_linear_4033_9198)"/>
<path d="M19.2842 41.7492L19.2842 41.7493C18.1645 45.4815 16.7654 51.8245 21.803 53.5038C20.5436 47.6265 24.7416 36.7116 30.1991 31.6739C33.2838 28.8265 36.0763 29.9948 39.0149 30.4146C37.7555 27.476 30.1991 25.7968 26.001 29.575C21.8031 33.3532 19.914 39.6501 19.2842 41.7492Z" fill="url(#paint1_linear_4033_9198)"/>
<path d="M30.1991 31.6754C33.2838 28.828 36.0763 29.9963 39.015 30.4161C47.8308 33.7744 40.5626 49.1808 36.4962 53.925C33.9773 56.8636 28.9397 57.2834 26.0011 56.8636C23.6502 56.5278 22.2228 54.4848 21.803 53.5053C20.5436 47.628 24.7416 36.7131 30.1991 31.6754Z" stroke="#111111" stroke-width="0.167921" stroke-linecap="round" stroke-linejoin="round"/>
<ellipse cx="33.2243" cy="31.6218" rx="1.65775" ry="1.11684" transform="rotate(1.95042 33.2243 31.6218)" fill="#111111"/>
<path d="M38.3163 30.822C38.2986 31.3407 37.8639 31.747 37.3453 31.7293C36.8267 31.7117 36.4206 31.2768 36.4383 30.758C36.456 30.2393 36.796 30.0073 37.3453 30.1602C37.9939 30.1602 38.3339 30.3032 38.3163 30.822Z" fill="#111111"/>
<path d="M24.1367 49.0094C25.6685 44.195 27.4192 38.1225 32.0146 34.3477" stroke="#111111" stroke-width="0.167921" stroke-linecap="round" stroke-linejoin="round"/>
<defs>
<linearGradient id="paint0_linear_4033_9198" x1="12.7928" y1="27.4766" x2="20.541" y2="47.2073" gradientUnits="userSpaceOnUse">
<stop stop-color="#DEE9FF"/>
<stop offset="1" stop-color="#717D95"/>
</linearGradient>
<linearGradient id="paint1_linear_4033_9198" x1="28.6149" y1="27.3906" x2="28.6149" y2="53.5038" gradientUnits="userSpaceOnUse">
<stop stop-color="#DEE9FF"/>
<stop offset="1" stop-color="#B2BACC"/>
</linearGradient>
</defs>
</svg>
