<svg width="20" height="28" viewBox="0 0 20 28" fill="none" xmlns="http://www.w3.org/2000/svg">
<path d="M16.666 27.3337H3.33268C2.59935 27.3337 1.97179 27.0728 1.45002 26.551C0.928238 26.0292 0.666905 25.4012 0.666016 24.667V3.33366C0.666016 2.60033 0.927349 1.97277 1.45002 1.45099C1.97268 0.929214 2.60024 0.667881 3.33268 0.666992H16.666C17.3993 0.666992 18.0273 0.928326 18.55 1.45099C19.0727 1.97366 19.3336 2.60121 19.3327 3.33366V24.667C19.3327 25.4003 19.0718 26.0283 18.55 26.551C18.0282 27.0737 17.4002 27.3345 16.666 27.3337ZM9.99935 10.0003C10.7327 10.0003 11.3607 9.73944 11.8833 9.21766C12.406 8.69588 12.6669 8.06788 12.666 7.33366C12.6651 6.59944 12.4042 5.97188 11.8833 5.45099C11.3625 4.9301 10.7345 4.66877 9.99935 4.66699C9.26424 4.66521 8.63668 4.92655 8.11668 5.45099C7.59668 5.97544 7.33535 6.60299 7.33268 7.33366C7.33002 8.06433 7.59135 8.69233 8.11668 9.21766C8.64202 9.74299 9.26957 10.0039 9.99935 10.0003ZM9.99935 23.3337C11.466 23.3337 12.7216 22.8114 13.766 21.767C14.8105 20.7225 15.3327 19.467 15.3327 18.0003C15.3327 16.5337 14.8105 15.2781 13.766 14.2337C12.7216 13.1892 11.466 12.667 9.99935 12.667C8.53268 12.667 7.27713 13.1892 6.23268 14.2337C5.18824 15.2781 4.66602 16.5337 4.66602 18.0003C4.66602 19.467 5.18824 20.7225 6.23268 21.767C7.27713 22.8114 8.53268 23.3337 9.99935 23.3337ZM9.99935 20.667C9.26602 20.667 8.63846 20.4061 8.11668 19.8843C7.5949 19.3625 7.33357 18.7345 7.33268 18.0003C7.33179 17.2661 7.59313 16.6385 8.11668 16.1177C8.64024 15.5968 9.26779 15.3354 9.99935 15.3337C10.7309 15.3319 11.3589 15.5932 11.8833 16.1177C12.4078 16.6421 12.6687 17.2697 12.666 18.0003C12.6633 18.731 12.4025 19.359 11.8833 19.8843C11.3642 20.4097 10.7362 20.6705 9.99935 20.667Z" fill="url(#paint0_linear_5147_3595)"/>
<defs>
<linearGradient id="paint0_linear_5147_3595" x1="9.99935" y1="0.666992" x2="9.99935" y2="27.3337" gradientUnits="userSpaceOnUse">
<stop stop-color="#DEE9FF"/>
<stop offset="1" stop-color="#B2BACC"/>
</linearGradient>
</defs>
</svg>
