<svg width="145" height="126" viewBox="0 0 145 126" fill="none" xmlns="http://www.w3.org/2000/svg">
<g filter="url(#filter0_i_4952_18136)">
<rect x="1.90625" y="24.6578" width="125" height="100" rx="16" transform="rotate(-10.1267 1.90625 24.6578)" fill="white"/>
<rect x="2.48637" y="25.0621" width="124" height="99" rx="15.5" transform="rotate(-10.1267 2.48637 25.0621)" stroke="#DDDBE1"/>
<rect x="15.125" y="30.4234" width="22" height="20" rx="4" transform="rotate(-10.1267 15.125 30.4234)" fill="#027DF4"/>
<path d="M28.7664 44.2401C27.4026 44.4837 26.1561 44.2145 25.0271 43.4324C23.898 42.6503 23.2113 41.5754 22.967 40.2075C22.8504 39.5547 22.8645 38.9079 23.0093 38.2672C23.1541 37.6265 23.4165 37.037 23.7966 36.4986L26.6565 32.4271L30.749 35.2569C31.2919 35.6304 31.7422 36.0926 32.0998 36.6436C32.4575 37.1945 32.6946 37.7964 32.8112 38.4493C33.0555 39.8171 32.7834 41.0633 31.9949 42.1879C31.2064 43.3125 30.1302 43.9965 28.7664 44.2401ZM28.5443 42.9967C29.5697 42.8135 30.378 42.3029 30.969 41.4649C31.56 40.6269 31.7639 39.6949 31.5807 38.669C31.4937 38.182 31.3186 37.7348 31.0554 37.3274C30.7921 36.9199 30.4566 36.5815 30.0487 36.3122L26.9674 34.168L24.8189 37.2463C24.5295 37.6402 24.3319 38.0738 24.2259 38.5472C24.12 39.0205 24.1105 39.5007 24.1975 39.9877C24.3808 41.0136 24.8947 41.8174 25.7393 42.399C26.5838 42.9806 27.5189 43.1798 28.5443 42.9967Z" fill="white"/>
<path d="M23.3046 69.5946L21.5815 59.9473L23.4283 59.6175L30.3608 65.5469L29.465 65.7069L28.2244 58.7608L30.4295 58.367L32.1526 68.0143L30.3196 68.3417L23.3732 62.4147L24.2691 62.2547L25.5097 69.2008L23.3046 69.5946ZM38.1424 66.9445L37.884 65.4974L37.6895 65.205L37.2267 62.614C37.1447 62.1546 36.9383 61.8217 36.6075 61.6153C36.2859 61.4073 35.8357 61.355 35.2569 61.4584C34.8618 61.5289 34.4828 61.663 34.1199 61.8606C33.7645 62.0473 33.4725 62.2701 33.2437 62.529L32.2037 61.1646C32.557 60.8076 33.0046 60.5001 33.5464 60.2422C34.0881 59.9842 34.653 59.8028 35.2411 59.6977C36.3712 59.4959 37.2962 59.6056 38.0162 60.0269C38.7361 60.4482 39.197 61.2239 39.3989 62.3541L40.1546 66.5851L38.1424 66.9445ZM35.9019 67.4584C35.323 67.5618 34.8097 67.554 34.3617 67.4349C33.9122 67.3066 33.5468 67.0921 33.2656 66.7916C32.9843 66.491 32.806 66.1294 32.7305 65.7068C32.6517 65.2657 32.6885 64.861 32.8407 64.4925C33.0021 64.1223 33.3007 63.8035 33.7365 63.5361C34.1706 63.2594 34.7644 63.0538 35.5178 62.9193L37.4886 62.5672L37.7126 63.8214L35.9761 64.1316C35.4708 64.2218 35.1364 64.3669 34.973 64.5667C34.8188 64.7649 34.7638 64.9881 34.8081 65.2361C34.8573 65.5118 35.0024 65.7134 35.2432 65.841C35.4917 65.9579 35.8042 65.9826 36.1809 65.9153C36.5392 65.8513 36.846 65.7112 37.1013 65.495C37.355 65.2695 37.5166 64.9799 37.5861 64.6262L38.0941 65.5594C38.0233 66.0651 37.8033 66.4789 37.4341 66.8008C37.065 67.1227 36.5542 67.3419 35.9019 67.4584ZM44.574 58.0308C45.162 57.9258 45.7071 57.9517 46.2091 58.1085C46.7187 58.2545 47.1502 58.5472 47.5037 58.9866C47.8555 59.4167 48.0986 60.0085 48.2332 60.7619L48.9914 65.0068L46.8414 65.3908L46.1423 61.4767C46.0356 60.8795 45.8236 60.4623 45.5063 60.225C45.1982 59.9862 44.8052 59.9094 44.3275 59.9947C43.9875 60.0554 43.6928 60.1839 43.4434 60.3802C43.2016 60.5656 43.0289 60.8192 42.9252 61.1411C42.8307 61.4614 42.8245 61.8512 42.9065 62.3106L43.5613 65.9766L41.4113 66.3606L40.087 58.946L42.1405 58.5792L42.5073 60.6327L42.0106 60.0814C42.1884 59.5377 42.5016 59.0883 42.9502 58.7332C43.3987 58.3782 43.94 58.144 44.574 58.0308ZM53.8528 64.2522C53.0626 64.3934 52.3302 64.3535 51.6556 64.1327C50.9901 63.9103 50.4273 63.5462 49.9672 63.0406C49.5147 62.5241 49.2228 61.8983 49.0915 61.1633C48.9586 60.4191 49.0158 59.7309 49.2632 59.0989C49.5182 58.4561 49.9201 57.9197 50.4691 57.4898C51.0256 57.0491 51.6989 56.7582 52.4891 56.6171C53.2701 56.4776 53.9979 56.5182 54.6726 56.7391C55.3456 56.9507 55.9075 57.3101 56.3584 57.8174C56.8093 58.3247 57.102 58.9551 57.2366 59.7085C57.3679 60.4435 57.3107 61.1316 57.0649 61.7728C56.8175 62.4049 56.4155 62.9412 55.859 63.3819C55.3025 63.8227 54.6338 64.1128 53.8528 64.2522ZM53.5377 62.4882C53.8961 62.4242 54.2029 62.284 54.4581 62.0678C54.7134 61.8515 54.8967 61.577 55.0079 61.2443C55.1175 60.9024 55.1346 60.5201 55.0591 60.0974C54.9819 59.6656 54.8336 59.3128 54.6141 59.0392C54.3945 58.7655 54.1276 58.5714 53.8132 58.4569C53.4989 58.3424 53.1625 58.3172 52.8042 58.3812C52.4458 58.4452 52.139 58.5853 51.8838 58.8015C51.6285 59.0178 51.4406 59.2931 51.3202 59.6275C51.209 59.9602 51.1919 60.3425 51.269 60.7744C51.3445 61.197 51.4929 61.5497 51.714 61.8326C51.9428 62.1046 52.2143 62.2979 52.5287 62.4124C52.843 62.5269 53.1794 62.5522 53.5377 62.4882ZM61.9977 62.8544C61.226 62.9922 60.4683 63.0233 59.7247 62.9475C58.9795 62.8625 58.3614 62.6932 57.8705 62.4396L58.3282 60.6228C58.7942 60.843 59.3246 60.9995 59.9195 61.0923C60.522 61.1743 61.1127 61.1636 61.6915 61.0603C62.1325 60.9815 62.4789 60.877 62.7306 60.7467C62.9898 60.6056 63.1698 60.4454 63.2705 60.2663C63.3712 60.0871 63.4036 59.8964 63.3675 59.6943C63.3215 59.437 63.1843 59.253 62.9559 59.1421C62.7259 59.022 62.4373 58.9455 62.0901 58.9127C61.7413 58.8707 61.3574 58.8445 60.9383 58.834C60.5269 58.8127 60.1075 58.7738 59.6802 58.7174C59.2622 58.6593 58.8697 58.5588 58.5029 58.4157C58.136 58.2727 57.8174 58.0546 57.547 57.7616C57.2857 57.4669 57.1092 57.0623 57.0173 56.5478C56.9188 55.9965 56.9764 55.4695 57.19 54.9668C57.4111 54.4533 57.7965 54.0099 58.3462 53.6368C58.9033 53.2529 59.6367 52.9797 60.5463 52.8172C61.1527 52.7089 61.7631 52.6757 62.3774 52.7177C62.99 52.7505 63.5469 52.8691 64.0479 53.0735L63.6616 54.8918C63.1655 54.7149 62.6816 54.607 62.2101 54.5679C61.7369 54.5197 61.2844 54.5342 60.8526 54.6113C60.4207 54.6884 60.076 54.8022 59.8184 54.9524C59.5608 55.1027 59.3871 55.2713 59.2972 55.458C59.2056 55.6355 59.1787 55.8299 59.2165 56.0412C59.2608 56.2893 59.398 56.4734 59.628 56.5935C59.8564 56.7044 60.1442 56.7763 60.4913 56.8091C60.8385 56.8419 61.2179 56.8689 61.6293 56.8902C62.05 56.9099 62.4686 56.9442 62.885 56.9931C63.3106 57.0403 63.7068 57.1354 64.0737 57.2785C64.4406 57.4216 64.7546 57.6404 65.0158 57.9351C65.2862 58.2281 65.4665 58.6273 65.5568 59.1326C65.6536 59.6747 65.5906 60.1979 65.3678 60.7023C65.1451 61.2067 64.7551 61.6508 64.1979 62.0348C63.6499 62.4171 62.9165 62.6903 61.9977 62.8544ZM69.909 53.5057C70.497 53.4007 71.0421 53.4266 71.5441 53.5834C72.0537 53.7294 72.4852 54.0221 72.8387 54.4615C73.1905 54.8917 73.4336 55.4835 73.5682 56.2369L74.3264 60.4817L72.1764 60.8657L71.4773 56.9517C71.3706 56.3544 71.1586 55.9372 70.8413 55.7C70.5332 55.4611 70.1402 55.3843 69.6625 55.4697C69.3225 55.5304 69.0278 55.6589 68.7785 55.8551C68.5366 56.0405 68.3639 56.2942 68.2602 56.6161C68.1657 56.9364 68.1595 57.3262 68.2415 57.7856L68.8963 61.4516L66.7463 61.8356L64.9198 51.6094L67.0698 51.2254L67.9387 56.0904L67.3456 55.5564C67.5234 55.0126 67.8366 54.5632 68.2852 54.2082C68.7338 53.8531 69.275 53.619 69.909 53.5057ZM80.1341 59.4444L79.8757 57.9973L79.6812 57.7049L79.2185 55.1139C79.1364 54.6545 78.93 54.3216 78.5992 54.1152C78.2776 53.9072 77.8274 53.8549 77.2486 53.9583C76.8535 54.0288 76.4745 54.1629 76.1116 54.3605C75.7562 54.5472 75.4642 54.77 75.2355 55.0289L74.1954 53.6645C74.5488 53.3075 74.9963 53 75.5381 52.7421C76.0798 52.4841 76.6447 52.3027 77.2328 52.1976C78.3629 51.9958 79.2879 52.1055 80.0079 52.5268C80.7278 52.9481 81.1887 53.7238 81.3906 54.854L82.1463 59.085L80.1341 59.4444ZM77.8936 59.9583C77.3148 60.0617 76.8014 60.0539 76.3535 59.9348C75.9039 59.8065 75.5385 59.5921 75.2573 59.2915C74.976 58.9909 74.7977 58.6293 74.7222 58.2067C74.6434 57.7656 74.6802 57.3609 74.8324 56.9924C74.9938 56.6222 75.2924 56.3034 75.7282 56.036C76.1623 55.7593 76.7561 55.5537 77.5095 55.4192L79.4803 55.0672L79.7043 56.3213L77.9678 56.6315C77.4625 56.7217 77.1281 56.8668 76.9647 57.0666C76.8105 57.2648 76.7555 57.488 76.7998 57.736C76.8491 58.0117 76.9941 58.2133 77.235 58.341C77.4834 58.4578 77.7959 58.4825 78.1726 58.4152C78.531 58.3512 78.8378 58.2111 79.0931 57.9949C79.3467 57.7694 79.5083 57.4798 79.5779 57.1261L80.0859 58.0593C80.015 58.565 79.795 58.9788 79.4258 59.3007C79.0567 59.6226 78.5459 59.8418 77.8936 59.9583ZM84.9101 57.027L84.4976 54.3986L87.371 50.5006L89.9344 50.0428L87.216 54.0126L86.2622 55.1216L84.9101 57.027ZM83.403 58.8605L81.5765 48.6344L83.7265 48.2504L85.553 58.4765L83.403 58.8605ZM88.9296 57.8734L85.865 55.2067L86.9177 53.2979L91.5343 57.4082L88.9296 57.8734ZM95.202 56.8669C94.3568 57.0179 93.583 56.9854 92.8808 56.7695C92.1877 56.552 91.6158 56.1896 91.1649 55.6823C90.7123 55.1658 90.4204 54.5401 90.2892 53.805C90.1562 53.0608 90.2089 52.3735 90.4471 51.7431C90.6928 51.1019 91.0856 50.5672 91.6254 50.139C92.1635 49.7015 92.8093 49.4155 93.5627 49.281C94.2885 49.1513 94.9688 49.191 95.6034 49.4C96.2456 49.5982 96.7884 49.9563 97.2317 50.4744C97.6734 50.9834 97.9656 51.6375 98.1084 52.4369C98.1232 52.5196 98.1358 52.6169 98.1463 52.7288C98.1552 52.8315 98.1632 52.9296 98.1705 53.0231L92.1478 54.0988L91.9238 52.8446L96.8163 51.9708L96.0559 52.4906C95.987 52.1047 95.849 51.7833 95.6419 51.5264C95.4348 51.2694 95.1795 51.0875 94.876 50.9805C94.5708 50.8644 94.2345 50.8391 93.8669 50.9048C93.4994 50.9704 93.188 51.1114 92.9327 51.3276C92.685 51.533 92.5093 51.7967 92.4056 52.1186C92.3003 52.4313 92.2829 52.7852 92.3535 53.1803L92.4126 53.5111C92.4848 53.9154 92.636 54.2581 92.8664 54.5393C93.1043 54.8097 93.3988 54.9989 93.75 55.1068C94.1086 55.2039 94.5085 55.2131 94.9495 55.1343C95.3446 55.0638 95.6784 54.9425 95.9511 54.7705C96.233 54.5969 96.4766 54.3685 96.682 54.0853L98.0475 55.1214C97.7764 55.568 97.4025 55.9429 96.9258 56.2462C96.4473 56.5402 95.8728 56.7471 95.202 56.8669ZM103.612 51.1978L102.591 45.4783L103.859 45.2519L107.184 48.7396L106.522 48.8577L108.379 44.4445L109.633 44.2205L110.683 49.935L109.236 50.1935L108.572 46.5575L108.82 46.5132L107.379 49.9135L106.69 50.0366L104.093 47.3575L104.41 47.3009L105.06 50.9393L103.612 51.1978ZM99.3952 51.951L98.5854 47.4168L96.6421 47.7639L96.4304 46.5786L101.874 45.6063L102.086 46.7916L100.129 47.1411L100.939 51.6754L99.3952 51.951ZM26.8857 77.7013L31.5165 76.8742L31.8365 78.6658L27.2057 79.4929L26.8857 77.7013ZM27.9988 82.9778L25.7662 83.3765L24.0431 73.7292L31.3337 72.427L31.6537 74.2187L26.5957 75.1221L27.9988 82.9778ZM33.593 81.9786L32.2687 74.5639L34.3222 74.1972L34.6963 76.292L34.2986 75.7373C34.4256 75.1742 34.7087 74.716 35.1481 74.3625C35.5858 73.9999 36.1538 73.7562 36.8521 73.6315L37.2066 75.6161C37.1131 75.6233 37.0296 75.6335 36.9561 75.6466C36.8809 75.6506 36.802 75.6599 36.7193 75.6747C36.1313 75.7797 35.6839 76.035 35.3771 76.4406C35.0778 76.8354 34.9914 77.3865 35.1177 78.094L35.743 81.5946L33.593 81.9786ZM42.431 80.5138C41.5858 80.6648 40.812 80.6323 40.1098 80.4164C39.4167 80.1989 38.8448 79.8365 38.3939 79.3292C37.9413 78.8127 37.6494 78.187 37.5182 77.4519C37.3852 76.7077 37.4379 76.0204 37.6761 75.39C37.9218 74.7488 38.3146 74.2141 38.8544 73.7859C39.3925 73.3484 40.0383 73.0624 40.7917 72.9279C41.5175 72.7982 42.1978 72.8379 42.8324 73.0469C43.4746 73.2451 44.0174 73.6032 44.4607 74.1214C44.9024 74.6303 45.1946 75.2844 45.3374 76.0838C45.3522 76.1665 45.3648 76.2638 45.3753 76.3757C45.3842 76.4784 45.3922 76.5765 45.3995 76.67L39.3768 77.7457L39.1528 76.4916L44.0453 75.6177L43.2849 76.1375C43.216 75.7516 43.078 75.4302 42.8709 75.1733C42.6638 74.9164 42.4085 74.7344 42.105 74.6274C41.7998 74.5113 41.4635 74.486 41.0959 74.5517C40.7284 74.6173 40.417 74.7583 40.1617 74.9745C39.914 75.18 39.7383 75.4436 39.6346 75.7655C39.5293 76.0783 39.5119 76.4322 39.5825 76.8272L39.6416 77.158C39.7138 77.5623 39.865 77.905 40.0954 78.1862C40.3333 78.4566 40.6278 78.6458 40.979 78.7537C41.3376 78.8508 41.7375 78.86 42.1785 78.7812C42.5736 78.7107 42.9074 78.5894 43.1801 78.4175C43.462 78.2439 43.7056 78.0155 43.911 77.7323L45.2765 78.7683C45.0054 79.2149 44.6315 79.5899 44.1548 79.8931C43.6763 80.1871 43.1018 80.394 42.431 80.5138ZM49.9127 79.1775C49.2144 79.3023 48.5571 79.2585 47.9409 79.0462C47.3246 78.8339 46.8002 78.4725 46.3677 77.9619C45.9444 77.4497 45.663 76.8031 45.5235 76.0221C45.3856 75.2503 45.4266 74.5509 45.6465 73.9238C45.8755 73.2951 46.2423 72.7745 46.747 72.362C47.25 71.9403 47.8507 71.6671 48.549 71.5424C49.2013 71.4259 49.7818 71.4644 50.2904 71.658C50.8082 71.8499 51.2412 72.204 51.5894 72.7201C51.9376 73.2363 52.1896 73.9308 52.3455 74.8036C52.4998 75.6673 52.4992 76.4069 52.3436 77.0225C52.1865 77.629 51.8982 78.1118 51.4789 78.4712C51.0595 78.8305 50.5375 79.0659 49.9127 79.1775ZM49.9697 77.347C50.3189 77.2846 50.6211 77.1453 50.8764 76.9291C51.1316 76.7128 51.3149 76.4383 51.4261 76.1056C51.5449 75.762 51.5665 75.3789 51.4911 74.9563C51.4139 74.5244 51.261 74.1725 51.0323 73.9005C50.8127 73.6268 50.5458 73.4327 50.2314 73.3182C49.9171 73.2037 49.5853 73.1776 49.2362 73.24C48.8778 73.304 48.571 73.4441 48.3157 73.6604C48.0605 73.8766 47.8726 74.1519 47.7522 74.4863C47.641 74.8191 47.6239 75.2014 47.701 75.6332C47.7765 76.0558 47.9249 76.4086 48.146 76.6914C48.3748 76.9635 48.6463 77.1567 48.9607 77.2712C49.275 77.3857 49.6114 77.411 49.9697 77.347ZM52.5894 81.3447L51.8436 77.1687L51.59 74.9528L51.1548 72.7551L50.884 71.2391L52.9375 70.8723L54.7394 80.9607L52.5894 81.3447ZM58.7115 77.606C58.0959 77.7159 57.5233 77.695 56.9936 77.5431C56.4732 77.3895 56.0363 77.093 55.6828 76.6537C55.3278 76.2051 55.0821 75.5995 54.9459 74.8369L54.1976 70.6472L56.3476 70.2632L57.0393 74.136C57.1492 74.7515 57.3591 75.1834 57.6689 75.4314C57.9862 75.6687 58.3837 75.7446 58.8615 75.6593C59.1923 75.6002 59.474 75.4788 59.7066 75.295C59.9376 75.1021 60.1004 74.8454 60.1949 74.5252C60.2877 74.1957 60.2939 73.8059 60.2135 73.3557L59.5588 69.6897L61.7087 69.3057L63.0331 76.7203L60.9933 77.0847L60.629 75.0449L61.107 75.5711C60.9508 76.1299 60.653 76.5861 60.2137 76.9395C59.7818 77.2821 59.2811 77.5043 58.7115 77.606ZM68.0352 75.9407C67.1899 76.0917 66.4162 76.0592 65.7139 75.8433C65.0209 75.6258 64.4489 75.2634 63.998 74.7561C63.5455 74.2396 63.2536 73.6138 63.1223 72.8788C62.9894 72.1346 63.042 71.4473 63.2803 70.8169C63.526 70.1757 63.9188 69.641 64.4586 69.2127C64.9967 68.7753 65.6425 68.4893 66.3959 68.3548C67.1217 68.2251 67.802 68.2648 68.4366 68.4738C69.0788 68.672 69.6215 69.0301 70.0649 69.5482C70.5066 70.0572 70.7988 70.7113 70.9416 71.5107C70.9564 71.5934 70.969 71.6906 70.9795 71.8025C70.9884 71.9053 70.9964 72.0034 71.0036 72.0969L64.9809 73.1726L64.7569 71.9184L69.6495 71.0446L68.8891 71.5644C68.8201 71.1785 68.6821 70.8571 68.4751 70.6002C68.268 70.3432 68.0127 70.1613 67.7092 70.0543C67.404 69.9382 67.0676 69.9129 66.7001 69.9786C66.3326 70.0442 66.0212 70.1851 65.7659 70.4014C65.5182 70.6068 65.3425 70.8705 65.2388 71.1924C65.1335 71.5051 65.1161 71.859 65.1867 72.2541L65.2457 72.5849C65.3179 72.9891 65.4692 73.3319 65.6996 73.6131C65.9375 73.8835 66.232 74.0726 66.5831 74.1806C66.9418 74.2777 67.3416 74.2869 67.7827 74.2081C68.1777 74.1375 68.5116 74.0163 68.7843 73.8443C69.0662 73.6707 69.3098 73.4423 69.5152 73.1591L70.8807 74.1952C70.6096 74.6418 70.2357 75.0167 69.7589 75.3199C69.2805 75.614 68.7059 75.8209 68.0352 75.9407ZM75.5038 66.728C76.0918 66.623 76.6369 66.6489 77.1389 66.8057C77.6485 66.9517 78.08 67.2444 78.4335 67.6838C78.7853 68.114 79.0284 68.7058 79.163 69.4592L79.9212 73.704L77.7712 74.088L77.0721 70.1739C76.9654 69.5767 76.7534 69.1595 76.4361 68.9223C76.128 68.6834 75.735 68.6066 75.2572 68.6919C74.9173 68.7527 74.6226 68.8811 74.3732 69.0774C74.1314 69.2628 73.9587 69.5164 73.855 69.8384C73.7605 70.1586 73.7543 70.5485 73.8363 71.0079L74.4911 74.6738L72.3411 75.0578L71.0168 67.6432L73.0703 67.2764L73.4371 69.3299L72.9404 68.7787C73.1182 68.2349 73.4314 67.7855 73.88 67.4304C74.3285 67.0754 74.8698 66.8412 75.5038 66.728ZM84.8377 72.9396C84.0384 73.0824 83.2976 73.0488 82.6154 72.8388C81.9315 72.6196 81.3587 72.2526 80.897 71.7378C80.4445 71.2213 80.1526 70.5955 80.0213 69.8605C79.8884 69.1163 79.9456 68.4282 80.193 67.7961C80.448 67.1533 80.8591 66.6153 81.4264 66.1821C81.9921 65.7398 82.6747 65.4472 83.474 65.3044C84.255 65.165 84.9644 65.2089 85.6024 65.4363C86.2386 65.6545 86.7487 66.0422 87.1327 66.5993L85.6251 67.793C85.3698 67.4783 85.0803 67.2645 84.7568 67.1517C84.4424 67.0372 84.1153 67.0103 83.7753 67.071C83.4078 67.1366 83.0918 67.2784 82.8273 67.4963C82.5629 67.7142 82.3704 67.9903 82.25 68.3247C82.1388 68.6575 82.1217 69.0397 82.1988 69.4716C82.276 69.9034 82.4243 70.2562 82.6438 70.5298C82.8726 70.8018 83.1487 70.9943 83.4723 71.1072C83.7958 71.22 84.1413 71.2436 84.5089 71.178C84.8488 71.1173 85.1473 70.9834 85.4042 70.7763C85.6687 70.5584 85.8654 70.2531 85.9943 69.8603L87.8244 70.472C87.6554 71.1185 87.3111 71.6588 86.7913 72.0929C86.2699 72.5179 85.6187 72.8001 84.8377 72.9396ZM90.015 74.7739C89.6291 74.8428 89.2372 74.8512 88.8391 74.799C88.4411 74.7469 88.1037 74.6365 87.8271 74.4678L88.3394 72.7977C88.5311 72.9152 88.7399 72.9964 88.966 73.0413C89.2013 73.0846 89.4246 73.0874 89.6359 73.0497C89.9391 72.9955 90.1649 72.8794 90.3132 72.7012C90.4724 72.5305 90.5959 72.2667 90.6838 71.9097L90.9073 70.9311L91.0308 70.6673L92.5485 63.7974L94.6158 63.4282L92.6724 71.8958C92.5401 72.5357 92.3482 73.0535 92.0965 73.4493C91.8541 73.8434 91.5568 74.143 91.2047 74.3481C90.8618 74.5515 90.4652 74.6935 90.015 74.7739ZM90.8374 72.0529L86.1537 64.9396L88.3726 64.5433L92.0438 70.2873L90.8374 72.0529ZM28.2277 97.1584L26.5046 87.5111L28.3514 87.1813L33.6744 93.256L32.6959 93.4307L35.518 85.9012L37.351 85.5739L39.1016 95.2163L37.0068 95.5904L35.8435 89.1567L36.2294 89.0878L33.9718 95.0801L32.9657 95.2598L28.7044 90.4318L29.173 90.3481L30.3226 96.7843L28.2277 97.1584ZM44.0977 94.4377C43.3075 94.5788 42.5751 94.539 41.9004 94.3182C41.235 94.0957 40.6722 93.7317 40.2121 93.226C39.7596 92.7095 39.4677 92.0838 39.3364 91.3487C39.2035 90.6045 39.2607 89.9164 39.5081 89.2844C39.763 88.6415 40.165 88.1052 40.714 87.6753C41.2705 87.2346 41.9438 86.9437 42.734 86.8025C43.5149 86.663 44.2428 86.7037 44.9174 86.9245C45.5905 87.1361 46.1524 87.4956 46.6033 88.0029C47.0542 88.5102 47.3469 89.1405 47.4815 89.894C47.6128 90.629 47.5555 91.3171 47.3098 91.9583C47.0624 92.5903 46.6604 93.1267 46.1039 93.5674C45.5474 94.0081 44.8787 94.2982 44.0977 94.4377ZM43.7826 92.6736C44.1409 92.6096 44.4477 92.4695 44.703 92.2532C44.9583 92.037 45.1416 91.7625 45.2528 91.4297C45.3624 91.0878 45.3794 90.7055 45.3039 90.2829C45.2268 89.851 45.0785 89.4983 44.8589 89.2246C44.6394 88.951 44.3725 88.7569 44.0581 88.6424C43.7437 88.5279 43.4074 88.5026 43.0491 88.5666C42.6907 88.6306 42.3839 88.7707 42.1286 88.987C41.8733 89.2033 41.6855 89.4786 41.5651 89.813C41.4538 90.1457 41.4368 90.528 41.5139 90.9598C41.5894 91.3825 41.7377 91.7352 41.9589 92.0181C42.1877 92.2901 42.4592 92.4833 42.7736 92.5979C43.0879 92.7124 43.4243 92.7376 43.7826 92.6736ZM52.095 93.0093C51.3967 93.134 50.7394 93.0903 50.1231 92.878C49.5052 92.6565 48.98 92.2905 48.5475 91.7799C48.1242 91.2677 47.8436 90.6257 47.7058 89.8539C47.5663 89.0729 47.6064 88.3689 47.8263 87.7418C48.0553 87.1131 48.4221 86.5925 48.9268 86.18C49.4315 85.7675 50.033 85.4989 50.7312 85.3741C51.356 85.2626 51.9273 85.3027 52.4451 85.4947C52.963 85.6866 53.4005 86.0399 53.7579 86.5544C54.1153 87.0689 54.3719 87.7626 54.5278 88.6354C54.6821 89.4991 54.686 90.2379 54.5397 90.8519C54.3917 91.4566 54.1081 91.9387 53.6887 92.298C53.2785 92.6557 52.7473 92.8928 52.095 93.0093ZM52.152 91.1788C52.5011 91.1164 52.8033 90.9771 53.0586 90.7609C53.3139 90.5446 53.4972 90.2701 53.6084 89.9374C53.7272 89.5938 53.7488 89.2107 53.6733 88.788C53.5962 88.3562 53.4433 88.0043 53.2145 87.7323C52.995 87.4586 52.7281 87.2645 52.4137 87.15C52.0993 87.0355 51.7676 87.0094 51.4184 87.0718C51.0601 87.1358 50.7533 87.2759 50.498 87.4922C50.2427 87.7084 50.0549 87.9837 49.9345 88.3181C49.8232 88.6508 49.8062 89.0331 49.8833 89.465C49.9588 89.8876 50.1071 90.2404 50.3283 90.5232C50.557 90.7952 50.8286 90.9885 51.1429 91.103C51.4573 91.2175 51.7937 91.2428 52.152 91.1788ZM54.3906 92.4855L54.1198 90.9695L53.7673 88.757L53.2381 86.5903L52.4677 82.2766L54.6176 81.8926L56.4441 92.1187L54.3906 92.4855ZM60.8931 91.4379C60.2775 91.5478 59.7049 91.5269 59.1752 91.375C58.6548 91.2214 58.2179 90.9249 57.8644 90.4856C57.5094 90.037 57.2637 89.4314 57.1275 88.6688L56.3792 84.4791L58.5292 84.0951L59.2209 87.9678C59.3308 88.5834 59.5407 89.0153 59.8505 89.2633C60.1678 89.5006 60.5654 89.5765 61.0431 89.4912C61.3739 89.4321 61.6556 89.3107 61.8882 89.1269C62.1193 88.934 62.282 88.6773 62.3765 88.3571C62.4693 88.0276 62.4756 87.6378 62.3952 87.1876L61.7404 83.5216L63.8904 83.1376L65.2147 90.5522L63.175 90.9166L62.8106 88.8768L63.2886 89.403C63.1324 89.9618 62.8347 90.418 62.3953 90.7714C61.9635 91.114 61.4627 91.3362 60.8931 91.4379ZM66.5174 90.3196L64.6909 80.0934L66.8409 79.7094L68.6674 89.9356L66.5174 90.3196ZM74.5217 88.8899L74.2632 87.4428L74.0688 87.1505L73.606 84.5595C73.5239 84.1001 73.3175 83.7672 72.9867 83.5608C72.6652 83.3528 72.2149 83.3004 71.6361 83.4038C71.241 83.4744 70.862 83.6085 70.4991 83.806C70.1437 83.9927 69.8517 84.2156 69.623 84.4745L68.5829 83.1101C68.9363 82.7531 69.3839 82.4456 69.9256 82.1876C70.4674 81.9297 71.0323 81.7482 71.6203 81.6432C72.7504 81.4413 73.6754 81.5511 74.3954 81.9724C75.1154 82.3937 75.5763 83.1694 75.7781 84.2995L76.5338 88.5305L74.5217 88.8899ZM72.2811 89.4039C71.7023 89.5073 71.1889 89.4994 70.741 89.3803C70.2914 89.252 69.926 89.0376 69.6448 88.737C69.3636 88.4365 69.1852 88.0749 69.1097 87.6522C69.031 87.2112 69.0677 86.8064 69.2199 86.4379C69.3814 86.0678 69.68 85.749 70.1157 85.4815C70.5499 85.2049 71.1436 84.9993 71.897 84.8647L73.8678 84.5127L74.0918 85.7669L72.3553 86.077C71.85 86.1673 71.5156 86.3123 71.3522 86.5122C71.198 86.7104 71.143 86.9335 71.1873 87.1816C71.2366 87.4572 71.3816 87.6589 71.6225 87.7865C71.8709 87.9033 72.1834 87.9281 72.5602 87.8608C72.9185 87.7968 73.2253 87.6567 73.4806 87.4404C73.7342 87.215 73.8958 86.9254 73.9654 86.5716L74.4734 87.5049C74.4025 88.0105 74.1825 88.4243 73.8134 88.7462C73.4442 89.0682 72.9335 89.2874 72.2811 89.4039ZM80.8423 87.8748C79.9694 88.0307 79.2501 87.9316 78.6844 87.5776C78.117 87.2143 77.7546 86.5917 77.597 85.7097L76.4352 79.2046L78.5851 78.8206L79.7421 85.2981C79.7979 85.6105 79.924 85.8392 80.1206 85.9842C80.3155 86.1201 80.5554 86.1626 80.8402 86.1117C81.1802 86.051 81.4532 85.9074 81.6593 85.681L82.5089 87.0936C82.3163 87.2892 82.0711 87.4562 81.7735 87.5947C81.4834 87.7223 81.173 87.8157 80.8423 87.8748ZM75.9091 82.8682L75.6137 81.2143L80.7544 80.2962L81.0498 81.95L75.9091 82.8682ZM83.0907 87.3594L81.7663 79.9448L83.9163 79.5608L85.2406 86.9754L83.0907 87.3594ZM82.6567 78.7191C82.2616 78.7897 81.9195 78.7323 81.6304 78.5469C81.3413 78.3615 81.1664 78.0988 81.1057 77.7589C81.045 77.4189 81.1182 77.1119 81.3252 76.8379C81.5322 76.5639 81.8333 76.3916 82.2284 76.3211C82.6235 76.2505 82.9647 76.3033 83.2522 76.4795C83.538 76.6466 83.7113 76.9 83.772 77.24C83.836 77.5983 83.7653 77.9191 83.5599 78.2023C83.362 78.4746 83.061 78.6469 82.6567 78.7191ZM90.0948 86.2222C89.3046 86.3633 88.5722 86.3235 87.8975 86.1027C87.232 85.8802 86.6693 85.5162 86.2092 85.0105C85.7567 84.494 85.4648 83.8683 85.3335 83.1333C85.2005 82.389 85.2578 81.7009 85.5052 81.0689C85.7601 80.4261 86.1621 79.8897 86.711 79.4598C87.2676 79.0191 87.9409 78.7282 88.7311 78.587C89.512 78.4476 90.2399 78.4882 90.9145 78.709C91.5875 78.9207 92.1495 79.2801 92.6004 79.7874C93.0513 80.2947 93.344 80.9251 93.4786 81.6785C93.6099 82.4135 93.5526 83.1016 93.3069 83.7428C93.0595 84.3748 92.6575 84.9112 92.101 85.3519C91.5445 85.7926 90.8757 86.0827 90.0948 86.2222ZM89.7797 84.4581C90.138 84.3941 90.4448 84.254 90.7001 84.0378C90.9554 83.8215 91.1387 83.547 91.2499 83.2143C91.3595 82.8723 91.3765 82.49 91.301 82.0674C91.2239 81.6356 91.0756 81.2828 90.856 81.0092C90.6365 80.7355 90.3695 80.5414 90.0552 80.4269C89.7408 80.3124 89.4045 80.2871 89.0461 80.3511C88.6878 80.4151 88.381 80.5553 88.1257 80.7715C87.8704 80.9878 87.6826 81.2631 87.5622 81.5975C87.4509 81.9302 87.4339 82.3125 87.511 82.7443C87.5865 83.167 87.7348 83.5197 87.956 83.8026C88.1847 84.0746 88.4563 84.2679 88.7706 84.3824C89.085 84.4969 89.4214 84.5221 89.7797 84.4581ZM98.0514 76.9224C98.6394 76.8173 99.1845 76.8432 99.6865 77.0001C100.196 77.1461 100.628 77.4388 100.981 77.8781C101.333 78.3083 101.576 78.9001 101.711 79.6535L102.469 83.8983L100.319 84.2823L99.6197 80.3683C99.513 79.7711 99.301 79.3538 98.9837 79.1166C98.6756 78.8777 98.2826 78.801 97.8049 78.8863C97.4649 78.947 97.1702 79.0755 96.9209 79.2717C96.679 79.4571 96.5063 79.7108 96.4026 80.0327C96.3081 80.353 96.3019 80.7428 96.3839 81.2022L97.0387 84.8682L94.8887 85.2522L93.5644 77.8375L95.6179 77.4708L95.9847 79.5243L95.488 78.973C95.6658 78.4293 95.979 77.9799 96.4276 77.6248C96.8762 77.2697 97.4174 77.0356 98.0514 76.9224Z" fill="black"/>
<path d="M32.6033 110.682C32.0782 110.776 31.5621 110.787 31.0549 110.715C30.5465 110.636 30.1316 110.494 29.8103 110.287L30.0374 109.454C30.3409 109.637 30.7096 109.767 31.1435 109.846C31.5773 109.924 32.0141 109.924 32.4538 109.845C32.8541 109.774 33.1708 109.67 33.4038 109.533C33.6367 109.397 33.7982 109.239 33.8882 109.061C33.9771 108.876 34.0033 108.681 33.967 108.478C33.9248 108.242 33.812 108.065 33.6287 107.949C33.452 107.832 33.2313 107.753 32.9667 107.712C32.7074 107.663 32.4243 107.633 32.1173 107.62C31.8102 107.607 31.4981 107.585 31.181 107.553C30.8693 107.514 30.5764 107.448 30.3024 107.355C30.0349 107.26 29.8052 107.112 29.6133 106.909C29.4201 106.7 29.2907 106.411 29.2251 106.044C29.1618 105.689 29.1957 105.348 29.3267 105.02C29.4631 104.684 29.709 104.393 30.0646 104.147C30.4255 103.892 30.9079 103.711 31.5117 103.604C31.912 103.532 32.3184 103.514 32.731 103.548C33.1435 103.583 33.5117 103.673 33.8356 103.818L33.6515 104.664C33.321 104.52 32.984 104.434 32.6406 104.408C32.2961 104.374 31.9696 104.385 31.6611 104.44C31.2739 104.51 30.9644 104.616 30.7326 104.759C30.5008 104.902 30.3405 105.066 30.2517 105.251C30.1694 105.435 30.1465 105.629 30.1828 105.832C30.2262 106.075 30.3362 106.255 30.5129 106.372C30.6962 106.489 30.9169 106.568 31.175 106.61C31.4396 106.65 31.726 106.681 32.0343 106.7C32.3413 106.713 32.6501 106.736 32.9607 106.768C33.2778 106.8 33.5701 106.862 33.8375 106.957C34.1115 107.05 34.3445 107.198 34.5365 107.401C34.7285 107.604 34.8567 107.886 34.9211 108.246C34.9833 108.594 34.9461 108.936 34.8097 109.272C34.6722 109.601 34.4196 109.894 34.0521 110.149C33.69 110.396 33.207 110.574 32.6033 110.682ZM38.2611 109.651C37.7361 109.745 37.304 109.676 36.9648 109.446C36.6256 109.215 36.4092 108.837 36.3154 108.312L35.4609 103.528L36.4059 103.359L37.2534 108.104C37.3038 108.386 37.4114 108.591 37.5762 108.717C37.7475 108.842 37.9644 108.881 38.2269 108.834C38.5223 108.782 38.7537 108.656 38.9213 108.456L39.338 109.083C39.2158 109.233 39.0583 109.356 38.8654 109.452C38.6791 109.546 38.4777 109.612 38.2611 109.651ZM34.9177 105.606L34.7788 104.828L38.1062 104.234L38.2451 105.012L34.9177 105.606ZM43.6753 108.623L43.4784 107.521L43.3922 107.323L43.0564 105.442C42.9849 105.042 42.8117 104.755 42.5367 104.58C42.2672 104.398 41.8994 104.349 41.4335 104.432C41.125 104.487 40.8325 104.594 40.5559 104.751C40.2782 104.902 40.0528 105.082 39.8799 105.289L39.3595 104.65C39.5899 104.385 39.8822 104.164 40.2363 103.986C40.5959 103.799 40.9824 103.669 41.3958 103.596C42.1112 103.468 42.6935 103.543 43.1428 103.822C43.5922 104.101 43.8807 104.598 44.0085 105.313L44.5711 108.463L43.6753 108.623ZM41.973 108.988C41.5858 109.057 41.2328 109.053 40.914 108.974C40.6018 108.894 40.3464 108.754 40.1479 108.552C39.9482 108.344 39.822 108.092 39.7692 107.797C39.7188 107.515 39.7387 107.247 39.8289 106.994C39.9257 106.74 40.1128 106.517 40.39 106.325C40.6739 106.132 41.075 105.989 41.5935 105.897L43.2473 105.601L43.3686 106.281L41.7542 106.569C41.2817 106.653 40.9774 106.789 40.8415 106.976C40.7056 107.163 40.6575 107.368 40.6974 107.591C40.7431 107.847 40.8817 108.035 41.1133 108.156C41.3437 108.271 41.6394 108.296 42.0004 108.232C42.3548 108.168 42.6491 108.034 42.8835 107.83C43.1245 107.624 43.277 107.36 43.3412 107.037L43.6443 107.653C43.5747 107.984 43.3988 108.27 43.1166 108.51C42.8333 108.743 42.452 108.903 41.973 108.988ZM48.0668 102.404C48.4934 102.328 48.8821 102.343 49.233 102.45C49.5905 102.555 49.891 102.759 50.1345 103.061C50.378 103.363 50.5455 103.77 50.6369 104.281L51.1732 107.284L50.2282 107.453L49.7112 104.559C49.621 104.053 49.4283 103.695 49.1332 103.483C48.8447 103.271 48.4773 103.204 48.031 103.284C47.6963 103.344 47.416 103.462 47.19 103.637C46.9641 103.813 46.8051 104.041 46.7129 104.322C46.6274 104.601 46.6186 104.931 46.6866 105.312L47.1666 108L46.2216 108.168L45.2897 102.951L46.1954 102.789L46.4468 104.197L46.2323 103.849C46.342 103.477 46.557 103.165 46.8774 102.911C47.1978 102.658 47.5943 102.489 48.0668 102.404ZM54.9902 106.663C54.4848 106.753 54.0121 106.723 53.5719 106.571C53.1383 106.418 52.7709 106.162 52.4696 105.803C52.1684 105.444 51.9704 104.998 51.8754 104.467C51.7805 103.935 51.8127 103.452 51.9721 103.017C52.1303 102.576 52.3863 102.208 52.7402 101.915C53.1007 101.62 53.5336 101.428 54.0389 101.337C54.4787 101.259 54.8933 101.286 55.2828 101.42C55.6724 101.554 56.0073 101.799 56.2877 102.155C56.5746 102.51 56.7708 102.983 56.8763 103.573C56.9818 104.164 56.9647 104.675 56.825 105.106C56.6919 105.536 56.4663 105.885 56.1483 106.152C55.829 106.412 55.443 106.582 54.9902 106.663ZM54.9212 105.822C55.2494 105.764 55.5312 105.635 55.7668 105.438C56.0089 105.239 56.1808 104.988 56.2825 104.685C56.3896 104.375 56.4103 104.036 56.3447 103.668C56.2779 103.294 56.1417 102.987 55.9361 102.746C55.736 102.497 55.4878 102.321 55.1918 102.218C54.9023 102.114 54.5935 102.092 54.2654 102.15C53.9307 102.21 53.6456 102.339 53.41 102.537C53.1745 102.735 53.0025 102.985 52.8943 103.289C52.7848 103.586 52.7635 103.922 52.8303 104.296C52.896 104.664 53.0327 104.974 53.2406 105.228C53.4474 105.476 53.6955 105.652 53.985 105.756C54.2744 105.86 54.5865 105.882 54.9212 105.822ZM56.8402 106.272L56.5887 104.864L56.4315 103.643L56.1168 102.449L55.4962 98.9744L56.4412 98.8056L57.7458 106.11L56.8402 106.272ZM62.6743 105.23L62.4773 104.127L62.3912 103.929L62.0554 102.049C61.9839 101.649 61.8106 101.361 61.5357 101.187C61.2661 101.005 60.8984 100.955 60.4324 101.039C60.124 101.094 59.8315 101.2 59.5549 101.358C59.2771 101.509 59.0518 101.688 58.8788 101.895L58.3584 101.257C58.5888 100.992 58.8811 100.771 59.2353 100.592C59.5948 100.406 59.9813 100.276 60.3948 100.202C61.1101 100.074 61.6925 100.15 62.1418 100.429C62.5911 100.707 62.8797 101.204 63.0074 101.92L63.5701 105.07L62.6743 105.23ZM60.9719 105.595C60.5847 105.664 60.2317 105.659 59.9129 105.581C59.6007 105.501 59.3454 105.36 59.1468 105.159C58.9471 104.951 58.8209 104.699 58.7682 104.404C58.7178 104.121 58.7377 103.854 58.8279 103.601C58.9247 103.346 59.1117 103.123 59.389 102.932C59.6728 102.739 60.074 102.596 60.5924 102.503L62.2463 102.208L62.3676 102.887L60.7531 103.176C60.2806 103.26 59.9764 103.396 59.8404 103.582C59.7045 103.769 59.6565 103.974 59.6963 104.197C59.742 104.453 59.8807 104.642 60.1123 104.763C60.3427 104.878 60.6384 104.903 60.9993 104.838C61.3537 104.775 61.6481 104.641 61.8825 104.437C62.1234 104.231 62.276 103.967 62.3402 103.644L62.6433 104.26C62.5737 104.591 62.3978 104.876 62.1156 105.116C61.8322 105.35 61.451 105.509 60.9719 105.595ZM65.2205 104.775L64.2886 99.5575L65.1943 99.3958L65.4475 100.813L65.2956 100.475C65.3755 100.088 65.5691 99.769 65.8764 99.5178C66.1837 99.2665 66.5867 99.0963 67.0855 99.0072L67.249 99.9227C67.2084 99.9232 67.1685 99.927 67.1291 99.934C67.0963 99.9398 67.0635 99.9457 67.0306 99.9516C66.5253 100.042 66.1519 100.264 65.9105 100.619C65.6691 100.974 65.5994 101.436 65.7014 102.007L66.1656 104.606L65.2205 104.775ZM71.2108 103.766C70.7055 103.856 70.2327 103.826 69.7925 103.674C69.3589 103.521 68.9915 103.265 68.6903 102.906C68.3891 102.546 68.191 102.101 68.0961 101.569C68.0011 101.038 68.0333 100.555 68.1927 100.12C68.3509 99.6785 68.607 99.3111 68.9609 99.0176C69.3213 98.723 69.7543 98.5305 70.2596 98.4403C70.6993 98.3618 71.1139 98.3893 71.5035 98.5229C71.893 98.6565 72.228 98.9014 72.5083 99.2576C72.7952 99.6127 72.9914 100.086 73.0969 100.676C73.2024 101.267 73.1853 101.778 73.0457 102.209C72.9125 102.639 72.687 102.988 72.3689 103.254C72.0497 103.515 71.6636 103.685 71.2108 103.766ZM71.1419 102.925C71.47 102.866 71.7519 102.738 71.9874 102.54C72.2295 102.341 72.4014 102.091 72.5032 101.788C72.6103 101.478 72.631 101.139 72.5653 100.771C72.4985 100.397 72.3623 100.09 72.1568 99.8487C71.9566 99.6 71.7085 99.4242 71.4125 99.3213C71.123 99.2173 70.8142 99.1945 70.486 99.2531C70.1513 99.3129 69.8662 99.4417 69.6307 99.6396C69.3951 99.8374 69.2232 100.088 69.1149 100.392C69.0055 100.689 68.9841 101.025 69.051 101.399C69.1166 101.766 69.2534 102.077 69.4613 102.331C69.668 102.579 69.9161 102.755 70.2056 102.859C70.4951 102.963 70.8072 102.985 71.1419 102.925ZM73.0608 103.375L72.8094 101.967L72.6522 100.746L72.3375 99.5523L71.7168 96.0773L72.6619 95.9085L73.9665 103.213L73.0608 103.375Z" fill="black" fill-opacity="0.6"/>
</g>
<defs>
<filter id="filter0_i_4952_18136" x="1.90625" y="2.68122" width="140.637" height="120.418" filterUnits="userSpaceOnUse" color-interpolation-filters="sRGB">
<feFlood flood-opacity="0" result="BackgroundImageFix"/>
<feBlend mode="normal" in="SourceGraphic" in2="BackgroundImageFix" result="shape"/>
<feColorMatrix in="SourceAlpha" type="matrix" values="0 0 0 0 0 0 0 0 0 0 0 0 0 0 0 0 0 0 127 0" result="hardAlpha"/>
<feOffset dy="1"/>
<feComposite in2="hardAlpha" operator="arithmetic" k2="-1" k3="1"/>
<feColorMatrix type="matrix" values="0 0 0 0 1 0 0 0 0 1 0 0 0 0 1 0 0 0 0.15 0"/>
<feBlend mode="normal" in2="shape" result="effect1_innerShadow_4952_18136"/>
</filter>
</defs>
</svg>
