<svg width="153" height="47" viewBox="0 0 153 47" fill="none" xmlns="http://www.w3.org/2000/svg">
<g clip-path="url(#clip0_3724_4178)">
<path d="M48.1102 9.79358L45.3124 11.3597L45.9372 8.21481L43.5832 6.03786L46.7672 5.66034L48.1102 2.74878L49.4532 5.66034L52.6372 6.03786L50.2832 8.21481L50.9081 11.3597L48.1102 9.79358Z" fill="#FBC935"/>
</g>
<g clip-path="url(#clip1_3724_4178)">
<path d="M61.0302 10.1484L57.8327 11.9382L58.5468 8.34406L55.8565 5.85612L59.4954 5.42466L61.0302 2.09717L62.5651 5.42466L66.204 5.85612L63.5137 8.34406L64.2278 11.9382L61.0302 10.1484Z" fill="#FBC935"/>
</g>
<g clip-path="url(#clip2_3724_4178)">
<path d="M76.5004 11.1239L72.2037 13.529L73.1633 8.69931L69.5481 5.35614L74.4379 4.77637L76.5004 0.305054L78.5628 4.77637L83.4526 5.35614L79.8375 8.69931L80.7971 13.529L76.5004 11.1239Z" fill="#FBC935"/>
</g>
<g clip-path="url(#clip3_3724_4178)">
<path d="M91.9703 10.1484L88.7727 11.9382L89.4868 8.34406L86.7965 5.85612L90.4354 5.42466L91.9703 2.09717L93.5051 5.42466L97.144 5.85612L94.4537 8.34406L95.1678 11.9382L91.9703 10.1484Z" fill="#FBC935"/>
</g>
<g clip-path="url(#clip4_3724_4178)">
<path d="M104.89 9.79358L102.092 11.3597L102.717 8.21481L100.363 6.03786L103.547 5.66034L104.89 2.74878L106.233 5.66034L109.417 6.03786L107.063 8.21481L107.688 11.3597L104.89 9.79358Z" fill="#FBC935"/>
</g>
<path d="M1.44091 31.42V21.9H6.09211C7.28891 21.9 8.18651 22.1267 8.78491 22.58C9.39238 23.0334 9.69611 23.6318 9.69611 24.3752C9.69611 24.8739 9.57371 25.3091 9.32891 25.6808C9.08411 26.0435 8.74864 26.3246 8.32251 26.524C7.89638 26.7235 7.40678 26.8232 6.85371 26.8232L7.11211 26.2656C7.71051 26.2656 8.24091 26.3654 8.70331 26.5648C9.16571 26.7552 9.52384 27.0408 9.77771 27.4216C10.0406 27.8024 10.1721 28.2694 10.1721 28.8224C10.1721 29.6384 9.85024 30.2776 9.20651 30.74C8.56278 31.1934 7.61531 31.42 6.36411 31.42H1.44091ZM3.63051 29.7608H6.20091C6.77211 29.7608 7.20278 29.6702 7.49291 29.4888C7.79211 29.2984 7.94171 28.9992 7.94171 28.5912C7.94171 28.1923 7.79211 27.8976 7.49291 27.7072C7.20278 27.5078 6.77211 27.408 6.20091 27.408H3.46731V25.8032H5.82011C6.35504 25.8032 6.76304 25.7126 7.04411 25.5312C7.33424 25.3408 7.47931 25.0552 7.47931 24.6744C7.47931 24.3027 7.33424 24.0262 7.04411 23.8448C6.76304 23.6544 6.35504 23.5592 5.82011 23.5592H3.63051V29.7608ZM15.3217 31.5288C14.4876 31.5288 13.7532 31.3656 13.1185 31.0392C12.4929 30.7128 12.0079 30.2686 11.6633 29.7064C11.3188 29.1352 11.1465 28.487 11.1465 27.7616C11.1465 27.0272 11.3143 26.379 11.6497 25.8168C11.9943 25.2456 12.4612 24.8014 13.0505 24.484C13.6399 24.1576 14.3063 23.9944 15.0497 23.9944C15.766 23.9944 16.4097 24.1486 16.9809 24.4568C17.5612 24.756 18.0191 25.1912 18.3545 25.7624C18.69 26.3246 18.8577 27 18.8577 27.7888C18.8577 27.8704 18.8532 27.9656 18.8441 28.0744C18.8351 28.1742 18.826 28.2694 18.8169 28.36H12.8737V27.1224H17.7017L16.8857 27.4896C16.8857 27.1088 16.8087 26.7779 16.6545 26.4968C16.5004 26.2158 16.2873 25.9982 16.0153 25.844C15.7433 25.6808 15.426 25.5992 15.0633 25.5992C14.7007 25.5992 14.3788 25.6808 14.0977 25.844C13.8257 25.9982 13.6127 26.2203 13.4585 26.5104C13.3044 26.7915 13.2273 27.127 13.2273 27.5168V27.8432C13.2273 28.2422 13.3135 28.5958 13.4857 28.904C13.6671 29.2032 13.9164 29.4344 14.2337 29.5976C14.5601 29.7518 14.9409 29.8288 15.3761 29.8288C15.766 29.8288 16.106 29.7699 16.3961 29.652C16.6953 29.5342 16.9673 29.3574 17.2121 29.1216L18.3409 30.3456C18.0055 30.7264 17.5839 31.0211 17.0761 31.2296C16.5684 31.4291 15.9836 31.5288 15.3217 31.5288ZM22.7318 31.5288C22.1062 31.5288 21.5033 31.4563 20.923 31.3112C20.3518 31.1571 19.8985 30.9667 19.563 30.74L20.2702 29.2168C20.6057 29.4254 21.0001 29.5976 21.4534 29.7336C21.9158 29.8606 22.3691 29.924 22.8134 29.924C23.303 29.924 23.6475 29.8651 23.847 29.7472C24.0555 29.6294 24.1598 29.4662 24.1598 29.2576C24.1598 29.0854 24.0782 28.9584 23.915 28.8768C23.7609 28.7862 23.5523 28.7182 23.2894 28.6728C23.0265 28.6275 22.7363 28.5822 22.419 28.5368C22.1107 28.4915 21.7979 28.4326 21.4806 28.36C21.1633 28.2784 20.8731 28.1606 20.6102 28.0064C20.3473 27.8523 20.1342 27.6438 19.971 27.3808C19.8169 27.1179 19.7398 26.7779 19.7398 26.3608C19.7398 25.8984 19.8713 25.4904 20.1342 25.1368C20.4062 24.7832 20.7961 24.5067 21.3038 24.3072C21.8115 24.0987 22.419 23.9944 23.1262 23.9944C23.6249 23.9944 24.1326 24.0488 24.6494 24.1576C25.1662 24.2664 25.5969 24.4251 25.9414 24.6336L25.2342 26.1432C24.8806 25.9347 24.5225 25.7942 24.1598 25.7216C23.8062 25.64 23.4617 25.5992 23.1262 25.5992C22.6547 25.5992 22.3102 25.6627 22.0926 25.7896C21.875 25.9166 21.7662 26.0798 21.7662 26.2792C21.7662 26.4606 21.8433 26.5966 21.9974 26.6872C22.1606 26.7779 22.3737 26.8504 22.6366 26.9048C22.8995 26.9592 23.1851 27.0091 23.4934 27.0544C23.8107 27.0907 24.1281 27.1496 24.4454 27.2312C24.7627 27.3128 25.0483 27.4307 25.3022 27.5848C25.5651 27.7299 25.7782 27.9339 25.9414 28.1968C26.1046 28.4507 26.1862 28.7862 26.1862 29.2032C26.1862 29.6566 26.0502 30.06 25.7782 30.4136C25.5062 30.7582 25.1118 31.0302 24.595 31.2296C24.0873 31.4291 23.4662 31.5288 22.7318 31.5288ZM30.4872 31.5288C29.6259 31.5288 28.9549 31.3112 28.4744 30.876C27.9939 30.4318 27.7536 29.7744 27.7536 28.904V22.4848H29.8752V28.8768C29.8752 29.1851 29.9568 29.4254 30.12 29.5976C30.2832 29.7608 30.5053 29.8424 30.7864 29.8424C31.1219 29.8424 31.4075 29.7518 31.6432 29.5704L32.2144 31.0664C31.9968 31.2206 31.7339 31.3384 31.4256 31.42C31.1264 31.4926 30.8136 31.5288 30.4872 31.5288ZM26.6248 25.8984V24.2664H31.6976V25.8984H26.6248ZM39.6913 31.42L36.5769 21.9H38.8617L41.5681 30.332H40.4257L43.2545 21.9H45.2945L48.0145 30.332H46.9129L49.6873 21.9H51.7953L48.6809 31.42H46.3145L43.9073 24.0216H44.5329L42.0577 31.42H39.6913ZM56.8191 31.42V29.992L56.6831 29.6792V27.1224C56.6831 26.6691 56.5426 26.3155 56.2615 26.0616C55.9895 25.8078 55.5679 25.6808 54.9967 25.6808C54.6069 25.6808 54.2215 25.7443 53.8407 25.8712C53.469 25.9891 53.1517 26.1523 52.8887 26.3608L52.1271 24.8784C52.5261 24.5974 53.0066 24.3798 53.5687 24.2256C54.1309 24.0715 54.7021 23.9944 55.2823 23.9944C56.3975 23.9944 57.2634 24.2574 57.8799 24.7832C58.4965 25.3091 58.8047 26.1296 58.8047 27.2448V31.42H56.8191ZM54.5887 31.5288C54.0175 31.5288 53.5279 31.4336 53.1199 31.2432C52.7119 31.0438 52.3991 30.7763 52.1815 30.4408C51.9639 30.1054 51.8551 29.7291 51.8551 29.312C51.8551 28.8768 51.9594 28.496 52.1679 28.1696C52.3855 27.8432 52.7255 27.5894 53.1879 27.408C53.6503 27.2176 54.2533 27.1224 54.9967 27.1224H56.9415V28.36H55.2279C54.7293 28.36 54.3847 28.4416 54.1943 28.6048C54.013 28.768 53.9223 28.972 53.9223 29.2168C53.9223 29.4888 54.0266 29.7064 54.2351 29.8696C54.4527 30.0238 54.7474 30.1008 55.1191 30.1008C55.4727 30.1008 55.7901 30.0192 56.0711 29.856C56.3522 29.6838 56.5562 29.4344 56.6831 29.108L57.0095 30.0872C56.8554 30.5587 56.5743 30.9168 56.1663 31.1616C55.7583 31.4064 55.2325 31.5288 54.5887 31.5288ZM63.7169 31.5288C62.8556 31.5288 62.1846 31.3112 61.7041 30.876C61.2236 30.4318 60.9833 29.7744 60.9833 28.904V22.4848H63.1049V28.8768C63.1049 29.1851 63.1865 29.4254 63.3497 29.5976C63.5129 29.7608 63.735 29.8424 64.0161 29.8424C64.3516 29.8424 64.6372 29.7518 64.8729 29.5704L65.4441 31.0664C65.2265 31.2206 64.9636 31.3384 64.6553 31.42C64.3561 31.4926 64.0433 31.5288 63.7169 31.5288ZM59.8545 25.8984V24.2664H64.9273V25.8984H59.8545ZM70.0405 31.5288C69.2063 31.5288 68.4719 31.3656 67.8373 31.0392C67.2117 30.7128 66.7266 30.2686 66.3821 29.7064C66.0375 29.1352 65.8653 28.487 65.8653 27.7616C65.8653 27.0272 66.033 26.379 66.3685 25.8168C66.713 25.2456 67.1799 24.8014 67.7693 24.484C68.3586 24.1576 69.025 23.9944 69.7685 23.9944C70.4847 23.9944 71.1285 24.1486 71.6997 24.4568C72.2799 24.756 72.7378 25.1912 73.0733 25.7624C73.4087 26.3246 73.5765 27 73.5765 27.7888C73.5765 27.8704 73.5719 27.9656 73.5629 28.0744C73.5538 28.1742 73.5447 28.2694 73.5357 28.36H67.5925V27.1224H72.4205L71.6045 27.4896C71.6045 27.1088 71.5274 26.7779 71.3733 26.4968C71.2191 26.2158 71.0061 25.9982 70.7341 25.844C70.4621 25.6808 70.1447 25.5992 69.7821 25.5992C69.4194 25.5992 69.0975 25.6808 68.8165 25.844C68.5445 25.9982 68.3314 26.2203 68.1773 26.5104C68.0231 26.7915 67.9461 27.127 67.9461 27.5168V27.8432C67.9461 28.2422 68.0322 28.5958 68.2045 28.904C68.3858 29.2032 68.6351 29.4344 68.9525 29.5976C69.2789 29.7518 69.6597 29.8288 70.0949 29.8288C70.4847 29.8288 70.8247 29.7699 71.1149 29.652C71.4141 29.5342 71.6861 29.3574 71.9309 29.1216L73.0597 30.3456C72.7242 30.7264 72.3026 31.0211 71.7949 31.2296C71.2871 31.4291 70.7023 31.5288 70.0405 31.5288ZM74.989 31.42V24.1032H77.0154V26.1704L76.7298 25.572C76.9474 25.0552 77.2964 24.6654 77.777 24.4024C78.2575 24.1304 78.8423 23.9944 79.5314 23.9944V25.9528C79.4407 25.9438 79.3591 25.9392 79.2866 25.9392C79.214 25.9302 79.137 25.9256 79.0554 25.9256C78.4751 25.9256 78.0036 26.0934 77.641 26.4288C77.2874 26.7552 77.1106 27.2675 77.1106 27.9656V31.42H74.989ZM86.8736 25.7352H91.4568V27.4488H86.8736V25.7352ZM87.0368 29.652H92.2184V31.42H84.8472V21.9H92.0416V23.668H87.0368V29.652ZM93.2778 34.1672C92.9514 34.1672 92.6386 34.131 92.3394 34.0584C92.0402 33.995 91.7863 33.8952 91.5778 33.7592L92.149 32.2224C92.3938 32.3947 92.693 32.4808 93.0466 32.4808C93.3095 32.4808 93.518 32.3902 93.6722 32.2088C93.8354 32.0366 93.917 31.7736 93.917 31.42V24.1032H96.0386V31.4064C96.0386 32.2496 95.7983 32.9206 95.3178 33.4192C94.8372 33.9179 94.1572 34.1672 93.2778 34.1672ZM94.9778 23.0832C94.5879 23.0832 94.2706 22.9699 94.0258 22.7432C93.781 22.5166 93.6586 22.2355 93.6586 21.9C93.6586 21.5646 93.781 21.2835 94.0258 21.0568C94.2706 20.8302 94.5879 20.7168 94.9778 20.7168C95.3676 20.7168 95.685 20.8256 95.9298 21.0432C96.1746 21.2518 96.297 21.5238 96.297 21.8592C96.297 22.2128 96.1746 22.5075 95.9298 22.7432C95.694 22.9699 95.3767 23.0832 94.9778 23.0832ZM101.623 31.5288C100.789 31.5288 100.055 31.3656 99.4201 31.0392C98.7945 30.7128 98.3094 30.2686 97.9649 29.7064C97.6203 29.1352 97.4481 28.487 97.4481 27.7616C97.4481 27.0272 97.6158 26.379 97.9513 25.8168C98.2958 25.2456 98.7627 24.8014 99.3521 24.484C99.9414 24.1576 100.608 23.9944 101.351 23.9944C102.068 23.9944 102.711 24.1486 103.282 24.4568C103.863 24.756 104.321 25.1912 104.656 25.7624C104.992 26.3246 105.159 27 105.159 27.7888C105.159 27.8704 105.155 27.9656 105.146 28.0744C105.137 28.1742 105.128 28.2694 105.118 28.36H99.1753V27.1224H104.003L103.187 27.4896C103.187 27.1088 103.11 26.7779 102.956 26.4968C102.802 26.2158 102.589 25.9982 102.317 25.844C102.045 25.6808 101.728 25.5992 101.365 25.5992C101.002 25.5992 100.68 25.6808 100.399 25.844C100.127 25.9982 99.9142 26.2203 99.7601 26.5104C99.6059 26.7915 99.5289 27.127 99.5289 27.5168V27.8432C99.5289 28.2422 99.615 28.5958 99.7873 28.904C99.9686 29.2032 100.218 29.4344 100.535 29.5976C100.862 29.7518 101.242 29.8288 101.678 29.8288C102.068 29.8288 102.408 29.7699 102.698 29.652C102.997 29.5342 103.269 29.3574 103.514 29.1216L104.642 30.3456C104.307 30.7264 103.885 31.0211 103.378 31.2296C102.87 31.4291 102.285 31.5288 101.623 31.5288ZM110.108 31.5288C109.319 31.5288 108.616 31.3702 108 31.0528C107.383 30.7264 106.898 30.2776 106.545 29.7064C106.2 29.1352 106.028 28.487 106.028 27.7616C106.028 27.0272 106.2 26.379 106.545 25.8168C106.898 25.2456 107.383 24.8014 108 24.484C108.616 24.1576 109.319 23.9944 110.108 23.9944C110.878 23.9944 111.549 24.1576 112.121 24.484C112.692 24.8014 113.113 25.2592 113.385 25.8576L111.74 26.7416C111.549 26.3971 111.309 26.1432 111.019 25.98C110.738 25.8168 110.43 25.7352 110.094 25.7352C109.731 25.7352 109.405 25.8168 109.115 25.98C108.825 26.1432 108.594 26.3744 108.421 26.6736C108.258 26.9728 108.177 27.3355 108.177 27.7616C108.177 28.1878 108.258 28.5504 108.421 28.8496C108.594 29.1488 108.825 29.38 109.115 29.5432C109.405 29.7064 109.731 29.788 110.094 29.788C110.43 29.788 110.738 29.711 111.019 29.5568C111.309 29.3936 111.549 29.1352 111.74 28.7816L113.385 29.6792C113.113 30.2686 112.692 30.7264 112.121 31.0528C111.549 31.3702 110.878 31.5288 110.108 31.5288ZM117.705 31.5288C116.844 31.5288 116.173 31.3112 115.692 30.876C115.212 30.4318 114.972 29.7744 114.972 28.904V22.4848H117.093V28.8768C117.093 29.1851 117.175 29.4254 117.338 29.5976C117.501 29.7608 117.723 29.8424 118.004 29.8424C118.34 29.8424 118.625 29.7518 118.861 29.5704L119.432 31.0664C119.215 31.2206 118.952 31.3384 118.644 31.42C118.344 31.4926 118.032 31.5288 117.705 31.5288ZM113.843 25.8984V24.2664H118.916V25.8984H113.843ZM123.373 31.42L127.616 21.9H129.792L134.049 31.42H131.737L128.256 23.0152H129.126L125.631 31.42H123.373ZM125.495 29.38L126.08 27.7072H130.976L131.574 29.38H125.495ZM139.212 31.5288C138.596 31.5288 138.056 31.3928 137.594 31.1208C137.131 30.8488 136.769 30.4363 136.506 29.8832C136.252 29.3211 136.125 28.6139 136.125 27.7616C136.125 26.9003 136.247 26.1931 136.492 25.64C136.737 25.087 137.091 24.6744 137.553 24.4024C138.015 24.1304 138.568 23.9944 139.212 23.9944C139.901 23.9944 140.518 24.1531 141.062 24.4704C141.615 24.7787 142.05 25.2139 142.367 25.776C142.694 26.3382 142.857 27 142.857 27.7616C142.857 28.5323 142.694 29.1987 142.367 29.7608C142.05 30.323 141.615 30.7582 141.062 31.0664C140.518 31.3747 139.901 31.5288 139.212 31.5288ZM134.887 34.0584V24.1032H136.914V25.5992L136.873 27.7752L137.009 29.9376V34.0584H134.887ZM138.845 29.788C139.199 29.788 139.511 29.7064 139.783 29.5432C140.064 29.38 140.287 29.1488 140.45 28.8496C140.622 28.5414 140.708 28.1787 140.708 27.7616C140.708 27.3355 140.622 26.9728 140.45 26.6736C140.287 26.3744 140.064 26.1432 139.783 25.98C139.511 25.8168 139.199 25.7352 138.845 25.7352C138.491 25.7352 138.174 25.8168 137.893 25.98C137.612 26.1432 137.39 26.3744 137.227 26.6736C137.063 26.9728 136.982 27.3355 136.982 27.7616C136.982 28.1787 137.063 28.5414 137.227 28.8496C137.39 29.1488 137.612 29.38 137.893 29.5432C138.174 29.7064 138.491 29.788 138.845 29.788ZM148.602 31.5288C147.985 31.5288 147.446 31.3928 146.984 31.1208C146.521 30.8488 146.159 30.4363 145.896 29.8832C145.642 29.3211 145.515 28.6139 145.515 27.7616C145.515 26.9003 145.637 26.1931 145.882 25.64C146.127 25.087 146.48 24.6744 146.943 24.4024C147.405 24.1304 147.958 23.9944 148.602 23.9944C149.291 23.9944 149.908 24.1531 150.452 24.4704C151.005 24.7787 151.44 25.2139 151.757 25.776C152.084 26.3382 152.247 27 152.247 27.7616C152.247 28.5323 152.084 29.1987 151.757 29.7608C151.44 30.323 151.005 30.7582 150.452 31.0664C149.908 31.3747 149.291 31.5288 148.602 31.5288ZM144.277 34.0584V24.1032H146.304V25.5992L146.263 27.7752L146.399 29.9376V34.0584H144.277ZM148.235 29.788C148.588 29.788 148.901 29.7064 149.173 29.5432C149.454 29.38 149.676 29.1488 149.84 28.8496C150.012 28.5414 150.098 28.1787 150.098 27.7616C150.098 27.3355 150.012 26.9728 149.84 26.6736C149.676 26.3744 149.454 26.1432 149.173 25.98C148.901 25.8168 148.588 25.7352 148.235 25.7352C147.881 25.7352 147.564 25.8168 147.283 25.98C147.002 26.1432 146.78 26.3744 146.616 26.6736C146.453 26.9728 146.372 27.3355 146.372 27.7616C146.372 28.1787 146.453 28.5414 146.616 28.8496C146.78 29.1488 147.002 29.38 147.283 29.5432C147.564 29.7064 147.881 29.788 148.235 29.788Z" fill="white"/>
<path d="M63.7164 45.86V44.9134L66.7411 42.0411C66.9949 41.8017 67.1835 41.5914 67.3068 41.4101C67.4301 41.2287 67.5099 41.0619 67.5462 40.9096C67.5897 40.75 67.6115 40.6013 67.6115 40.4635C67.6115 40.1153 67.4918 39.847 67.2524 39.6584C67.0131 39.4625 66.6613 39.3646 66.1971 39.3646C65.8271 39.3646 65.4899 39.4299 65.1852 39.5605C64.8878 39.691 64.6303 39.8905 64.4127 40.1589L63.4227 39.3973C63.72 38.9983 64.119 38.6901 64.6195 38.4725C65.1272 38.2476 65.693 38.1352 66.3167 38.1352C66.868 38.1352 67.3467 38.2259 67.7529 38.4072C68.1663 38.5813 68.4819 38.8315 68.6995 39.1579C68.9243 39.4843 69.0367 39.8724 69.0367 40.3221C69.0367 40.5687 69.0041 40.8153 68.9388 41.0619C68.8735 41.3013 68.7502 41.5551 68.5689 41.8235C68.3876 42.0919 68.1228 42.3929 67.7747 42.7265L65.1743 45.1963L64.8806 44.6632H69.3305V45.86H63.7164ZM73.3238 45.9688C72.7218 45.9688 72.1778 45.8165 71.6918 45.5118C71.2131 45.2072 70.8359 44.7647 70.5603 44.1845C70.2847 43.5969 70.1468 42.8861 70.1468 42.052C70.1468 41.2179 70.2847 40.5107 70.5603 39.9304C70.8359 39.3429 71.2131 38.8968 71.6918 38.5921C72.1778 38.2875 72.7218 38.1352 73.3238 38.1352C73.9331 38.1352 74.4771 38.2875 74.9558 38.5921C75.4345 38.8968 75.8117 39.3429 76.0873 39.9304C76.3702 40.5107 76.5116 41.2179 76.5116 42.052C76.5116 42.8861 76.3702 43.5969 76.0873 44.1845C75.8117 44.7647 75.4345 45.2072 74.9558 45.5118C74.4771 45.8165 73.9331 45.9688 73.3238 45.9688ZM73.3238 44.7393C73.6792 44.7393 73.9875 44.6451 74.2486 44.4565C74.5097 44.2606 74.7128 43.9632 74.8579 43.5643C75.0102 43.1654 75.0864 42.6613 75.0864 42.052C75.0864 41.4355 75.0102 40.9313 74.8579 40.5397C74.7128 40.1407 74.5097 39.847 74.2486 39.6584C73.9875 39.4625 73.6792 39.3646 73.3238 39.3646C72.9829 39.3646 72.6783 39.4625 72.4099 39.6584C72.1488 39.847 71.942 40.1407 71.7897 40.5397C71.6447 40.9313 71.5721 41.4355 71.5721 42.052C71.5721 42.6613 71.6447 43.1654 71.7897 43.5643C71.942 43.9632 72.1488 44.2606 72.4099 44.4565C72.6783 44.6451 72.9829 44.7393 73.3238 44.7393ZM77.3589 45.86V44.9134L80.3836 42.0411C80.6374 41.8017 80.826 41.5914 80.9493 41.4101C81.0726 41.2287 81.1524 41.0619 81.1887 40.9096C81.2322 40.75 81.254 40.6013 81.254 40.4635C81.254 40.1153 81.1343 39.847 80.8949 39.6584C80.6556 39.4625 80.3038 39.3646 79.8396 39.3646C79.4696 39.3646 79.1324 39.4299 78.8277 39.5605C78.5303 39.691 78.2728 39.8905 78.0552 40.1589L77.0652 39.3973C77.3625 38.9983 77.7615 38.6901 78.262 38.4725C78.7697 38.2476 79.3355 38.1352 79.9592 38.1352C80.5105 38.1352 80.9892 38.2259 81.3954 38.4072C81.8088 38.5813 82.1244 38.8315 82.342 39.1579C82.5668 39.4843 82.6792 39.8724 82.6792 40.3221C82.6792 40.5687 82.6466 40.8153 82.5813 41.0619C82.516 41.3013 82.3927 41.5551 82.2114 41.8235C82.0301 42.0919 81.7653 42.3929 81.4172 42.7265L78.8168 45.1963L78.5231 44.6632H82.973V45.86H77.3589ZM86.3135 45.9688C85.7768 45.9688 85.2509 45.8926 84.7359 45.7403C84.2282 45.5807 83.8002 45.3631 83.4521 45.0875L84.0505 43.9886C84.3261 44.2135 84.6597 44.3948 85.0514 44.5326C85.4504 44.6704 85.8638 44.7393 86.2917 44.7393C86.7922 44.7393 87.1839 44.6342 87.4668 44.4238C87.7569 44.2135 87.902 43.9306 87.902 43.5752C87.902 43.3358 87.8403 43.1255 87.717 42.9441C87.601 42.7628 87.3906 42.625 87.086 42.5307C86.7886 42.4364 86.3788 42.3893 85.8565 42.3893H84.0178L84.4095 38.244H88.8812V39.4299H84.9317L85.6716 38.7553L85.3778 41.8561L84.638 41.1925H86.1721C86.9264 41.1925 87.5321 41.294 87.989 41.4971C88.4532 41.6929 88.7905 41.9686 89.0009 42.324C89.2185 42.6721 89.3273 43.0711 89.3273 43.5208C89.3273 43.9632 89.2185 44.3694 89.0009 44.7393C88.7833 45.1093 88.4496 45.4067 87.9999 45.6315C87.5574 45.8564 86.9953 45.9688 86.3135 45.9688Z" fill="#BBCDF1"/>
<defs>
<clipPath id="clip0_3724_4178">
<rect width="9.52" height="9.52" fill="white" transform="translate(43.35 2.55005)"/>
</clipPath>
<clipPath id="clip1_3724_4178">
<rect width="10.88" height="10.88" fill="white" transform="translate(55.59 1.86987)"/>
</clipPath>
<clipPath id="clip2_3724_4178">
<rect width="14.62" height="14.62" fill="white" transform="translate(69.19)"/>
</clipPath>
<clipPath id="clip3_3724_4178">
<rect width="10.88" height="10.88" fill="white" transform="translate(86.53 1.86987)"/>
</clipPath>
<clipPath id="clip4_3724_4178">
<rect width="9.52" height="9.52" fill="white" transform="translate(100.13 2.55005)"/>
</clipPath>
</defs>
</svg>
