<svg width="12" height="14" viewBox="0 0 12 14" fill="none" xmlns="http://www.w3.org/2000/svg">
<path d="M10.8125 6.125C11.0541 6.125 11.25 6.32088 11.25 6.5625C11.25 9.31528 9.1312 11.5715 6.43555 11.793C6.43583 11.7995 6.4375 11.8059 6.4375 11.8125V13.5625C6.4375 13.8041 6.24162 14 6 14C5.75838 14 5.5625 13.8041 5.5625 13.5625V11.8125C5.5625 11.8059 5.56417 11.7995 5.56445 11.793C2.8688 11.5715 0.75 9.31528 0.75 6.5625C0.75 6.32088 0.945875 6.125 1.1875 6.125C1.42912 6.125 1.625 6.32088 1.625 6.5625C1.625 8.97875 3.58375 10.9375 6 10.9375C8.41625 10.9375 10.375 8.97875 10.375 6.5625C10.375 6.32088 10.5709 6.125 10.8125 6.125ZM6 0C7.20812 0 8.1875 0.979377 8.1875 2.1875V6.5625C8.1875 7.77062 7.20812 8.75 6 8.75C4.79188 8.75 3.8125 7.77062 3.8125 6.5625V2.1875C3.8125 0.979377 4.79188 0 6 0Z" fill="#B3B3B3"/>
</svg>
