<svg width="64" height="44" viewBox="0 0 64 44" fill="none" xmlns="http://www.w3.org/2000/svg">
<rect x="7" y="9" width="7" height="9" rx="3.5" transform="rotate(-180 7 9)" fill="url(#paint0_linear_4033_9257)"/>
<rect x="26" y="44" width="7.00001" height="37" rx="3.5" transform="rotate(-180 26 44)" fill="url(#paint1_linear_4033_9257)"/>
<rect x="45" y="35" width="7.00001" height="35" rx="3.5" transform="rotate(-180 45 35)" fill="url(#paint2_linear_4033_9257)"/>
<rect x="64" y="14" width="7" height="14" rx="3.5" transform="rotate(-180 64 14)" fill="url(#paint3_linear_4033_9257)"/>
<rect x="7" y="25" width="7" height="11" rx="3.5" transform="rotate(-180 7 25)" fill="url(#paint4_linear_4033_9257)"/>
<defs>
<linearGradient id="paint0_linear_4033_9257" x1="10.5" y1="9" x2="10.5" y2="18" gradientUnits="userSpaceOnUse">
<stop stop-color="#AFE3FF"/>
<stop offset="1" stop-color="#3ABAFF"/>
</linearGradient>
<linearGradient id="paint1_linear_4033_9257" x1="29.5" y1="44" x2="29.5" y2="81" gradientUnits="userSpaceOnUse">
<stop stop-color="#AFE3FF"/>
<stop offset="1" stop-color="#3ABAFF"/>
</linearGradient>
<linearGradient id="paint2_linear_4033_9257" x1="48.5" y1="35" x2="48.5" y2="70" gradientUnits="userSpaceOnUse">
<stop stop-color="#AFE3FF"/>
<stop offset="1" stop-color="#3ABAFF"/>
</linearGradient>
<linearGradient id="paint3_linear_4033_9257" x1="67.5" y1="14" x2="67.5" y2="28" gradientUnits="userSpaceOnUse">
<stop stop-color="#AFE3FF"/>
<stop offset="1" stop-color="#3ABAFF"/>
</linearGradient>
<linearGradient id="paint4_linear_4033_9257" x1="10.5" y1="25" x2="10.5" y2="36" gradientUnits="userSpaceOnUse">
<stop stop-color="#AFE3FF"/>
<stop offset="1" stop-color="#3ABAFF"/>
</linearGradient>
</defs>
</svg>
