<svg width="215" height="67" viewBox="0 0 215 67" fill="none" xmlns="http://www.w3.org/2000/svg">
<path d="M23.4782 58.3088C22.9769 58.5454 21.0049 58.644 21.0049 58.644C21.0049 58.644 19.9489 58.7294 19.8719 58.7283C19.8322 58.7272 19.784 58.7261 19.7251 58.724C19.7107 58.7218 19.6959 58.724 19.6799 58.7218C19.665 58.7207 19.649 58.7196 19.6325 58.7196C19.5978 58.7174 19.5636 58.7152 19.5246 58.7108C19.2229 58.6889 18.775 58.633 18.2181 58.4796C18.1471 58.4621 18.0772 58.438 18.0033 58.4161C17.9317 58.392 17.8568 58.3723 17.7807 58.3427C17.7057 58.3175 17.6288 58.289 17.5484 58.2605C17.4702 58.2299 17.391 58.1981 17.3093 58.1641C17.0725 58.0666 16.822 57.9461 16.5669 57.8125C16.564 57.8048 16.5596 57.7982 16.5563 57.7916C16.5334 57.7423 16.5136 57.6919 16.4966 57.6404C16.4793 57.5879 16.4653 57.5353 16.456 57.4816C16.445 57.429 16.4395 57.3709 16.4375 57.3151C16.4289 57.0905 16.4899 56.856 16.6515 56.6194C16.6515 56.6194 16.6947 56.4824 16.7631 56.2732C16.8283 56.065 16.9163 55.7835 17.0107 55.4866C17.1008 55.1908 17.1913 54.8895 17.2505 54.6353C17.2806 54.506 17.3022 54.3888 17.3106 54.2924C17.3136 54.2431 17.3136 54.2003 17.3106 54.162C17.3073 54.1226 17.3 54.0886 17.2865 54.0612C17.2624 54.0042 17.2387 53.9517 17.2197 53.8958L17.2045 53.8552L17.1897 53.8103C17.1812 53.7829 17.1715 53.7545 17.1626 53.726C17.1444 53.6679 17.1275 53.6098 17.1101 53.5507C17.0932 53.4904 17.0767 53.4291 17.0598 53.3655C17.0243 53.2406 16.9879 53.1037 16.9409 52.9613C16.9176 52.89 16.8939 52.8123 16.866 52.7334C16.8512 52.695 16.8351 52.6534 16.8199 52.6129C16.8051 52.5723 16.7886 52.5285 16.7716 52.4847C16.7547 52.4419 16.7395 52.3948 16.7256 52.3455C16.712 52.2962 16.7005 52.2393 16.6921 52.1834C16.6743 52.0684 16.6612 51.949 16.6591 51.8164C16.6557 51.6893 16.6599 51.5545 16.6723 51.4165C16.6815 51.2785 16.6989 51.1437 16.7213 51.0057C16.7318 50.9388 16.7438 50.8709 16.7569 50.8074C16.764 50.7734 16.7716 50.7416 16.778 50.7099C16.7851 50.6781 16.7933 50.6463 16.7995 50.6146C16.8317 50.4864 16.8634 50.3691 16.8981 50.265C16.968 50.0514 17.042 49.8827 17.1008 49.7896C17.1008 49.7896 17.0086 49.9298 16.8541 50.1599C16.778 50.2771 16.6841 50.4173 16.5813 50.5729C16.4759 50.7329 16.3612 50.9103 16.2382 51.0966C16.1159 51.285 15.9843 51.4855 15.8506 51.6893C15.7156 51.8996 15.5773 52.1111 15.4368 52.3214C15.2956 52.534 15.1516 52.7487 15.0074 52.9525C14.8653 53.1563 14.7214 53.3513 14.578 53.5331C14.4642 53.6745 14.3745 53.8224 14.3068 53.9747C14.2387 54.1237 14.1947 54.2759 14.171 54.4304C14.157 54.5082 14.1495 54.5871 14.146 54.666C14.1439 54.7427 14.1469 54.8193 14.1541 54.8971C14.16 54.976 14.171 55.0538 14.1866 55.1294C14.2032 55.2061 14.223 55.2817 14.248 55.3584C14.3424 55.664 14.5026 55.95 14.7011 56.2085C14.903 56.4638 15.1381 56.6939 15.3864 56.8681C15.634 57.0466 15.8358 57.2351 16.0029 57.4323C16.036 57.4739 16.0698 57.5144 16.1024 57.555C15.4356 57.1584 14.7319 56.6457 14.0305 56.0091C13.3997 55.4362 12.7752 54.7646 12.172 54.0141C12.1558 53.8267 12.1635 53.6306 12.232 53.44C12.3048 53.2351 12.4419 53.0434 12.6707 52.8922C12.6707 52.8922 12.7588 52.7838 12.8895 52.614C13.0214 52.4453 13.1971 52.2174 13.3705 51.9731C13.4586 51.8525 13.544 51.7287 13.6264 51.6049C13.7069 51.4822 13.783 51.3606 13.8452 51.2467C13.9087 51.1327 13.9586 51.0276 13.9912 50.9345C14.0254 50.8391 14.0381 50.757 14.0263 50.6923C14.0166 50.6255 14.0081 50.5609 13.9997 50.4973C13.9928 50.4327 13.9899 50.3669 13.9844 50.3012C13.9827 50.2355 13.9789 50.1708 13.9746 50.1029C13.9726 50.0361 13.9691 49.966 13.9671 49.8969C13.9641 49.8257 13.9607 49.7545 13.9564 49.6778C13.9522 49.6033 13.9493 49.5244 13.9417 49.4412C13.9362 49.359 13.9251 49.2769 13.9158 49.1859C13.9061 49.095 13.8943 49.0019 13.8774 48.9022C13.8612 48.8047 13.8592 48.6918 13.8634 48.5713C13.8668 48.5121 13.871 48.4508 13.8774 48.3883C13.8858 48.3237 13.8969 48.2602 13.9074 48.1933C13.9307 48.063 13.9599 47.9282 13.9971 47.7924C14.0361 47.6587 14.0767 47.5239 14.1257 47.3936C14.1726 47.2643 14.223 47.1383 14.276 47.0211C14.3271 46.9028 14.383 46.7921 14.4341 46.6946C14.4891 46.596 14.5395 46.5094 14.5865 46.4371C14.6355 46.3648 14.6795 46.3089 14.7172 46.2695C14.7172 46.2695 14.2522 46.7406 13.6502 47.3486C13.4983 47.5031 13.3341 47.6685 13.1641 47.8362C12.9936 48.0049 12.8188 48.1769 12.6416 48.3478C12.463 48.5165 12.2823 48.6863 12.1034 48.8452C11.9252 49.0051 11.7455 49.1563 11.5699 49.29C11.2945 49.5058 11.0986 49.7589 10.9784 50.0372C10.8574 50.3187 10.8097 50.6211 10.8181 50.929C10.8375 51.5458 11.0922 52.1768 11.4307 52.6622C11.5166 52.7827 11.5847 52.9054 11.646 53.0237C11.707 53.1453 11.7561 53.2658 11.7967 53.3841C11.828 53.4685 11.8487 53.5507 11.8699 53.6328C11.8433 53.5978 11.8144 53.566 11.7882 53.5299C11.0698 52.58 10.3904 51.5151 9.7828 50.3626C9.54637 49.9145 9.32206 49.4488 9.10805 48.9734C9.10924 48.9602 9.10805 48.9471 9.1101 48.935C9.12321 48.8386 9.14487 48.7433 9.17574 48.648C9.2091 48.5516 9.25318 48.4573 9.30852 48.3708C9.42452 48.1966 9.5937 48.0476 9.83912 47.9567C9.83912 47.9567 9.86447 47.9381 9.91061 47.9008C9.95718 47.8636 10.0218 47.8121 10.1035 47.7474C10.2622 47.617 10.4754 47.4418 10.6895 47.2522C10.7966 47.1558 10.9027 47.0583 11.0046 46.9586C11.1062 46.8622 11.2023 46.7636 11.2847 46.6683C11.4498 46.4821 11.5627 46.3111 11.5699 46.1807C11.5826 45.9222 11.6316 45.6834 11.6782 45.4138C11.7028 45.2791 11.7273 45.1378 11.7468 44.98C11.7581 44.8989 11.7683 44.8168 11.7756 44.7302C11.7831 44.6437 11.7903 44.5538 11.798 44.4552C11.8047 44.3599 11.8225 44.2548 11.8508 44.1441C11.8813 44.0334 11.921 43.9162 11.9689 43.799C12.0146 43.6807 12.0725 43.5601 12.1343 43.4418C12.1956 43.3224 12.2621 43.2063 12.3323 43.0945C12.4033 42.9839 12.4761 42.8765 12.5476 42.7779C12.6208 42.6782 12.6927 42.5884 12.7621 42.5073C12.8984 42.3441 13.0236 42.2268 13.1095 42.1688C13.1095 42.1688 12.5832 42.515 11.9021 42.9642C11.5559 43.1931 11.1624 43.4495 10.7665 43.6971C10.3679 43.9458 9.9614 44.189 9.58189 44.372C9.28361 44.5188 9.05129 44.7171 8.88255 44.9537C8.79872 45.0709 8.72897 45.1991 8.67351 45.3317C8.61763 45.4664 8.57918 45.6045 8.55124 45.7491C8.43957 46.3243 8.54062 46.9608 8.7463 47.479C8.79872 47.6072 8.83424 47.7365 8.86392 47.8614C8.89392 47.9841 8.91341 48.1068 8.92316 48.2229C8.93454 48.3434 8.93789 48.4541 8.93454 48.5625C8.93454 48.5724 8.93454 48.5811 8.93248 48.591C8.66506 47.9742 8.41758 47.3399 8.19208 46.6913C7.97081 46.046 7.77109 45.392 7.59975 44.7248C7.48765 44.2865 7.38985 43.8406 7.30234 43.3958C7.31544 43.3498 7.32389 43.3071 7.34295 43.2611C7.40934 43.0923 7.50368 42.9214 7.64665 42.7845C7.79102 42.6442 7.97926 42.5446 8.22425 42.5073C8.22425 42.5073 8.33798 42.4536 8.51278 42.3671C8.68618 42.2805 8.91764 42.1611 9.15754 42.0307C9.39658 41.8982 9.63984 41.7546 9.83273 41.6177C10.0252 41.4797 10.1691 41.3482 10.2009 41.2321C10.2351 41.117 10.2799 41.0097 10.3239 40.9012C10.3476 40.8464 10.3688 40.7905 10.395 40.7358C10.4195 40.681 10.4462 40.6251 10.472 40.5659C10.4987 40.5101 10.5245 40.4487 10.5516 40.3874C10.5778 40.326 10.6057 40.2614 10.6341 40.1946C10.6612 40.1266 10.6874 40.0576 10.7153 39.982C10.7427 39.9064 10.772 39.8286 10.7991 39.7454C10.8126 39.7048 10.8295 39.661 10.849 39.6161C10.868 39.5734 10.8943 39.5284 10.9192 39.4824C10.9726 39.3904 11.0352 39.2984 11.1062 39.2053C11.179 39.1121 11.2585 39.0201 11.3419 38.9314C11.3829 38.8886 11.4265 38.8448 11.4718 38.8021C11.5166 38.7605 11.5614 38.7188 11.6063 38.6783C11.6511 38.6366 11.6964 38.5983 11.7412 38.5622C11.7861 38.5238 11.8335 38.4887 11.8783 38.4559C11.9689 38.3879 12.0564 38.3266 12.1376 38.2751C12.1809 38.2477 12.2215 38.2225 12.2574 38.1984C12.295 38.1754 12.3323 38.1535 12.367 38.1338C12.4347 38.0954 12.4922 38.068 12.5391 38.0505C12.5391 38.0505 12.4 38.0987 12.1685 38.1776C12.1098 38.1973 12.0463 38.2203 11.9773 38.2422C11.9083 38.2642 11.8364 38.2872 11.7581 38.3113C11.6012 38.3617 11.4265 38.4186 11.2433 38.4767C11.0546 38.5381 10.8608 38.6027 10.6561 38.6684C10.4526 38.7375 10.2406 38.8043 10.0294 38.8711C9.60724 39.0048 9.17996 39.133 8.78821 39.2195C8.47802 39.2885 8.22425 39.4167 8.01349 39.5942C7.90648 39.6829 7.81637 39.7837 7.73513 39.8922C7.6539 40.0028 7.58285 40.1211 7.5287 40.2449C7.47108 40.3698 7.42115 40.5002 7.38563 40.635C7.3514 40.7697 7.32476 40.9067 7.30819 41.0447C7.29465 41.1828 7.28836 41.3241 7.28966 41.4589C7.29389 41.5947 7.30656 41.7294 7.32389 41.8598C7.33234 41.9223 7.33873 41.9847 7.34382 42.0461C7.34923 42.1096 7.3501 42.1688 7.3501 42.229C7.34923 42.2893 7.34588 42.3463 7.34165 42.4043C7.33743 42.4613 7.33234 42.5183 7.32476 42.5719C7.30948 42.6826 7.28836 42.7867 7.26129 42.8853C7.25197 42.9258 7.2393 42.962 7.22619 43.0014C7.20887 42.9039 7.18634 42.8064 7.17161 42.7078C6.94265 41.3526 6.83098 39.982 6.8716 38.641C6.87376 38.5567 6.87582 38.4745 6.87928 38.3912C6.88221 38.3069 6.88773 38.2236 6.89282 38.1393C6.89748 38.0582 6.9029 37.9749 6.90593 37.8906C6.91351 37.8062 6.92066 37.724 6.92705 37.6408C6.92705 37.6353 6.92705 37.632 6.92911 37.6298C6.9681 37.5564 7.01294 37.4797 7.06882 37.4041C7.16825 37.2672 7.3032 37.1368 7.46945 37.0459C7.63397 36.955 7.83164 36.9078 8.06255 36.9352C8.06255 36.9352 8.17931 36.9133 8.35834 36.8772C8.53726 36.8388 8.77803 36.7873 9.02974 36.726C9.28058 36.6635 9.53911 36.5923 9.74901 36.5156C9.85266 36.4762 9.9457 36.4346 10.0189 36.3918C10.0951 36.3502 10.1513 36.3064 10.1818 36.2571C10.3057 36.0686 10.4407 35.9054 10.5993 35.7224C10.6776 35.6304 10.756 35.5329 10.8397 35.4233C10.9264 35.3138 11.0161 35.1933 11.1062 35.0541C11.1176 35.0377 11.1307 35.0191 11.1439 35.0027C11.1566 34.9851 11.171 34.9676 11.1866 34.95C11.2166 34.9139 11.2505 34.8788 11.2869 34.8438C11.3579 34.7737 11.4392 34.7035 11.5272 34.6334C11.6147 34.5655 11.7133 34.4998 11.812 34.4373C11.9126 34.3727 12.0146 34.3135 12.1161 34.2588C12.3264 34.1503 12.532 34.0615 12.7076 33.9991C12.8853 33.9366 13.0354 33.9005 13.1272 33.8917C13.1272 33.8917 12.5671 33.9345 11.842 33.9871C11.6566 34.0013 11.4595 34.0155 11.2572 34.0298C11.0572 34.0451 10.8481 34.0594 10.6391 34.0714C10.4302 34.0835 10.2203 34.0944 10.0147 34.0999C9.91147 34.1032 9.81118 34.1043 9.71262 34.1043C9.61276 34.1043 9.51626 34.1032 9.42236 34.0999C9.12667 34.0889 8.8597 34.1459 8.62445 34.2577C8.56391 34.285 8.50726 34.3157 8.45181 34.3508C8.39679 34.3847 8.34437 34.4209 8.29444 34.4603C8.19588 34.5403 8.10111 34.6323 8.01435 34.7309C7.9276 34.8295 7.85482 34.9369 7.78842 35.0498C7.72203 35.1604 7.66235 35.2798 7.61069 35.4014C7.56206 35.5219 7.52058 35.6447 7.48765 35.7696C7.45418 35.8923 7.42754 36.0149 7.41357 36.1344C7.39841 36.2571 7.37295 36.3699 7.34165 36.4762C7.32476 36.5299 7.30656 36.5825 7.28707 36.6329C7.26974 36.6843 7.25067 36.7315 7.22912 36.7819C7.15471 36.9593 7.05778 37.1116 6.96387 37.2431C6.9668 37.2102 6.96896 37.1773 6.97319 37.1423C6.99182 36.9768 7.01164 36.8136 7.03027 36.6482C7.11702 35.993 7.22912 35.351 7.36873 34.7244C7.51213 34.0999 7.68228 33.4918 7.87431 32.9035C7.92337 32.7556 7.97504 32.6121 8.02193 32.4675C8.07566 32.324 8.12948 32.1805 8.18147 32.0391C8.18483 32.0282 8.18992 32.0194 8.19328 32.0073C8.25978 31.9252 8.363 31.8189 8.48647 31.7247C8.55124 31.6754 8.62109 31.6294 8.6955 31.5899C8.73406 31.5713 8.77294 31.5549 8.81226 31.5395C8.85331 31.5242 8.89609 31.511 8.94006 31.5012C9.11227 31.4595 9.303 31.465 9.50359 31.545C9.50359 31.545 9.94786 31.5823 10.4302 31.5943C10.6713 31.602 10.9222 31.6009 11.132 31.5823C11.341 31.5625 11.5082 31.5242 11.5914 31.453C11.7539 31.3106 11.919 31.1966 12.1119 31.0662C12.1593 31.0323 12.2071 30.9994 12.2566 30.9633C12.3048 30.9271 12.3564 30.8866 12.4097 30.8493C12.518 30.7672 12.6301 30.6751 12.7503 30.5678C12.8768 30.4604 13.0502 30.3563 13.2495 30.2654C13.349 30.2216 13.4551 30.1799 13.5647 30.1394C13.6193 30.1219 13.6726 30.1021 13.7272 30.0857C13.7822 30.0682 13.8368 30.0507 13.8922 30.0353C14.3313 29.9115 14.7527 29.8578 14.9258 29.8743C14.9258 29.8743 14.7954 29.8611 14.5801 29.8337C14.4718 29.8195 14.3411 29.8031 14.1955 29.7822C14.0487 29.7614 13.8867 29.7395 13.7165 29.7165C13.3705 29.6694 12.9775 29.6102 12.5937 29.5434C12.2062 29.4755 11.8195 29.3977 11.4798 29.298C11.2145 29.2213 10.9582 29.2158 10.7161 29.2629C10.4712 29.309 10.2491 29.413 10.0434 29.5511C9.99184 29.5861 9.94147 29.6212 9.89371 29.6628C9.8454 29.7001 9.79927 29.7417 9.75323 29.7844C9.66431 29.8721 9.57973 29.963 9.50272 30.0605C9.42658 30.158 9.35683 30.2588 9.29455 30.3618C9.26368 30.4133 9.23238 30.4648 9.20617 30.5174C9.1791 30.5689 9.15494 30.6215 9.13166 30.6751C9.08606 30.777 9.0331 30.8734 8.97515 30.9611C8.91764 31.0498 8.8597 31.132 8.79666 31.2054C8.73319 31.281 8.66712 31.3511 8.6016 31.4114C8.53564 31.4727 8.47217 31.5286 8.40784 31.5779C8.38628 31.5965 8.36722 31.6086 8.34643 31.6239C8.34773 31.6239 8.34772 31.6217 8.34772 31.6195C8.37697 31.5516 8.40318 31.4815 8.43231 31.4136C8.46026 31.3445 8.49242 31.2777 8.52123 31.2098C8.55123 31.1407 8.57918 31.0739 8.60875 31.006C8.63929 30.9392 8.66712 30.8734 8.70059 30.8066C8.76114 30.6751 8.8233 30.5448 8.88547 30.4144C8.94721 30.2851 9.01404 30.1591 9.07837 30.032C9.10924 29.9685 9.14021 29.906 9.17271 29.8425C9.20617 29.7822 9.23964 29.7198 9.273 29.6573C9.3056 29.596 9.33983 29.5357 9.37069 29.4744C9.38813 29.4437 9.40373 29.413 9.42106 29.3824C9.43806 29.3528 9.45582 29.3232 9.47272 29.2936C9.54041 29.1731 9.60724 29.0548 9.67493 28.9376C9.74436 28.8214 9.81281 28.7064 9.8818 28.5947C9.91613 28.5377 9.94786 28.4796 9.98339 28.4248C10.0189 28.3679 10.0531 28.3131 10.0895 28.2594C10.3916 27.7773 10.6988 27.3303 11.0021 26.9107C11.0046 26.9151 11.0132 26.9228 11.0132 26.9228C11.0132 26.9228 11.0614 26.879 11.1447 26.8165C11.2251 26.7541 11.3453 26.6785 11.4831 26.6171C11.6232 26.5558 11.781 26.5076 11.9481 26.5076C12.1152 26.5076 12.2874 26.5492 12.4503 26.662C12.4503 26.662 12.8493 26.7848 13.2872 26.8866C13.5076 26.9359 13.739 26.982 13.9378 26.9984C14.1362 27.0181 14.3026 27.0115 14.3965 26.9546C14.5843 26.8439 14.7663 26.7628 14.9782 26.662C15.1864 26.5602 15.4221 26.4418 15.7029 26.26C15.8472 26.1669 16.036 26.0858 16.2491 26.0179C16.4624 25.9478 16.6921 25.8919 16.9198 25.848C17.3716 25.7604 17.798 25.7253 17.963 25.7549C17.963 25.7549 17.8391 25.733 17.6343 25.6914C17.4274 25.6498 17.1402 25.5895 16.8186 25.5117C16.1709 25.3572 15.3751 25.1425 14.7785 24.8708C14.3089 24.656 13.8241 24.7086 13.3909 24.9037C13.2817 24.9508 13.1776 25.0088 13.0769 25.0746C12.9766 25.1392 12.8789 25.2104 12.7879 25.2871C12.6978 25.3638 12.6132 25.4427 12.5329 25.526C12.4922 25.5687 12.4545 25.6092 12.4182 25.653C12.3818 25.6958 12.3488 25.7407 12.3158 25.7845C12.2497 25.871 12.1809 25.9488 12.1076 26.019C12.0349 26.0891 11.9616 26.1526 11.8872 26.2085C11.812 26.2633 11.737 26.3137 11.6622 26.3553C11.5889 26.3991 11.5166 26.4375 11.4476 26.4703C11.3872 26.4977 11.3279 26.5218 11.2733 26.5415C11.4329 26.329 11.5889 26.1219 11.7434 25.9269C11.9181 25.7045 12.0873 25.4931 12.2523 25.2937C12.5298 24.9562 13.5516 23.4378 13.8951 22.9261C14.1362 22.7443 14.4202 22.6139 14.7417 22.6227C14.7417 22.6227 16.7086 22.0486 16.9066 21.5282C17.1067 21.0067 17.3889 20.6035 17.6449 19.7819C17.9017 18.9591 19.0267 17.697 19.3875 17.4888C19.3875 17.4888 17.2205 18.717 15.6437 19.0774C14.4003 19.3612 13.9535 20.7219 13.9535 21.7988C13.9535 22.1976 13.8257 22.5438 13.6628 22.8297C12.7211 23.8859 11.4049 25.3627 11.2742 25.5281C11.1553 25.6804 11.0237 25.8371 10.8909 25.9981C10.8951 25.9521 10.8985 25.9072 10.9056 25.8579C10.9336 25.6979 10.981 25.5183 11.0601 25.3298C11.1007 25.2356 11.1511 25.1414 11.2077 25.0461C11.2678 24.953 11.3338 24.8587 11.4176 24.7667C11.7392 24.3997 12.0412 23.933 12.1871 23.44C12.2621 23.1957 12.2959 22.9437 12.2768 22.695C12.2566 22.4496 12.1817 22.2064 12.0306 21.9763C11.6502 21.3989 11.3253 20.5816 11.1007 19.9122C10.9895 19.5748 10.8994 19.2779 10.8397 19.0621C10.7791 18.8463 10.7462 18.7148 10.7462 18.7148C10.7889 18.8922 10.7728 19.3535 10.6988 19.864C10.6624 20.116 10.612 20.3866 10.5461 20.632C10.4813 20.8807 10.4009 21.1086 10.3057 21.2872C9.92458 22.0037 9.84757 22.454 9.64406 22.9349C9.54128 23.1803 9.72313 23.6766 9.94061 24.1094C10.0476 24.3241 10.1619 24.5246 10.2516 24.6681C10.3392 24.8138 10.4009 24.9047 10.4009 24.9047C10.5736 25.0362 10.6666 25.1973 10.7132 25.3682C10.7602 25.5369 10.7551 25.7122 10.7343 25.8732C10.7132 26.0365 10.6704 26.18 10.6319 26.2841C10.6248 26.3016 10.6218 26.3126 10.6162 26.3257C10.2182 26.799 9.79851 27.3063 9.43806 27.8792C9.40167 27.9362 9.36528 27.9932 9.33008 28.0501C9.29379 28.1082 9.25946 28.1674 9.22394 28.2254C9.15332 28.3427 9.08259 28.461 9.00981 28.5826C8.94093 28.702 8.8715 28.8236 8.80175 28.9474C8.78475 28.9781 8.76536 29.0077 8.74836 29.0394C8.73103 29.0723 8.71413 29.1019 8.6968 29.1348C8.66377 29.1961 8.62954 29.2607 8.59607 29.3232C8.56098 29.3878 8.52632 29.4514 8.49242 29.5149C8.45733 29.5796 8.4269 29.6453 8.39256 29.7099C8.32866 29.8403 8.25978 29.9707 8.19588 30.1043C8.13111 30.2413 8.06677 30.375 8.00298 30.5108C7.96951 30.5809 7.94027 30.6488 7.9107 30.7201C7.87853 30.788 7.84853 30.857 7.81723 30.9293C7.80954 30.9468 7.80109 30.9654 7.79265 30.983C7.79102 30.8603 7.79395 30.731 7.81377 30.5908C7.81972 30.5371 7.83164 30.4834 7.84431 30.4297C7.85785 30.375 7.87301 30.3202 7.89121 30.2643C7.9276 30.1526 7.97244 30.0375 8.03298 29.9258C8.15613 29.699 8.25133 29.4459 8.32866 29.1852C8.34772 29.1183 8.36505 29.0537 8.37989 28.9869C8.39473 28.9189 8.40784 28.8521 8.41964 28.7831C8.44293 28.6483 8.45733 28.5136 8.46156 28.3755C8.46535 28.2375 8.46329 28.1038 8.44758 27.968C8.43231 27.8343 8.40448 27.7018 8.36505 27.5736C8.28599 27.3161 8.15396 27.0718 7.95348 26.8593C7.8273 26.7245 7.70167 26.5711 7.57863 26.4079C7.45678 26.2446 7.33743 26.0693 7.22273 25.8919C7.10944 25.7122 7.00027 25.5259 6.89867 25.3419C6.79676 25.1578 6.70329 24.9782 6.61772 24.8029C6.44855 24.4534 6.31067 24.1346 6.21926 23.9078C6.12698 23.6766 6.07586 23.5342 6.07586 23.5342C6.10716 23.6306 6.13629 23.8136 6.15828 24.048C6.18417 24.2836 6.20236 24.5695 6.20821 24.8686C6.22684 25.4723 6.20399 26.1263 6.06947 26.5635C6.03394 26.6719 6.006 26.7738 5.97935 26.8702C5.95434 26.9666 5.93581 27.0586 5.91805 27.1452C5.88372 27.3194 5.86043 27.4739 5.84527 27.6185C5.83043 27.7664 5.81776 27.9011 5.80465 28.0359C5.79696 28.1038 5.78733 28.1717 5.78007 28.2397C5.77032 28.3065 5.75938 28.3788 5.7479 28.45C5.72256 28.5946 5.78732 28.7853 5.89899 28.9901C6.01239 29.1961 6.17312 29.4152 6.33894 29.6124C6.50606 29.8107 6.67448 29.9882 6.8039 30.1164C6.93463 30.2435 7.02182 30.3213 7.02182 30.3213C7.23378 30.4122 7.37425 30.5557 7.46686 30.7168C7.56119 30.8778 7.60397 31.0597 7.62975 31.2306C7.63658 31.2744 7.63658 31.3117 7.6382 31.3533V31.3544C7.58069 31.4979 7.51939 31.6414 7.46686 31.7882C7.4127 31.9361 7.35736 32.0819 7.30234 32.2308C7.25067 32.382 7.20031 32.5321 7.14832 32.6833C6.9486 33.2924 6.77304 33.9224 6.62281 34.5688C6.48071 35.2174 6.36396 35.8824 6.27428 36.5584C6.2628 36.6504 6.25348 36.7424 6.24168 36.8323C6.20821 36.726 6.17821 36.6109 6.15828 36.4871C6.14355 36.3743 6.13467 36.2582 6.13543 36.1344C6.13543 36.0752 6.13889 36.0117 6.14431 35.947C6.1507 35.8824 6.15622 35.8177 6.17095 35.752C6.19684 35.6194 6.21373 35.4836 6.22218 35.3445C6.22684 35.2754 6.22684 35.2053 6.22684 35.1352C6.22901 35.064 6.22684 34.9917 6.22348 34.9226C6.2159 34.7791 6.1989 34.6356 6.17182 34.4943C6.14853 34.3508 6.11647 34.2095 6.07163 34.0703C5.98271 33.7909 5.8626 33.5258 5.69331 33.2859C5.60873 33.1654 5.51352 33.0525 5.40522 32.9506C5.29907 32.8476 5.17928 32.7545 5.04607 32.6724C4.70966 32.4675 4.3543 32.1892 4.01162 31.8814C3.67185 31.5746 3.34953 31.2372 3.06988 30.9184C2.92854 30.7584 2.80539 30.6039 2.69243 30.4648C2.58033 30.3223 2.48177 30.1931 2.4014 30.0857C2.23937 29.8666 2.14753 29.7275 2.14753 29.7275C2.20342 29.8195 2.29223 30.0123 2.38949 30.2632C2.43866 30.3848 2.48892 30.5229 2.54307 30.6708C2.59852 30.8176 2.65311 30.9742 2.70813 31.1342C2.73347 31.2153 2.76012 31.2952 2.78601 31.3774C2.81048 31.4574 2.83626 31.5417 2.86085 31.6217C2.91121 31.7849 2.95778 31.9504 2.9945 32.107C3.01529 32.1848 3.03002 32.2626 3.04659 32.3393C3.06219 32.4171 3.07703 32.4894 3.08591 32.5617C3.10963 32.7063 3.121 32.8411 3.11678 32.9649C3.11255 33.0876 3.11678 33.2015 3.12187 33.3056C3.12912 33.413 3.13627 33.5094 3.14602 33.6003C3.15653 33.6902 3.16757 33.7756 3.18155 33.8567C3.19508 33.9377 3.21155 34.0144 3.22725 34.0878C3.29278 34.3793 3.35668 34.6236 3.39859 34.9292C3.41809 35.0826 3.54243 35.259 3.71929 35.4332C3.89908 35.6085 4.1326 35.7816 4.36275 35.9328C4.59204 36.084 4.81927 36.2122 4.99061 36.3042C5.07401 36.3502 5.14712 36.3863 5.19618 36.4083C5.24655 36.4345 5.27449 36.4477 5.27449 36.4477C5.51656 36.4762 5.70393 36.5803 5.84993 36.7161C5.99625 36.8542 6.09784 37.0229 6.17312 37.1861C6.18417 37.2069 6.18915 37.2245 6.1989 37.2464C6.19597 37.2727 6.19261 37.299 6.19045 37.3264C6.18417 37.4096 6.17528 37.4983 6.16889 37.5838C6.16131 37.6693 6.15492 37.7569 6.14647 37.8424C6.14225 37.9267 6.13629 38.0133 6.1312 38.1009C6.12698 38.1864 6.12146 38.274 6.11723 38.3617C6.11647 38.4471 6.11301 38.5337 6.11008 38.6213C6.06947 40.0127 6.18417 41.4304 6.4193 42.825C6.4206 42.8382 6.42363 42.8502 6.42569 42.8623C6.3724 42.7779 6.31782 42.687 6.27168 42.5884C6.17095 42.3726 6.0894 42.1228 6.06102 41.8434C5.99842 41.2825 5.7661 40.6974 5.39893 40.1946C5.21741 39.9437 4.99484 39.7114 4.74605 39.5219C4.61955 39.4266 4.48503 39.3411 4.34163 39.2699C4.19986 39.1932 4.05007 39.1351 3.8915 39.0891C3.69005 39.0343 3.47809 38.9598 3.25985 38.8744C3.15111 38.8306 3.04237 38.7856 2.92984 38.7374C2.81893 38.6881 2.709 38.6345 2.59982 38.5808C2.15814 38.3639 1.72025 38.1108 1.34118 37.8643C1.1499 37.7394 0.971413 37.6156 0.812742 37.5027C0.654504 37.3932 0.516196 37.2924 0.400632 37.2058C0.167986 37.0327 0.0300022 36.9221 0.0300022 36.9221C0.115457 36.9988 0.267412 37.1697 0.45186 37.3899C0.542839 37.5005 0.64649 37.632 0.752632 37.7711C0.804295 37.8391 0.858882 37.9103 0.91347 37.9815C0.96719 38.056 1.02253 38.1305 1.07886 38.205C1.18965 38.3573 1.30143 38.5107 1.40627 38.6651C1.51339 38.8196 1.61747 38.973 1.70964 39.1242C1.80149 39.2765 1.88824 39.4211 1.95712 39.5613C2.02525 39.7015 2.07897 39.8374 2.11623 39.9612C2.15175 40.0872 2.18945 40.1989 2.2267 40.303C2.26299 40.4071 2.30403 40.5002 2.34259 40.5879C2.42079 40.7599 2.49704 40.9034 2.57567 41.0327C2.65398 41.1619 2.73012 41.2814 2.80117 41.4052C2.87525 41.5268 2.94424 41.6538 3.0089 41.8028C3.07194 41.9518 3.25563 42.0932 3.48871 42.2192C3.60676 42.2805 3.73489 42.3386 3.86984 42.3934C4.00609 42.4449 4.14743 42.4941 4.28791 42.538C4.56626 42.6245 4.83497 42.6903 5.03545 42.733C5.23604 42.7768 5.36763 42.7987 5.36763 42.7987C5.61934 42.7593 5.83975 42.8119 6.02755 42.9083C6.12146 42.9554 6.20659 43.0146 6.28565 43.0803C6.36482 43.1449 6.43717 43.2161 6.49977 43.2906C6.50313 43.2939 6.50606 43.2994 6.50942 43.3027C6.61274 43.8384 6.7257 44.3731 6.86109 44.8989C7.03666 45.5837 7.24222 46.2585 7.47032 46.9192C7.67589 47.5141 7.90431 48.098 8.14638 48.6688C7.91709 48.4398 7.69874 48.144 7.55697 47.7617C7.35227 47.2051 6.94698 46.6781 6.42147 46.2717C6.15622 46.0723 5.86812 45.8992 5.55165 45.7765C5.2381 45.6516 4.90386 45.576 4.55695 45.5683C4.11527 45.5607 3.61261 45.4971 3.10118 45.4018C2.97338 45.3766 2.84601 45.3525 2.71745 45.324C2.59137 45.2966 2.46487 45.266 2.34043 45.2353C2.09002 45.1728 1.84676 45.106 1.61444 45.0381C1.15456 44.9011 0.752631 44.7587 0.462366 44.6502C0.317342 44.5977 0.202212 44.5494 0.123147 44.5177C0.0435407 44.4859 0 44.4684 0 44.4684C0.054154 44.4969 0.133653 44.5407 0.233513 44.602C0.331639 44.6634 0.450995 44.7368 0.583889 44.8244C0.715374 44.9088 0.860074 45.0074 1.01203 45.1115C1.16561 45.2155 1.32591 45.3284 1.48414 45.4434C1.64487 45.5607 1.80993 45.6801 1.96557 45.8017C2.04474 45.8619 2.12089 45.9222 2.19529 45.9836C2.27067 46.046 2.34465 46.1074 2.41581 46.1687C2.55661 46.2903 2.68235 46.4141 2.79489 46.5335C2.90569 46.6552 3.00045 46.7735 3.06771 46.8874C3.2057 47.1175 3.33762 47.296 3.45903 47.4461C3.58434 47.5919 3.69774 47.7069 3.80897 47.8121C3.91934 47.9172 4.02645 48.0093 4.12967 48.109C4.18296 48.1594 4.23332 48.2108 4.28369 48.2678C4.33567 48.3237 4.38853 48.3862 4.44236 48.4508C4.54471 48.5834 4.76262 48.6852 5.03339 48.7542C5.30373 48.8255 5.6214 48.8671 5.9265 48.889C6.53952 48.9318 7.09417 48.9 7.09417 48.9C7.21645 48.8496 7.33743 48.8244 7.45548 48.8189C7.57354 48.8134 7.6865 48.8277 7.79524 48.8551C7.99951 48.9044 8.1806 49.0073 8.34144 49.1158C8.58253 49.6537 8.83424 50.184 9.10382 50.6945C9.72735 51.8745 10.4229 52.9678 11.1624 53.9473C11.1049 53.9111 11.0461 53.8793 10.9895 53.8344C10.8832 53.7544 10.7784 53.6635 10.6776 53.5605C10.5778 53.4565 10.4813 53.3403 10.3929 53.2089C10.0418 52.6928 9.48333 52.2667 8.83305 51.984C8.51062 51.8449 8.15948 51.7452 7.80456 51.6937C7.62683 51.6674 7.44617 51.6542 7.26551 51.6575C7.08572 51.6608 6.90593 51.6772 6.7282 51.7134C6.50313 51.7561 6.25771 51.7912 5.99961 51.8153C5.87105 51.8328 5.73815 51.8405 5.6032 51.8503C5.47085 51.858 5.33416 51.8657 5.19835 51.869C4.92541 51.8777 4.64792 51.8777 4.37466 51.8734C4.10129 51.8668 3.83811 51.8547 3.58434 51.8361C3.3309 51.8219 3.09013 51.8021 2.87525 51.7769C2.6582 51.755 2.46574 51.7298 2.30403 51.709C2.14114 51.6893 2.01041 51.6674 1.9216 51.6542C1.83062 51.6411 1.78069 51.6334 1.78069 51.6334C1.90514 51.663 2.15933 51.7452 2.4796 51.8569C2.63827 51.9172 2.81687 51.9796 3.00468 52.0486C3.19292 52.1188 3.38592 52.1966 3.5877 52.2776C3.78742 52.3565 3.9879 52.442 4.18426 52.5285C4.38138 52.6162 4.57179 52.706 4.74941 52.8002C5.10867 52.9865 5.41366 53.1826 5.61425 53.3896C6.01239 53.8037 6.31987 53.9977 6.59498 54.1532C6.66386 54.1894 6.73036 54.2255 6.79675 54.2606C6.86315 54.2978 6.92705 54.3318 6.99388 54.3691C7.05778 54.4074 7.12417 54.4479 7.19186 54.494C7.25706 54.5367 7.32476 54.5893 7.39624 54.6451C7.46946 54.7021 7.56715 54.7449 7.68347 54.7744C7.74272 54.7887 7.80532 54.7996 7.87225 54.8073C7.93821 54.816 8.01143 54.8204 8.08421 54.8237C8.37859 54.8336 8.71283 54.8029 9.03104 54.7525C9.34914 54.7021 9.64579 54.6353 9.86447 54.5816C9.97408 54.552 10.0625 54.5279 10.1242 54.5104C10.186 54.494 10.2203 54.483 10.2203 54.483C10.4449 54.3219 10.6874 54.2639 10.9209 54.2672C11.0372 54.2683 11.1524 54.2836 11.2636 54.3088C11.3482 54.3263 11.4278 54.3548 11.5051 54.3833C12.1504 55.1907 12.823 55.9182 13.5055 56.5394C14.2307 57.1989 14.9634 57.7358 15.6687 58.1554C15.6394 58.1499 15.6116 58.1433 15.5841 58.1378C15.5506 58.1291 15.5164 58.1203 15.4838 58.1104C15.3467 58.071 15.2066 58.0239 15.0683 57.9571C14.9998 57.9253 14.9304 57.888 14.861 57.8486C14.792 57.8091 14.7244 57.762 14.6575 57.7138C14.5197 57.6185 14.3774 57.5287 14.2221 57.452C14.1439 57.4159 14.0682 57.3775 13.987 57.3435C13.9061 57.3096 13.8228 57.2778 13.7382 57.2504C13.6544 57.2197 13.5689 57.1913 13.4814 57.1693C13.3934 57.1441 13.3028 57.1222 13.2131 57.1003C13.123 57.0828 13.032 57.0631 12.939 57.051C12.8933 57.0423 12.8454 57.0346 12.7985 57.0291C12.7524 57.0236 12.7055 57.0182 12.6585 57.0116C12.5642 57.0017 12.4694 56.9941 12.3733 56.9897C12.2768 56.9853 12.1817 56.9831 12.0852 56.9831C11.8957 56.9842 11.7006 56.9963 11.5102 57.0226C11.1307 57.0697 10.7571 57.1693 10.4149 57.3326C9.98426 57.5364 9.45582 57.7259 8.89685 57.876C8.3422 58.0326 7.7542 58.1499 7.22197 58.2342C6.95543 58.277 6.6982 58.312 6.4688 58.3383C6.23865 58.3624 6.03178 58.3832 5.85621 58.3997C5.68281 58.4117 5.53973 58.4238 5.44377 58.4282C5.3464 58.4325 5.29225 58.4358 5.29225 58.4358C5.56605 58.4479 6.45407 58.5476 7.40296 58.6889C7.6395 58.7251 7.87724 58.7634 8.11627 58.8061C8.35498 58.8488 8.5847 58.8971 8.80641 58.9496C9.02757 59 9.23238 59.0592 9.42322 59.1239C9.61276 59.1896 9.77771 59.263 9.92035 59.3452C10.0625 59.4295 10.1911 59.5018 10.3125 59.5599C10.4356 59.618 10.5482 59.6662 10.6519 59.7056C10.7043 59.7242 10.7551 59.7429 10.8028 59.7571C10.8545 59.7724 10.9014 59.79 10.9475 59.802C11.0406 59.8261 11.1273 59.8469 11.2099 59.8677C11.377 59.9028 11.5365 59.9302 11.6986 59.9663C11.7798 59.985 11.8615 60.0069 11.9481 60.0332C12.037 60.0584 12.1279 60.0912 12.2257 60.1285C12.4203 60.2085 12.7055 60.1855 13.0118 60.1044C13.1628 60.0638 13.3227 60.0069 13.4814 59.9411C13.6383 59.8743 13.7936 59.7998 13.9429 59.7209C14.2416 59.5621 14.5095 59.389 14.7024 59.2564C14.8928 59.1238 15.0108 59.0318 15.0108 59.0318C15.1589 58.7886 15.3729 58.6418 15.5984 58.552C15.7841 58.4851 15.9809 58.4523 16.1687 58.4358C16.4568 58.587 16.7395 58.724 17.0073 58.8346C17.0965 58.8708 17.1841 58.9069 17.2687 58.9398C17.3568 58.9705 17.4409 59.0033 17.5248 59.0318C17.6072 59.0636 17.6897 59.0855 17.7701 59.1096C17.8504 59.1359 17.9275 59.1622 18.0062 59.1819C18.6218 59.3506 19.1239 59.4153 19.4657 59.4383C19.5072 59.4426 19.5478 59.4448 19.5855 59.4481C19.6042 59.4492 19.6232 59.4492 19.6406 59.4514C19.6575 59.4514 19.6743 59.4514 19.6917 59.4514C19.7036 59.4547 19.7107 59.4547 19.7227 59.4547C20.2959 59.9455 20.7761 60.7738 19.6042 61.9625C18.7115 62.8652 19.1028 65.5066 19.1405 65.7444C19.1176 65.5866 19.038 64.536 20.4804 62.3328C21.4915 60.7858 21.1281 59.8699 20.7439 59.4131C21.0278 59.3977 21.2694 59.3824 21.2694 59.3824C23.0019 59.206 23.0763 60.1 23.0763 60.1C22.578 60.9447 23.2434 61.9559 23.2434 61.9559C23.1111 61.0444 23.9787 60.4385 24.2135 59.3824C24.3223 58.8883 24.4611 58.5695 24.2766 58.3964C24.0668 58.197 23.7448 58.1828 23.4782 58.3088Z" fill="#FBC935"/>
<g clip-path="url(#clip0_3724_4147)">
<path d="M67.367 13.7623L63.4353 15.9631L64.3134 11.5438L61.0055 8.4847L65.4798 7.9542L67.367 3.86279L69.2542 7.9542L73.7285 8.4847L70.4205 11.5438L71.2986 15.9631L67.367 13.7623Z" fill="#FBC935"/>
</g>
<g clip-path="url(#clip1_3724_4147)">
<path d="M85.5226 14.2608L81.0293 16.7759L82.0328 11.7253L78.2522 8.2292L83.3658 7.62291L85.5226 2.94702L87.6793 7.62291L92.7928 8.2292L89.0123 11.7253L90.0158 16.7759L85.5226 14.2608Z" fill="#FBC935"/>
</g>
<g clip-path="url(#clip2_3724_4147)">
<path d="M107.262 15.6316L101.224 19.0113L102.572 12.2246L97.4922 7.52664L104.363 6.71194L107.262 0.428711L110.16 6.71194L117.031 7.52664L111.951 12.2246L113.299 19.0113L107.262 15.6316Z" fill="#FBC935"/>
</g>
<g clip-path="url(#clip3_3724_4147)">
<path d="M129 14.2608L124.507 16.7759L125.511 11.7253L121.73 8.2292L126.844 7.62291L129 2.94702L131.157 7.62291L136.271 8.2292L132.49 11.7253L133.494 16.7759L129 14.2608Z" fill="#FBC935"/>
</g>
<g clip-path="url(#clip4_3724_4147)">
<path d="M147.156 13.7623L143.224 15.9631L144.102 11.5438L140.794 8.4847L145.269 7.9542L147.156 3.86279L149.043 7.9542L153.517 8.4847L150.209 11.5438L151.088 15.9631L147.156 13.7623Z" fill="#FBC935"/>
</g>
<path d="M31.9363 44.1001V30.7223H37.727C38.9246 30.7223 39.9566 30.9198 40.823 31.3148C41.6893 31.697 42.3582 32.2512 42.8296 32.9774C43.301 33.7037 43.5367 34.57 43.5367 35.5765C43.5367 36.5703 43.301 37.4303 42.8296 38.1565C42.3582 38.87 41.6893 39.4179 40.823 39.8001C39.9566 40.1823 38.9246 40.3734 37.727 40.3734H33.6563L35.0323 39.0165V44.1001H31.9363ZM40.4407 44.1001L37.0963 39.2459H40.4025L43.7852 44.1001H40.4407ZM35.0323 39.3605L33.6563 37.9081H37.555C38.5105 37.9081 39.224 37.7042 39.6954 37.2965C40.1668 36.8761 40.4025 36.3028 40.4025 35.5765C40.4025 34.8376 40.1668 34.2642 39.6954 33.8565C39.224 33.4488 38.5105 33.245 37.555 33.245H33.6563L35.0323 31.7734V39.3605ZM50.8821 44.253C49.71 44.253 48.678 44.0237 47.7861 43.565C46.907 43.1063 46.2254 42.482 45.7412 41.6921C45.2571 40.8894 45.015 39.9785 45.015 38.9592C45.015 37.9272 45.2507 37.0162 45.7221 36.2263C46.2063 35.4237 46.8624 34.7994 47.6906 34.3534C48.5187 33.8948 49.4552 33.6654 50.4999 33.6654C51.5064 33.6654 52.411 33.882 53.2137 34.3152C54.0291 34.7357 54.6725 35.3472 55.1439 36.1499C55.6153 36.9398 55.851 37.889 55.851 38.9974C55.851 39.1121 55.8446 39.2459 55.8319 39.3988C55.8192 39.5389 55.8064 39.6727 55.7937 39.8001H47.4421V38.061H54.2266L53.0799 38.577C53.0799 38.0419 52.9716 37.5768 52.755 37.1819C52.5384 36.7869 52.239 36.4811 51.8568 36.2645C51.4746 36.0352 51.0286 35.9205 50.519 35.9205C50.0094 35.9205 49.5571 36.0352 49.1621 36.2645C48.7799 36.4811 48.4805 36.7933 48.2639 37.201C48.0473 37.5959 47.939 38.0674 47.939 38.6152V39.0739C47.939 39.6345 48.0601 40.1314 48.3021 40.5645C48.5569 40.985 48.9073 41.3099 49.3532 41.5392C49.8119 41.7558 50.347 41.8641 50.9586 41.8641C51.5064 41.8641 51.9842 41.7813 52.3919 41.6157C52.8124 41.45 53.1946 41.2016 53.5386 40.8703L55.1248 42.5903C54.6534 43.1254 54.0609 43.5395 53.3475 43.8325C52.634 44.1128 51.8122 44.253 50.8821 44.253ZM62.8048 44.253C61.6963 44.253 60.7089 44.03 59.8426 43.5841C58.9762 43.1254 58.2946 42.4948 57.7977 41.6921C57.3135 40.8894 57.0714 39.9785 57.0714 38.9592C57.0714 37.9272 57.3135 37.0162 57.7977 36.2263C58.2946 35.4237 58.9762 34.7994 59.8426 34.3534C60.7089 33.8948 61.6963 33.6654 62.8048 33.6654C63.8877 33.6654 64.8306 33.8948 65.6332 34.3534C66.4359 34.7994 67.0283 35.4428 67.4106 36.2837L65.0981 37.5259C64.8306 37.0417 64.4929 36.685 64.0852 36.4557C63.6903 36.2263 63.2571 36.1117 62.7857 36.1117C62.276 36.1117 61.8174 36.2263 61.4097 36.4557C61.002 36.685 60.6771 37.0099 60.435 37.4303C60.2057 37.8508 60.091 38.3604 60.091 38.9592C60.091 39.558 60.2057 40.0677 60.435 40.4881C60.6771 40.9085 61.002 41.2334 61.4097 41.4628C61.8174 41.6921 62.276 41.8068 62.7857 41.8068C63.2571 41.8068 63.6903 41.6985 64.0852 41.4819C64.4929 41.2525 64.8306 40.8894 65.0981 40.3925L67.4106 41.6539C67.0283 42.482 66.4359 43.1254 65.6332 43.5841C64.8306 44.03 63.8877 44.253 62.8048 44.253ZM73.8889 44.253C72.7932 44.253 71.8185 44.0237 70.9649 43.565C70.124 43.1063 69.4551 42.482 68.9583 41.6921C68.4741 40.8894 68.232 39.9785 68.232 38.9592C68.232 37.9272 68.4741 37.0162 68.9583 36.2263C69.4551 35.4237 70.124 34.7994 70.9649 34.3534C71.8185 33.8948 72.7932 33.6654 73.8889 33.6654C74.9719 33.6654 75.9402 33.8948 76.7938 34.3534C77.6474 34.7994 78.3163 35.4173 78.8005 36.2072C79.2846 36.9971 79.5267 37.9145 79.5267 38.9592C79.5267 39.9785 79.2846 40.8894 78.8005 41.6921C78.3163 42.482 77.6474 43.1063 76.7938 43.565C75.9402 44.0237 74.9719 44.253 73.8889 44.253ZM73.8889 41.8068C74.3858 41.8068 74.8317 41.6921 75.2267 41.4628C75.6217 41.2334 75.9338 40.9085 76.1631 40.4881C76.3925 40.0549 76.5071 39.5453 76.5071 38.9592C76.5071 38.3604 76.3925 37.8508 76.1631 37.4303C75.9338 37.0099 75.6217 36.685 75.2267 36.4557C74.8317 36.2263 74.3858 36.1117 73.8889 36.1117C73.392 36.1117 72.9461 36.2263 72.5511 36.4557C72.1562 36.685 71.8377 37.0099 71.5956 37.4303C71.3663 37.8508 71.2516 38.3604 71.2516 38.9592C71.2516 39.5453 71.3663 40.0549 71.5956 40.4881C71.8377 40.9085 72.1562 41.2334 72.5511 41.4628C72.9461 41.6921 73.392 41.8068 73.8889 41.8068ZM94.687 33.6654C95.5024 33.6654 96.2223 33.8311 96.8466 34.1623C97.4836 34.4808 97.9805 34.9777 98.3373 35.653C98.7067 36.3155 98.8915 37.1691 98.8915 38.2139V44.1001H95.9101V38.6725C95.9101 37.8444 95.7381 37.2328 95.3941 36.8379C95.0501 36.4429 94.566 36.2454 93.9417 36.2454C93.5085 36.2454 93.1199 36.3474 92.7759 36.5512C92.4319 36.7423 92.1644 37.0354 91.9733 37.4303C91.7821 37.8253 91.6866 38.3285 91.6866 38.9401V44.1001H88.7053V38.6725C88.7053 37.8444 88.5333 37.2328 88.1893 36.8379C87.858 36.4429 87.3802 36.2454 86.7559 36.2454C86.3227 36.2454 85.9341 36.3474 85.5901 36.5512C85.2461 36.7423 84.9786 37.0354 84.7875 37.4303C84.5964 37.8253 84.5008 38.3285 84.5008 38.9401V44.1001H81.5195V33.8183H84.367V36.6277L83.8319 35.8059C84.1887 35.1051 84.6919 34.5764 85.3417 34.2197C86.0042 33.8502 86.7559 33.6654 87.5968 33.6654C88.5396 33.6654 89.3614 33.9075 90.0621 34.3917C90.7756 34.8631 91.247 35.5893 91.4764 36.5703L90.4253 36.2837C90.7693 35.481 91.3171 34.844 92.0688 34.3725C92.8333 33.9011 93.706 33.6654 94.687 33.6654ZM114.731 33.6654C115.547 33.6654 116.267 33.8311 116.891 34.1623C117.528 34.4808 118.025 34.9777 118.382 35.653C118.751 36.3155 118.936 37.1691 118.936 38.2139V44.1001H115.954V38.6725C115.954 37.8444 115.782 37.2328 115.438 36.8379C115.094 36.4429 114.61 36.2454 113.986 36.2454C113.553 36.2454 113.164 36.3474 112.82 36.5512C112.476 36.7423 112.209 37.0354 112.018 37.4303C111.826 37.8253 111.731 38.3285 111.731 38.9401V44.1001H108.75V38.6725C108.75 37.8444 108.578 37.2328 108.234 36.8379C107.902 36.4429 107.424 36.2454 106.8 36.2454C106.367 36.2454 105.978 36.3474 105.634 36.5512C105.29 36.7423 105.023 37.0354 104.832 37.4303C104.641 37.8253 104.545 38.3285 104.545 38.9401V44.1001H101.564V33.8183H104.411V36.6277L103.876 35.8059C104.233 35.1051 104.736 34.5764 105.386 34.2197C106.048 33.8502 106.8 33.6654 107.641 33.6654C108.584 33.6654 109.406 33.9075 110.106 34.3917C110.82 34.8631 111.291 35.5893 111.521 36.5703L110.47 36.2837C110.814 35.481 111.361 34.844 112.113 34.3725C112.878 33.9011 113.75 33.6654 114.731 33.6654ZM126.785 44.253C125.613 44.253 124.581 44.0237 123.689 43.565C122.81 43.1063 122.129 42.482 121.644 41.6921C121.16 40.8894 120.918 39.9785 120.918 38.9592C120.918 37.9272 121.154 37.0162 121.625 36.2263C122.109 35.4237 122.766 34.7994 123.594 34.3534C124.422 33.8948 125.358 33.6654 126.403 33.6654C127.41 33.6654 128.314 33.882 129.117 34.3152C129.932 34.7357 130.576 35.3472 131.047 36.1499C131.519 36.9398 131.754 37.889 131.754 38.9974C131.754 39.1121 131.748 39.2459 131.735 39.3988C131.722 39.5389 131.71 39.6727 131.697 39.8001H123.345V38.061H130.13L128.983 38.577C128.983 38.0419 128.875 37.5768 128.658 37.1819C128.442 36.7869 128.142 36.4811 127.76 36.2645C127.378 36.0352 126.932 35.9205 126.422 35.9205C125.913 35.9205 125.46 36.0352 125.065 36.2645C124.683 36.4811 124.384 36.7933 124.167 37.201C123.951 37.5959 123.842 38.0674 123.842 38.6152V39.0739C123.842 39.6345 123.963 40.1314 124.205 40.5645C124.46 40.985 124.811 41.3099 125.256 41.5392C125.715 41.7558 126.25 41.8641 126.862 41.8641C127.41 41.8641 127.887 41.7813 128.295 41.6157C128.716 41.45 129.098 41.2016 129.442 40.8703L131.028 42.5903C130.557 43.1254 129.964 43.5395 129.251 43.8325C128.537 44.1128 127.715 44.253 126.785 44.253ZM139.988 33.6654C140.804 33.6654 141.53 33.8311 142.167 34.1623C142.817 34.4808 143.326 34.9777 143.696 35.653C144.065 36.3155 144.25 37.1691 144.25 38.2139V44.1001H141.269V38.6725C141.269 37.8444 141.084 37.2328 140.715 36.8379C140.358 36.4429 139.848 36.2454 139.186 36.2454C138.714 36.2454 138.288 36.3474 137.905 36.5512C137.536 36.7423 137.243 37.0417 137.026 37.4494C136.822 37.8571 136.72 38.3795 136.72 39.0165V44.1001H133.739V33.8183H136.587V36.6659L136.052 35.8059C136.421 35.1179 136.95 34.5891 137.638 34.2197C138.326 33.8502 139.109 33.6654 139.988 33.6654ZM151.442 44.253C150.474 44.253 149.601 44.0364 148.824 43.6032C148.047 43.1573 147.429 42.5394 146.97 41.7494C146.524 40.9595 146.301 40.0294 146.301 38.9592C146.301 37.8762 146.524 36.9398 146.97 36.1499C147.429 35.36 148.047 34.7484 148.824 34.3152C149.601 33.882 150.474 33.6654 151.442 33.6654C152.308 33.6654 153.066 33.8565 153.716 34.2388C154.366 34.621 154.869 35.2007 155.226 35.9779C155.583 36.7551 155.761 37.7488 155.761 38.9592C155.761 40.1568 155.589 41.1506 155.245 41.9405C154.901 42.7177 154.404 43.2974 153.754 43.6797C153.117 44.0619 152.347 44.253 151.442 44.253ZM151.958 41.8068C152.442 41.8068 152.882 41.6921 153.277 41.4628C153.672 41.2334 153.984 40.9085 154.213 40.4881C154.455 40.0549 154.576 39.5453 154.576 38.9592C154.576 38.3604 154.455 37.8508 154.213 37.4303C153.984 37.0099 153.672 36.685 153.277 36.4557C152.882 36.2263 152.442 36.1117 151.958 36.1117C151.461 36.1117 151.015 36.2263 150.62 36.4557C150.225 36.685 149.907 37.0099 149.665 37.4303C149.435 37.8508 149.321 38.3604 149.321 38.9592C149.321 39.5453 149.435 40.0549 149.665 40.4881C149.907 40.9085 150.225 41.2334 150.62 41.4628C151.015 41.6921 151.461 41.8068 151.958 41.8068ZM154.653 44.1001V41.9979L154.71 38.9401L154.519 35.9014V29.9197H157.5V44.1001H154.653ZM165.362 44.253C164.19 44.253 163.158 44.0237 162.266 43.565C161.387 43.1063 160.705 42.482 160.221 41.6921C159.737 40.8894 159.495 39.9785 159.495 38.9592C159.495 37.9272 159.731 37.0162 160.202 36.2263C160.686 35.4237 161.342 34.7994 162.171 34.3534C162.999 33.8948 163.935 33.6654 164.98 33.6654C165.986 33.6654 166.891 33.882 167.694 34.3152C168.509 34.7357 169.153 35.3472 169.624 36.1499C170.095 36.9398 170.331 37.889 170.331 38.9974C170.331 39.1121 170.325 39.2459 170.312 39.3988C170.299 39.5389 170.286 39.6727 170.274 39.8001H161.922V38.061H168.707L167.56 38.577C167.56 38.0419 167.452 37.5768 167.235 37.1819C167.018 36.7869 166.719 36.4811 166.337 36.2645C165.955 36.0352 165.509 35.9205 164.999 35.9205C164.489 35.9205 164.037 36.0352 163.642 36.2645C163.26 36.4811 162.961 36.7933 162.744 37.201C162.527 37.5959 162.419 38.0674 162.419 38.6152V39.0739C162.419 39.6345 162.54 40.1314 162.782 40.5645C163.037 40.985 163.387 41.3099 163.833 41.5392C164.292 41.7558 164.827 41.8641 165.439 41.8641C165.986 41.8641 166.464 41.7813 166.872 41.6157C167.292 41.45 167.675 41.2016 168.019 40.8703L169.605 42.5903C169.133 43.1254 168.541 43.5395 167.827 43.8325C167.114 44.1128 166.292 44.253 165.362 44.253ZM176.731 44.253C175.762 44.253 174.89 44.0364 174.112 43.6032C173.335 43.1573 172.717 42.5394 172.259 41.7494C171.813 40.9595 171.59 40.0294 171.59 38.9592C171.59 37.8762 171.813 36.9398 172.259 36.1499C172.717 35.36 173.335 34.7484 174.112 34.3152C174.89 33.882 175.762 33.6654 176.731 33.6654C177.597 33.6654 178.355 33.8565 179.005 34.2388C179.655 34.621 180.158 35.2007 180.515 35.9779C180.871 36.7551 181.05 37.7488 181.05 38.9592C181.05 40.1568 180.878 41.1506 180.534 41.9405C180.19 42.7177 179.693 43.2974 179.043 43.6797C178.406 44.0619 177.635 44.253 176.731 44.253ZM177.247 41.8068C177.731 41.8068 178.17 41.6921 178.565 41.4628C178.96 41.2334 179.272 40.9085 179.502 40.4881C179.744 40.0549 179.865 39.5453 179.865 38.9592C179.865 38.3604 179.744 37.8508 179.502 37.4303C179.272 37.0099 178.96 36.685 178.565 36.4557C178.17 36.2263 177.731 36.1117 177.247 36.1117C176.75 36.1117 176.304 36.2263 175.909 36.4557C175.514 36.685 175.195 37.0099 174.953 37.4303C174.724 37.8508 174.609 38.3604 174.609 38.9592C174.609 39.5453 174.724 40.0549 174.953 40.4881C175.195 40.9085 175.514 41.2334 175.909 41.4628C176.304 41.6921 176.75 41.8068 177.247 41.8068ZM179.941 44.1001V41.9979L179.999 38.9401L179.807 35.9014V29.9197H182.789V44.1001H179.941Z" fill="white"/>
<path d="M61.4356 63.7445V53.0423H66.4503C67.7346 53.0423 68.7131 53.2971 69.3858 53.8067C70.0585 54.3062 70.3949 54.9789 70.3949 55.8249C70.3949 56.3956 70.2624 56.8849 69.9974 57.2926C69.7324 57.6901 69.3756 58.001 68.9271 58.2252C68.4889 58.4393 68.0098 58.5463 67.49 58.5463L67.7652 57.9959C68.3665 57.9959 68.9068 58.108 69.3858 58.3322C69.8649 58.5463 70.242 58.8623 70.5172 59.2802C70.8026 59.698 70.9453 60.2179 70.9453 60.8396C70.9453 61.757 70.5936 62.4704 69.8903 62.9801C69.1871 63.4897 68.1423 63.7445 66.7561 63.7445H61.4356ZM63.4231 62.185H66.6338C67.3779 62.185 67.9487 62.0627 68.3462 61.8181C68.7437 61.5735 68.9424 61.1811 68.9424 60.6409C68.9424 60.1108 68.7437 59.7235 68.3462 59.4789C67.9487 59.2241 67.3779 59.0967 66.6338 59.0967H63.2703V57.5525H66.2363C66.9294 57.5525 67.4594 57.4302 67.8263 57.1856C68.2035 56.941 68.392 56.574 68.392 56.0848C68.392 55.5853 68.2035 55.2133 67.8263 54.9687C67.4594 54.7241 66.9294 54.6018 66.2363 54.6018H63.4231V62.185ZM73.5557 66.8176C73.1582 66.8176 72.7607 66.7513 72.3632 66.6188C71.9657 66.4863 71.6344 66.3028 71.3694 66.0684L72.1339 64.6618C72.3275 64.8351 72.5467 64.9727 72.7913 65.0746C73.0359 65.1766 73.2856 65.2275 73.5404 65.2275C73.887 65.2275 74.1673 65.1409 74.3813 64.9676C74.5954 64.7943 74.7941 64.5039 74.9776 64.0962L75.4516 63.0259L75.6044 62.7966L78.6928 55.5802H80.5275L76.7052 64.4019C76.4504 65.0135 76.165 65.4976 75.8491 65.8544C75.5433 66.2111 75.1967 66.4608 74.8094 66.6035C74.4323 66.7462 74.0144 66.8176 73.5557 66.8176ZM75.2375 64.035L71.5529 55.5802H73.5404L76.5371 62.6284L75.2375 64.035ZM88.9133 63.8974C88.159 63.8974 87.4201 63.7904 86.6964 63.5763C85.9829 63.3521 85.3816 63.0463 84.8923 62.659L85.7332 61.1148C86.1205 61.4308 86.5894 61.6856 87.1398 61.8793C87.7004 62.0729 88.2814 62.1698 88.8827 62.1698C89.586 62.1698 90.1364 62.022 90.5339 61.7264C90.9416 61.4308 91.1455 61.0333 91.1455 60.5338C91.1455 60.1975 91.0588 59.9019 90.8856 59.6471C90.7225 59.3923 90.4269 59.1986 89.9988 59.0661C89.5809 58.9336 89.005 58.8674 88.2712 58.8674H85.6873L86.2377 53.0423H92.5215V54.7088H86.9716L88.0113 53.7609L87.5985 58.1182L86.5588 57.1856H88.7145C89.7746 57.1856 90.6257 57.3283 91.2678 57.6137C91.9201 57.8889 92.3941 58.2762 92.6897 58.7756C92.9954 59.2649 93.1483 59.8255 93.1483 60.4574C93.1483 61.0791 92.9954 61.6499 92.6897 62.1698C92.3839 62.6896 91.915 63.1075 91.2831 63.4234C90.6613 63.7394 89.8714 63.8974 88.9133 63.8974ZM95.0592 63.7445V53.0423H96.6951L101.374 60.8549H100.517L105.119 53.0423H106.755L106.77 63.7445H104.89L104.875 55.993H105.272L101.358 62.5214H100.471L96.4963 55.993H96.955V63.7445H95.0592ZM117.158 63.8515C116.465 63.8515 115.854 63.7241 115.324 63.4693C114.794 63.2043 114.381 62.8068 114.085 62.2768C113.79 61.7366 113.642 61.0588 113.642 60.2434V55.5802H115.553V59.9834C115.553 60.7173 115.716 61.2677 116.042 61.6346C116.379 61.9914 116.853 62.1698 117.464 62.1698C117.913 62.1698 118.3 62.078 118.626 61.8946C118.963 61.7111 119.222 61.4359 119.406 61.069C119.6 60.702 119.696 60.2484 119.696 59.7082V55.5802H121.608V63.7445H119.788V61.5429L120.109 62.2156C119.834 62.7456 119.431 63.1533 118.901 63.4387C118.371 63.7139 117.79 63.8515 117.158 63.8515ZM126.632 63.8515C125.95 63.8515 125.292 63.7649 124.66 63.5916C124.038 63.4082 123.544 63.189 123.177 62.9342L123.911 61.4818C124.278 61.7162 124.716 61.9098 125.226 62.0627C125.735 62.2156 126.245 62.2921 126.755 62.2921C127.356 62.2921 127.789 62.2105 128.054 62.0474C128.329 61.8844 128.467 61.6652 128.467 61.39C128.467 61.1658 128.375 60.9976 128.192 60.8855C128.008 60.7632 127.769 60.6714 127.473 60.6103C127.178 60.5491 126.846 60.4931 126.48 60.4421C126.123 60.3911 125.761 60.3249 125.394 60.2434C125.037 60.1516 124.711 60.0242 124.416 59.8611C124.12 59.6879 123.88 59.4585 123.697 59.1731C123.513 58.8877 123.422 58.5106 123.422 58.0418C123.422 57.5219 123.57 57.0735 123.865 56.6963C124.161 56.309 124.574 56.0134 125.104 55.8096C125.644 55.5955 126.281 55.4885 127.015 55.4885C127.565 55.4885 128.121 55.5497 128.681 55.672C129.242 55.7943 129.705 55.9676 130.072 56.1918L129.339 57.6442C128.951 57.4098 128.559 57.2518 128.161 57.1703C127.774 57.0786 127.387 57.0327 126.999 57.0327C126.418 57.0327 125.985 57.1193 125.7 57.2926C125.425 57.4659 125.287 57.685 125.287 57.95C125.287 58.1946 125.379 58.3781 125.562 58.5004C125.746 58.6227 125.985 58.7196 126.281 58.7909C126.576 58.8623 126.903 58.9234 127.259 58.9744C127.626 59.0151 127.988 59.0814 128.345 59.1731C128.702 59.2649 129.028 59.3923 129.323 59.5554C129.629 59.7082 129.874 59.9274 130.057 60.2128C130.241 60.4982 130.332 60.8702 130.332 61.3289C130.332 61.8385 130.179 62.2819 129.874 62.659C129.578 63.0361 129.155 63.3317 128.605 63.5458C128.054 63.7496 127.397 63.8515 126.632 63.8515ZM135.816 63.8515C134.909 63.8515 134.114 63.6732 133.431 63.3164C132.758 62.9495 132.233 62.45 131.856 61.8181C131.489 61.1862 131.305 60.4676 131.305 59.6624C131.305 58.847 131.484 58.1284 131.841 57.5066C132.207 56.8747 132.707 56.3804 133.339 56.0236C133.981 55.6669 134.71 55.4885 135.525 55.4885C136.32 55.4885 137.029 55.6618 137.65 56.0083C138.272 56.3549 138.761 56.8441 139.118 57.4761C139.475 58.108 139.653 58.8521 139.653 59.7082C139.653 59.7898 139.648 59.8815 139.638 59.9834C139.638 60.0854 139.633 60.1822 139.623 60.2739H132.819V59.005H138.614L137.864 59.4025C137.875 58.9336 137.778 58.5208 137.574 58.1641C137.37 57.8073 137.09 57.527 136.733 57.3232C136.386 57.1193 135.984 57.0174 135.525 57.0174C135.056 57.0174 134.644 57.1193 134.287 57.3232C133.94 57.527 133.665 57.8124 133.461 58.1794C133.268 58.5361 133.171 58.9591 133.171 59.4483V59.7541C133.171 60.2434 133.283 60.6765 133.507 61.0537C133.731 61.4308 134.047 61.7213 134.455 61.9251C134.863 62.129 135.332 62.2309 135.862 62.2309C136.32 62.2309 136.733 62.1596 137.1 62.0169C137.467 61.8742 137.793 61.6499 138.078 61.3442L139.103 62.5214C138.736 62.9495 138.272 63.2807 137.711 63.5152C137.161 63.7394 136.529 63.8515 135.816 63.8515ZM141.489 63.7445V55.5802H143.308V57.8277L143.094 57.1703C143.339 56.6199 143.721 56.202 144.241 55.9166C144.771 55.6312 145.428 55.4885 146.213 55.4885V57.3079C146.132 57.2875 146.055 57.2773 145.984 57.2773C145.913 57.2671 145.841 57.262 145.77 57.262C145.046 57.262 144.47 57.4761 144.042 57.9042C143.614 58.322 143.4 58.9489 143.4 59.7847V63.7445H141.489ZM150.432 63.8515C149.749 63.8515 149.091 63.7649 148.459 63.5916C147.838 63.4082 147.343 63.189 146.976 62.9342L147.71 61.4818C148.077 61.7162 148.516 61.9098 149.025 62.0627C149.535 62.2156 150.044 62.2921 150.554 62.2921C151.155 62.2921 151.589 62.2105 151.854 62.0474C152.129 61.8844 152.266 61.6652 152.266 61.39C152.266 61.1658 152.175 60.9976 151.991 60.8855C151.808 60.7632 151.568 60.6714 151.273 60.6103C150.977 60.5491 150.646 60.4931 150.279 60.4421C149.922 60.3911 149.56 60.3249 149.193 60.2434C148.837 60.1516 148.51 60.0242 148.215 59.8611C147.919 59.6879 147.68 59.4585 147.496 59.1731C147.313 58.8877 147.221 58.5106 147.221 58.0418C147.221 57.5219 147.369 57.0735 147.664 56.6963C147.96 56.309 148.373 56.0134 148.903 55.8096C149.443 55.5955 150.08 55.4885 150.814 55.4885C151.364 55.4885 151.92 55.5497 152.48 55.672C153.041 55.7943 153.505 55.9676 153.872 56.1918L153.138 57.6442C152.751 57.4098 152.358 57.2518 151.961 57.1703C151.573 57.0786 151.186 57.0327 150.799 57.0327C150.218 57.0327 149.784 57.1193 149.499 57.2926C149.224 57.4659 149.086 57.685 149.086 57.95C149.086 58.1946 149.178 58.3781 149.361 58.5004C149.545 58.6227 149.784 58.7196 150.08 58.7909C150.376 58.8623 150.702 58.9234 151.059 58.9744C151.425 59.0151 151.787 59.0814 152.144 59.1731C152.501 59.2649 152.827 59.3923 153.123 59.5554C153.428 59.7082 153.673 59.9274 153.856 60.2128C154.04 60.4982 154.132 60.8702 154.132 61.3289C154.132 61.8385 153.979 62.2819 153.673 62.659C153.377 63.0361 152.954 63.3317 152.404 63.5458C151.854 63.7496 151.196 63.8515 150.432 63.8515Z" fill="#BBCDF1"/>
<path d="M214.874 44.5177C214.793 44.5495 214.678 44.5977 214.528 44.6502C214.233 44.7587 213.821 44.9011 213.354 45.0381C213.118 45.106 212.869 45.1728 212.614 45.2353C212.487 45.266 212.358 45.2966 212.229 45.324C212.098 45.3525 211.968 45.3766 211.838 45.4018C211.316 45.4971 210.805 45.5607 210.354 45.5683C210.001 45.576 209.658 45.6516 209.34 45.7765C209.017 45.8992 208.722 46.0723 208.452 46.2717C207.917 46.6781 207.504 47.2051 207.295 47.7617C207.15 48.144 206.926 48.4398 206.695 48.6688C206.941 48.098 207.173 47.5141 207.384 46.9192C207.615 46.2585 207.825 45.5837 208.004 44.8989C208.143 44.3731 208.257 43.8384 208.363 43.3027C208.367 43.2994 208.369 43.2939 208.372 43.2906C208.437 43.2161 208.511 43.1449 208.59 43.0803C208.673 43.0146 208.758 42.9554 208.854 42.9083C209.047 42.8119 209.27 42.7593 209.527 42.7987C209.527 42.7987 209.661 42.7768 209.867 42.733C210.07 42.6903 210.344 42.6245 210.628 42.538C210.771 42.4942 210.915 42.4449 211.054 42.3934C211.193 42.3386 211.325 42.2805 211.444 42.2192C211.68 42.0932 211.868 41.9518 211.932 41.8028C211.998 41.6539 212.069 41.5268 212.144 41.4052C212.217 41.2814 212.295 41.1619 212.373 41.0327C212.453 40.9034 212.531 40.7599 212.612 40.5879C212.651 40.5002 212.692 40.4071 212.729 40.303C212.768 40.1989 212.805 40.0872 212.841 39.9612C212.88 39.8374 212.935 39.7015 213.004 39.5613C213.074 39.4211 213.164 39.2765 213.258 39.1242C213.352 38.973 213.456 38.8196 213.565 38.6651C213.673 38.5107 213.787 38.3573 213.9 38.205C213.958 38.1305 214.014 38.056 214.068 37.9815C214.125 37.9103 214.18 37.8391 214.233 37.7711C214.341 37.632 214.447 37.5005 214.54 37.3899C214.727 37.1697 214.883 36.9988 214.97 36.9221C214.97 36.9221 214.828 37.0327 214.592 37.2058C214.475 37.2924 214.331 37.3932 214.17 37.5027C214.01 37.6156 213.827 37.7394 213.634 37.8643C213.247 38.1108 212.799 38.3639 212.349 38.5808C212.237 38.6345 212.125 38.6881 212.013 38.7374C211.899 38.7856 211.787 38.8306 211.675 38.8744C211.454 38.9598 211.238 39.0343 211.032 39.0891C210.87 39.1351 210.718 39.1932 210.573 39.2699C210.426 39.3411 210.289 39.4266 210.16 39.5219C209.907 39.7114 209.679 39.9437 209.495 40.1946C209.12 40.6974 208.883 41.2825 208.821 41.8434C208.792 42.1228 208.708 42.3726 208.606 42.5884C208.557 42.687 208.503 42.7779 208.448 42.8623C208.45 42.8502 208.453 42.8382 208.455 42.825C208.695 41.4304 208.811 40.0127 208.77 38.6213C208.767 38.5337 208.764 38.4471 208.762 38.3617C208.758 38.274 208.751 38.1864 208.749 38.1009C208.743 38.0133 208.737 37.9267 208.732 37.8424C208.725 37.7569 208.719 37.6693 208.71 37.5838C208.704 37.4983 208.695 37.4096 208.688 37.3264C208.685 37.299 208.682 37.2727 208.68 37.2464C208.689 37.2245 208.695 37.2069 208.706 37.1861C208.782 37.0229 208.886 36.8542 209.035 36.7161C209.184 36.5803 209.376 36.4762 209.622 36.4477C209.622 36.4477 209.65 36.4345 209.701 36.4083C209.752 36.3863 209.825 36.3502 209.911 36.3042C210.085 36.2122 210.317 36.084 210.552 35.9328C210.787 35.7816 211.024 35.6085 211.209 35.4332C211.387 35.259 211.514 35.0826 211.536 34.9292C211.577 34.6236 211.643 34.3793 211.709 34.0878C211.726 34.0144 211.742 33.9377 211.757 33.8567C211.77 33.7756 211.781 33.6902 211.792 33.6003C211.803 33.5094 211.81 33.413 211.816 33.3056C211.822 33.2015 211.826 33.0876 211.822 32.9649C211.818 32.8411 211.829 32.7063 211.852 32.5617C211.863 32.4894 211.877 32.4171 211.894 32.3393C211.91 32.2626 211.926 32.1848 211.946 32.107C211.984 31.9504 212.031 31.7849 212.082 31.6217C212.108 31.5417 212.134 31.4574 212.159 31.3774C212.185 31.2952 212.213 31.2153 212.24 31.1342C212.295 30.9742 212.35 30.8176 212.406 30.6708C212.462 30.5229 212.513 30.3848 212.563 30.2632C212.664 30.0123 212.753 29.8195 212.811 29.7275C212.811 29.7275 212.716 29.8666 212.552 30.0857C212.47 30.1931 212.369 30.3224 212.255 30.4648C212.14 30.6039 212.014 30.7584 211.87 30.9184C211.584 31.2372 211.256 31.5746 210.91 31.8814C210.56 32.1892 210.198 32.4675 209.854 32.6724C209.719 32.7545 209.598 32.8476 209.49 32.9506C209.378 33.0525 209.281 33.1654 209.195 33.2859C209.023 33.5258 208.9 33.7909 208.809 34.0703C208.764 34.2095 208.73 34.3508 208.708 34.4943C208.679 34.6356 208.662 34.7791 208.655 34.9227C208.65 34.9917 208.65 35.064 208.65 35.1352C208.652 35.2053 208.652 35.2754 208.655 35.3445C208.664 35.4836 208.681 35.6194 208.708 35.752C208.722 35.8177 208.729 35.8824 208.735 35.947C208.74 36.0117 208.743 36.0752 208.745 36.1344C208.745 36.2582 208.737 36.3743 208.721 36.4871C208.7 36.6109 208.669 36.726 208.634 36.8323C208.625 36.7424 208.613 36.6504 208.601 36.5584C208.511 35.8824 208.393 35.2174 208.247 34.5688C208.094 33.9224 207.914 33.2924 207.711 32.6833C207.659 32.5321 207.607 32.382 207.556 32.2309C207.498 32.0819 207.442 31.9361 207.386 31.7882C207.334 31.6414 207.269 31.4979 207.212 31.3544L207.211 31.3533C207.214 31.3117 207.215 31.2744 207.221 31.2306C207.246 31.0597 207.29 30.8778 207.386 30.7168C207.48 30.5557 207.624 30.4122 207.839 30.3213C207.839 30.3213 207.93 30.2435 208.063 30.1164C208.195 29.9882 208.367 29.8107 208.536 29.6124C208.706 29.4152 208.87 29.1961 208.986 28.9901C209.1 28.7853 209.164 28.5947 209.139 28.45C209.127 28.3788 209.116 28.3065 209.107 28.2397C209.099 28.1717 209.09 28.1038 209.082 28.0359C209.068 27.9011 209.055 27.7664 209.04 27.6185C209.023 27.4739 209.001 27.3194 208.965 27.1452C208.948 27.0586 208.929 26.9666 208.903 26.8702C208.877 26.7738 208.849 26.6719 208.811 26.5635C208.674 26.1263 208.652 25.4723 208.669 24.8686C208.677 24.5695 208.695 24.2836 208.721 24.048C208.743 23.8136 208.773 23.6306 208.806 23.5342C208.806 23.5342 208.754 23.6766 208.66 23.9078C208.565 24.1346 208.426 24.4534 208.251 24.8029C208.165 24.9782 208.07 25.1578 207.966 25.3419C207.862 25.5259 207.751 25.7122 207.635 25.8919C207.519 26.0693 207.397 26.2446 207.272 26.4079C207.147 26.5711 207.019 26.7245 206.889 26.8593C206.687 27.0718 206.553 27.3161 206.472 27.5736C206.43 27.7018 206.403 27.8343 206.387 27.968C206.37 28.1038 206.369 28.2375 206.371 28.3755C206.377 28.5136 206.391 28.6483 206.416 28.7831C206.428 28.8521 206.44 28.9189 206.456 28.9869C206.469 29.0537 206.488 29.1183 206.507 29.1852C206.586 29.4459 206.685 29.699 206.809 29.9258C206.871 30.0375 206.916 30.1526 206.954 30.2643C206.972 30.3202 206.988 30.375 207.002 30.4297C207.016 30.4834 207.028 30.5371 207.033 30.5908C207.054 30.731 207.057 30.8603 207.055 30.983C207.045 30.9655 207.037 30.9468 207.028 30.9293C206.997 30.857 206.967 30.788 206.934 30.7201C206.904 30.6488 206.875 30.5809 206.84 30.5108C206.774 30.375 206.709 30.2413 206.643 30.1043C206.579 29.9707 206.509 29.8403 206.443 29.7099C206.409 29.6453 206.377 29.5796 206.34 29.5149C206.307 29.4514 206.27 29.3878 206.236 29.3232C206.201 29.2607 206.166 29.1961 206.132 29.1348C206.115 29.1019 206.098 29.0723 206.079 29.0394C206.062 29.0077 206.043 28.9781 206.026 28.9474C205.954 28.8236 205.883 28.702 205.812 28.5826C205.739 28.461 205.667 28.3427 205.595 28.2254C205.56 28.1674 205.523 28.1082 205.486 28.0501C205.45 27.9932 205.413 27.9362 205.378 27.8792C205.009 27.3063 204.581 26.799 204.176 26.3257C204.17 26.3126 204.166 26.3016 204.159 26.2841C204.121 26.18 204.077 26.0365 204.055 25.8732C204.035 25.7122 204.03 25.5369 204.077 25.3682C204.124 25.1973 204.22 25.0362 204.396 24.9048C204.396 24.9048 204.457 24.8138 204.548 24.6681C204.638 24.5246 204.755 24.3241 204.864 24.1094C205.086 23.6766 205.271 23.1803 205.168 22.9349C204.959 22.454 204.88 22.0037 204.492 21.2872C204.394 21.1086 204.313 20.8807 204.246 20.632C204.18 20.3866 204.128 20.116 204.091 19.864C204.015 19.3535 204 18.8923 204.043 18.7148C204.043 18.7148 204.01 18.8463 203.948 19.0621C203.888 19.2779 203.796 19.5748 203.682 19.9122C203.453 20.5816 203.122 21.3989 202.733 21.9763C202.58 22.2064 202.503 22.4496 202.482 22.695C202.462 22.9437 202.497 23.1957 202.574 23.44C202.723 23.933 203.03 24.3997 203.358 24.7667C203.443 24.8587 203.511 24.953 203.572 25.0461C203.631 25.1414 203.682 25.2356 203.723 25.3298C203.805 25.5183 203.853 25.6979 203.88 25.8579C203.888 25.9072 203.891 25.9521 203.895 25.9981C203.759 25.8371 203.627 25.6804 203.504 25.5281C203.371 25.3627 202.03 23.8859 201.069 22.8297C200.902 22.5438 200.773 22.1976 200.773 21.7988C200.773 20.7219 200.318 19.3612 199.049 19.0774C197.441 18.717 195.231 17.4888 195.231 17.4888C195.599 17.697 196.748 18.9591 197.01 19.7819C197.271 20.6035 197.558 21.0067 197.762 21.5282C197.964 22.0486 199.969 22.6227 199.969 22.6227C200.296 22.6139 200.587 22.7443 200.833 22.9261C201.182 23.4378 202.224 24.9562 202.509 25.2937C202.675 25.4931 202.848 25.7045 203.026 25.9269C203.182 26.1219 203.342 26.329 203.506 26.5415C203.45 26.5218 203.391 26.4977 203.327 26.4703C203.257 26.4375 203.184 26.3991 203.109 26.3553C203.033 26.3137 202.955 26.2633 202.879 26.2085C202.802 26.1526 202.728 26.0891 202.654 26.019C202.58 25.9488 202.51 25.871 202.442 25.7845C202.41 25.7407 202.375 25.6958 202.337 25.653C202.301 25.6092 202.261 25.5687 202.222 25.526C202.139 25.4427 202.054 25.3638 201.961 25.2871C201.868 25.2104 201.768 25.1392 201.667 25.0746C201.565 25.0088 201.457 24.9508 201.347 24.9036C200.905 24.7086 200.41 24.656 199.931 24.8708C199.322 25.1425 198.513 25.3572 197.852 25.5117C197.523 25.5895 197.229 25.6498 197.02 25.6914C196.811 25.733 196.684 25.7549 196.684 25.7549C196.854 25.7253 197.287 25.7604 197.748 25.848C197.98 25.8919 198.215 25.9477 198.433 26.0179C198.65 26.0858 198.843 26.1669 198.987 26.26C199.275 26.4418 199.514 26.5602 199.727 26.6621C199.943 26.7628 200.13 26.8439 200.32 26.9546C200.418 27.0115 200.586 27.0181 200.789 26.9984C200.992 26.982 201.226 26.9359 201.451 26.8866C201.899 26.7848 202.305 26.6621 202.305 26.6621C202.471 26.5492 202.647 26.5076 202.817 26.5076C202.988 26.5076 203.148 26.5558 203.29 26.6171C203.433 26.6785 203.554 26.7541 203.637 26.8165C203.722 26.879 203.771 26.9228 203.771 26.9228C203.771 26.9228 203.779 26.9151 203.781 26.9107C204.092 27.3304 204.404 27.7774 204.712 28.2594C204.748 28.3131 204.783 28.3679 204.819 28.4248C204.856 28.4796 204.889 28.5377 204.924 28.5947C204.994 28.7064 205.063 28.8214 205.136 28.9376C205.204 29.0548 205.271 29.1731 205.343 29.2936C205.36 29.3232 205.378 29.3528 205.394 29.3824C205.412 29.413 205.429 29.4437 205.444 29.4744C205.478 29.5357 205.512 29.596 205.545 29.6574C205.579 29.7198 205.613 29.7822 205.647 29.8425C205.681 29.906 205.713 29.9685 205.744 30.032C205.81 30.1591 205.876 30.2851 205.941 30.4144C206.003 30.5448 206.066 30.6751 206.13 30.8066C206.163 30.8734 206.191 30.9392 206.222 31.006C206.252 31.0739 206.281 31.1408 206.312 31.2098C206.342 31.2777 206.374 31.3445 206.403 31.4136C206.431 31.4815 206.459 31.5516 206.488 31.6195C206.488 31.6217 206.488 31.6239 206.491 31.6239C206.467 31.6086 206.449 31.5965 206.426 31.5779C206.362 31.5286 206.298 31.4727 206.23 31.4114C206.163 31.3511 206.095 31.281 206.032 31.2054C205.966 31.132 205.907 31.0498 205.848 30.9611C205.789 30.8734 205.736 30.777 205.689 30.6751C205.666 30.6215 205.641 30.5689 205.613 30.5174C205.586 30.4648 205.554 30.4133 205.523 30.3618C205.46 30.2588 205.388 30.158 205.313 30.0605C205.233 29.963 205.146 29.8721 205.055 29.7844C205.008 29.7417 204.961 29.7001 204.913 29.6628C204.864 29.6212 204.812 29.5861 204.76 29.5511C204.549 29.413 204.322 29.309 204.073 29.2629C203.826 29.2158 203.565 29.2213 203.294 29.298C202.948 29.3977 202.554 29.4755 202.16 29.5434C201.767 29.6102 201.367 29.6694 201.015 29.7165C200.839 29.7395 200.676 29.7614 200.525 29.7822C200.377 29.8031 200.245 29.8195 200.134 29.8337C199.914 29.8611 199.781 29.8743 199.781 29.8743C199.958 29.8578 200.387 29.9115 200.834 30.0353C200.89 30.0507 200.947 30.0682 201.003 30.0857C201.059 30.1021 201.114 30.1219 201.17 30.1394C201.28 30.1799 201.388 30.2216 201.49 30.2654C201.695 30.3563 201.87 30.4604 201.998 30.5678C202.122 30.6751 202.236 30.7672 202.347 30.8493C202.401 30.8866 202.452 30.9271 202.503 30.9633C202.553 30.9994 202.602 31.0323 202.651 31.0662C202.847 31.1966 203.015 31.3106 203.182 31.453C203.266 31.5242 203.436 31.5625 203.65 31.5823C203.863 31.6009 204.119 31.602 204.366 31.5943C204.856 31.5823 205.309 31.545 205.309 31.545C205.515 31.465 205.708 31.4596 205.885 31.5012C205.929 31.511 205.973 31.5242 206.016 31.5395C206.056 31.5549 206.095 31.5713 206.134 31.5899C206.211 31.6294 206.281 31.6754 206.346 31.7247C206.472 31.8189 206.577 31.9252 206.645 32.0073C206.65 32.0194 206.655 32.0282 206.658 32.0391C206.712 32.1805 206.765 32.324 206.821 32.4675C206.87 32.6121 206.921 32.7556 206.971 32.9035C207.166 33.4918 207.34 34.0999 207.487 34.7244C207.628 35.351 207.744 35.993 207.832 36.6482C207.852 36.8136 207.871 36.9769 207.891 37.1423C207.894 37.1773 207.896 37.2102 207.899 37.2431C207.805 37.1116 207.706 36.9593 207.628 36.7819C207.607 36.7315 207.587 36.6843 207.569 36.6329C207.55 36.5825 207.531 36.5299 207.515 36.4762C207.482 36.3699 207.456 36.2571 207.44 36.1344C207.428 36.0149 207.4 35.8923 207.365 35.7696C207.331 35.6447 207.29 35.5219 207.24 35.4014C207.188 35.2798 207.127 35.1604 207.058 35.0498C206.991 34.9369 206.916 34.8295 206.828 34.7309C206.739 34.6323 206.643 34.5403 206.543 34.4603C206.491 34.4209 206.438 34.3847 206.381 34.3508C206.325 34.3157 206.268 34.285 206.208 34.2577C205.965 34.1459 205.695 34.0889 205.393 34.0999C205.297 34.1032 205.199 34.1043 205.098 34.1043C204.996 34.1043 204.893 34.1032 204.789 34.0999C204.58 34.0944 204.365 34.0835 204.153 34.0714C203.939 34.0594 203.727 34.0451 203.521 34.0298C203.316 34.0155 203.115 34.0013 202.925 33.9871C202.186 33.9345 201.616 33.8917 201.616 33.8917C201.709 33.9005 201.862 33.9366 202.043 33.9991C202.222 34.0615 202.432 34.1503 202.646 34.2588C202.75 34.3135 202.854 34.3727 202.955 34.4373C203.056 34.4998 203.158 34.5655 203.247 34.6334C203.336 34.7036 203.419 34.7737 203.491 34.8438C203.53 34.8788 203.563 34.9139 203.594 34.95C203.609 34.9676 203.624 34.9851 203.638 35.0027C203.65 35.0191 203.664 35.0377 203.674 35.0541C203.769 35.1933 203.858 35.3138 203.948 35.4233C204.034 35.5329 204.114 35.6304 204.192 35.7224C204.354 35.9054 204.492 36.0686 204.618 36.2571C204.65 36.3064 204.708 36.3502 204.783 36.3918C204.859 36.4346 204.955 36.4762 205.061 36.5156C205.274 36.5923 205.538 36.6635 205.792 36.726C206.049 36.7873 206.296 36.8388 206.478 36.8772C206.661 36.9133 206.779 36.9352 206.779 36.9352C207.016 36.9078 207.216 36.955 207.385 37.0459C207.553 37.1368 207.691 37.2672 207.792 37.4041C207.849 37.4797 207.895 37.5564 207.936 37.6298C207.936 37.632 207.936 37.6353 207.937 37.6408C207.943 37.724 207.949 37.8062 207.957 37.8906C207.962 37.9749 207.966 38.0582 207.972 38.1393C207.976 38.2236 207.983 38.3069 207.986 38.3913C207.989 38.4745 207.99 38.5567 207.994 38.641C208.035 39.982 207.922 41.3526 207.689 42.7078C207.672 42.8064 207.65 42.9039 207.632 43.0014C207.619 42.962 207.606 42.9258 207.596 42.8853C207.569 42.7867 207.547 42.6826 207.531 42.5719C207.524 42.5183 207.518 42.4613 207.514 42.4043C207.509 42.3463 207.506 42.2893 207.506 42.229C207.506 42.1688 207.507 42.1096 207.513 42.0461C207.517 41.9847 207.525 41.9223 207.532 41.8598C207.551 41.7294 207.563 41.5947 207.567 41.4589C207.569 41.3241 207.563 41.1828 207.548 41.0447C207.531 40.9067 207.504 40.7697 207.469 40.635C207.433 40.5002 207.382 40.3698 207.325 40.2449C207.268 40.1211 207.196 40.0028 207.113 39.8922C207.03 39.7837 206.938 39.6829 206.829 39.5942C206.615 39.4167 206.355 39.2885 206.039 39.2195C205.639 39.133 205.203 39.0048 204.774 38.8711C204.56 38.8043 204.342 38.7375 204.134 38.6684C203.926 38.6027 203.727 38.5381 203.537 38.4767C203.349 38.4186 203.171 38.3617 203.011 38.3113C202.932 38.2872 202.857 38.2642 202.788 38.2422C202.718 38.2203 202.652 38.1973 202.592 38.1776C202.357 38.0987 202.213 38.0505 202.213 38.0505C202.261 38.068 202.321 38.0954 202.391 38.1338C202.426 38.1535 202.462 38.1754 202.501 38.1984C202.54 38.2225 202.58 38.2477 202.624 38.2751C202.708 38.3266 202.796 38.3879 202.889 38.4559C202.934 38.4887 202.982 38.5238 203.028 38.5622C203.074 38.5983 203.121 38.6366 203.167 38.6783C203.212 38.7188 203.257 38.7605 203.303 38.8021C203.349 38.8448 203.394 38.8886 203.435 38.9314C203.521 39.0201 203.601 39.1121 203.676 39.2052C203.749 39.2984 203.812 39.3904 203.866 39.4824C203.892 39.5285 203.92 39.5734 203.939 39.6161C203.959 39.661 203.976 39.7048 203.989 39.7454C204.017 39.8286 204.046 39.9064 204.074 39.982C204.103 40.0576 204.13 40.1266 204.158 40.1946C204.186 40.2614 204.215 40.326 204.243 40.3874C204.269 40.4487 204.296 40.5101 204.322 40.5659C204.349 40.6251 204.375 40.681 204.401 40.7358C204.429 40.7905 204.45 40.8464 204.474 40.9012C204.519 41.0097 204.564 41.117 204.599 41.2321C204.632 41.3482 204.778 41.4797 204.975 41.6177C205.171 41.7547 205.419 41.8982 205.662 42.0307C205.907 42.1611 206.144 42.2805 206.32 42.3671C206.497 42.4536 206.614 42.5073 206.614 42.5073C206.864 42.5446 207.056 42.6442 207.204 42.7845C207.349 42.9214 207.445 43.0923 207.514 43.2611C207.531 43.3071 207.541 43.3498 207.556 43.3958C207.465 43.8406 207.366 44.2865 207.251 44.7248C207.075 45.392 206.873 46.046 206.645 46.6913C206.418 47.3399 206.165 47.9742 205.892 48.591C205.891 48.5811 205.89 48.5724 205.89 48.5625C205.885 48.4541 205.891 48.3434 205.903 48.2229C205.913 48.1068 205.932 47.9841 205.961 47.8614C205.992 47.7365 206.029 47.6072 206.082 47.479C206.292 46.9608 206.396 46.3243 206.281 45.7491C206.252 45.6045 206.214 45.4664 206.156 45.3317C206.099 45.1991 206.029 45.0709 205.944 44.9537C205.771 44.7171 205.534 44.5188 205.23 44.372C204.844 44.189 204.429 43.9458 204.023 43.6971C203.618 43.4495 203.217 43.1931 202.864 42.9642C202.169 42.515 201.633 42.1688 201.633 42.1688C201.722 42.2268 201.849 42.3441 201.988 42.5073C202.058 42.5884 202.131 42.6782 202.206 42.7779C202.279 42.8765 202.353 42.9839 202.425 43.0945C202.497 43.2063 202.565 43.3224 202.628 43.4418C202.689 43.5601 202.748 43.6807 202.796 43.799C202.846 43.9162 202.885 44.0334 202.915 44.1441C202.945 44.2548 202.964 44.3599 202.97 44.4552C202.978 44.5538 202.984 44.6437 202.993 44.7302C203.002 44.8168 203.011 44.8989 203.024 44.98C203.043 45.1378 203.068 45.2791 203.093 45.4138C203.139 45.6834 203.19 45.9222 203.203 46.1807C203.21 46.3111 203.325 46.4821 203.493 46.6683C203.579 46.7636 203.674 46.8622 203.779 46.9586C203.883 47.0583 203.992 47.1558 204.102 47.2522C204.319 47.4418 204.537 47.6171 204.699 47.7474C204.781 47.8121 204.847 47.8636 204.893 47.9008C204.941 47.9381 204.968 47.9567 204.968 47.9567C205.218 48.0476 205.39 48.1966 205.509 48.3708C205.566 48.4573 205.61 48.5516 205.645 48.648C205.676 48.7433 205.697 48.8386 205.711 48.935C205.713 48.9471 205.713 48.9602 205.714 48.9734C205.495 49.4488 205.267 49.9145 205.025 50.3626C204.405 51.5151 203.713 52.58 202.981 53.5299C202.954 53.566 202.925 53.5978 202.898 53.6328C202.919 53.5507 202.941 53.4685 202.971 53.3841C203.012 53.2658 203.063 53.1453 203.125 53.0237C203.187 52.9054 203.257 52.7827 203.344 52.6622C203.691 52.1768 203.951 51.5458 203.97 50.929C203.978 50.6211 203.93 50.3187 203.806 50.0372C203.683 49.7589 203.484 49.5058 203.202 49.29C203.024 49.1563 202.841 49.0051 202.659 48.8452C202.477 48.6863 202.291 48.5165 202.11 48.3478C201.929 48.1769 201.752 48.0049 201.578 47.8362C201.404 47.6685 201.238 47.5031 201.081 47.3486C200.468 46.7406 199.995 46.2695 199.995 46.2695C200.033 46.3089 200.077 46.3648 200.127 46.4371C200.175 46.5094 200.227 46.596 200.281 46.6946C200.335 46.7921 200.391 46.9027 200.445 47.0211C200.497 47.1383 200.549 47.2643 200.598 47.3936C200.647 47.5239 200.688 47.6587 200.728 47.7924C200.765 47.9282 200.797 48.063 200.82 48.1933C200.831 48.2602 200.842 48.3237 200.85 48.3883C200.857 48.4508 200.861 48.5121 200.863 48.5713C200.868 48.6918 200.866 48.8047 200.85 48.9022C200.833 49.0019 200.821 49.095 200.811 49.1859C200.801 49.2769 200.791 49.359 200.784 49.4412C200.777 49.5244 200.773 49.6033 200.769 49.6778C200.765 49.7545 200.762 49.8257 200.758 49.8969C200.755 49.966 200.754 50.0361 200.752 50.1029C200.747 50.1708 200.743 50.2355 200.741 50.3012C200.736 50.3669 200.732 50.4327 200.726 50.4973C200.718 50.5609 200.708 50.6255 200.697 50.6923C200.686 50.757 200.7 50.8391 200.734 50.9345C200.766 51.0276 200.818 51.1327 200.883 51.2467C200.946 51.3606 201.024 51.4822 201.106 51.6049C201.191 51.7287 201.278 51.8525 201.367 51.9731C201.545 52.2174 201.724 52.4453 201.857 52.614C201.99 52.7838 202.08 52.8922 202.08 52.8922C202.313 53.0434 202.454 53.2351 202.529 53.44C202.599 53.6306 202.606 53.8267 202.59 54.0141C201.975 54.7646 201.337 55.4362 200.695 56.0091C199.978 56.6457 199.262 57.1584 198.583 57.555C198.616 57.5144 198.65 57.4739 198.683 57.4323C198.853 57.2351 199.059 57.0466 199.311 56.8681C199.566 56.6939 199.805 56.4638 200.01 56.2085C200.211 55.95 200.377 55.664 200.473 55.3584C200.497 55.2817 200.518 55.2061 200.533 55.1294C200.55 55.0538 200.562 54.976 200.569 54.8971C200.575 54.8193 200.579 54.7427 200.577 54.666C200.572 54.5871 200.565 54.5082 200.552 54.4304C200.527 54.2759 200.481 54.1237 200.412 53.9747C200.343 53.8224 200.251 53.6745 200.135 53.5331C199.99 53.3513 199.843 53.1563 199.699 52.9525C199.55 52.7487 199.405 52.534 199.26 52.3214C199.117 52.1111 198.976 51.8996 198.837 51.6893C198.702 51.4855 198.568 51.285 198.443 51.0966C198.318 50.9103 198.2 50.7329 198.093 50.5729C197.987 50.4173 197.894 50.2771 197.815 50.1599C197.658 49.9298 197.564 49.7896 197.564 49.7896C197.624 49.8827 197.699 50.0514 197.77 50.265C197.805 50.3691 197.839 50.4864 197.87 50.6146C197.878 50.6463 197.886 50.6781 197.894 50.7099C197.899 50.7416 197.908 50.7734 197.914 50.8074C197.927 50.8709 197.938 50.9388 197.95 51.0057C197.975 51.1437 197.991 51.2785 198.001 51.4165C198.014 51.5545 198.017 51.6893 198.015 51.8164C198.011 51.949 197.999 52.0684 197.98 52.1834C197.972 52.2393 197.96 52.2962 197.947 52.3455C197.933 52.3948 197.916 52.4419 197.899 52.4847C197.881 52.5285 197.866 52.5723 197.851 52.6129C197.833 52.6534 197.818 52.695 197.804 52.7334C197.774 52.8123 197.75 52.89 197.727 52.9613C197.678 53.1037 197.641 53.2406 197.605 53.3655C197.588 53.4291 197.571 53.4904 197.553 53.5507C197.536 53.6098 197.519 53.6679 197.5 53.726C197.492 53.7545 197.482 53.7829 197.473 53.8103L197.459 53.8552L197.442 53.8958C197.422 53.9517 197.398 54.0042 197.372 54.0612C197.36 54.0886 197.353 54.1226 197.35 54.162C197.346 54.2003 197.346 54.2431 197.35 54.2924C197.359 54.3888 197.38 54.506 197.411 54.6353C197.471 54.8895 197.564 55.1908 197.656 55.4866C197.75 55.7835 197.842 56.065 197.908 56.2732C197.978 56.4824 198.021 56.6194 198.021 56.6194C198.187 56.856 198.251 57.0905 198.241 57.3151C198.239 57.3709 198.232 57.429 198.222 57.4816C198.211 57.5353 198.198 57.5879 198.179 57.6404C198.162 57.6919 198.141 57.7423 198.12 57.7916C198.115 57.7982 198.111 57.8048 198.107 57.8125C197.848 57.9461 197.593 58.0666 197.35 58.1641C197.268 58.1981 197.186 58.2299 197.107 58.2605C197.026 58.289 196.947 58.3175 196.87 58.3427C196.794 58.3723 196.717 58.392 196.642 58.4161C196.569 58.438 196.496 58.4621 196.424 58.4796C195.856 58.633 195.401 58.6889 195.092 58.7108C195.052 58.7152 195.018 58.7174 194.983 58.7196C194.965 58.7196 194.95 58.7207 194.933 58.7218C194.917 58.724 194.902 58.7218 194.887 58.724C194.828 58.7261 194.777 58.7272 194.738 58.7283C194.659 58.7294 193.582 58.644 193.582 58.644C193.582 58.644 191.571 58.5454 191.061 58.3088C190.789 58.1828 190.461 58.197 190.248 58.3964C190.06 58.5695 190.2 58.8883 190.311 59.3824C190.55 60.4385 191.435 61.0444 191.299 61.9559C191.299 61.9559 191.98 60.9447 191.47 60.1C191.47 60.1 191.548 59.206 193.313 59.3824C193.313 59.3824 193.56 59.3977 193.85 59.4131C193.458 59.8699 193.088 60.7858 194.119 62.3328C195.589 64.536 195.507 65.5866 195.485 65.7444C195.522 65.5066 195.922 62.8652 195.012 61.9625C193.816 60.7738 194.307 59.9455 194.889 59.4547C194.902 59.4547 194.909 59.4547 194.921 59.4514C194.939 59.4514 194.956 59.4514 194.973 59.4514C194.993 59.4492 195.01 59.4492 195.03 59.4481C195.068 59.4448 195.109 59.4426 195.153 59.4383C195.501 59.4153 196.013 59.3506 196.64 59.1819C196.719 59.1622 196.798 59.1359 196.881 59.1096C196.964 59.0855 197.047 59.0636 197.131 59.0318C197.216 59.0033 197.303 58.9705 197.392 58.9398C197.479 58.9069 197.567 58.8708 197.658 58.8346C197.933 58.724 198.221 58.587 198.513 58.4358C198.706 58.4523 198.906 58.4851 199.095 58.552C199.325 58.6418 199.544 58.7886 199.695 59.0318C199.695 59.0318 199.816 59.1238 200.01 59.2564C200.204 59.389 200.479 59.5621 200.783 59.7209C200.934 59.7998 201.094 59.8743 201.255 59.9411C201.416 60.0069 201.58 60.0638 201.733 60.1044C202.044 60.1855 202.335 60.2085 202.533 60.1285C202.634 60.0912 202.728 60.0584 202.817 60.0332C202.906 60.0069 202.989 59.985 203.072 59.9663C203.237 59.9302 203.399 59.9028 203.568 59.8677C203.654 59.8469 203.743 59.8261 203.838 59.802C203.885 59.79 203.933 59.7724 203.983 59.7571C204.035 59.7429 204.086 59.7242 204.139 59.7056C204.244 59.6662 204.359 59.618 204.485 59.5599C204.61 59.5018 204.739 59.4295 204.884 59.3452C205.031 59.263 205.199 59.1896 205.391 59.1239C205.586 59.0592 205.795 59 206.021 58.9496C206.247 58.8971 206.481 58.8488 206.724 58.8061C206.968 58.7634 207.211 58.7251 207.451 58.6889C208.418 58.5476 209.325 58.4479 209.603 58.4358C209.603 58.4358 209.549 58.4325 209.45 58.4282C209.35 58.4238 209.207 58.4117 209.029 58.3997C208.851 58.3832 208.639 58.3624 208.404 58.3383C208.17 58.312 207.908 58.277 207.635 58.2342C207.094 58.1499 206.495 58.0326 205.929 57.876C205.357 57.7259 204.819 57.5364 204.381 57.3326C204.032 57.1693 203.65 57.0697 203.264 57.0226C203.068 56.9963 202.872 56.9842 202.676 56.9831C202.58 56.9831 202.482 56.9853 202.384 56.9897C202.286 56.9941 202.189 57.0017 202.093 57.0116C202.045 57.0182 201.998 57.0236 201.951 57.0291C201.903 57.0346 201.855 57.0423 201.807 57.051C201.712 57.0631 201.619 57.0828 201.528 57.1003C201.437 57.1222 201.344 57.1441 201.255 57.1693C201.165 57.1913 201.077 57.2197 200.992 57.2504C200.905 57.2778 200.821 57.3096 200.738 57.3435C200.655 57.3775 200.577 57.4159 200.499 57.452C200.341 57.5287 200.195 57.6185 200.056 57.7138C199.988 57.762 199.916 57.8092 199.847 57.8486C199.776 57.888 199.705 57.9253 199.634 57.9571C199.494 58.0239 199.351 58.071 199.213 58.1104C199.179 58.1203 199.145 58.1291 199.111 58.1378C199.083 58.1433 199.054 58.1499 199.025 58.1554C199.742 57.7358 200.489 57.1989 201.229 56.5394C201.926 55.9182 202.611 55.1907 203.268 54.3833C203.348 54.3548 203.429 54.3263 203.515 54.3088C203.629 54.2836 203.747 54.2683 203.864 54.2672C204.103 54.2639 204.35 54.3219 204.578 54.483C204.578 54.483 204.614 54.494 204.677 54.5104C204.741 54.5279 204.83 54.552 204.942 54.5816C205.164 54.6353 205.467 54.7021 205.791 54.7525C206.116 54.8029 206.457 54.8336 206.757 54.8237C206.832 54.8204 206.906 54.816 206.973 54.8073C207.042 54.7996 207.106 54.7887 207.166 54.7744C207.284 54.7449 207.385 54.7021 207.458 54.6451C207.531 54.5893 207.6 54.5367 207.667 54.494C207.736 54.4479 207.804 54.4074 207.869 54.3691C207.937 54.3318 208.003 54.2978 208.07 54.2606C208.137 54.2255 208.205 54.1894 208.275 54.1532C208.555 53.9977 208.87 53.8037 209.276 53.3896C209.48 53.1826 209.791 52.9865 210.156 52.8002C210.338 52.706 210.533 52.6162 210.735 52.5285C210.935 52.442 211.139 52.3565 211.342 52.2776C211.546 52.1966 211.744 52.1188 211.936 52.0486C212.127 51.9796 212.31 51.9172 212.472 51.8569C212.798 51.7452 213.057 51.663 213.183 51.6334C213.183 51.6334 213.132 51.6411 213.042 51.6542C212.949 51.6674 212.817 51.6893 212.651 51.709C212.487 51.7298 212.29 51.755 212.069 51.7769C211.849 51.8021 211.604 51.8219 211.346 51.8361C211.086 51.8547 210.818 51.8668 210.539 51.8734C210.262 51.8777 209.977 51.8777 209.7 51.869C209.561 51.8657 209.422 51.858 209.286 51.8503C209.15 51.8405 209.015 51.8328 208.883 51.8153C208.619 51.7912 208.369 51.7561 208.139 51.7134C207.958 51.6772 207.776 51.6608 207.593 51.6575C207.406 51.6542 207.223 51.6674 207.042 51.6937C206.68 51.7452 206.322 51.8449 205.993 51.984C205.331 52.2667 204.761 52.6928 204.404 53.2089C204.313 53.3403 204.215 53.4565 204.114 53.5605C204.01 53.6635 203.902 53.7544 203.795 53.8344C203.737 53.8793 203.677 53.9111 203.618 53.9473C204.373 52.9678 205.081 51.8745 205.718 50.6945C205.992 50.184 206.25 49.6537 206.495 49.1158C206.659 49.0073 206.843 48.9044 207.052 48.8551C207.164 48.8277 207.279 48.8134 207.398 48.8189C207.518 48.8244 207.641 48.8496 207.767 48.9C207.767 48.9 208.331 48.9318 208.957 48.889C209.269 48.8671 209.592 48.8255 209.867 48.7542C210.143 48.6852 210.364 48.5834 210.471 48.4508C210.525 48.3862 210.58 48.3237 210.631 48.2678C210.684 48.2108 210.736 48.1594 210.789 48.109C210.894 48.0093 211.003 47.9172 211.116 47.8121C211.231 47.7069 211.346 47.5919 211.473 47.4461C211.597 47.296 211.73 47.1175 211.871 46.8874C211.942 46.7735 212.037 46.6552 212.149 46.5335C212.265 46.4141 212.393 46.2903 212.538 46.1687C212.608 46.1074 212.684 46.046 212.761 45.9836C212.837 45.9222 212.915 45.8619 212.996 45.8017C213.155 45.6801 213.324 45.5607 213.485 45.4434C213.649 45.3284 213.812 45.2155 213.969 45.1115C214.123 45.0074 214.27 44.9088 214.406 44.8244C214.541 44.7368 214.662 44.6634 214.763 44.602C214.864 44.5407 214.944 44.4969 215 44.4684C215 44.4684 214.956 44.4859 214.874 44.5177Z" fill="#FBC935"/>
<defs>
<clipPath id="clip0_3724_4147">
<rect width="13.3778" height="13.3778" fill="white" transform="translate(60.6778 3.5835)"/>
</clipPath>
<clipPath id="clip1_3724_4147">
<rect width="15.2889" height="15.2889" fill="white" transform="translate(77.8778 2.62769)"/>
</clipPath>
<clipPath id="clip2_3724_4147">
<rect width="20.5444" height="20.5444" fill="white" transform="translate(96.9889 0.00012207)"/>
</clipPath>
<clipPath id="clip3_3724_4147">
<rect width="15.2889" height="15.2889" fill="white" transform="translate(121.356 2.62769)"/>
</clipPath>
<clipPath id="clip4_3724_4147">
<rect width="13.3778" height="13.3778" fill="white" transform="translate(140.467 3.5835)"/>
</clipPath>
</defs>
</svg>
