<svg width="158" height="117" viewBox="0 0 158 117" fill="none" xmlns="http://www.w3.org/2000/svg">
<rect x="54" y="31.0137" width="7" height="9" rx="3.5" transform="rotate(-180 54 31.0137)" fill="url(#paint0_linear_5147_3751)"/>
<rect x="73" y="66.0137" width="7.00001" height="37" rx="3.5" transform="rotate(-180 73 66.0137)" fill="url(#paint1_linear_5147_3751)"/>
<path d="M8.02631 36.8059C-3.09168 10.8059 0.581463 0.0136753 0.581463 0.0136753H75.4527L75.567 0.0136719H157.997C157.997 0.0136719 158.357 11.3059 150.553 36.8059C142.748 62.3059 164.536 71.8059 148.454 90.8059C132.372 109.806 150.553 116.014 150.553 116.014H8.02633C8.02633 116.014 26.2073 109.806 10.125 90.8059C-5.95721 71.8059 19.1443 62.8059 8.02631 36.8059Z" fill="url(#paint2_linear_5147_3751)"/>
<rect x="92" y="57.0137" width="7.00001" height="35" rx="3.5" transform="rotate(-180 92 57.0137)" fill="url(#paint3_linear_5147_3751)"/>
<rect x="111" y="36.0137" width="7" height="14" rx="3.5" transform="rotate(-180 111 36.0137)" fill="url(#paint4_linear_5147_3751)"/>
<rect x="54" y="47.0137" width="7" height="11" rx="3.5" transform="rotate(-180 54 47.0137)" fill="url(#paint5_linear_5147_3751)"/>
<defs>
<linearGradient id="paint0_linear_5147_3751" x1="57.5" y1="31.0137" x2="57.5" y2="40.0137" gradientUnits="userSpaceOnUse">
<stop stop-color="#4BA7D9"/>
<stop offset="1" stop-color="#4BA7D9" stop-opacity="0.15"/>
</linearGradient>
<linearGradient id="paint1_linear_5147_3751" x1="76.5" y1="66.0137" x2="76.5" y2="103.014" gradientUnits="userSpaceOnUse">
<stop stop-color="#4BA7D9"/>
<stop offset="1" stop-color="#4BA7D9" stop-opacity="0.15"/>
</linearGradient>
<linearGradient id="paint2_linear_5147_3751" x1="77.172" y1="115.306" x2="77.172" y2="-0.694097" gradientUnits="userSpaceOnUse">
<stop stop-color="#4BA7D9" stop-opacity="0"/>
<stop offset="0.5" stop-color="#4BA7D9" stop-opacity="0.15"/>
<stop offset="1" stop-color="#4BA7D9" stop-opacity="0"/>
</linearGradient>
<linearGradient id="paint3_linear_5147_3751" x1="95.5" y1="57.0137" x2="95.5" y2="92.0137" gradientUnits="userSpaceOnUse">
<stop stop-color="#4BA7D9"/>
<stop offset="1" stop-color="#4BA7D9" stop-opacity="0.15"/>
</linearGradient>
<linearGradient id="paint4_linear_5147_3751" x1="114.5" y1="36.0137" x2="114.5" y2="50.0137" gradientUnits="userSpaceOnUse">
<stop stop-color="#4BA7D9"/>
<stop offset="1" stop-color="#4BA7D9" stop-opacity="0.15"/>
</linearGradient>
<linearGradient id="paint5_linear_5147_3751" x1="57.5" y1="47.0137" x2="57.5" y2="58.0137" gradientUnits="userSpaceOnUse">
<stop stop-color="#4BA7D9"/>
<stop offset="1" stop-color="#4BA7D9" stop-opacity="0.15"/>
</linearGradient>
</defs>
</svg>
