<svg width="50" height="66" viewBox="0 0 50 66" fill="none" xmlns="http://www.w3.org/2000/svg">
<path d="M44.3231 30.6685C44.1609 27.8342 43.609 21.5158 42.6995 18.9171C41.5625 15.6687 41.6031 14.9379 42.0092 14.41C42.4152 13.8821 43.674 11.8519 41.8062 9.33437C39.9384 6.81689 33.3604 -1.18224 26.1328 2.18794" stroke="white" stroke-width="0.19191" stroke-linecap="round" stroke-linejoin="round"/>
<path d="M40.7714 30.6764C40.5546 27.1727 39.8553 19.634 38.7929 17.5093C37.465 14.8534 35.1411 14.8534 33.8132 13.3358C32.4853 11.8182 29.9829 7.29086 26.5491 5.14979C23.1153 3.00872 17.7424 1.6755 15.157 4.46294C13.2427 6.52677 10.7969 9.39397 9.62333 11.4873C8.06499 14.2669 10.2362 17.4982 13.4679 15.416C14.942 14.4662 16.4613 13.1437 17.1968 11.8566" stroke="white" stroke-width="0.19191" stroke-linecap="round" stroke-linejoin="round"/>
<path d="M9.38086 30.89C9.78681 27.9744 10.7168 21.752 11.1892 20.1873C11.7797 18.2314 12.7023 16.9767 14.4369 15.9433C16.1714 14.91 18.2012 11.9206 19.05 10.4444C19.8988 8.96817 24.6942 5.53923 30.599 9.04522" stroke="white" stroke-width="0.19191" stroke-linecap="round" stroke-linejoin="round"/>
<path d="M6.33203 30.9885C6.61851 27.6246 7.37412 20.4658 8.10472 18.7416C9.01797 16.5863 7.92207 15.7827 7.48371 15.1251C7.04535 14.4676 5.91292 12.8967 8.10472 10.2666C10.2965 7.63639 13.8034 1.28025 19.1002 1.02454C22.9225 0.840017 25.6986 1.70172 28.1148 3.41748M28.1148 3.41748C29.0469 4.07937 29.9255 4.86837 30.7898 5.77343C32.52 7.58501 33.4222 8.99965 34.3623 10.1563C36.8538 14.2484 42.7964 14.2819 40.0685 10.5954C38.7168 8.76894 35.0472 2.59573 28.1148 3.41748Z" stroke="white" stroke-width="0.19191" stroke-linecap="round" stroke-linejoin="round"/>
<path d="M22.8548 60.045C16.6177 65.8023 8.94133 63.8832 4.62336 56.2068C3.04549 53.4017 0.785156 46.1315 0.785156 41.8135C0.785156 37.4956 3.18403 36.0562 5.10313 35.0967" stroke="white" stroke-width="0.19191" stroke-linecap="round" stroke-linejoin="round"/>
<path d="M13.7396 59.5645C15.6587 60.716 20.4565 60.8068 22.9431 60.0163L22.8553 57.6454C23.8149 56.526 24.6785 54.287 20.4565 54.287C15.1789 54.287 14.6992 51.8881 12.3003 46.1308C9.9014 40.3735 10.8609 37.4949 12.3003 37.0151C13.7396 36.5353 15.8853 37.2417 18.0576 39.414C19.9767 41.3331 22.0557 46.4507 22.8553 49.0095C23.3351 46.2908 24.3906 40.7574 24.7744 40.3735C21.416 33.6567 18.0576 31.2578 12.3003 31.2578C8.54246 31.2578 6.41981 32.893 5.26527 35.096C3.47546 37.7828 4.30789 42.6125 4.94783 44.6915C5.67981 47.009 6.72954 49.3471 7.50252 51.4084C8.94185 55.2466 11.3407 58.1252 13.7396 59.5645Z" fill="url(#paint0_linear_5147_3527)"/>
<path d="M21.896 47.571L21.8959 47.5711C20.6163 51.8364 19.0173 59.0855 24.7746 61.0048C23.3353 54.2878 28.133 41.8136 34.3701 36.0563C37.8955 32.8021 41.0869 34.1373 44.4454 34.6171C43.006 31.2587 34.3701 29.3396 29.5723 33.6576C24.7746 37.9755 22.6157 45.1719 21.896 47.571Z" fill="url(#paint1_linear_5147_3527)"/>
<path d="M34.3701 36.0557C37.8955 32.8015 41.087 34.1367 44.4454 34.6165C54.5207 38.4545 46.2142 56.0618 41.5668 61.4837C38.6881 64.8422 32.9308 65.3219 29.5724 64.8422C26.8856 64.4583 25.2544 62.1235 24.7746 61.0041C23.3353 54.2871 28.133 41.813 34.3701 36.0557Z" stroke="white" stroke-width="0.19191" stroke-linecap="round" stroke-linejoin="round"/>
<ellipse cx="37.8266" cy="35.9983" rx="1.89458" ry="1.27639" transform="rotate(1.95042 37.8266 35.9983)" fill="white"/>
<path d="M43.6477 35.0823C43.6275 35.6751 43.1307 36.1394 42.5381 36.1192C41.9454 36.099 41.4813 35.6021 41.5015 35.0092C41.5217 34.4163 41.9103 34.1512 42.538 34.326C43.2793 34.326 43.6679 34.4894 43.6477 35.0823Z" fill="white"/>
<path d="M27.4414 55.8657C29.1921 50.3635 31.1928 43.4235 36.4447 39.1094" stroke="white" stroke-width="0.19191" stroke-linecap="round" stroke-linejoin="round"/>
<defs>
<linearGradient id="paint0_linear_5147_3527" x1="14.48" y1="31.2578" x2="23.3351" y2="53.8072" gradientUnits="userSpaceOnUse">
<stop stop-color="#DEE9FF"/>
<stop offset="1" stop-color="#717D95"/>
</linearGradient>
<linearGradient id="paint1_linear_5147_3527" x1="32.5596" y1="31.1611" x2="32.5596" y2="61.0048" gradientUnits="userSpaceOnUse">
<stop stop-color="#DEE9FF"/>
<stop offset="1" stop-color="#B2BACC"/>
</linearGradient>
</defs>
</svg>
