<svg width="46" height="57" viewBox="0 0 46 57" fill="none" xmlns="http://www.w3.org/2000/svg">
<path d="M0.207031 34.2109H45.7909V39.2069C45.7909 45.4361 45.7909 48.5507 44.5786 50.9299C43.5122 53.0227 41.8107 54.7242 39.7179 55.7906C37.3387 57.0029 34.2241 57.0029 27.9949 57.0029H18.0029C11.7738 57.0029 8.65922 57.0029 6.28 55.7906C4.18717 54.7242 2.48565 53.0227 1.41931 50.9299C0.207031 48.5507 0.207031 45.4361 0.207031 39.2069V34.2109Z" fill="url(#paint0_linear_4033_9192)"/>
<path d="M8.56145 18.5273H7.23205C3.35224 18.5273 0.207031 21.6725 0.207031 25.5524C0.207031 30.3328 4.08237 34.2082 8.86285 34.2082H37.135C41.9155 34.2082 45.7909 30.3328 45.7909 25.5524C45.7909 21.6725 42.6457 18.5273 38.7659 18.5273C38.2552 18.5273 37.7542 18.5273 37.2621 18.5273M12.6333 18.5273C20.2455 18.5273 25.867 18.5273 33.2367 18.5273" stroke="#111111" stroke-width="0.182335"/>
<path d="M1.48047 25.8231C1.48047 22.2986 4.33767 19.4414 7.8622 19.4414H38.1299C41.6544 19.4414 44.5116 22.2986 44.5116 25.8231C44.5116 29.3477 41.6544 32.2049 38.1299 32.2049H7.8622C4.33767 32.2049 1.48047 29.3477 1.48047 25.8231Z" fill="white" fill-opacity="0.1"/>
<path d="M4.88672 32.3907C5.73799 32.7392 6.67134 32.9312 7.65438 32.9312H38.3421C39.7139 32.9312 40.9889 32.5573 42.0792 31.9062" stroke="#111111" stroke-width="0.182335"/>
<rect x="12.9688" y="32.2031" width="4.55838" height="1.82335" fill="#111111"/>
<rect x="28.4688" y="32.2031" width="4.55838" height="1.82335" fill="#111111"/>
<path d="M8.56125 19.7369C5.35574 20.3752 3.93742 23.5525 3.48887 26.7322C3.1787 28.9309 5.49455 31.2906 8.32075 31.2906C10.2854 31.2906 12.8791 30.1054 15.9788 29.7197C19.9387 29.2271 22.7842 27.6334 21.3945 23.4501C20.7514 21.5142 19.2072 19.6211 16.3435 19.6211C14.7018 19.6211 13.5302 19.6211 12.6583 19.6211" stroke="#111111" stroke-width="0.182335"/>
<path d="M15.0681 6.31311C13.1535 7.40712 11.4495 10.1166 12.0595 12.6037C12.6695 15.0908 15.3416 15.7946 17.2561 15.0652C20.596 13.7929 22.3767 8.45407 18.7147 6.36922C17.6321 5.75284 16.2463 5.63982 15.0681 6.31311Z" fill="#111111"/>
<path d="M11.8769 14.06C10.4182 13.8169 7.39342 12.5251 5.49517 10.5044C2.66897 7.49596 4.23845 -0.0123743 9.87122 1.11418C13.5179 1.84352 16.3441 4.21391 16.7088 5.58142" stroke="#111111" stroke-width="0.182335"/>
<rect x="8.32812" y="3.57812" width="4.01138" height="2.10744" rx="1.05372" transform="rotate(34.5011 8.32812 3.57812)" fill="#111111"/>
<rect x="16.6172" y="12.668" width="3.82904" height="1.61351" rx="0.806757" transform="rotate(-53.4186 16.6172 12.668)" fill="black"/>
<path d="M8.59375 12.7852V23.0871H12.6051C12.6051 19.8955 12.6051 17.8964 12.6051 15.2467" stroke="#111111" stroke-width="0.182335"/>
<path d="M8.59375 23.0859H12.6051C12.6051 23.8915 11.9521 24.5446 11.1464 24.5446H10.0524C9.24683 24.5446 8.59375 23.8915 8.59375 23.0859Z" stroke="#111111" stroke-width="0.182335"/>
<path d="M37.2493 19.7296C40.481 20.3508 41.9085 23.5402 42.3588 26.7322C42.669 28.9309 40.3531 31.2906 37.5269 31.2906C35.5623 31.2906 32.9685 30.1054 29.8688 29.7197C25.909 29.2271 23.0635 27.6334 24.4531 23.4501C25.0963 21.5142 26.6405 19.6211 29.5042 19.6211C31.1728 19.6211 32.3557 19.6211 33.2319 19.6211" stroke="#111111" stroke-width="0.182335"/>
<path d="M30.7757 6.31311C32.6902 7.40712 34.3942 10.1166 33.7842 12.6037C33.1742 15.0908 30.5022 15.7946 28.5877 15.0652C25.2477 13.7929 23.467 8.45407 27.129 6.36922C28.2117 5.75284 29.5974 5.63982 30.7757 6.31311Z" fill="#111111"/>
<path d="M33.9707 14.06C35.4294 13.8169 38.4542 12.5251 40.3525 10.5044C43.1787 7.49596 41.6092 -0.0123743 35.9764 1.11418C32.3297 1.84352 29.5035 4.21391 29.1389 5.58142" stroke="#111111" stroke-width="0.182335"/>
<rect width="4.01138" height="2.10744" rx="1.05372" transform="matrix(-0.824115 0.566423 0.566423 0.824115 37.5195 3.57812)" fill="#111111"/>
<rect width="3.82904" height="1.61351" rx="0.806757" transform="matrix(-0.595964 -0.803011 -0.803011 0.595964 29.2305 12.668)" fill="black"/>
<path d="M37.25 12.7852V23.0871H33.2386C33.2386 19.8955 33.2386 17.8964 33.2386 15.2467" stroke="#111111" stroke-width="0.182335"/>
<path d="M37.25 23.0859H33.2386C33.2386 23.8915 33.8917 24.5446 34.6973 24.5446H35.7913C36.5969 24.5446 37.25 23.8915 37.25 23.0859Z" stroke="#111111" stroke-width="0.182335"/>
<defs>
<linearGradient id="paint0_linear_4033_9192" x1="22.9989" y1="34.2109" x2="22.9989" y2="57.0029" gradientUnits="userSpaceOnUse">
<stop stop-color="#DEE9FF"/>
<stop offset="1" stop-color="#B2BACC"/>
</linearGradient>
</defs>
</svg>
