<svg width="140" height="119" viewBox="0 0 140 119" fill="none" xmlns="http://www.w3.org/2000/svg">
<g filter="url(#filter0_i_4952_18134)">
<rect x="14.6765" y="6.91406" width="125" height="86" rx="16" transform="rotate(9.08 14.6765 6.91406)" fill="white"/>
<rect x="15.0913" y="7.4867" width="124" height="85" rx="15.5" transform="rotate(9.08 15.0913 7.4867)" stroke="#DDDBE1"/>
<rect x="25.2624" y="16.707" width="22" height="20" rx="4" transform="rotate(9.08 25.2624 16.707)" fill="#027DF4"/>
<path d="M33.599 34.2442C32.2309 34.0255 31.1424 33.3612 30.3335 32.2512C29.5246 31.1412 29.2297 29.9002 29.449 28.5281C29.5537 27.8733 29.7798 27.2672 30.1273 26.7098C30.4748 26.1524 30.9166 25.682 31.4525 25.2986L35.4927 22.3945L38.4265 26.4132C38.8163 26.9445 39.0895 27.5291 39.2459 28.1671C39.4024 28.805 39.4284 29.4514 39.3237 30.1063C39.1044 31.4783 38.4375 32.5657 37.3229 33.3682C36.2083 34.1708 34.967 34.4628 33.599 34.2442ZM33.7983 32.9968C34.8269 33.1612 35.7581 32.9449 36.5919 32.348C37.4258 31.7511 37.9249 30.9381 38.0894 29.909C38.1674 29.4205 38.1492 28.9405 38.0347 28.4692C37.9201 27.9978 37.7145 27.5679 37.418 27.1794L35.2136 24.1408L32.172 26.341C31.7692 26.6177 31.4398 26.9622 31.1841 27.3743C30.9283 27.7865 30.7614 28.2369 30.6833 28.7254C30.5189 29.7545 30.7398 30.6825 31.346 31.5096C31.9523 32.3367 32.7697 32.8324 33.7983 32.9968Z" fill="white"/>
<path d="M20.0981 56.3885L21.6447 46.7113L26.0409 47.4139C27.0916 47.5818 27.9854 47.9326 28.7224 48.4662C29.4609 48.9907 29.9985 49.6484 30.3352 50.4395C30.6719 51.2305 30.7615 52.1191 30.6039 53.1053C30.4478 54.0822 30.0857 54.8987 29.5177 55.5546C28.9513 56.2013 28.2347 56.6633 27.3681 56.9407C26.5029 57.2089 25.545 57.259 24.4943 57.0911L20.0981 56.3885ZM22.6315 54.9077L24.6776 55.2347C25.3227 55.3378 25.8995 55.3071 26.4078 55.1426C26.9268 54.9704 27.3514 54.6791 27.6817 54.2687C28.0211 53.8598 28.2394 53.3512 28.3367 52.7429C28.4353 52.1254 28.3864 51.5742 28.1898 51.089C28.0039 50.5962 27.6905 50.1917 27.2496 49.8755C26.8193 49.5515 26.2816 49.338 25.6364 49.2349L23.5904 48.9079L22.6315 54.9077ZM31.17 61.0218C30.783 60.96 30.4101 60.8389 30.0513 60.6587C29.6926 60.4785 29.4104 60.2633 29.2046 60.013L30.2379 58.6044C30.3802 58.7784 30.5507 58.9238 30.7494 59.0406C30.9574 59.1589 31.1673 59.235 31.3793 59.2689C31.6835 59.3175 31.9349 59.2821 32.1335 59.1626C32.34 59.0538 32.5434 58.8453 32.7439 58.5371L33.2768 57.6865L33.4803 57.478L37.1736 51.4898L39.2472 51.8212L34.6263 59.1782C34.2909 59.7389 33.9393 60.1648 33.5715 60.4557C33.2128 60.7481 32.8335 60.9332 32.4336 61.0111C32.0428 61.0904 31.6217 61.094 31.17 61.0218ZM32.8418 58.7229L30.759 50.4647L32.9847 50.8204L34.5619 57.4524L32.8418 58.7229ZM43.9743 52.4633C44.5642 52.5575 45.0704 52.7613 45.4929 53.0746C45.9261 53.3801 46.2373 53.7985 46.4265 54.3297C46.6172 54.8516 46.6522 55.4905 46.5314 56.2462L45.8509 60.5042L43.6943 60.1595L44.3217 56.2333C44.4175 55.6343 44.3545 55.1705 44.1329 54.8421C43.9205 54.5152 43.5747 54.3134 43.0954 54.2368C42.7544 54.1823 42.4339 54.2067 42.1338 54.31C41.8445 54.4055 41.5979 54.5882 41.3941 54.8581C41.1995 55.1294 41.0654 55.4955 40.9917 55.9564L40.404 59.6337L38.2474 59.289L39.436 51.8514L41.4959 52.1806L41.1667 54.2405L40.879 53.5565C41.2258 53.1015 41.6695 52.7802 42.2099 52.5924C42.7502 52.4047 43.3384 52.3616 43.9743 52.4633ZM51.6767 61.4352L51.9086 59.9837L51.8212 59.6436L52.2366 57.0446C52.3102 56.5838 52.2248 56.2015 51.9803 55.8978C51.7451 55.5955 51.3372 55.398 50.7565 55.3052C50.3602 55.2419 49.9582 55.2438 49.5505 55.311C49.1535 55.3704 48.8044 55.4847 48.5032 55.654L47.9699 54.0234C48.4211 53.8025 48.9449 53.6594 49.5413 53.594C50.1378 53.5286 50.731 53.5431 51.3208 53.6374C52.4544 53.8185 53.2919 54.2265 53.8332 54.8612C54.3744 55.4959 54.5545 56.38 54.3733 57.5137L53.695 61.7578L51.6767 61.4352ZM49.3918 61.1835C48.8111 61.0907 48.3289 60.9144 47.9451 60.6546C47.5628 60.3855 47.2882 60.0628 47.1216 59.6865C46.9549 59.3101 46.9054 58.91 46.9731 58.486C47.0438 58.0436 47.2117 57.6735 47.4767 57.3756C47.7509 57.0791 48.1378 56.8763 48.6373 56.7671C49.1382 56.6487 49.7666 56.6498 50.5223 56.7706L52.4992 57.0866L52.2982 58.3446L50.5563 58.0662C50.0494 57.9852 49.6859 58.0122 49.4659 58.1471C49.255 58.2836 49.1297 58.4762 49.0899 58.7251C49.0458 59.0015 49.1164 59.2397 49.3019 59.4394C49.498 59.6315 49.785 59.7577 50.1629 59.8181C50.5223 59.8755 50.8582 59.8441 51.1704 59.7239C51.4841 59.5944 51.7319 59.3741 51.914 59.063L52.0867 60.1114C51.8534 60.5656 51.5096 60.884 51.0551 61.0665C50.6005 61.2491 50.0461 61.2881 49.3918 61.1835ZM65.6871 55.9333C66.277 56.0276 66.7785 56.2306 67.1919 56.5424C67.6158 56.8465 67.9178 57.2634 68.0978 57.7931C68.2885 58.315 68.3235 58.9539 68.2027 59.7096L67.5222 63.9676L65.3656 63.6229L65.993 59.6968C66.0888 59.0977 66.0351 58.6354 65.8319 58.31C65.6287 57.9845 65.3013 57.7857 64.8497 57.7135C64.5363 57.6634 64.2435 57.6922 63.971 57.7999C63.7001 57.8984 63.4727 58.0794 63.2888 58.343C63.1049 58.6066 62.9776 58.9596 62.9069 59.402L62.3103 63.1347L60.1537 62.79L60.7812 58.8638C60.8769 58.2648 60.8232 57.8025 60.62 57.477C60.426 57.153 60.1033 56.9549 59.6517 56.8827C59.3383 56.8327 59.0454 56.8615 58.773 56.9692C58.5021 57.0676 58.2747 57.2487 58.0907 57.5123C57.9068 57.7759 57.7795 58.1289 57.7088 58.5713L57.1123 62.3039L54.9557 61.9593L56.1443 54.5217L58.2042 54.8509L57.8794 56.8831L57.5873 56.2267C57.9264 55.7611 58.3516 55.4368 58.8628 55.2539C59.3848 55.0632 59.9499 55.0164 60.5582 55.1136C61.2402 55.2226 61.8067 55.4928 62.2576 55.924C62.7192 56.3475 62.9763 56.9273 63.0288 57.6635L62.3016 57.3346C62.6432 56.7937 63.1131 56.3963 63.7114 56.1422C64.3189 55.8895 64.9775 55.8199 65.6871 55.9333ZM68.764 64.1661L69.9527 56.7285L72.1093 57.0731L70.9207 64.5107L68.764 64.1661ZM71.1967 55.8639C70.8004 55.8006 70.4962 55.6339 70.2842 55.3637C70.0722 55.0935 69.9934 54.7879 70.0479 54.4469C70.1024 54.1059 70.2725 53.8401 70.5582 53.6494C70.8438 53.4588 71.1848 53.3951 71.5811 53.4585C71.9774 53.5218 72.2823 53.684 72.4958 53.9449C72.7108 54.1967 72.791 54.493 72.7365 54.834C72.6791 55.1935 72.5068 55.4731 72.2197 55.673C71.9432 55.8651 71.6022 55.9288 71.1967 55.8639ZM75.8077 65.4052C75.0059 65.277 74.3174 65.0016 73.7422 64.5789C73.1685 64.1469 72.7484 63.6119 72.4817 62.9738C72.2243 62.3372 72.1545 61.6503 72.2723 60.913C72.3916 60.1664 72.672 59.5354 73.1136 59.02C73.5658 58.4968 74.1311 58.124 74.8093 57.9016C75.4891 57.67 76.2299 57.6182 77.0317 57.7464C77.8151 57.8716 78.4706 58.1465 78.9982 58.571C79.5273 58.9864 79.8814 59.5203 80.0607 60.1728L78.2443 60.8041C78.1068 60.4229 77.9038 60.1258 77.6354 59.9128C77.3762 59.7012 77.0761 59.5682 76.7351 59.5137C76.3664 59.4548 76.0214 59.4847 75.6999 59.6035C75.3785 59.7222 75.1059 59.9197 74.8822 60.1958C74.6677 60.4735 74.5258 60.8289 74.4566 61.262C74.3874 61.6952 74.4114 62.0771 74.5287 62.4078C74.6552 62.7399 74.8527 63.0125 75.1211 63.2255C75.3895 63.4385 75.708 63.5745 76.0767 63.6334C76.4177 63.6879 76.7435 63.6597 77.0543 63.5486C77.3757 63.4299 77.6619 63.2063 77.9129 62.8777L79.4399 64.0575C79.0677 64.6124 78.5647 65.0093 77.9311 65.2483C77.2989 65.4781 76.5911 65.5304 75.8077 65.4052ZM86.067 61.0051L90.7258 61.7497L90.4475 63.4916L85.7886 62.747L86.067 61.0051ZM85.5966 65.0131L90.8637 65.8549L90.5765 67.6521L83.0836 66.4546L84.6302 56.7774L91.9434 57.9461L91.6561 59.7433L86.5687 58.9303L85.5966 65.0131ZM90.5159 70.5063C90.1841 70.4532 89.872 70.3655 89.5797 70.2432C89.2858 70.1301 89.044 69.9875 88.8541 69.8153L89.6844 68.346C89.9052 68.5608 90.1954 68.697 90.5548 68.7544C90.8221 68.7972 91.0488 68.7389 91.2349 68.5796C91.4288 68.431 91.5545 68.177 91.6119 67.8175L92.8006 60.3799L94.9572 60.7246L93.7708 68.1484C93.6338 69.0055 93.2806 69.6485 92.7111 70.0773C92.1416 70.5061 91.4099 70.6491 90.5159 70.5063ZM94.0446 59.5154C93.6483 59.4521 93.3441 59.2853 93.1321 59.0151C92.9201 58.745 92.8413 58.4394 92.8958 58.0984C92.9503 57.7574 93.1204 57.4915 93.4061 57.3009C93.6917 57.1102 94.0327 57.0466 94.429 57.1099C94.8253 57.1733 95.1302 57.3354 95.3437 57.5964C95.5587 57.8481 95.6389 58.1445 95.5844 58.4855C95.527 58.8449 95.3547 59.1246 95.0676 59.3244C94.7911 59.5166 94.4501 59.5802 94.0446 59.5154ZM98.7366 69.0696C97.8887 68.9341 97.1687 68.6489 96.5766 68.214C95.9936 67.7806 95.5727 67.2502 95.3138 66.6228C95.0564 65.9862 94.9866 65.2992 95.1045 64.5619C95.2238 63.8154 95.4996 63.1837 95.9319 62.6667C96.3749 62.1421 96.9217 61.7663 97.5724 61.5395C98.2244 61.3034 98.9284 61.2458 99.6841 61.3666C100.412 61.483 101.042 61.7442 101.572 62.1504C102.113 62.5488 102.508 63.0655 102.756 63.7007C103.006 64.3266 103.067 65.0404 102.939 65.8423C102.925 65.9252 102.905 66.0213 102.878 66.1304C102.853 66.2303 102.828 66.3256 102.804 66.4163L96.763 65.4508L96.964 64.1927L101.872 64.9771L100.983 65.2178C101.044 64.8307 101.02 64.4818 100.909 64.171C100.798 63.8603 100.617 63.6045 100.365 63.4036C100.115 63.1935 99.8059 63.059 99.4372 63.0001C99.0686 62.9412 98.7281 62.9718 98.4159 63.0921C98.1144 63.2046 97.8617 63.3958 97.6579 63.6656C97.4556 63.9263 97.3227 64.2548 97.2594 64.6511L97.2064 64.9829C97.1415 65.3884 97.1717 65.7618 97.2967 66.1032C97.4324 66.4368 97.6483 66.7123 97.9444 66.9297C98.2511 67.1395 98.6257 67.2797 99.0681 67.3504C99.4644 67.4137 99.8196 67.409 100.134 67.3363C100.457 67.2651 100.762 67.1296 101.049 66.9297L101.998 68.3573C101.595 68.6899 101.119 68.921 100.569 69.0505C100.02 69.1707 99.4094 69.1771 98.7366 69.0696ZM106.67 70.3375C105.868 70.2093 105.18 69.9339 104.604 69.5112C104.031 69.0792 103.611 68.5442 103.344 67.9061C103.087 67.2695 103.017 66.5826 103.135 65.8452C103.254 65.0987 103.534 64.4677 103.976 63.9523C104.428 63.4291 104.993 63.0563 105.672 62.8339C106.351 62.6023 107.092 62.5505 107.894 62.6787C108.677 62.8039 109.333 63.0787 109.86 63.5033C110.39 63.9187 110.744 64.4526 110.923 65.1051L109.107 65.7363C108.969 65.3552 108.766 65.0581 108.498 64.8451C108.238 64.6335 107.938 64.5005 107.597 64.446C107.229 64.3871 106.884 64.417 106.562 64.5358C106.241 64.6545 105.968 64.852 105.744 65.1281C105.53 65.4058 105.388 65.7612 105.319 66.1943C105.25 66.6275 105.274 67.0094 105.391 67.3401C105.517 67.6722 105.715 67.9448 105.983 68.1578C106.252 68.3708 106.57 68.5068 106.939 68.5657C107.28 68.6202 107.606 68.592 107.917 68.4809C108.238 68.3622 108.524 68.1385 108.775 67.81L110.302 68.9898C109.93 69.5447 109.427 69.9416 108.793 70.1806C108.161 70.4104 107.453 70.4627 106.67 70.3375ZM113.702 71.4612C112.826 71.3213 112.179 70.9911 111.762 70.4707C111.345 69.941 111.208 69.2338 111.349 68.349L112.392 61.8238L114.549 62.1685L113.51 68.666C113.46 68.9794 113.504 69.2369 113.642 69.4385C113.781 69.6309 113.994 69.7499 114.28 69.7956C114.621 69.8501 114.926 69.8043 115.195 69.6583L115.532 71.2718C115.286 71.3931 115 71.4702 114.673 71.5031C114.357 71.5282 114.033 71.5143 113.702 71.4612ZM110.69 65.1104L110.955 63.4514L116.112 64.2756L115.847 65.9345L110.69 65.1104ZM22.4934 71.1191C21.7469 70.9998 21.0702 70.7688 20.4634 70.426C19.8672 70.0756 19.3702 69.637 18.9723 69.1102C18.5745 68.5835 18.2905 67.9947 18.1205 67.3437C17.9596 66.6941 17.9374 66.0053 18.0537 65.2772C18.1701 64.5491 18.4059 63.9016 18.7612 63.3345C19.1257 62.769 19.579 62.2979 20.1212 61.9215C20.6726 61.5464 21.2855 61.2899 21.9597 61.1519C22.6354 61.0047 23.3511 60.9915 24.1069 61.1123C24.9455 61.2463 25.6777 61.5146 26.3034 61.917C26.9397 62.3117 27.4434 62.827 27.8144 63.4629L26.1645 64.5602C25.8931 64.1293 25.5694 63.7893 25.1933 63.5402C24.8187 63.2818 24.3918 63.1144 23.9126 63.0378C23.461 62.9656 23.0344 62.973 22.633 63.0601C22.2316 63.1472 21.8705 63.3069 21.5498 63.5392C21.2291 63.7715 20.9603 64.0641 20.7432 64.4169C20.5353 64.7712 20.3946 65.1788 20.321 65.6396C20.2473 66.1004 20.254 66.5315 20.3411 66.933C20.4374 67.3359 20.6017 67.6977 20.834 68.0183C21.0663 68.339 21.3596 68.6033 21.7139 68.8111C22.0682 69.019 22.4712 69.159 22.9228 69.2312C23.402 69.3078 23.8591 69.2863 24.2941 69.1668C24.7306 69.038 25.1456 68.8067 25.5393 68.4726L26.7649 70.0295C26.2142 70.5181 25.5743 70.8553 24.8452 71.0412C24.1253 71.2286 23.3413 71.2546 22.4934 71.1191ZM30.1293 72.2827C29.5118 72.184 28.978 71.9758 28.5278 71.6581C28.0869 71.3419 27.7718 70.9182 27.5826 70.387C27.3948 69.8466 27.3621 69.194 27.4844 68.429L28.156 64.2263L30.3126 64.571L29.6918 68.4557C29.5931 69.0732 29.6492 69.55 29.8602 69.8862C30.0818 70.2146 30.4322 70.4171 30.9115 70.4937C31.2432 70.5467 31.5492 70.5248 31.8294 70.4278C32.111 70.3215 32.3491 70.1327 32.5437 69.8614C32.7398 69.5808 32.8739 69.2147 32.9461 68.7631L33.5338 65.0858L35.6904 65.4305L34.5017 72.8681L32.4557 72.5411L32.7827 70.495L33.061 71.1492C32.7296 71.6255 32.2984 71.9583 31.7672 72.1475C31.2467 72.329 30.7007 72.374 30.1293 72.2827ZM35.8085 73.0769L36.9971 65.6393L39.057 65.9685L38.7212 68.0698L38.5281 67.4151C38.8332 66.9252 39.2514 66.5856 39.7826 66.3964C40.3152 66.1979 40.9318 66.1547 41.6322 66.2666L41.3141 68.2574C41.2234 68.2334 41.1412 68.2156 41.0674 68.2038C40.9952 68.1828 40.9176 68.1656 40.8346 68.1524C40.2448 68.0581 39.7383 68.152 39.3151 68.4341C38.9027 68.7085 38.6397 69.2005 38.5263 69.9101L37.9651 73.4216L35.8085 73.0769ZM43.2919 74.2729L41.3562 66.3359L43.582 66.6916L45.158 73.5078L44.0521 73.331L47.7708 67.3611L49.8445 67.6925L45.5177 74.6286L43.2919 74.2729ZM52.3156 75.8284C51.4677 75.6929 50.7477 75.4077 50.1556 74.9728C49.5727 74.5394 49.1517 74.009 48.8928 73.3816C48.6354 72.745 48.5656 72.0581 48.6835 71.3207C48.8028 70.5742 49.0786 69.9425 49.5109 69.4256C49.9539 68.9009 50.5007 68.5252 51.1514 68.2983C51.8034 68.0623 52.5074 68.0047 53.2631 68.1254C53.9912 68.2418 54.6205 68.503 55.1511 68.9092C55.6923 69.3076 56.087 69.8244 56.3353 70.4595C56.5849 71.0854 56.6457 71.7993 56.5176 72.6011C56.5043 72.6841 56.4842 72.7801 56.4573 72.8892C56.4319 72.9891 56.4072 73.0844 56.3833 73.1751L50.342 72.2096L50.543 70.9516L55.4507 71.7359L54.5616 71.9766C54.6235 71.5895 54.5989 71.2406 54.4879 70.9299C54.3769 70.6191 54.1956 70.3633 53.9442 70.1624C53.6942 69.9524 53.3849 69.8179 53.0162 69.7589C52.6476 69.7 52.3071 69.7307 51.9949 69.8509C51.6934 69.9634 51.4407 70.1546 51.2369 70.4245C51.0346 70.6851 50.9017 71.0136 50.8384 71.4099L50.7854 71.7417C50.7206 72.1472 50.7507 72.5207 50.8757 72.862C51.0114 73.1956 51.2273 73.4711 51.5234 73.6886C51.8301 73.8983 52.2047 74.0385 52.6471 74.1092C53.0434 74.1725 53.3986 74.1679 53.7126 74.0952C54.0359 74.024 54.3411 73.8884 54.6283 73.6886L55.5769 75.1162C55.174 75.4488 54.6976 75.6798 54.1476 75.8093C53.5991 75.9296 52.9884 75.936 52.3156 75.8284ZM61.9146 77.2491L59.9789 69.3121L62.2046 69.6678L63.7807 76.484L62.6747 76.3072L66.3935 70.3373L68.4671 70.6687L64.1403 77.6048L61.9146 77.2491ZM70.1767 78.7396C69.5039 78.6321 68.8497 78.4378 68.2142 78.1566C67.58 77.8662 67.0591 77.5183 66.6513 77.1129L67.7962 75.5378C68.1221 75.864 68.5168 76.1445 68.9802 76.3792C69.4437 76.614 69.9242 76.7711 70.4219 76.8507C70.9841 76.9405 71.4442 76.9006 71.8021 76.731C72.16 76.5613 72.3699 76.283 72.4318 75.8959C72.4907 75.5272 72.3942 75.2141 72.1424 74.9564C71.8906 74.6988 71.4467 74.5192 70.8108 74.4175L69.7877 74.254L70.0242 72.7748L73.2082 70.1504L73.3289 70.992L68.2553 70.1812L68.5425 68.384L75.3166 69.4666L75.0846 70.9181L71.9143 73.5448L70.8846 72.7138L71.5343 72.8177C72.7232 73.0077 73.5791 73.4186 74.102 74.0503C74.6248 74.6821 74.8192 75.4173 74.6852 76.256C74.5983 76.7998 74.3737 77.2885 74.0114 77.722C73.6506 78.1464 73.1516 78.4589 72.5147 78.6596C71.8777 78.8602 71.0984 78.8869 70.1767 78.7396ZM75.8094 79.5831C75.4407 79.5242 75.1426 79.349 74.9151 79.0574C74.6983 78.7581 74.6216 78.4103 74.6849 78.014C74.7482 77.6177 74.9281 77.3203 75.2244 77.122C75.5315 76.9158 75.8693 76.8422 76.238 76.9011C76.6159 76.9615 76.9139 77.1368 77.1322 77.4269C77.352 77.7077 77.4302 78.0463 77.3669 78.4426C77.3035 78.8389 77.1222 79.1455 76.8229 79.3623C76.5251 79.5699 76.1872 79.6435 75.8094 79.5831ZM77.6963 77.6871L77.9371 76.1803L83.4802 70.7712L85.8304 71.1468L80.3841 76.5713L79.3427 76.0788L86.9601 77.2962L86.6684 79.121L77.6963 77.6871ZM82.5834 80.5523L82.9081 78.5201L83.2689 76.7063L83.5583 74.8953L85.6735 75.2333L84.7676 80.9014L82.5834 80.5523Z" fill="black"/>
<path d="M17.1586 84.2749L15.9526 76.9934L16.9697 77.1559L18.0733 83.8743L17.5598 83.7922L20.7813 77.7651L21.6898 77.9103L22.823 84.6334L22.3293 84.5544L25.5014 78.5194L26.4395 78.6694L23.0242 85.2124L21.9873 85.0466L20.9182 78.8098L21.1848 78.8524L18.2152 84.4438L17.1586 84.2749ZM29.1592 86.1928L29.3359 85.0869L29.3197 84.8716L29.6211 82.9855C29.6853 82.584 29.6163 82.2556 29.414 82.0005C29.2193 81.7399 28.8883 81.5722 28.4209 81.4975C28.1115 81.448 27.8003 81.4523 27.4872 81.5103C27.1752 81.5617 26.9035 81.6567 26.672 81.7952L26.3907 81.0211C26.6953 80.847 27.0442 80.734 27.4373 80.682C27.838 80.6246 28.2458 80.629 28.6605 80.6952C29.3781 80.8099 29.9032 81.0728 30.2358 81.4837C30.5685 81.8947 30.6775 82.459 30.5628 83.1765L30.0578 86.3364L29.1592 86.1928ZM27.4315 85.9775C27.0431 85.9154 26.7113 85.7949 26.4361 85.6159C26.1675 85.4379 25.9726 85.2211 25.8514 84.9654C25.7313 84.7032 25.6949 84.424 25.7423 84.1277C25.7875 83.8446 25.8944 83.5984 26.0629 83.3891C26.2379 83.1807 26.4879 83.0317 26.8128 82.9418C27.1443 82.853 27.5701 82.8502 28.0902 82.9333L29.7491 83.1984L29.6403 83.8798L28.0208 83.6209C27.5468 83.5452 27.2149 83.5732 27.0251 83.7049C26.8353 83.8366 26.7225 84.0143 26.6867 84.2381C26.6457 84.4949 26.7145 84.7186 26.8934 84.9092C27.0733 85.0932 27.3442 85.2141 27.7063 85.272C28.0618 85.3288 28.3838 85.2993 28.6724 85.1834C28.9676 85.0685 29.1986 84.8691 29.3655 84.5852L29.4489 85.267C29.2744 85.5564 29.0144 85.768 28.669 85.9018C28.3246 86.0291 27.9121 86.0543 27.4315 85.9775ZM33.5011 86.9475C32.9744 86.8633 32.5889 86.6566 32.3445 86.3272C32.1 85.9978 32.0199 85.5698 32.1041 85.0432L32.8711 80.2441L33.819 80.3956L33.0584 85.1552C33.0131 85.4382 33.0475 85.6665 33.1616 85.84C33.2822 86.0146 33.4742 86.1229 33.7375 86.165C34.0338 86.2123 34.2938 86.1695 34.5176 86.0365L34.7049 86.7652C34.5401 86.8671 34.3509 86.9314 34.1374 86.958C33.9304 86.9857 33.7183 86.9822 33.5011 86.9475ZM31.6746 82.0276L31.7993 81.2475L35.1369 81.7809L35.0122 82.561L31.6746 82.0276ZM37.8507 87.6426C37.2911 87.5532 36.8158 87.3591 36.4247 87.0603C36.0402 86.7626 35.7616 86.394 35.5888 85.9545C35.4225 85.5161 35.381 85.0369 35.4641 84.5168C35.5472 83.9968 35.7328 83.5538 36.0208 83.188C36.3154 82.8233 36.678 82.5606 37.1088 82.3999C37.5472 82.2336 38.0165 82.1905 38.5169 82.2704C39.0238 82.3515 39.4535 82.5349 39.8062 82.8208C40.1588 83.1067 40.4111 83.4711 40.5631 83.914C40.7228 84.3513 40.7595 84.8399 40.6732 85.3797C40.6669 85.4192 40.6562 85.4648 40.6412 85.5164C40.6328 85.569 40.6216 85.6179 40.6077 85.6629L36.1542 84.9512L36.2631 84.2698L40.2228 84.9027L39.7999 85.0781C39.8601 84.7434 39.8388 84.4328 39.7361 84.1464C39.6334 83.8599 39.4652 83.6237 39.2316 83.4379C39.0056 83.2465 38.7248 83.124 38.389 83.0703C38.0599 83.0177 37.7548 83.0466 37.4739 83.157C37.194 83.2608 36.9601 83.436 36.7721 83.6828C36.5852 83.923 36.4644 84.2142 36.4097 84.5566L36.3844 84.7145C36.3287 85.0635 36.3577 85.3888 36.4715 85.6905C36.5929 85.9867 36.7864 86.2337 37.0519 86.4314C37.3173 86.6291 37.6377 86.7579 38.0129 86.8179C38.3223 86.8673 38.6105 86.8594 38.8775 86.794C39.1511 86.7297 39.4001 86.6075 39.6247 86.4274L40.0502 87.1232C39.7691 87.3619 39.4392 87.5252 39.0605 87.6132C38.6885 87.7023 38.2852 87.7121 37.8507 87.6426ZM41.4773 88.1615L42.3137 82.9279L43.2222 83.0731L42.995 84.495L42.9629 84.1253C43.1656 83.7864 43.4534 83.5488 43.8262 83.4126C44.199 83.2764 44.6356 83.2483 45.1359 83.3283L44.9891 84.2466C44.9507 84.2337 44.9117 84.2241 44.8722 84.2178C44.8393 84.2125 44.8064 84.2073 44.7735 84.202C44.2666 84.121 43.8408 84.2083 43.4962 84.4637C43.1515 84.7192 42.9335 85.1333 42.8419 85.706L42.4253 88.313L41.4773 88.1615ZM47.9819 89.201L48.8183 83.9674L49.7268 84.1126L49.4995 85.5346L49.4675 85.1649C49.6702 84.8259 49.9579 84.5884 50.3308 84.4522C50.7036 84.316 51.1402 84.2879 51.6405 84.3678L51.4937 85.2862C51.4553 85.2733 51.4163 85.2637 51.3768 85.2573C51.3439 85.2521 51.311 85.2468 51.278 85.2416C50.7711 85.1606 50.3454 85.2478 50.0007 85.5033C49.6561 85.7587 49.438 86.1729 49.3465 86.7456L48.9299 89.3525L47.9819 89.201ZM54.1385 90.2457C53.579 90.1563 53.1037 89.9622 52.7126 89.6634C52.3281 89.3656 52.0494 88.997 51.8766 88.5576C51.7104 88.1192 51.6688 87.64 51.7519 87.1199C51.8351 86.5998 52.0206 86.1569 52.3086 85.7911C52.6032 85.4263 52.9659 85.1636 53.3966 85.0029C53.835 84.8367 54.3044 84.7935 54.8047 84.8735C55.3116 84.9545 55.7414 85.138 56.094 85.4239C56.4466 85.7098 56.699 86.0742 56.851 86.517C57.0106 86.9544 57.0473 87.4429 56.961 87.9828C56.9547 88.0223 56.9441 88.0678 56.9291 88.1194C56.9207 88.1721 56.9095 88.2209 56.8955 88.266L52.442 87.5542L52.5509 86.8729L56.5107 87.5057L56.0877 87.6812C56.1479 87.3465 56.1267 87.0359 56.0239 86.7494C55.9212 86.463 55.753 86.2268 55.5194 86.0409C55.2935 85.8495 55.0126 85.727 54.6769 85.6734C54.3477 85.6207 54.0427 85.6496 53.7617 85.76C53.4818 85.8638 53.2479 86.0391 53.0599 86.2859C52.873 86.526 52.7522 86.8173 52.6975 87.1596L52.6723 87.3176C52.6165 87.6665 52.6455 87.9918 52.7593 88.2936C52.8808 88.5898 53.0742 88.8367 53.3397 89.0344C53.6051 89.2321 53.9255 89.361 54.3007 89.421C54.6101 89.4704 54.8983 89.4625 55.1653 89.3971C55.4389 89.3328 55.688 89.2106 55.9126 89.0304L56.3381 89.7263C56.0569 89.9649 55.727 90.1282 55.3484 90.2162C54.9763 90.3053 54.573 90.3151 54.1385 90.2457ZM65.1564 86.5279C65.5777 86.5952 65.9365 86.7369 66.2328 86.9531C66.529 87.1692 66.7392 87.4593 66.8633 87.8235C66.994 88.1887 67.0183 88.628 66.9362 89.1415L66.4549 92.1533L65.5069 92.0018L65.9709 89.0986C66.0519 88.5917 65.9944 88.191 65.7985 87.8963C65.6025 87.6017 65.2906 87.4202 64.8627 87.3518C64.5467 87.3013 64.2597 87.323 64.0016 87.4168C63.7436 87.5106 63.5282 87.6753 63.3555 87.911C63.1894 88.1478 63.0759 88.457 63.0148 88.8389L62.584 91.5347L61.636 91.3832L62.1 88.48C62.181 87.9731 62.1235 87.5723 61.9276 87.2777C61.7382 86.9842 61.4263 86.8027 60.9918 86.7332C60.6824 86.6838 60.3987 86.7059 60.1406 86.7997C59.8826 86.8935 59.6672 87.0583 59.4945 87.294C59.3218 87.5297 59.205 87.8384 59.144 88.2202L58.7131 90.916L57.7652 90.7645L58.6016 85.5309L59.51 85.6761L59.2875 87.0685L59.1962 86.6893C59.4155 86.3733 59.7116 86.1472 60.0844 86.011C60.4572 85.8748 60.8708 85.843 61.325 85.9156C61.8253 85.9955 62.2365 86.1895 62.5586 86.4975C62.8818 86.799 63.0593 87.2088 63.0913 87.727L62.7314 87.5074C62.9536 87.1311 63.2816 86.8527 63.7155 86.6723C64.1495 86.4918 64.6297 86.4437 65.1564 86.5279ZM70.3325 92.8337C69.8058 92.7496 69.3569 92.5597 68.9855 92.264C68.6142 91.9684 68.3421 91.6009 68.1693 91.1614C67.9975 90.7154 67.9527 90.2356 68.0348 89.7221C68.1179 89.2021 68.31 88.7602 68.6112 88.3965C68.9124 88.0328 69.2849 87.7717 69.7288 87.6131C70.1738 87.4479 70.6596 87.4074 71.1863 87.4915C71.7063 87.5747 72.152 87.764 72.5234 88.0597C72.9023 88.3498 73.1749 88.714 73.3412 89.1524C73.515 89.5853 73.5599 90.065 73.4757 90.5917C73.3926 91.1118 73.2005 91.5536 72.8993 91.9173C72.6047 92.2821 72.2316 92.5465 71.7801 92.7107C71.3351 92.8758 70.8526 92.9169 70.3325 92.8337ZM70.4651 92.0043C70.8008 92.0579 71.1124 92.0301 71.4 91.9208C71.6941 91.8125 71.9389 91.6322 72.1345 91.3799C72.3312 91.121 72.4589 90.8073 72.5179 90.4386C72.5778 90.0634 72.5537 89.7287 72.4454 89.4346C72.3382 89.1339 72.1617 88.8863 71.916 88.6917C71.6769 88.4982 71.3894 88.3747 71.0537 88.321C70.718 88.2674 70.4063 88.2952 70.1188 88.4045C69.8313 88.5139 69.5864 88.6941 69.3843 88.9454C69.1831 89.19 69.0526 89.5 68.9926 89.8752C68.9337 90.2439 68.9606 90.5824 69.0734 90.8907C69.1872 91.1924 69.3636 91.4401 69.6028 91.6335C69.8419 91.827 70.1293 91.9506 70.4651 92.0043ZM75.4977 93.5985L74.0432 87.9988L75.0307 88.1566L76.3073 93.2215L75.8334 93.1458L78.6646 88.7373L79.5928 88.8857L76.4654 93.7531L75.4977 93.5985ZM82.6272 94.7379L82.8039 93.6319L82.7877 93.4166L83.0891 91.5306C83.1533 91.129 83.0842 90.8007 82.882 90.5455C82.6873 90.2849 82.3563 90.1172 81.8889 90.0425C81.5795 89.9931 81.2683 89.9973 80.9552 90.0553C80.6432 90.1067 80.3714 90.2017 80.14 90.3403L79.8586 89.5662C80.1633 89.392 80.5121 89.279 80.9053 89.2271C81.306 89.1696 81.7138 89.174 82.1285 89.2403C82.8461 89.355 83.3712 89.6178 83.7038 90.0288C84.0365 90.4397 84.1454 91.004 84.0308 91.7216L83.5258 94.8815L82.6272 94.7379ZM80.8995 94.5225C80.5111 94.4605 80.1793 94.3399 79.9041 94.1609C79.6355 93.9829 79.4406 93.7661 79.3194 93.5105C79.1993 93.2482 79.1629 92.969 79.2102 92.6728C79.2555 92.3897 79.3624 92.1435 79.5308 91.9341C79.7059 91.7258 79.9559 91.5767 80.2808 91.4868C80.6123 91.398 81.0381 91.3952 81.5582 91.4783L83.2171 91.7435L83.1082 92.4248L81.4888 92.166C81.0148 92.0902 80.6829 92.1182 80.4931 92.2499C80.3032 92.3816 80.1904 92.5594 80.1547 92.7832C80.1136 93.0399 80.1825 93.2636 80.3613 93.4542C80.5412 93.6382 80.8122 93.7592 81.1743 93.817C81.5298 93.8739 81.8518 93.8443 82.1404 93.7284C82.4355 93.6135 82.6666 93.4142 82.8334 93.1303L82.9169 93.812C82.7424 94.1014 82.4824 94.313 82.1369 94.4469C81.7925 94.5741 81.3801 94.5993 80.8995 94.5225ZM85.1813 95.1461L86.3523 87.819L87.3003 87.9705L86.1293 95.2976L85.1813 95.1461Z" fill="black" fill-opacity="0.6"/>
</g>
<defs>
<filter id="filter0_i_4952_18134" x="1.10615" y="6.91406" width="137.004" height="104.648" filterUnits="userSpaceOnUse" color-interpolation-filters="sRGB">
<feFlood flood-opacity="0" result="BackgroundImageFix"/>
<feBlend mode="normal" in="SourceGraphic" in2="BackgroundImageFix" result="shape"/>
<feColorMatrix in="SourceAlpha" type="matrix" values="0 0 0 0 0 0 0 0 0 0 0 0 0 0 0 0 0 0 127 0" result="hardAlpha"/>
<feOffset dy="1"/>
<feComposite in2="hardAlpha" operator="arithmetic" k2="-1" k3="1"/>
<feColorMatrix type="matrix" values="0 0 0 0 1 0 0 0 0 1 0 0 0 0 1 0 0 0 0.15 0"/>
<feBlend mode="normal" in2="shape" result="effect1_innerShadow_4952_18134"/>
</filter>
</defs>
</svg>
