<svg width="48" height="80" viewBox="0 0 48 80" fill="none" xmlns="http://www.w3.org/2000/svg">
<path d="M34.8979 67.035C35.2741 66.5952 35.6233 66.1286 35.9397 65.6348C37.4826 63.2279 38.2135 60.1734 37.7158 57.2704C37.2179 54.3668 35.4284 51.6764 32.9246 50.4331C30.2646 55.1289 28.7689 60.3753 32.7021 65.6253C31.0164 64.5375 29.3531 63.4371 27.7749 62.2638C26.9712 61.6677 26.1879 61.0453 25.4263 60.3979C25.8099 59.9846 26.167 59.5431 26.4923 59.0731C28.0212 56.8649 28.8093 54.0226 28.4394 51.2807C28.0694 48.5385 26.4797 45.9533 24.1708 44.7031C21.6741 48.7656 20.1285 53.3199 22.8801 58.0569C22.371 57.5498 21.8745 57.03 21.3913 56.4974C19.3667 54.3175 17.609 51.8969 16.1623 49.3145C16.6918 49.0283 17.2028 48.7021 17.6898 48.3337C19.8332 46.7125 21.4713 44.2578 21.9779 41.5378C22.4846 38.8174 21.7832 35.866 19.981 33.9588C16.3823 37.0026 13.5151 40.7917 14.5369 46.0481C13.0374 42.6213 12.0684 38.9859 11.7213 35.3016C12.3245 35.2337 12.9255 35.1214 13.5197 34.9601C16.115 34.256 18.5539 32.5903 20.0424 30.2564C21.5312 27.9221 21.9861 24.9232 21.029 22.4819C16.7478 23.8976 12.8322 26.195 11.604 30.9876C11.7585 27.2005 12.6026 23.4272 14.2349 19.8394C14.7506 20.0145 15.2802 20.1566 15.8225 20.2607C18.4635 20.7681 21.3879 20.3433 23.7537 18.9012C26.1198 17.4588 27.8507 14.9656 28.0676 12.3531C24.1682 11.8219 20.2226 12.0156 17.1437 14.5749C17.195 14.4936 17.2463 14.4124 17.2978 14.3315C18.021 13.2105 18.7748 12.1033 19.5715 11.0285C27.817 10.8952 31.2502 3.52119 30.6228 0.162707C27.9276 -0.355877 25.609 0.394895 23.3445 1.99133C21.0803 3.58799 19.5304 6.09886 18.951 8.71986C18.8648 9.10865 18.7994 9.49929 18.7532 9.89063C18.4354 10.3022 18.1233 10.7176 17.8158 11.1353C16.3582 13.1465 15.0086 15.2298 13.8274 17.4137C14.4769 12.5219 11.7119 8.9339 8.27911 6.02512C6.47479 7.93083 5.77101 10.8813 6.27513 13.6022C6.77948 16.3227 8.4153 18.7788 10.5574 20.4019C11.0199 20.7527 11.5043 21.0655 12.0057 21.342C10.7791 24.5787 10.1227 28.0037 9.99402 31.4565C8.11767 27.5669 4.32038 25.8577 0.28348 24.9187C-0.447859 27.4368 0.278268 30.382 1.97338 32.5717C3.66848 34.7609 6.24873 36.1986 8.89753 36.6646C9.33529 36.7419 9.77433 36.7926 10.213 36.8202C10.6201 40.2639 11.5343 43.6518 12.9134 46.8231C9.30171 43.0614 4.61859 43.1311 0.0976053 44.1997C0.566635 46.7791 2.53112 49.0936 5.02589 50.3006C7.52032 51.5077 10.4722 51.6481 13.0516 50.8881C13.5952 50.728 14.1218 50.5297 14.6302 50.298C16.3578 53.4058 18.4965 56.2763 20.944 58.8582C16.5294 56.7988 12.2923 58.2987 8.48617 60.6284C9.73889 62.9326 12.3293 64.5191 15.0771 64.8884C17.8246 65.2576 20.6727 64.4711 22.8854 62.9452C23.3353 62.635 23.7589 62.2957 24.157 61.9322C24.9349 62.6077 25.7349 63.2574 26.5547 63.8797C28.2005 65.1314 29.9225 66.2965 31.647 67.4368C25.8007 64.9932 21.1004 67.5726 17.1661 71.1287C18.9314 73.2934 21.9545 74.4449 24.9022 74.292C27.8495 74.1391 30.675 72.7568 32.6892 70.7259C33.2079 70.2031 33.6744 69.6399 34.0894 69.0456C38.5735 72.0094 43.1444 75.1676 46.1283 79.6781C46.3419 80.0009 46.7729 80.0972 47.1017 79.8924L47.4455 79.6782C48.0223 79.3189 48.1743 78.5502 47.782 77.996C44.4681 73.3151 39.7003 70.1205 34.8979 67.035Z" fill="url(#paint0_linear_5284_6675)" fill-opacity="0.6"/>
<defs>
<linearGradient id="paint0_linear_5284_6675" x1="0" y1="40" x2="48" y2="40" gradientUnits="userSpaceOnUse">
<stop stop-color="#027DF4"/>
<stop offset="1" stop-color="#5184EA"/>
</linearGradient>
</defs>
</svg>
