<svg width="14" height="8" viewBox="0 0 14 8" fill="none" xmlns="http://www.w3.org/2000/svg">
<path d="M2.56732 4.66699C3.36065 4.66699 3.51398 5.33366 4.78732 5.33366C6.08732 5.33366 6.18065 4.66699 7.00732 4.66699C7.80065 4.66699 7.95398 5.33366 9.22732 5.33366C10.5273 5.33366 10.6207 4.66699 11.4473 4.66699C12.0673 4.66699 12.1473 4.96699 12.7873 5.19366C13.2073 5.34033 13.654 5.03366 13.654 4.58699C13.654 4.24033 13.5007 4.03366 13.2273 3.94033C12.8273 3.79366 12.4607 3.34033 11.434 3.34033C10.134 3.34033 10.0407 4.00699 9.21398 4.00699C8.42065 4.00699 8.26732 3.34033 6.99398 3.34033C5.69398 3.34033 5.60065 4.00699 4.77398 4.00699C3.98065 4.00699 3.82732 3.34033 2.55398 3.34033C1.52732 3.34033 1.13398 3.81366 0.767318 3.94699C0.493984 4.03366 0.333984 4.23366 0.333984 4.59366C0.333984 5.04033 0.773984 5.34699 1.19398 5.20033C1.90065 4.96033 1.92732 4.66699 2.56732 4.66699ZM11.4473 6.00033C10.1473 6.00033 10.054 6.66699 9.22732 6.66699C8.43398 6.66699 8.28065 6.00033 7.00732 6.00033C5.70732 6.00033 5.60732 6.66699 4.78065 6.66699C3.95398 6.66699 3.86065 6.00033 2.56065 6.00033C1.54065 6.00033 1.12732 6.47366 0.767318 6.60699C0.493984 6.70033 0.333984 6.90699 0.333984 7.26033C0.333984 7.70699 0.773984 8.01366 1.20065 7.86699C1.88065 7.62699 1.92065 7.33366 2.56065 7.33366C3.38732 7.33366 3.48065 8.00033 4.78065 8.00033C6.08065 8.00033 6.18065 7.33366 7.00732 7.33366C7.80065 7.33366 7.95398 8.00033 9.22732 8.00033C10.5207 8.00033 10.6207 7.33366 11.4473 7.33366C12.074 7.33366 12.154 7.64033 12.8007 7.86699C13.2207 8.01366 13.6673 7.70699 13.6673 7.26033C13.6673 6.90699 13.5073 6.70699 13.234 6.60699C12.8807 6.48033 12.474 6.00033 11.4473 6.00033ZM2.56732 2.00033C3.36065 2.00033 3.51398 2.66699 4.78732 2.66699C6.08732 2.66699 6.18065 2.00033 7.00732 2.00033C7.80065 2.00033 7.95398 2.66699 9.22732 2.66699C10.5273 2.66699 10.6207 2.00033 11.4473 2.00033C12.0673 2.00033 12.1473 2.30033 12.7873 2.52699C13.2073 2.67366 13.654 2.36699 13.654 1.92033C13.654 1.57366 13.5007 1.36699 13.2273 1.27366C12.8273 1.12033 12.4607 0.666992 11.434 0.666992C10.134 0.666992 10.0407 1.33366 9.21398 1.33366C8.42065 1.33366 8.26732 0.666992 6.99398 0.666992C5.69398 0.666992 5.60065 1.33366 4.77398 1.33366C3.98065 1.33366 3.82732 0.666992 2.55398 0.666992C1.52732 0.666992 1.13398 1.14033 0.767318 1.27366C0.493984 1.36699 0.333984 1.56699 0.333984 1.92699C0.333984 2.37366 0.773984 2.68033 1.19398 2.53366C1.90065 2.29366 1.92732 2.00033 2.56732 2.00033Z" fill="#A1E1FF"/>
</svg>
