<svg width="18" height="14" viewBox="0 0 18 14" fill="none" xmlns="http://www.w3.org/2000/svg">
<path d="M9.00043 6.99977V7.00977M11.8284 4.17177C12.5783 4.92188 12.9996 5.93911 12.9996 6.99977C12.9996 8.06042 12.5783 9.07766 11.8284 9.82777M14.6574 1.34277C15.4003 2.08565 15.9896 2.96758 16.3917 3.93821C16.7938 4.90884 17.0007 5.94916 17.0007 6.99977C17.0007 8.05038 16.7938 9.0907 16.3917 10.0613C15.9896 11.032 15.4003 11.9139 14.6574 12.6568M6.1684 9.82777C5.41852 9.07766 4.99725 8.06042 4.99725 6.99977C4.99725 5.93911 5.41852 4.92188 6.1684 4.17177M3.33743 12.6568C2.59452 11.9139 2.00521 11.032 1.60314 10.0613C1.20108 9.0907 0.994141 8.05038 0.994141 6.99977C0.994141 5.94916 1.20108 4.90884 1.60314 3.93821C2.00521 2.96758 2.59452 2.08565 3.33743 1.34277" stroke="#B3B3B3" stroke-width="1.5" stroke-linecap="round" stroke-linejoin="round"/>
</svg>
