<svg width="393" height="295" viewBox="0 0 393 295" fill="none" xmlns="http://www.w3.org/2000/svg">
<g clip-path="url(#clip0_5284_6050)">
<mask id="mask0_5284_6050" style="mask-type:luminance" maskUnits="userSpaceOnUse" x="0" y="0" width="393" height="295">
<path d="M393 0H0V295H393V0Z" fill="white"/>
</mask>
<g mask="url(#mask0_5284_6050)">
<mask id="mask1_5284_6050" style="mask-type:luminance" maskUnits="userSpaceOnUse" x="0" y="91" width="393" height="113">
<path d="M0.238281 91.2148H392.764V203.782H0.238281V91.2148Z" fill="white"/>
</mask>
<g mask="url(#mask1_5284_6050)">
<g opacity="0.1">
<path d="M-0.886719 147.498C1.08154 147.498 12.8194 145.15 25.5267 146.236C47.1433 148.051 70.0135 180.136 99.3357 180.136C125.265 180.136 175.375 111.195 217.13 111.195C251.726 111.195 293.861 172.232 324.2 170.795C346.683 169.736 377.648 146.933 393.889 147.498" stroke="#C3DAEF" stroke-width="2.2895"/>
</g>
<g opacity="0.4">
<path d="M-0.886719 147.499C1.08154 147.499 12.6094 145.572 25.3166 146.657C46.9333 148.472 67.7691 172.609 97.0913 172.609C123.02 172.609 161.529 118.123 203.282 118.372C239.629 118.582 279.795 169.742 310.209 169.742C332.834 169.742 364.713 143.902 393.889 147.499" stroke="#02D8F4" stroke-width="2.2895"/>
</g>
<g opacity="0.7">
<path d="M-0.886719 147.498C1.08154 147.498 12.6094 145.712 25.3166 146.798C46.9333 148.613 62.7073 165.223 92.0295 165.223C117.958 165.223 151.054 125.088 192.808 125.337C229.154 125.547 267.073 167.905 297.488 167.905C320.112 167.905 347.004 140.429 393.889 147.498" stroke="#027DF4" stroke-width="2.2895"/>
</g>
<path d="M-23.6055 147.498C-23.6055 147.498 -3.41681 147.498 -0.886194 147.498C1.47572 147.498 15.3075 145.532 28.1354 148.44C45.5309 152.383 60.6697 156.924 69.1243 157.993C98.2529 161.678 114.394 151.142 133.571 143.237C149.051 136.876 164.147 132.775 182.112 133.571C200.283 134.359 221.804 144.285 233.44 148.773C249.862 155.104 263.239 160.521 275.347 161.082C292.881 162.074 308.185 157.059 318.082 153.232C329.997 148.624 345.183 144.228 357.936 144.728C367.474 145.086 386.804 147.161 393.889 147.498C394.788 147.541 413.235 147.498 413.235 147.498" stroke="#027DF4" stroke-width="4.579" stroke-linecap="round" stroke-linejoin="round"/>
</g>
<mask id="mask2_5284_6050" style="mask-type:luminance" maskUnits="userSpaceOnUse" x="0" y="91" width="393" height="113">
<path d="M0.238281 91.2148H392.764V203.782H0.238281V91.2148Z" fill="white"/>
</mask>
<g mask="url(#mask2_5284_6050)">
<g opacity="0.1">
<path d="M-0.886719 147.496C8.9924 147.496 48.3222 127.798 70.6295 127.798C109.511 127.798 126.636 174.532 178.844 174.532C217.616 174.532 258.678 120.551 296.205 120.551C317.607 120.551 333.105 137.832 368.043 145.865C382.138 149.221 389.055 147.279 393.889 147.496" stroke="#423FF6" stroke-width="2.2895"/>
</g>
<g opacity="0.25">
<path d="M-0.886719 147.498C5.75367 146.929 45.516 128.807 65.9541 128.807C105.07 128.807 121.634 178.595 172.075 178.595C206.985 178.595 249.461 115.484 291.415 115.484C309.358 115.484 335.471 146.044 366.255 150.403C380.048 151.934 390.515 147.498 393.889 147.498" stroke="#1B5FA0" stroke-width="2.2895"/>
</g>
<g opacity="0.4">
<path d="M-0.886719 147.499C1.70727 146.942 31.8857 135.309 50.7239 135.424C94.5679 135.702 106.983 174.721 149.81 174.721C190.886 174.721 220.788 117.539 270.013 118.023C297.415 118.306 321.762 154.14 356.95 155.184C374.604 155.686 390.515 147.499 393.889 147.499" stroke="#42BBFC" stroke-width="2.2895"/>
</g>
</g>
</g>
</g>
<defs>
<clipPath id="clip0_5284_6050">
<rect width="393" height="295" fill="white"/>
</clipPath>
</defs>
</svg>
