<svg width="47" height="80" viewBox="0 0 47 80" fill="none" xmlns="http://www.w3.org/2000/svg">
<path d="M34.3557 46.8234C35.7062 43.6521 36.6013 40.2641 36.9998 36.8204C37.4293 36.7928 37.8592 36.742 38.2879 36.6647C40.8815 36.1989 43.4079 34.7611 45.0677 32.5719C46.7275 30.3822 47.4385 27.4371 46.7224 24.9188C42.7695 25.8579 39.0515 27.567 37.2142 31.4567C37.0881 28.0039 36.4455 24.5788 35.2444 21.3421C35.7355 21.0657 36.2097 20.7528 36.6625 20.402C38.76 18.7788 40.3618 16.3228 40.8556 13.6023C41.3492 10.8814 40.6601 7.93087 38.8934 6.02515C35.532 8.93395 32.8247 12.522 33.4607 17.4138C32.3041 15.2299 30.9826 13.1464 29.5554 11.1353C29.2543 10.7177 28.9487 10.3022 28.6376 9.89068C28.5923 9.49934 28.5284 9.1087 28.4439 8.7199C27.8765 6.09889 26.359 3.58801 24.1419 1.99134C21.9246 0.394897 19.6543 -0.355879 17.0153 0.162708C16.4009 3.52121 19.7626 10.8954 27.8363 11.0285C28.6164 12.1034 29.3545 13.2107 30.0626 14.3315C30.1131 14.4126 30.1634 14.4937 30.2135 14.575C27.1988 12.0157 23.3353 11.8219 19.5172 12.3531C19.7296 14.9657 21.4243 17.4589 23.7412 18.9013C26.0577 20.3434 28.9212 20.7682 31.5072 20.2608C32.0381 20.1567 32.5567 20.0146 33.0617 19.8395C34.66 23.4273 35.4866 27.2006 35.6378 30.9878C34.4352 26.1951 30.6011 23.8977 26.4092 22.482C25.472 24.9233 25.9174 27.9223 27.3752 30.2566C28.8328 32.5905 31.2207 34.2562 33.762 34.9602C34.3439 35.1216 34.9323 35.2338 35.5229 35.3018C35.183 38.9862 34.2343 42.6216 32.766 46.0483C33.7665 40.7919 30.959 37.0029 27.4353 33.959C25.6706 35.8662 24.984 38.8176 25.48 41.538C25.9759 44.2581 27.58 46.7126 29.6788 48.3339C30.1556 48.7024 30.6559 49.0284 31.1745 49.3148C29.7579 51.8973 28.0367 54.3178 26.0544 56.4977C25.5813 57.0303 25.0951 57.5501 24.5967 58.0572C27.2909 53.3202 25.7775 48.7658 23.3329 44.7034C21.0721 45.9535 19.5155 48.5387 19.1532 51.281C18.7909 54.0229 19.5625 56.8652 21.0597 59.0734C21.3782 59.5435 21.7278 59.985 22.1035 60.3983C21.3577 61.0456 20.5908 61.6681 19.8038 62.2641C18.2585 63.4374 16.63 64.5378 14.9792 65.6256C18.8305 60.3757 17.366 55.1292 14.7614 50.4333C12.3098 51.6767 10.5574 54.3671 10.0701 57.2707C9.58269 60.1738 10.2982 63.2282 11.8091 65.6352C12.1189 66.1289 12.4608 66.5956 12.8292 67.0354C8.1269 70.121 3.45847 73.3155 0.213505 77.996C-0.170683 78.5501 -0.0217969 79.3189 0.542919 79.6782L0.879594 79.8923C1.20153 80.0971 1.62359 80.001 1.8327 79.6781C4.75448 75.1676 9.23014 72.0093 13.6208 69.0455C14.0272 69.6398 14.4839 70.203 14.9918 70.7258C16.964 72.7567 19.7306 74.139 22.6165 74.2919C25.5028 74.4448 28.4629 73.2933 30.1914 71.1286C26.339 67.5725 21.7368 64.9932 16.0123 67.4367C17.7009 66.2965 19.3871 65.1313 20.9985 63.8796C21.8012 63.2574 22.5845 62.6076 23.3462 61.9321C23.736 62.2955 24.1508 62.6349 24.5913 62.9451C26.7579 64.4709 29.5467 65.2574 32.2369 64.8882C34.9275 64.519 37.4639 62.9325 38.6905 60.6283C34.9637 58.2987 30.815 56.7988 26.4923 58.8581C28.8886 56.2762 30.9829 53.4057 32.6745 50.2978C33.1724 50.5295 33.688 50.7278 34.2202 50.8879C36.7459 51.6478 39.6363 51.5074 42.0787 50.3004C44.5216 49.0933 46.4451 46.7789 46.9043 44.1995C42.4778 43.1314 37.8922 43.0617 34.3557 46.8234Z" fill="url(#paint0_linear_5284_6678)" fill-opacity="0.6"/>
<defs>
<linearGradient id="paint0_linear_5284_6678" x1="0" y1="40" x2="47" y2="40" gradientUnits="userSpaceOnUse">
<stop stop-color="#027DF4"/>
<stop offset="1" stop-color="#5184EA"/>
</linearGradient>
</defs>
</svg>
