<svg width="16" height="16" viewBox="0 0 16 16" fill="none" xmlns="http://www.w3.org/2000/svg">
<path d="M6.44836 7.52941C5.56171 7.52941 4.80269 7.16078 4.17128 6.42353C3.53988 5.68627 3.22418 4.8 3.22418 3.76471C3.22418 2.72941 3.53988 1.84314 4.17128 1.10588C4.80269 0.368627 5.56171 0 6.44836 0C7.33501 0 8.09404 0.368627 8.72544 1.10588C9.35684 1.84314 9.67254 2.72941 9.67254 3.76471C9.67254 4.8 9.35684 5.68627 8.72544 6.42353C8.09404 7.16078 7.33501 7.52941 6.44836 7.52941ZM0 15.0588V12.4235C0 11.9059 0.11419 11.4196 0.342569 10.9647C0.570949 10.5098 0.88665 10.1647 1.28967 9.92941C1.97481 9.52157 2.74727 9.17647 3.60705 8.89412C4.46683 8.61176 5.41394 8.47059 6.44836 8.47059H6.73048C6.81108 8.47059 6.89169 8.48627 6.97229 8.51765C6.86482 8.8 6.77414 9.09412 6.70025 9.4C6.62636 9.70588 6.56927 10.0235 6.52897 10.3529H6.44836C5.49454 10.3529 4.63812 10.4941 3.87909 10.7765C3.12007 11.0588 2.49874 11.3412 2.01511 11.6235C1.89421 11.702 1.79681 11.8118 1.72292 11.9529C1.64903 12.0941 1.61209 12.251 1.61209 12.4235V13.1765H6.69018C6.77078 13.5059 6.87825 13.8314 7.01259 14.1529C7.14693 14.4745 7.29471 14.7765 7.45592 15.0588H0ZM11.2846 16L11.0428 14.5882C10.8816 14.5098 10.7305 14.4275 10.5894 14.3412C10.4484 14.2549 10.3039 14.149 10.1562 14.0235L8.9874 14.4471L8.18136 12.8471L9.10831 11.9059C9.08144 11.6863 9.06801 11.4824 9.06801 11.2941C9.06801 11.1059 9.08144 10.902 9.10831 10.6824L8.18136 9.74118L8.9874 8.14118L10.1562 8.56471C10.3039 8.43922 10.4484 8.33333 10.5894 8.24706C10.7305 8.16078 10.8816 8.07843 11.0428 8L11.2846 6.58824H12.8967L13.1385 8C13.2997 8.07843 13.4509 8.16471 13.5919 8.25882C13.733 8.35294 13.8774 8.47059 14.0252 8.61176L15.194 8.14118L16 9.78824L15.073 10.7294C15.0999 10.9176 15.1133 11.1137 15.1133 11.3176C15.1133 11.5216 15.0999 11.7176 15.073 11.9059L16 12.8471L15.194 14.4471L14.0252 14.0235C13.8774 14.149 13.733 14.2549 13.5919 14.3412C13.4509 14.4275 13.2997 14.5098 13.1385 14.5882L12.8967 16H11.2846ZM12.0907 13.1765C12.534 13.1765 12.9135 12.9922 13.2292 12.6235C13.5449 12.2549 13.7028 11.8118 13.7028 11.2941C13.7028 10.7765 13.5449 10.3333 13.2292 9.96471C12.9135 9.59608 12.534 9.41177 12.0907 9.41177C11.6474 9.41177 11.2678 9.59608 10.9521 9.96471C10.6364 10.3333 10.4786 10.7765 10.4786 11.2941C10.4786 11.8118 10.6364 12.2549 10.9521 12.6235C11.2678 12.9922 11.6474 13.1765 12.0907 13.1765ZM6.44836 5.64706C6.89169 5.64706 7.2712 5.46275 7.5869 5.09412C7.9026 4.72549 8.06045 4.28235 8.06045 3.76471C8.06045 3.24706 7.9026 2.80392 7.5869 2.43529C7.2712 2.06667 6.89169 1.88235 6.44836 1.88235C6.00504 1.88235 5.62552 2.06667 5.30982 2.43529C4.99412 2.80392 4.83627 3.24706 4.83627 3.76471C4.83627 4.28235 4.99412 4.72549 5.30982 5.09412C5.62552 5.46275 6.00504 5.64706 6.44836 5.64706Z" fill="white"/>
</svg>
