<?xml version="1.0" encoding="UTF-8"?>
<svg xmlns="http://www.w3.org/2000/svg" xmlns:xlink="http://www.w3.org/1999/xlink" width="304px" height="180px" viewBox="0 0 303 180" version="1.1">
<defs>
<linearGradient id="linear0" gradientUnits="userSpaceOnUse" x1="59.997299" y1="19.8643" x2="59.997299" y2="56.908298" gradientTransform="matrix(2.805556,0,0,2.8125,0,0)">
<stop offset="0" style="stop-color:rgb(87.058824%,91.372549%,100%);stop-opacity:1;"/>
<stop offset="1" style="stop-color:rgb(69.803922%,72.941176%,80%);stop-opacity:1;"/>
</linearGradient>
<linearGradient id="linear1" gradientUnits="userSpaceOnUse" x1="20.8416" y1="29.147499" x2="20.8416" y2="51.1455" gradientTransform="matrix(2.805556,0,0,2.8125,0,0)">
<stop offset="0" style="stop-color:rgb(87.058824%,91.372549%,100%);stop-opacity:1;"/>
<stop offset="1" style="stop-color:rgb(69.803922%,72.941176%,80%);stop-opacity:1;"/>
</linearGradient>
</defs>
<g id="surface1">
<path style=" stroke:none;fill-rule:nonzero;fill:url(#linear0);" d="M 231.132812 132.695312 C 236.042969 130.363281 238.628906 130.621094 240.695312 130.363281 C 243.796875 128.636719 250.363281 123.417969 251.8125 116.371094 C 253.398438 108.648438 255.378906 97.148438 252.195312 86.050781 C 251.742188 84.484375 251.191406 82.925781 250.519531 81.386719 C 246.8125 74.65625 234.75 60.203125 216.140625 56.25 C 146.65625 54.386719 111.34375 59.792969 102.371094 62.730469 C 99.445312 69.984375 99.277344 90.972656 99.558594 100.5625 C 100.078125 129.066406 96.199219 137.359375 93.613281 144.355469 C 91.546875 149.953125 85.515625 155.5 82.757812 157.570312 C 96.457031 157.570312 113.777344 157.3125 119.464844 156.792969 C 122.246094 158.347656 130.332031 161.09375 140.402344 159.644531 C 149.292969 159.023438 178.226562 152.992188 191.582031 150.054688 C 198.730469 148.792969 197.671875 145.472656 199.667969 143.578125 C 200.128906 143.144531 200.746094 142.785156 201.664062 142.542969 C 208.125 140.726562 223.066406 136.21875 231.132812 132.695312 Z M 231.132812 132.695312 "/>
<path style=" stroke:none;fill-rule:nonzero;fill:rgb(0%,0%,0%);fill-opacity:1;" d="M 182.1875 110.644531 C 181.902344 103.546875 181.621094 101.5625 180.488281 94.75 C 186.714844 94.75 190.113281 94.183594 195.773438 93.332031 C 195.773438 96.738281 196.339844 104.683594 196.90625 108.375 C 192.945312 108.941406 186.433594 109.507812 182.1875 110.644531 Z M 182.1875 110.644531 "/>
<path style="fill:none;stroke-width:0.201817;stroke-linecap:butt;stroke-linejoin:miter;stroke:rgb(100%,100%,100%);stroke-opacity:1;stroke-miterlimit:4;" d="M 16.301361 24.404167 C 17.209158 23.9 18.420483 24.001389 19.832302 24.909722 C 21.245514 25.816667 25.079981 29.954167 25.584004 38.229167 " transform="matrix(2.805556,0,0,2.8125,0,0)"/>
<path style="fill:none;stroke-width:0.201817;stroke-linecap:butt;stroke-linejoin:miter;stroke:rgb(100%,100%,100%);stroke-opacity:1;stroke-miterlimit:4;" d="M 88.248453 47.109722 C 89.056002 47.008333 91.477259 45.697222 94.403929 43.476389 C 95.506652 42.091667 96.188892 40.544444 96.566213 38.936111 C 98.715965 29.7625 94.060025 22.318056 87.340656 16.9375 C 83.708075 14.030556 78.944926 11.229167 75.533725 9.873611 C 68.672339 7.15 63.828434 7.048611 48.590811 7.855556 C 33.354579 8.663889 21.043626 19.6625 17.511293 22.286111 C 17.125619 22.484722 16.79146 22.690278 16.501856 22.9 M 88.248453 47.109722 C 87.440903 47.209722 86.431467 47.109722 84.514233 48.018056 C 82.596999 48.926389 74.928063 51.347222 73.010829 51.852778 C 72.653001 51.945833 72.410736 52.086111 72.232519 52.255556 M 88.248453 47.109722 C 89.459777 46.436111 92.021658 44.405556 92.586943 41.659722 C 93.206528 38.654167 93.980662 34.175 92.735922 29.854167 M 26.593441 57.704167 C 31.941368 57.704167 38.702506 57.604167 40.921875 57.402778 C 41.424505 57.695833 42.170792 57.988889 43.181621 58.209722 M 26.593441 57.704167 C 25.785891 58.006944 24.574567 58.411111 22.96086 58.411111 C 22.325959 58.411111 21.440439 58.363889 20.515934 58.209722 M 26.593441 57.704167 C 27.669709 56.897222 30.024134 54.7375 30.831683 52.558333 C 31.839728 49.833333 33.354579 46.605556 33.152692 35.505556 C 33.028775 28.751389 33.2056 24.013889 34.248453 20.772222 M 37.491182 16.231944 C 41.42729 13.708333 44.95823 12.901389 57.672958 12.497222 C 70.387686 12.094444 73.716739 12.094444 74.625928 17.947222 M 37.491182 16.231944 C 41.153001 13.401389 45.121132 11.609722 49.701887 11.034722 C 53.926207 10.505556 59.510829 10.176389 64.130569 10.176389 C 71.093595 10.176389 74.222153 11.419444 78.762531 13.809722 C 82.596999 15.827778 89.9638 23.194444 92.082921 28.0375 C 92.344678 28.6375 92.560489 29.244444 92.735922 29.854167 M 37.491182 16.231944 C 35.949876 17.219444 34.919554 18.686111 34.248453 20.772222 M 34.248453 20.772222 C 37.751547 19.629167 51.538366 17.523611 78.662283 18.25 C 82.191832 19.023611 89.949876 22.427778 92.735922 29.854167 M 20.515934 58.209722 C 19.087407 57.970833 17.561417 57.473611 16.703744 56.494444 C 15.291925 54.879167 14.180848 53.163889 13.374691 52.456944 C 12.567141 51.751389 12.061726 49.430556 12.061726 48.825 C 12.061726 48.219444 11.428218 47.334722 11.255569 45.697222 C 10.963181 42.926389 10.548267 40.045833 11.457457 37.422222 C 12.305384 34.970833 11.659344 31.468056 13.273051 28.945833 C 14.711324 26.698611 14.148824 24.6125 16.501856 22.9 M 20.515934 58.209722 C 20.826423 57.570833 21.749536 56.05 22.96086 55.080556 C 24.474319 53.870833 25.382116 46.1 26.593441 43.880556 C 27.804765 41.659722 27.199103 33.991667 26.088026 30.963889 C 24.978342 27.9375 24.372679 26.019444 22.455446 25.313889 C 20.538212 24.606944 19.732054 22 16.501856 22.9 M 43.181621 58.209722 C 44.605972 58.520833 46.556621 58.688889 49.096225 58.5125 C 52.567296 58.269444 63.86185 55.922222 69.076114 54.779167 C 71.864944 54.286111 71.452816 52.993056 72.232519 52.255556 M 43.181621 58.209722 C 44.412438 56.965278 46.816986 55.206944 50.811572 54.576389 C 52.728806 54.273611 54.847927 54.173611 57.975093 53.769444 M 72.232519 52.255556 C 71.919245 51.852778 70.79146 51.125 68.772587 51.448611 C 66.755105 51.770833 65.039759 52.120833 64.434097 52.255556 " transform="matrix(2.805556,0,0,2.8125,0,0)"/>
<path style=" stroke:none;fill-rule:nonzero;fill:url(#linear1);" d="M 72.0625 112.910156 C 72.0625 95.828125 65.976562 81.976562 58.472656 81.976562 C 50.96875 81.976562 44.882812 95.828125 44.882812 112.910156 C 44.882812 129.996094 50.96875 143.847656 58.472656 143.847656 C 65.976562 143.847656 72.0625 129.996094 72.0625 112.910156 Z M 72.0625 112.910156 "/>
<path style="fill:none;stroke-width:0.201817;stroke-linecap:butt;stroke-linejoin:miter;stroke:rgb(100%,100%,100%);stroke-opacity:1;stroke-miterlimit:4;" d="M 21.345761 52.759722 C 18.058478 52.759722 15.392172 46.977778 15.392172 39.843056 C 15.392172 32.709722 17.814821 27.027778 21.851176 27.027778 " transform="matrix(2.805556,0,0,2.8125,0,0)"/>
<path style=" stroke:none;fill-rule:nonzero;fill:rgb(0%,0%,0%);fill-opacity:1;" d="M 165.484375 150.941406 C 165.484375 149.84375 164.597656 148.957031 163.503906 148.957031 C 162.410156 148.957031 161.523438 149.84375 161.523438 150.941406 C 161.523438 152.039062 162.410156 152.929688 163.503906 152.929688 C 164.597656 152.929688 165.484375 152.039062 165.484375 150.941406 Z M 165.484375 150.941406 "/>
<path style=" stroke:none;fill-rule:nonzero;fill:rgb(0%,0%,0%);fill-opacity:1;" d="M 170.582031 149.808594 C 170.582031 148.710938 169.695312 147.820312 168.601562 147.820312 C 167.503906 147.820312 166.617188 148.710938 166.617188 149.808594 C 166.617188 150.90625 167.503906 151.792969 168.601562 151.792969 C 169.695312 151.792969 170.582031 150.90625 170.582031 149.808594 Z M 170.582031 149.808594 "/>
<path style=" stroke:none;fill-rule:nonzero;fill:rgb(0%,0%,0%);fill-opacity:1;" d="M 175.675781 148.671875 C 175.675781 147.574219 174.789062 146.6875 173.695312 146.6875 C 172.601562 146.6875 171.714844 147.574219 171.714844 148.671875 C 171.714844 149.769531 172.601562 150.660156 173.695312 150.660156 C 174.789062 150.660156 175.675781 149.769531 175.675781 148.671875 Z M 175.675781 148.671875 "/>
<path style=" stroke:none;fill-rule:nonzero;fill:rgb(0%,0%,0%);fill-opacity:1;" d="M 180.773438 147.535156 C 180.773438 146.4375 179.886719 145.550781 178.792969 145.550781 C 177.699219 145.550781 176.808594 146.4375 176.808594 147.535156 C 176.808594 148.632812 177.699219 149.523438 178.792969 149.523438 C 179.886719 149.523438 180.773438 148.632812 180.773438 147.535156 Z M 180.773438 147.535156 "/>
<path style=" stroke:none;fill-rule:nonzero;fill:rgb(0%,0%,0%);fill-opacity:1;" d="M 182.207031 59.050781 C 182.121094 57.175781 176.359375 55.910156 169.328125 56.222656 C 162.300781 56.53125 156.667969 58.304688 156.75 60.179688 C 156.835938 62.050781 162.597656 63.320312 169.628906 63.007812 C 176.65625 62.695312 182.289062 60.921875 182.207031 59.050781 Z M 182.207031 59.050781 "/>
</g>
</svg>
