<svg width="54" height="65" viewBox="0 0 54 65" fill="none" xmlns="http://www.w3.org/2000/svg">
<path d="M0.951172 38.9521H53.047V44.6619C53.047 51.7809 53.047 55.3404 51.6615 58.0595C50.4428 60.4513 48.4982 62.3959 46.1064 63.6146C43.3873 65 39.8278 65 32.7088 65H21.2894C14.1703 65 10.6108 65 7.8917 63.6146C5.49991 62.3959 3.55531 60.4513 2.33663 58.0595C0.951172 55.3404 0.951172 51.7809 0.951172 44.6619V38.9521Z" fill="url(#paint0_linear_5147_3524)"/>
<path d="M10.4991 21.0312H8.97976C4.54569 21.0312 0.951172 24.6258 0.951172 29.0598C0.951172 34.5232 5.38013 38.9522 10.8435 38.9522H43.1546C48.618 38.9522 53.047 34.5232 53.047 29.0598C53.047 24.6258 49.4525 21.0312 45.0184 21.0312C44.4348 21.0312 43.8622 21.0312 43.2999 21.0312M15.1526 21.0312C23.8523 21.0312 30.2768 21.0313 38.6993 21.0313" stroke="white" stroke-width="0.208383"/>
<path d="M2.41016 29.3667C2.41016 25.3386 5.67553 22.0732 9.70357 22.0732H44.2952C48.3232 22.0732 51.5886 25.3386 51.5886 29.3667C51.5886 33.3947 48.3232 36.6601 44.2952 36.6601H9.70356C5.67552 36.6601 2.41016 33.3947 2.41016 29.3667Z" fill="white" fill-opacity="0.1"/>
<path d="M6.30078 36.876C7.27366 37.2742 8.34035 37.4936 9.46382 37.4936H44.5356C46.1033 37.4936 47.5604 37.0663 48.8064 36.3223" stroke="white" stroke-width="0.208383"/>
<rect x="15.5371" y="36.6602" width="5.20958" height="2.08383" fill="white"/>
<rect x="33.25" y="36.6602" width="5.20958" height="2.08383" fill="white"/>
<path d="M10.4988 22.4135C6.83541 23.1431 5.21447 26.7742 4.70184 30.4082C4.34737 32.921 6.99405 35.6178 10.224 35.6178C12.4693 35.6178 15.4336 34.2633 18.9761 33.8225C23.5016 33.2595 26.7536 31.4381 25.1654 26.6573C24.4304 24.4448 22.6656 22.2812 19.3929 22.2812C17.5166 22.2812 16.1776 22.2812 15.1812 22.2812" stroke="white" stroke-width="0.208383"/>
<path d="M17.9338 7.06891C15.7458 8.31921 13.7983 11.4158 14.4955 14.2582C15.1926 17.1005 18.2464 17.9049 20.4344 17.0713C24.2515 15.6172 26.2865 9.51573 22.1014 7.13305C20.8641 6.42861 19.2804 6.29944 17.9338 7.06891Z" fill="white"/>
<path d="M14.2876 15.9257C12.6206 15.6479 9.16363 14.1716 6.9942 11.8622C3.76426 8.42396 5.55795 -0.156999 11.9954 1.13049C16.1631 1.96402 19.393 4.67304 19.8098 6.23591" stroke="white" stroke-width="0.208383"/>
<rect x="10.2344" y="3.94434" width="4.58443" height="2.40851" rx="1.20425" transform="rotate(34.5011 10.2344 3.94434)" fill="white"/>
<rect x="19.7051" y="14.335" width="4.37605" height="1.84402" rx="0.922008" transform="rotate(-53.4186 19.7051 14.335)" fill="black"/>
<path d="M10.5371 14.4678V26.2414H15.1215C15.1215 22.5939 15.1215 20.3092 15.1215 17.2809" stroke="white" stroke-width="0.208383"/>
<path d="M10.5371 26.2402H15.1215V26.2402C15.1215 27.1609 14.3752 27.9073 13.4545 27.9073H12.2042C11.2835 27.9073 10.5371 27.1609 10.5371 26.2402V26.2402Z" stroke="white" stroke-width="0.208383"/>
<path d="M43.2811 22.4053C46.9744 23.1152 48.6058 26.7603 49.1204 30.4082C49.4749 32.921 46.8282 35.6178 43.5983 35.6178C41.353 35.6178 38.3887 34.2633 34.8462 33.8225C30.3207 33.2595 27.0686 31.4381 28.6568 26.6573C29.3918 24.4448 31.1567 22.2812 34.4294 22.2812C36.3364 22.2812 37.6883 22.2812 38.6897 22.2812" stroke="white" stroke-width="0.208383"/>
<path d="M35.8885 7.06891C38.0765 8.31921 40.0239 11.4158 39.3268 14.2582C38.6297 17.1005 35.5759 17.9049 33.3879 17.0713C29.5708 15.6172 27.5357 9.51573 31.7208 7.13305C32.9581 6.42861 34.5419 6.29944 35.8885 7.06891Z" fill="white"/>
<path d="M39.5346 15.9257C41.2017 15.6479 44.6586 14.1716 46.8281 11.8622C50.058 8.42396 48.2643 -0.156999 41.8269 1.13049C37.6592 1.96402 34.4293 4.67304 34.0125 6.23591" stroke="white" stroke-width="0.208383"/>
<rect width="4.58443" height="2.40851" rx="1.20425" transform="matrix(-0.824115 0.566423 0.566423 0.824115 43.5879 3.94434)" fill="white"/>
<rect width="4.37605" height="1.84402" rx="0.922008" transform="matrix(-0.595964 -0.803011 -0.803011 0.595964 34.1172 14.335)" fill="black"/>
<path d="M43.2852 14.4678V26.2414H38.7007C38.7007 22.5939 38.7007 20.3092 38.7007 17.2809" stroke="white" stroke-width="0.208383"/>
<path d="M43.2852 26.2402H38.7007V26.2402C38.7007 27.1609 39.4471 27.9073 40.3678 27.9073H41.6181C42.5388 27.9073 43.2852 27.1609 43.2852 26.2402V26.2402Z" stroke="white" stroke-width="0.208383"/>
<defs>
<linearGradient id="paint0_linear_5147_3524" x1="26.9991" y1="38.9521" x2="26.9991" y2="65" gradientUnits="userSpaceOnUse">
<stop stop-color="#DEE9FF"/>
<stop offset="1" stop-color="#B2BACC"/>
</linearGradient>
</defs>
</svg>
