<svg width="96" height="56" viewBox="0 0 96 56" fill="none" xmlns="http://www.w3.org/2000/svg">
<path d="M72.8376 41.2805C74.3694 40.5549 75.1755 40.6355 75.8205 40.5549C76.7879 40.0175 78.8356 38.3943 79.2871 36.2015C79.7816 33.7996 80.3999 30.2215 79.4062 26.7691C79.2659 26.2817 79.0934 25.7968 78.884 25.318C77.7285 23.2238 73.9663 18.728 68.1617 17.498C46.4914 16.9175 35.4772 18.5998 32.6788 19.5135C31.7673 21.7708 31.715 28.3009 31.8027 31.2838C31.9639 40.1518 30.7547 42.7316 29.9485 44.9083C29.3035 46.6497 27.4224 48.3749 26.5625 49.0199C30.8353 49.0199 36.2367 48.9393 38.0103 48.778C38.8784 49.2617 41.3997 50.1163 44.5405 49.6648C47.3137 49.4713 56.3377 47.5956 60.5029 46.6819C62.7319 46.2886 62.402 45.2555 63.0246 44.6665C63.1676 44.5312 63.3609 44.4193 63.6471 44.344C65.6625 43.7797 70.3223 42.3769 72.8376 41.2805Z" fill="url(#paint0_linear_4033_9201)"/>
<path d="M57.5727 34.4211C57.4844 32.2138 57.3961 31.5957 57.043 29.4766C58.9855 29.4766 60.045 29.3 61.8109 29.0352C61.8109 30.0947 61.9875 32.5669 62.1641 33.7148C60.9279 33.8914 58.8972 34.068 57.5727 34.4211Z" fill="black"/>
<path d="M15.0156 21.3542C15.8103 20.9127 16.8698 21.001 18.1059 21.7956C19.3421 22.5903 22.6973 26.2104 23.1387 33.4506" stroke="#111111" stroke-width="0.17659"/>
<path d="M77.9706 41.2209C78.6769 41.1326 80.796 39.9848 83.3566 38.0423C84.3217 36.8308 84.9191 35.476 85.2487 34.069C87.1293 26.0419 83.0556 19.5289 77.1759 14.8208C73.9982 12.2763 69.8302 9.82523 66.8454 8.64011C60.8414 6.25615 56.6032 6.16786 43.2707 6.87422C29.9382 7.58058 19.1663 17.2047 16.0759 19.5004C15.7378 19.6743 15.4461 19.8535 15.193 20.0376M77.9706 41.2209C77.2642 41.3092 76.3813 41.2209 74.7037 42.0156C73.0261 42.8102 66.3157 44.9293 64.6381 45.3708C64.3247 45.4532 64.113 45.5757 63.9563 45.7239M77.9706 41.2209C79.0301 40.6323 81.2728 38.8546 81.7672 36.453C82.3088 33.8224 82.986 29.9036 81.8977 26.1225M24.0225 50.4919C28.7021 50.4919 34.6178 50.4036 36.5603 50.227C37 50.4835 37.6526 50.7399 38.5369 50.9333M24.0225 50.4919C23.3161 50.7567 22.2566 51.1099 20.8439 51.1099C20.2883 51.1099 19.5143 51.069 18.7043 50.9333M24.0225 50.4919C24.9643 49.7855 27.0245 47.896 27.7308 45.9888C28.6138 43.6049 29.9382 40.7794 29.7616 31.067C29.6542 25.1572 29.8082 21.0127 30.7212 18.176M33.5583 14.2027C37.0018 11.9953 40.0921 11.289 51.2173 10.9358C62.3424 10.5826 65.2561 10.5826 66.0508 15.7037M33.5583 14.2027C36.7624 11.7268 40.2345 10.1588 44.242 9.65591C47.9389 9.19194 52.8249 8.90501 56.8681 8.90501C62.9605 8.90501 65.6976 9.99243 69.6709 12.0836C73.0261 13.8495 79.4716 20.295 81.3258 24.5332C81.5552 25.0575 81.744 25.5886 81.8977 26.1225M33.5583 14.2027C32.2101 15.0669 31.3085 16.3507 30.7212 18.176M30.7212 18.176C33.7859 17.1753 45.8489 15.3329 69.5826 15.9686C72.6716 16.6455 79.4592 19.624 81.8977 26.1225M18.7043 50.9333C17.4547 50.7241 16.1196 50.2895 15.3696 49.4323C14.1334 48.0196 13.1622 46.5186 12.4558 45.9005C11.7495 45.2825 11.308 43.2517 11.308 42.7219C11.308 42.1921 10.7531 41.4185 10.6017 39.9848C10.3456 37.5611 9.98359 35.0403 10.7782 32.7446C11.5208 30.5994 10.9548 27.5352 12.3676 25.3278C13.6257 23.362 13.1331 21.5363 15.193 20.0376M18.7043 50.9333C18.976 50.3741 19.7843 49.0438 20.8439 48.1962C22.1683 47.1367 22.9629 40.338 24.0225 38.3955C25.082 36.453 24.5522 29.7426 23.581 27.0937C22.6097 24.4449 22.08 22.7673 20.4024 22.1492C18.7248 21.5312 18.0184 19.2505 15.193 20.0376M38.5369 50.9333C39.7837 51.206 41.4911 51.3532 43.7122 51.1982C46.7495 50.9863 56.6327 48.932 61.1946 47.9313C63.6358 47.5005 63.2744 46.369 63.9563 45.7239M38.5369 50.9333C39.6145 49.8444 41.7184 48.3065 45.2132 47.7547C46.8908 47.4898 48.745 47.4015 51.4821 47.0484M63.9563 45.7239C63.6832 45.3708 62.6956 44.735 60.9297 45.0176C59.1638 45.3001 57.6628 45.6062 57.133 45.7239" stroke="#111111" stroke-width="0.17659"/>
<ellipse cx="18.9881" cy="35.128" rx="4.23815" ry="9.62413" fill="url(#paint1_linear_4033_9201)"/>
<path d="M19.432 46.1636C16.555 46.1636 14.2227 41.1037 14.2227 34.8619C14.2227 28.6201 16.3417 23.6484 19.8735 23.6484" stroke="#111111" stroke-width="0.17659"/>
<circle cx="51.747" cy="46.9579" r="0.618064" fill="black"/>
<circle cx="53.3368" cy="46.6063" r="0.618064" fill="black"/>
<circle cx="54.9267" cy="46.2509" r="0.618064" fill="black"/>
<circle cx="56.5126" cy="45.8993" r="0.618064" fill="black"/>
<ellipse cx="53.6098" cy="18.548" rx="3.97326" ry="1.05668" transform="rotate(-2.53404 53.6098 18.548)" fill="black"/>
<defs>
<linearGradient id="paint0_linear_4033_9201" x1="53.2494" y1="17.3789" x2="53.2494" y2="49.7924" gradientUnits="userSpaceOnUse">
<stop stop-color="#DEE9FF"/>
<stop offset="1" stop-color="#B2BACC"/>
</linearGradient>
<linearGradient id="paint1_linear_4033_9201" x1="18.9881" y1="25.5039" x2="18.9881" y2="44.7522" gradientUnits="userSpaceOnUse">
<stop stop-color="#DEE9FF"/>
<stop offset="1" stop-color="#B2BACC"/>
</linearGradient>
</defs>
</svg>
