<svg width="290" height="296" viewBox="0 0 290 296" fill="none" xmlns="http://www.w3.org/2000/svg">
<circle cx="10" cy="10" r="10" transform="matrix(0.950459 -0.31085 -0.31085 -0.950459 82.7383 235.723)" fill="url(#paint0_radial_4952_17947)"/>
<circle cx="10" cy="10" r="10" transform="matrix(1 0 0 -1 270 213)" fill="url(#paint1_radial_4952_17947)"/>
<circle cx="10" cy="10" r="10" transform="matrix(1 0 0 -1 174 49)" fill="url(#paint2_radial_4952_17947)"/>
<circle cx="5" cy="5" r="5" transform="matrix(1 0 0 -1 148 10)" fill="url(#paint3_radial_4952_17947)"/>
<circle cx="5" cy="5" r="5" transform="matrix(1 0 0 -1 158 296)" fill="url(#paint4_radial_4952_17947)"/>
<circle cx="5" cy="5" r="5" transform="matrix(1 0 0 -1 15 118)" fill="url(#paint5_radial_4952_17947)"/>
<circle cx="7.5" cy="7.5" r="7.5" transform="matrix(1 0 0 -1 0 89)" fill="url(#paint6_radial_4952_17947)" fill-opacity="0.4"/>
<circle cx="5" cy="5" r="5" transform="matrix(1 0 0 -1 7 161)" fill="url(#paint7_radial_4952_17947)" fill-opacity="0.4"/>
<circle cx="5" cy="5" r="5" transform="matrix(1 0 0 -1 189 255)" fill="url(#paint8_radial_4952_17947)" fill-opacity="0.4"/>
<circle cx="5" cy="5" r="5" transform="matrix(0.950459 -0.31085 -0.31085 -0.950459 60.3633 222)" fill="url(#paint9_radial_4952_17947)" fill-opacity="0.4"/>
<circle cx="3" cy="3" r="3" transform="matrix(1 0 0 -1 244 74)" fill="url(#paint10_radial_4952_17947)" fill-opacity="0.4"/>
<circle cx="3" cy="3" r="3" transform="matrix(1 0 0 -1 84 24)" fill="url(#paint11_radial_4952_17947)" fill-opacity="0.4"/>
<circle cx="3" cy="3" r="3" transform="matrix(1 0 0 -1 55 11)" fill="url(#paint12_radial_4952_17947)"/>
<circle cx="3" cy="3" r="3" transform="matrix(1 0 0 -1 281 49)" fill="url(#paint13_radial_4952_17947)"/>
<defs>
<radialGradient id="paint0_radial_4952_17947" cx="0" cy="0" r="1" gradientUnits="userSpaceOnUse" gradientTransform="translate(5.5 4.5) rotate(48.5763) scale(11.3358 16.4352)">
<stop stop-color="#2E83D2"/>
<stop offset="1" stop-color="#5DA1E7"/>
</radialGradient>
<radialGradient id="paint1_radial_4952_17947" cx="0" cy="0" r="1" gradientUnits="userSpaceOnUse" gradientTransform="translate(5.5 4.5) rotate(48.5763) scale(11.3358 16.4352)">
<stop stop-color="#2E83D2"/>
<stop offset="1" stop-color="#5DA1E7"/>
</radialGradient>
<radialGradient id="paint2_radial_4952_17947" cx="0" cy="0" r="1" gradientUnits="userSpaceOnUse" gradientTransform="translate(5.5 4.5) rotate(48.5763) scale(11.3358 16.4352)">
<stop stop-color="#2E83D2"/>
<stop offset="1" stop-color="#5DA1E7"/>
</radialGradient>
<radialGradient id="paint3_radial_4952_17947" cx="0" cy="0" r="1" gradientUnits="userSpaceOnUse" gradientTransform="translate(2.75 2.25) rotate(48.5763) scale(5.66789 8.21759)">
<stop stop-color="#2E83D2"/>
<stop offset="1" stop-color="#5DA1E7"/>
</radialGradient>
<radialGradient id="paint4_radial_4952_17947" cx="0" cy="0" r="1" gradientUnits="userSpaceOnUse" gradientTransform="translate(2.75 2.25) rotate(48.5763) scale(5.66789 8.21759)">
<stop stop-color="#2E83D2"/>
<stop offset="1" stop-color="#5DA1E7"/>
</radialGradient>
<radialGradient id="paint5_radial_4952_17947" cx="0" cy="0" r="1" gradientUnits="userSpaceOnUse" gradientTransform="translate(2.75 2.25) rotate(48.5763) scale(5.66789 8.21759)">
<stop stop-color="#2E83D2"/>
<stop offset="1" stop-color="#5DA1E7"/>
</radialGradient>
<radialGradient id="paint6_radial_4952_17947" cx="0" cy="0" r="1" gradientUnits="userSpaceOnUse" gradientTransform="translate(4.125 3.375) rotate(48.5763) scale(8.50184 12.3264)">
<stop stop-color="#2E83D2"/>
<stop offset="1" stop-color="#5DA1E7"/>
</radialGradient>
<radialGradient id="paint7_radial_4952_17947" cx="0" cy="0" r="1" gradientUnits="userSpaceOnUse" gradientTransform="translate(2.75 2.25) rotate(48.5763) scale(5.66789 8.21759)">
<stop stop-color="#2E83D2"/>
<stop offset="1" stop-color="#5DA1E7"/>
</radialGradient>
<radialGradient id="paint8_radial_4952_17947" cx="0" cy="0" r="1" gradientUnits="userSpaceOnUse" gradientTransform="translate(2.75 2.25) rotate(48.5763) scale(5.66789 8.21759)">
<stop stop-color="#2E83D2"/>
<stop offset="1" stop-color="#5DA1E7"/>
</radialGradient>
<radialGradient id="paint9_radial_4952_17947" cx="0" cy="0" r="1" gradientUnits="userSpaceOnUse" gradientTransform="translate(2.75 2.25) rotate(48.5763) scale(5.66789 8.21759)">
<stop stop-color="#2E83D2"/>
<stop offset="1" stop-color="#5DA1E7"/>
</radialGradient>
<radialGradient id="paint10_radial_4952_17947" cx="0" cy="0" r="1" gradientUnits="userSpaceOnUse" gradientTransform="translate(1.65 1.35) rotate(48.5763) scale(3.40074 4.93055)">
<stop stop-color="#2E83D2"/>
<stop offset="1" stop-color="#5DA1E7"/>
</radialGradient>
<radialGradient id="paint11_radial_4952_17947" cx="0" cy="0" r="1" gradientUnits="userSpaceOnUse" gradientTransform="translate(1.65 1.35) rotate(48.5763) scale(3.40074 4.93055)">
<stop stop-color="#2E83D2"/>
<stop offset="1" stop-color="#5DA1E7"/>
</radialGradient>
<radialGradient id="paint12_radial_4952_17947" cx="0" cy="0" r="1" gradientUnits="userSpaceOnUse" gradientTransform="translate(1.65 1.35) rotate(48.5763) scale(3.40074 4.93055)">
<stop stop-color="#2E83D2"/>
<stop offset="1" stop-color="#5DA1E7"/>
</radialGradient>
<radialGradient id="paint13_radial_4952_17947" cx="0" cy="0" r="1" gradientUnits="userSpaceOnUse" gradientTransform="translate(1.65 1.35) rotate(48.5763) scale(3.40074 4.93055)">
<stop stop-color="#2E83D2"/>
<stop offset="1" stop-color="#5DA1E7"/>
</radialGradient>
</defs>
</svg>
