<?xml version="1.0" encoding="UTF-8"?>
<svg xmlns="http://www.w3.org/2000/svg" xmlns:xlink="http://www.w3.org/1999/xlink" width="250px" height="148px" viewBox="0 0 249 148" version="1.1">
<defs>
<linearGradient id="linear0" gradientUnits="userSpaceOnUse" x1="59.997299" y1="19.8643" x2="59.997299" y2="56.908298" gradientTransform="matrix(2.305556,0,0,2.3125,0,0)">
<stop offset="0" style="stop-color:rgb(87.058824%,91.372549%,100%);stop-opacity:1;"/>
<stop offset="1" style="stop-color:rgb(69.803922%,72.941176%,80%);stop-opacity:1;"/>
</linearGradient>
<linearGradient id="linear1" gradientUnits="userSpaceOnUse" x1="20.8416" y1="29.147499" x2="20.8416" y2="51.1455" gradientTransform="matrix(2.305556,0,0,2.3125,0,0)">
<stop offset="0" style="stop-color:rgb(87.058824%,91.372549%,100%);stop-opacity:1;"/>
<stop offset="1" style="stop-color:rgb(69.803922%,72.941176%,80%);stop-opacity:1;"/>
</linearGradient>
</defs>
<g id="surface1">
<path style=" stroke:none;fill-rule:nonzero;fill:url(#linear0);" d="M 189.941406 109.105469 C 193.976562 107.1875 196.101562 107.398438 197.800781 107.1875 C 200.347656 105.765625 205.746094 101.476562 206.933594 95.679688 C 208.238281 89.332031 209.867188 79.878906 207.25 70.753906 C 206.878906 69.464844 206.425781 68.183594 205.871094 66.917969 C 202.828125 61.382812 192.914062 49.5 177.621094 46.25 C 120.519531 44.71875 91.5 49.164062 84.125 51.578125 C 81.722656 57.542969 81.585938 74.800781 81.816406 82.683594 C 82.242188 106.121094 79.054688 112.941406 76.929688 118.691406 C 75.230469 123.292969 70.273438 127.855469 68.007812 129.558594 C 79.269531 129.558594 93.5 129.34375 98.171875 128.917969 C 100.460938 130.199219 107.105469 132.457031 115.378906 131.261719 C 122.6875 130.75 146.464844 125.792969 157.441406 123.378906 C 163.3125 122.339844 162.445312 119.609375 164.085938 118.054688 C 164.460938 117.695312 164.96875 117.398438 165.722656 117.199219 C 171.035156 115.710938 183.3125 112.003906 189.941406 109.105469 Z M 189.941406 109.105469 "/>
<path style=" stroke:none;fill-rule:nonzero;fill:rgb(0%,0%,0%);fill-opacity:1;" d="M 149.71875 90.972656 C 149.484375 85.140625 149.25 83.507812 148.320312 77.90625 C 153.4375 77.90625 156.230469 77.4375 160.882812 76.738281 C 160.882812 79.539062 161.347656 86.074219 161.816406 89.105469 C 158.558594 89.574219 153.207031 90.039062 149.71875 90.972656 Z M 149.71875 90.972656 "/>
<path style="fill:none;stroke-width:0.201817;stroke-linecap:butt;stroke-linejoin:miter;stroke:rgb(100%,100%,100%);stroke-opacity:1;stroke-miterlimit:4;" d="M 16.30064 24.405405 C 17.208773 23.900338 18.420181 24.001689 19.833208 24.908784 C 21.244541 25.817568 25.080384 29.954392 25.583584 38.22973 " transform="matrix(2.305556,0,0,2.3125,0,0)"/>
<path style="fill:none;stroke-width:0.201817;stroke-linecap:butt;stroke-linejoin:miter;stroke:rgb(100%,100%,100%);stroke-opacity:1;stroke-miterlimit:4;" d="M 88.248117 47.109797 C 89.054593 47.008446 91.47741 45.695946 94.403426 43.476351 C 95.506401 42.092905 96.189194 40.543919 96.565324 38.935811 C 98.715361 29.761824 94.059488 22.319257 87.339985 16.9375 C 83.709149 14.030405 78.944842 11.228041 75.534262 9.875 C 68.67244 7.150338 63.828502 7.048986 48.591867 7.856419 C 33.353539 8.663851 21.042922 19.662162 17.512048 22.285473 C 17.125753 22.484797 16.79198 22.689189 16.502259 22.900338 M 88.248117 47.109797 C 87.441642 47.211149 86.431852 47.109797 84.513931 48.016892 C 82.597703 48.925676 74.927711 51.347973 73.011483 51.851351 C 72.652297 51.945946 72.411709 52.086149 72.232116 52.255068 M 88.248117 47.109797 C 89.459526 46.4375 92.021273 44.405405 92.587161 41.660473 C 93.205572 38.653716 93.979857 34.175676 92.736258 29.85473 M 26.593373 57.704392 C 31.940512 57.704392 38.702372 57.60473 40.921875 57.402027 C 41.425075 57.695946 42.170557 57.988176 43.182041 58.209459 M 26.593373 57.704392 C 25.785203 58.006757 24.575489 58.410473 22.960843 58.410473 C 22.325489 58.410473 21.441077 58.364865 20.516002 58.209459 M 26.593373 57.704392 C 27.669239 56.896959 30.024285 54.738176 30.830761 52.559122 C 31.84055 49.834459 33.353539 46.60473 33.15192 35.505068 C 33.029932 28.751689 33.206137 24.013514 34.248117 20.771959 M 37.490964 16.231419 C 41.42677 13.709459 44.959337 12.902027 57.673193 12.498311 C 70.387048 12.094595 73.717997 12.094595 74.62613 17.947635 M 37.490964 16.231419 C 41.152297 13.402027 45.121988 11.609797 49.701619 11.035473 C 53.925452 10.505068 59.509789 10.177365 64.131777 10.177365 C 71.093562 10.177365 74.221197 11.420608 78.763554 13.809122 C 82.597703 15.827703 89.96442 23.194257 92.082267 28.037162 C 92.34488 28.636824 92.560053 29.243243 92.736258 29.85473 M 37.490964 16.231419 C 35.950866 17.219595 34.920745 18.685811 34.248117 20.771959 M 34.248117 20.771959 C 37.751883 19.628378 51.538215 17.523649 78.661898 18.25 C 82.192771 19.023649 89.949172 22.427365 92.736258 29.85473 M 20.516002 58.209459 C 19.087726 57.969595 17.561182 57.472973 16.703878 56.493243 C 15.290851 54.880068 14.181099 53.163851 13.374623 52.45777 C 12.566453 51.751689 12.061559 49.430743 12.061559 48.824324 C 12.061559 48.219595 11.427899 47.334459 11.255083 45.695946 C 10.961973 42.927365 10.548569 40.045608 11.456702 37.422297 C 12.305535 34.971284 11.658321 31.467905 13.272967 28.945946 C 14.711408 26.699324 14.148908 24.613176 16.502259 22.900338 M 20.516002 58.209459 C 20.826054 57.570946 21.749435 56.050676 22.960843 55.081081 C 24.473833 53.869932 25.381965 46.099662 26.593373 43.880068 C 27.804782 41.660473 27.19823 33.991554 26.088479 30.964527 C 24.978727 27.9375 24.37387 26.02027 22.455949 25.3125 C 20.538027 24.606419 19.731551 22 16.502259 22.900338 M 43.182041 58.209459 C 44.605233 58.52027 46.557041 58.689189 49.095068 58.511824 C 52.566642 58.27027 63.862387 55.922297 69.075678 54.778716 C 71.866152 54.285473 71.452748 52.993243 72.232116 52.255068 M 43.182041 58.209459 C 44.412086 56.964527 46.816265 55.20777 50.81137 54.576014 C 52.727598 54.273649 54.847139 54.172297 57.976468 53.768581 M 72.232116 52.255068 C 71.920369 51.851351 70.790286 51.125 68.772402 51.449324 C 66.754518 51.771959 65.03991 52.121622 64.433358 52.255068 " transform="matrix(2.305556,0,0,2.3125,0,0)"/>
<path style=" stroke:none;fill-rule:nonzero;fill:url(#linear1);" d="M 59.21875 92.839844 C 59.21875 78.792969 54.21875 67.402344 48.050781 67.402344 C 41.882812 67.402344 36.882812 78.792969 36.882812 92.839844 C 36.882812 106.886719 41.882812 118.273438 48.050781 118.273438 C 54.21875 118.273438 59.21875 106.886719 59.21875 92.839844 Z M 59.21875 92.839844 "/>
<path style="fill:none;stroke-width:0.201817;stroke-linecap:butt;stroke-linejoin:miter;stroke:rgb(100%,100%,100%);stroke-opacity:1;stroke-miterlimit:4;" d="M 21.346197 52.760135 C 18.057605 52.760135 15.392508 46.976351 15.392508 39.842905 C 15.392508 32.709459 17.81363 27.028716 21.851092 27.028716 " transform="matrix(2.305556,0,0,2.3125,0,0)"/>
<path style=" stroke:none;fill-rule:nonzero;fill:rgb(0%,0%,0%);fill-opacity:1;" d="M 135.992188 124.109375 C 135.992188 123.207031 135.265625 122.472656 134.363281 122.472656 C 133.464844 122.472656 132.734375 123.207031 132.734375 124.109375 C 132.734375 125.011719 133.464844 125.742188 134.363281 125.742188 C 135.265625 125.742188 135.992188 125.011719 135.992188 124.109375 Z M 135.992188 124.109375 "/>
<path style=" stroke:none;fill-rule:nonzero;fill:rgb(0%,0%,0%);fill-opacity:1;" d="M 140.179688 123.175781 C 140.179688 122.273438 139.453125 121.542969 138.550781 121.542969 C 137.652344 121.542969 136.921875 122.273438 136.921875 123.175781 C 136.921875 124.078125 137.652344 124.808594 138.550781 124.808594 C 139.453125 124.808594 140.179688 124.078125 140.179688 123.175781 Z M 140.179688 123.175781 "/>
<path style=" stroke:none;fill-rule:nonzero;fill:rgb(0%,0%,0%);fill-opacity:1;" d="M 144.367188 122.242188 C 144.367188 121.339844 143.640625 120.609375 142.738281 120.609375 C 141.839844 120.609375 141.113281 121.339844 141.113281 122.242188 C 141.113281 123.144531 141.839844 123.875 142.738281 123.875 C 143.640625 123.875 144.367188 123.144531 144.367188 122.242188 Z M 144.367188 122.242188 "/>
<path style=" stroke:none;fill-rule:nonzero;fill:rgb(0%,0%,0%);fill-opacity:1;" d="M 148.554688 121.308594 C 148.554688 120.40625 147.828125 119.675781 146.929688 119.675781 C 146.027344 119.675781 145.300781 120.40625 145.300781 121.308594 C 145.300781 122.210938 146.027344 122.941406 146.929688 122.941406 C 147.828125 122.941406 148.554688 122.210938 148.554688 121.308594 Z M 148.554688 121.308594 "/>
<path style=" stroke:none;fill-rule:nonzero;fill:rgb(0%,0%,0%);fill-opacity:1;" d="M 149.734375 48.550781 C 149.664062 47.011719 144.925781 45.96875 139.152344 46.226562 C 133.375 46.484375 128.746094 47.9375 128.816406 49.480469 C 128.882812 51.019531 133.621094 52.0625 139.398438 51.804688 C 145.175781 51.550781 149.800781 50.09375 149.734375 48.550781 Z M 149.734375 48.550781 "/>
</g>
</svg>
