<svg width="375" height="78" viewBox="0 0 375 78" fill="none" xmlns="http://www.w3.org/2000/svg">
<path opacity="0.03" d="M187.5 0.737305C246.978 0.737305 300.807 5.09986 339.75 12.1475C359.227 15.6724 374.945 19.8631 385.775 24.4971C391.193 26.8153 395.347 29.2275 398.134 31.6924C400.924 34.1602 402.263 36.6043 402.263 39C402.263 41.3957 400.924 43.8398 398.134 46.3076C395.347 48.7725 391.193 51.1847 385.775 53.5029C374.945 58.1369 359.227 62.3276 339.75 65.8525C300.807 72.9001 246.978 77.2627 187.5 77.2627C128.022 77.2627 74.1927 72.9001 35.25 65.8525C15.7726 62.3276 0.0549743 58.1369 -10.7754 53.5029C-16.1933 51.1847 -20.3467 48.7725 -23.1338 46.3076C-25.9241 43.8398 -27.2627 41.3957 -27.2627 39C-27.2627 36.6043 -25.9241 34.1602 -23.1338 31.6924C-20.3467 29.2275 -16.1933 26.8153 -10.7754 24.4971C0.0549743 19.8631 15.7726 15.6724 35.25 12.1475C74.1927 5.09986 128.022 0.737305 187.5 0.737305Z" stroke="white" stroke-width="1.47368"/>
</svg>
