<svg width="146" height="146" viewBox="0 0 146 146" fill="none" xmlns="http://www.w3.org/2000/svg">
<g opacity="0.15">
<rect x="18" y="18" width="110" height="110" rx="55" fill="#F86161"/>
</g>
<g opacity="0.05">
<rect width="146" height="146" rx="73" fill="#F86161"/>
</g>
<rect x="33" y="33" width="80" height="80" rx="40" fill="#F86161"/>
<path d="M85.0312 70.8125C85.6353 70.8125 86.125 71.3022 86.125 71.9062C86.125 78.7876 80.8292 84.4309 74.0908 84.9854C74.0915 85.0006 74.0938 85.0158 74.0938 85.0312V89.4062C74.0938 90.0103 73.6041 90.5 73 90.5C72.3959 90.5 71.9062 90.0103 71.9062 89.4062V85.0312C71.9062 85.0159 71.9076 85.0006 71.9082 84.9854C65.1703 84.4304 59.875 78.7873 59.875 71.9062C59.875 71.3022 60.3647 70.8125 60.9688 70.8125C61.5728 70.8125 62.0625 71.3022 62.0625 71.9062C62.0625 77.9469 66.9594 82.8438 73 82.8438C79.0406 82.8438 83.9375 77.9469 83.9375 71.9062C83.9375 71.3022 84.4272 70.8125 85.0312 70.8125ZM73 55.5C76.0203 55.5 78.4688 57.9484 78.4688 60.9688V71.9062C78.4688 74.9266 76.0203 77.375 73 77.375C69.9797 77.375 67.5312 74.9266 67.5312 71.9062V60.9688C67.5312 57.9484 69.9797 55.5 73 55.5Z" fill="#401919"/>
</svg>
