<svg width="132" height="109" viewBox="0 0 132 109" fill="none" xmlns="http://www.w3.org/2000/svg">
<g filter="url(#filter0_i_4952_18138)">
<rect x="6.66829" y="6.98438" width="125" height="86" rx="16" transform="rotate(4.1105 6.66829 6.98438)" fill="white"/>
<rect x="7.13117" y="7.51893" width="124" height="85" rx="15.5" transform="rotate(4.1105 7.13117 7.51893)" stroke="#DDDBE1"/>
<rect x="18.0628" y="15.8242" width="22" height="20" rx="4" transform="rotate(4.1105 18.0628 15.8242)" fill="#7170F6"/>
<path d="M33.9621 24.4745C33.5737 24.785 33.137 25.0105 32.6523 25.1511C32.1675 25.2918 31.689 25.3451 31.2168 25.3112C30.7446 25.2772 30.2852 25.1596 29.8386 24.9583C29.392 24.757 28.999 24.4688 28.6599 24.0935L27.2428 22.5818C27.0539 22.3802 26.8346 22.2235 26.585 22.1115C26.3354 21.9996 26.0756 21.9339 25.8058 21.9146C25.536 21.8952 25.2695 21.923 25.0065 21.9981C24.7434 22.0732 24.504 22.197 24.2881 22.3694L22.6695 23.663L21.5926 22.5141L23.2112 21.2205C23.5997 20.9101 24.0293 20.6872 24.5001 20.5518C24.9709 20.4165 25.4425 20.3658 25.9147 20.3997C26.3869 20.4336 26.8429 20.551 27.2828 20.7518C27.7227 20.9526 28.1127 21.2344 28.4528 21.5972L29.8698 23.1089C30.0713 23.3239 30.2969 23.4874 30.5465 23.5993C30.7961 23.7113 31.0559 23.7769 31.3257 23.7963C31.5955 23.8157 31.8654 23.7881 32.1352 23.7135C32.405 23.6389 32.655 23.5096 32.8852 23.3256L34.5038 22.0321L35.5808 23.181L33.9621 24.4745ZM33.6933 28.2149C33.3049 28.5253 32.8718 28.748 32.3943 28.8829C31.9167 29.0177 31.4418 29.0682 30.9696 29.0343C30.4974 29.0003 30.0346 28.8825 29.5812 28.6807C29.1279 28.4789 28.7311 28.1967 28.3911 27.8338L26.974 26.3221C26.7851 26.1206 26.5658 25.9638 26.3162 25.8519C26.0666 25.74 25.8068 25.6743 25.537 25.6549C25.2672 25.6355 25.0007 25.6634 24.7377 25.7385C24.4746 25.8135 24.2352 25.9373 24.0193 26.1098L22.4007 27.4033L21.3224 26.2731L22.9424 24.9609C23.3309 24.6504 23.7605 24.4275 24.2313 24.2922C24.7021 24.1568 25.1737 24.1061 25.6459 24.1401C26.1181 24.174 26.5741 24.2914 27.014 24.4922C27.4539 24.693 27.8439 24.9748 28.184 25.3376L29.601 26.8493C29.8025 27.0643 30.0281 27.2278 30.2777 27.3397C30.5273 27.4516 30.7871 27.5173 31.0569 27.5367C31.3267 27.5561 31.5966 27.5285 31.8664 27.4539C32.1362 27.3792 32.3862 27.25 32.6164 27.066L34.235 25.7724L35.312 26.9213L33.6933 28.2149ZM33.4043 31.9538C33.0158 32.2642 32.5862 32.4871 32.1154 32.6225C31.6445 32.7578 31.173 32.8086 30.7008 32.7746C30.2286 32.7407 29.7658 32.6228 29.3124 32.4211C28.8591 32.2193 28.4623 31.937 28.1223 31.5742L26.685 30.061C26.4961 29.8595 26.2768 29.7027 26.0272 29.5908C25.7775 29.4789 25.5178 29.4132 25.248 29.3938C24.9781 29.3744 24.7117 29.4023 24.4486 29.4773C24.1856 29.5524 23.9461 29.6762 23.7303 29.8487L22.1117 31.1422L21.0536 30.0135L22.6736 28.7012C23.0621 28.3908 23.4917 28.1679 23.9625 28.0325C24.4333 27.8972 24.9049 27.8465 25.3771 27.8804C25.8493 27.9144 26.3053 28.0317 26.7452 28.2325C27.1851 28.4333 27.5751 28.7151 27.9152 29.0779L29.3322 30.5896C29.5337 30.8046 29.7627 30.9683 30.019 31.0808C30.2754 31.1932 30.5385 31.2591 30.8083 31.2785C31.0782 31.2979 31.3446 31.27 31.6077 31.1949C31.8707 31.1198 32.1174 30.9903 32.3476 30.8063L33.9662 29.5128L35.0229 30.6602L33.4043 31.9538Z" fill="white"/>
<path d="M23.759 46.5093L26.0212 46.6719L25.3187 56.4467L23.0566 56.2841L23.759 46.5093ZM18.616 55.965L16.3539 55.8024L17.0563 46.0276L19.3185 46.1902L18.616 55.965ZM23.5122 52.2885L18.7365 51.9453L18.874 50.0322L23.6496 50.3754L23.5122 52.2885ZM27.5265 59.4406C27.1355 59.4125 26.7535 59.3243 26.3805 59.1758C26.0075 59.0274 25.7077 58.8374 25.481 58.6059L26.3884 57.1131C26.5452 57.2741 26.7277 57.4041 26.9358 57.5033C27.1532 57.6032 27.369 57.6608 27.5831 57.6762C27.8903 57.6982 28.1377 57.6412 28.3253 57.5049C28.5215 57.3787 28.7061 57.1533 28.8791 56.8289L29.3364 55.9354L29.521 55.71L32.6817 49.4244L34.7763 49.5749L30.81 57.3045C30.5245 57.8922 30.2111 58.3469 29.8698 58.6686C29.5379 58.991 29.176 59.2083 28.7843 59.3205C28.4019 59.4334 27.9826 59.4734 27.5265 59.4406ZM28.9928 57.0055L26.2024 48.9588L28.4506 49.1203L30.5963 55.5908L28.9928 57.0055ZM37.4402 57.4301C36.7327 57.3792 36.1064 57.1752 35.5612 56.8178C35.0168 56.4512 34.5977 55.9672 34.3041 55.366C34.0197 54.7654 33.9056 54.0741 33.9618 53.2921C34.0187 52.5008 34.2308 51.8283 34.5981 51.2745C34.9747 50.7214 35.4583 50.307 36.0489 50.0313C36.6396 49.7556 37.2886 49.6432 37.9961 49.694C38.6292 49.7395 39.173 49.919 39.6277 50.2324C40.0824 50.5458 40.4197 50.9958 40.6396 51.5824C40.8594 52.169 40.9376 52.9045 40.874 53.7889C40.8111 54.6639 40.6333 55.381 40.3404 55.9401C40.0483 56.4899 39.6548 56.8874 39.1599 57.1326C38.6744 57.3784 38.1011 57.4776 37.4402 57.4301ZM37.9457 55.6698C38.2994 55.6952 38.6266 55.6345 38.9272 55.4877C39.2279 55.3409 39.473 55.1199 39.6627 54.8247C39.8623 54.5209 39.9775 54.1549 40.0082 53.7266C40.0397 53.2891 39.978 52.9104 39.8232 52.5905C39.6777 52.2712 39.4667 52.0174 39.1902 51.8291C38.9136 51.6408 38.5985 51.5339 38.2447 51.5085C37.8816 51.4824 37.5498 51.5428 37.2492 51.6896C36.9485 51.8365 36.6987 52.0571 36.4998 52.3516C36.3101 52.6468 36.1996 53.0131 36.1682 53.4507C36.1374 53.8789 36.1944 54.2573 36.3392 54.5859C36.494 54.9058 36.7097 55.1599 36.9862 55.3482C37.2628 55.5365 37.5826 55.6437 37.9457 55.6698ZM39.7942 57.487L39.9045 55.9509L40.107 53.7197L40.1269 51.4894L40.441 47.1187L42.6194 47.2752L41.8748 57.6365L39.7942 57.487ZM43.1928 57.7312L43.7326 50.2186L45.8133 50.3681L45.6607 52.4906L45.4117 51.8551C45.6732 51.3406 46.0604 50.966 46.5732 50.7315C47.0867 50.4877 47.6971 50.3912 48.4046 50.442L48.2601 52.4529C48.1677 52.4369 48.0843 52.4262 48.0098 52.4208C47.936 52.4062 47.8572 52.3958 47.7734 52.3898C47.1776 52.347 46.6811 52.4844 46.284 52.8021C45.8969 53.1112 45.6775 53.6241 45.626 54.3409L45.3711 57.8878L43.1928 57.7312ZM51.966 58.474C51.1654 58.4164 50.4653 58.1977 49.8656 57.8177C49.2753 57.4384 48.8193 56.9472 48.4978 56.3439C48.1862 55.732 48.0571 55.0537 48.1106 54.3089C48.1648 53.5549 48.3895 52.902 48.7848 52.3502C49.19 51.7898 49.7115 51.3688 50.3493 51.0871C50.9971 50.7968 51.7213 50.6804 52.522 50.7379C53.3132 50.7948 54.0087 51.0132 54.6084 51.3932C55.2087 51.7638 55.665 52.2504 55.9772 52.8531C56.2895 53.4557 56.4182 54.1386 56.3634 54.902C56.3098 55.6467 56.0851 56.2996 55.6892 56.8607C55.294 57.4125 54.7725 57.8335 54.1247 58.1238C53.4768 58.4141 52.7573 58.5308 51.966 58.474ZM52.0945 56.6866C52.4575 56.7127 52.7894 56.6523 53.09 56.5055C53.3906 56.3587 53.6358 56.1377 53.8254 55.8425C54.0157 55.538 54.1263 55.1717 54.157 54.7434C54.1885 54.3059 54.1315 53.9275 53.986 53.6083C53.8405 53.289 53.6295 53.0352 53.3529 52.8469C53.0764 52.6586 52.7566 52.5514 52.3935 52.5253C52.0304 52.4992 51.6986 52.5596 51.398 52.7064C51.0973 52.8533 50.8475 53.0739 50.6486 53.3684C50.4589 53.6636 50.3484 54.0299 50.3169 54.4675C50.2862 54.8957 50.3432 55.2741 50.488 55.6027C50.6428 55.9226 50.8585 56.1767 51.135 56.365C51.4116 56.5533 51.7314 56.6605 52.0945 56.6866ZM61.7127 59.2306C60.94 59.175 60.2365 59.0028 59.6023 58.714C58.978 58.4165 58.4402 58.0222 57.9889 57.5313C57.5469 57.041 57.213 56.479 56.9872 55.8451C56.7707 55.212 56.6888 54.5277 56.7417 53.7923C56.7946 53.0568 56.9734 52.3913 57.2782 51.7956C57.5923 51.2006 58.0078 50.6924 58.5247 50.271C59.0416 49.8496 59.6345 49.5414 60.3036 49.3461C60.9733 49.1416 61.6991 49.0675 62.4811 49.1237C63.3469 49.1859 64.1138 49.386 64.782 49.7241C65.4594 50.0629 66.0158 50.524 66.4511 51.1073L64.9025 52.3435C64.5755 51.9457 64.2089 51.6433 63.8027 51.4363C63.3972 51.22 62.9477 51.0942 62.4543 51.0587C61.9796 51.0246 61.5413 51.068 61.1396 51.1888C60.7379 51.3097 60.3828 51.4994 60.0741 51.7579C59.7747 52.0171 59.5322 52.3319 59.3465 52.7022C59.1702 53.0732 59.0652 53.4914 59.0318 53.9568C58.999 54.413 59.0434 54.8373 59.1649 55.2297C59.2957 55.6227 59.4904 55.9736 59.749 56.2822C60.0175 56.5822 60.3372 56.8204 60.7082 56.9968C61.0885 57.1739 61.5114 57.2791 61.9768 57.3126C62.4237 57.3447 62.8616 57.306 63.2905 57.1964C63.7295 57.0783 64.1615 56.8613 64.5865 56.5457L65.7538 58.2718C65.1944 58.6339 64.5532 58.8967 63.8303 59.0599C63.1168 59.2239 62.4109 59.2807 61.7127 59.2306ZM63.7082 57.83L63.9721 54.1575L66.0388 54.306L65.7538 58.2718L63.7082 57.83ZM70.0879 59.7763C69.4641 59.7315 68.9143 59.5703 68.4383 59.2928C67.9716 59.016 67.621 58.6212 67.3865 58.1084C67.1526 57.5863 67.0635 56.9389 67.119 56.1662L67.4241 51.9212L69.6025 52.0777L69.3205 56.0016C69.2756 56.6253 69.3729 57.0955 69.6121 57.4121C69.8613 57.7201 70.228 57.8915 70.7121 57.9263C71.0472 57.9504 71.3501 57.902 71.6208 57.7811C71.8922 57.6508 72.1131 57.4421 72.2834 57.1549C72.4544 56.8584 72.5564 56.4821 72.5891 56.026L72.8561 52.3115L75.0345 52.4681L74.4946 59.9807L72.4279 59.8322L72.5764 57.7655L72.9103 58.3931C72.6215 58.8963 72.2207 59.2652 71.7079 59.4997C71.205 59.7256 70.665 59.8178 70.0879 59.7763ZM80.4226 60.4067L80.528 58.9405L80.4114 58.6093L80.6001 55.9841C80.6335 55.5186 80.5153 55.1452 80.2455 54.8638C79.9849 54.583 79.5614 54.4216 78.9749 54.3795C78.5746 54.3507 78.1743 54.3874 77.7739 54.4897C77.3835 54.5832 77.0457 54.7274 76.7603 54.9221L76.0877 53.3438C76.5181 53.0847 77.0275 52.8967 77.6161 52.7799C78.2046 52.6632 78.7968 52.6262 79.3926 52.669C80.5376 52.7513 81.4073 53.0851 82.0015 53.6706C82.5957 54.256 82.8517 55.1213 82.7694 56.2663L82.4613 60.5532L80.4226 60.4067ZM78.1245 60.3539C77.538 60.3117 77.0423 60.1778 76.6374 59.9522C76.2332 59.7173 75.9318 59.4196 75.7331 59.0591C75.5345 58.6986 75.4505 58.3043 75.4813 57.876C75.5134 57.4292 75.6486 57.0459 75.8868 56.7261C76.1343 56.4071 76.5021 56.1715 76.9902 56.0194C77.4791 55.858 78.1052 55.8048 78.8685 55.8596L80.8654 56.0031L80.7741 57.2739L79.0146 57.1474C78.5026 57.1106 78.1428 57.169 77.9353 57.3225C77.737 57.4767 77.6289 57.6795 77.6108 57.9308C77.5908 58.2101 77.6818 58.4412 77.8838 58.6242C78.0959 58.7985 78.3928 58.8994 78.7744 58.9268C79.1375 58.9529 79.4693 58.8925 79.77 58.7457C80.0713 58.5895 80.2991 58.3486 80.4536 58.0228L80.7164 59.0523C80.5234 59.525 80.2084 59.872 79.7714 60.0932C79.3344 60.3145 78.7854 60.4014 78.1245 60.3539ZM83.7347 60.6448L84.2746 53.1321L86.3552 53.2817L86.2027 55.4042L85.9536 54.7687C86.2151 54.2541 86.6023 53.8796 87.1151 53.6451C87.6286 53.4012 88.2391 53.3047 88.9466 53.3556L88.8021 55.3664C88.7096 55.3504 88.6262 55.3397 88.5517 55.3344C88.4779 55.3197 88.3991 55.3094 88.3153 55.3034C87.7195 55.2605 87.2231 55.398 86.826 55.7157C86.4388 56.0247 86.2195 56.5376 86.168 57.2545L85.9131 60.8013L83.7347 60.6448ZM92.1588 61.3624C91.4513 61.3116 90.825 61.1075 90.2799 60.7502C89.7354 60.3836 89.3164 59.8996 89.0227 59.2983C88.7384 58.6977 88.6243 58.0065 88.6805 57.2245C88.7374 56.4332 88.9494 55.7607 89.3167 55.2069C89.6934 54.6538 90.177 54.2394 90.7676 53.9637C91.3582 53.688 92.0073 53.5756 92.7148 53.6264C93.3478 53.6719 93.8917 53.8513 94.3464 54.1647C94.8011 54.4781 95.1384 54.9281 95.3582 55.5147C95.5781 56.1013 95.6562 56.8368 95.5927 57.7212C95.5298 58.5963 95.3519 59.3134 95.0591 59.8725C94.7669 60.4223 94.3734 60.8198 93.8786 61.065C93.393 61.3108 92.8198 61.4099 92.1588 61.3624ZM92.6643 59.6021C93.0181 59.6276 93.3452 59.5669 93.6459 59.42C93.9465 59.2732 94.1916 59.0522 94.3813 58.7571C94.5809 58.4532 94.6961 58.0872 94.7269 57.659C94.7583 57.2215 94.6967 56.8427 94.5419 56.5228C94.3964 56.2036 94.1854 55.9498 93.9088 55.7615C93.6323 55.5732 93.3171 55.4663 92.9634 55.4409C92.6003 55.4148 92.2684 55.4752 91.9678 55.622C91.6672 55.7688 91.4174 55.9895 91.2184 56.284C91.0288 56.5791 90.9182 56.9455 90.8868 57.383C90.856 57.8113 90.913 58.1897 91.0579 58.5182C91.2127 58.8381 91.4283 59.0922 91.7049 59.2806C91.9814 59.4689 92.3012 59.5761 92.6643 59.6021ZM94.5128 61.4193L94.6232 59.8833L94.8256 57.6521L94.8456 55.4217L95.1597 51.051L97.338 51.2076L96.5934 61.5689L94.5128 61.4193ZM103.49 58.0642L103.906 52.2691L105.191 52.3614L107.556 56.5598L106.886 56.5116L109.771 52.6906L111.042 52.7819L110.653 58.579L109.187 58.4736L109.438 54.7861L109.689 54.8042L107.457 57.7457L106.759 57.6955L104.9 54.46L105.221 54.483L104.956 58.1695L103.49 58.0642ZM99.2168 57.7571L99.5469 53.1629L97.578 53.0214L97.6643 51.8205L103.18 52.2169L103.094 53.4178L101.111 53.2753L100.781 57.8695L99.2168 57.7571ZM15.3503 69.7664L16.0528 59.9916L20.2839 60.2957C21.159 60.3586 21.9027 60.5571 22.5149 60.8911C23.1279 61.2159 23.5875 61.656 23.8939 62.2114C24.2002 62.7668 24.3269 63.4122 24.274 64.1476C24.2219 64.8737 24.0045 65.4897 23.6219 65.9956C23.2393 66.5015 22.7211 66.876 22.0674 67.1191C21.4143 67.3529 20.6502 67.4383 19.7751 67.3754L16.8008 67.1617L17.8794 66.2146L17.6125 69.929L15.3503 69.7664ZM17.8614 66.4659L16.9332 65.3184L19.7819 65.5232C20.4801 65.5733 21.0121 65.4618 21.378 65.1887C21.7438 64.9156 21.9458 64.5137 21.984 63.983C22.0228 63.4431 21.8806 63.0118 21.5576 62.6891C21.2346 62.3665 20.7239 62.1801 20.0257 62.1299L17.1771 61.9252L18.2598 60.9222L17.8614 66.4659ZM24.5761 70.4294L25.116 62.9168L27.1966 63.0663L27.0441 65.1888L26.795 64.5534C27.0565 64.0388 27.4437 63.6642 27.9565 63.4297C28.47 63.1859 29.0804 63.0894 29.788 63.1403L29.6434 65.1511C29.551 65.1351 29.4676 65.1244 29.3931 65.119C29.3193 65.1044 29.2405 65.094 29.1567 65.088C28.5609 65.0452 28.0645 65.1826 27.6673 65.5003C27.2802 65.8094 27.0609 66.3223 27.0093 67.0391L26.7544 70.586L24.5761 70.4294ZM33.5029 71.1832C32.6465 71.1217 31.9044 70.8999 31.2769 70.518C30.6586 70.1367 30.1933 69.6447 29.8811 69.0421C29.5695 68.4302 29.4404 67.7519 29.4939 67.0071C29.5481 66.2531 29.7682 65.5998 30.1541 65.0474C30.55 64.4863 31.0622 64.0646 31.6907 63.7823C32.3199 63.4907 33.0162 63.3723 33.7796 63.4271C34.515 63.48 35.1646 63.6857 35.7283 64.0444C36.3021 64.3944 36.7401 64.8751 37.0424 65.4863C37.3453 66.0882 37.4677 66.7941 37.4095 67.6041C37.4035 67.6878 37.3918 67.7853 37.3745 67.8963C37.3578 67.998 37.3415 68.0951 37.3255 68.1875L31.2232 67.749L31.3145 66.4783L36.2717 66.8345L35.4068 67.1513C35.4349 66.7603 35.3802 66.4149 35.2427 66.1149C35.1052 65.8149 34.9025 65.5758 34.6345 65.3975C34.3673 65.2098 34.0475 65.1026 33.6751 65.0759C33.3028 65.0491 32.9663 65.1091 32.6656 65.256C32.375 65.3942 32.1398 65.6065 31.9601 65.893C31.7811 66.1703 31.6773 66.509 31.6485 66.9093L31.6244 67.2445C31.595 67.6541 31.6573 68.0235 31.8115 68.3527C31.9756 68.6733 32.2145 68.9291 32.5283 69.1201C32.8521 69.3024 33.2374 69.4096 33.6842 69.4418C34.0845 69.4705 34.438 69.4351 34.7446 69.3355C35.0605 69.2365 35.3528 69.0751 35.6215 68.8511L36.6902 70.1912C36.3177 70.5574 35.8631 70.8288 35.3263 71.0055C34.7903 71.1728 34.1825 71.2321 33.5029 71.1832ZM37.9705 68.3181L38.096 66.5726L42.0478 66.8566L41.9223 68.6021L37.9705 68.3181ZM45.8943 72.1299C45.1124 72.0737 44.3703 71.9174 43.6682 71.6611C42.9668 71.3955 42.4093 71.0794 41.9959 70.7128L42.8863 69.0644C43.2838 69.3924 43.7595 69.6746 44.3133 69.9109C44.8771 70.1385 45.4523 70.2734 46.0388 70.3156C46.4856 70.3477 46.847 70.3316 47.123 70.2672C47.409 70.1942 47.6228 70.0832 47.7645 69.9343C47.9062 69.7854 47.9844 69.6086 47.9992 69.4038C48.0179 69.1431 47.9302 68.9309 47.7361 68.7673C47.5427 68.5943 47.2817 68.4492 46.9533 68.332C46.6255 68.2055 46.2598 68.0857 45.8562 67.9725C45.4626 67.8506 45.0657 67.7098 44.6655 67.55C44.2745 67.3909 43.9188 67.1969 43.5984 66.968C43.278 66.7392 43.0228 66.4494 42.8328 66.0989C42.652 65.7491 42.5804 65.3135 42.6179 64.7922C42.658 64.2336 42.8434 63.7369 43.1741 63.3022C43.5148 62.8588 43.9974 62.5239 44.6219 62.2974C45.2563 62.0623 46.0344 61.9778 46.956 62.0441C47.5704 62.0882 48.1702 62.2062 48.7553 62.3979C49.341 62.5804 49.8516 62.8323 50.2871 63.1537L49.4654 64.8211C49.028 64.5276 48.5856 64.304 48.1381 64.1502C47.6913 63.9871 47.2491 63.8898 46.8116 63.8584C46.3741 63.8269 46.012 63.8524 45.7253 63.9347C45.4387 64.017 45.2288 64.1376 45.0958 64.2965C44.9634 64.4461 44.8895 64.6279 44.8741 64.842C44.856 65.0934 44.9437 65.3055 45.1372 65.4785C45.3313 65.6422 45.5925 65.7826 45.921 65.8998C46.2494 66.017 46.6105 66.1365 47.0041 66.2583C47.407 66.3809 47.8042 66.517 48.1959 66.6668C48.5968 66.8173 48.9574 67.0069 49.2778 67.2358C49.5983 67.4647 49.8488 67.7541 50.0296 68.1039C50.2196 68.4545 50.2962 68.8857 50.2594 69.3978C50.2199 69.947 50.0302 70.4387 49.6902 70.8727C49.3502 71.3068 48.863 71.6414 48.2285 71.8766C47.6033 72.1123 46.8253 72.1968 45.8943 72.1299ZM52.3288 72.4239L50.1597 64.7166L52.2124 64.8641L53.996 71.491L53.0185 71.4207L55.8291 65.124L57.6723 65.2565L59.4838 71.8854L58.5064 71.8151L61.289 65.5164L63.216 65.6549L59.9532 72.9718L57.8446 72.8203L56.2462 67.1331L56.8885 67.1792L54.4234 72.5744L52.3288 72.4239ZM66.5065 73.555C65.65 73.4935 64.908 73.2717 64.2804 72.8898C63.6622 72.5085 63.1969 72.0165 62.8846 71.4139C62.573 70.802 62.444 70.1237 62.4975 69.3789C62.5517 68.6249 62.7717 67.9716 63.1577 67.4192C63.5536 66.8581 64.0658 66.4364 64.6943 66.1541C65.3235 65.8625 66.0198 65.7441 66.7831 65.7989C67.5186 65.8518 68.1682 66.0575 68.7319 66.4162C69.3056 66.7662 69.7436 67.2469 70.0459 67.8581C70.3489 68.46 70.4713 69.1659 70.4131 69.9759C70.407 70.0596 70.3954 70.1571 70.378 70.2681C70.3614 70.3698 70.345 70.4669 70.329 70.5593L64.2268 70.1208L64.3181 68.8501L69.2753 69.2063L68.4104 69.5231C68.4385 69.1321 68.3838 68.7867 68.2462 68.4867C68.1087 68.1867 67.906 67.9476 67.6381 67.7693C67.3709 67.5816 67.0511 67.4744 66.6787 67.4477C66.3063 67.4209 65.9698 67.4809 65.6692 67.6278C65.3785 67.766 65.1434 67.9783 64.9637 68.2648C64.7847 68.5421 64.6808 68.8808 64.652 69.2811L64.628 69.6163C64.5985 70.0259 64.6609 70.3953 64.815 70.7245C64.9791 71.0451 65.2181 71.3009 65.5318 71.4919C65.8556 71.6742 66.2409 71.7814 66.6878 71.8136C67.0881 71.8423 67.4415 71.8069 67.7481 71.7073C68.064 71.6083 68.3563 71.4469 68.6251 71.2229L69.6938 72.563C69.3212 72.9292 68.8666 73.2006 68.3299 73.3773C67.7939 73.5446 67.186 73.6039 66.5065 73.555ZM74.6176 74.1379C73.7611 74.0764 73.0191 73.8546 72.3915 73.4727C71.7733 73.0914 71.308 72.5994 70.9957 71.9968C70.6841 71.3849 70.5551 70.7066 70.6086 69.9618C70.6628 69.2078 70.8829 68.5545 71.2688 68.0021C71.6647 67.4411 72.1769 67.0194 72.8054 66.737C73.4346 66.4454 74.1309 66.327 74.8942 66.3818C75.6297 66.4347 76.2793 66.6404 76.843 66.9991C77.4167 67.3491 77.8547 67.8298 78.157 68.441C78.46 69.0429 78.5824 69.7489 78.5242 70.5588C78.5182 70.6426 78.5065 70.74 78.4891 70.851C78.4725 70.9527 78.4561 71.0498 78.4401 71.1422L72.3379 70.7037L72.4292 69.433L77.3864 69.7892L76.5215 70.106C76.5496 69.7151 76.4949 69.3696 76.3574 69.0696C76.2198 68.7697 76.0171 68.5305 75.7492 68.3522C75.482 68.1645 75.1622 68.0573 74.7898 68.0306C74.4174 68.0038 74.0809 68.0639 73.7803 68.2107C73.4896 68.3489 73.2545 68.5612 73.0748 68.8478C72.8958 69.125 72.7919 69.4637 72.7632 69.864L72.7391 70.1992C72.7096 70.6088 72.772 70.9782 72.9261 71.3074C73.0902 71.628 73.3292 71.8838 73.643 72.0748C73.9667 72.2571 74.352 72.3643 74.7989 72.3965C75.1992 72.4252 75.5526 72.3898 75.8592 72.2902C76.1751 72.1913 76.4674 72.0298 76.7362 71.8058L77.8049 73.1459C77.4323 73.5121 76.9777 73.7835 76.441 73.9602C75.905 74.1275 75.2972 74.1868 74.6176 74.1379ZM83.4409 74.772C82.8078 74.7265 82.264 74.5471 81.8092 74.2337C81.3545 73.9203 81.0126 73.47 80.7834 72.8827C80.5643 72.2868 80.4861 71.5513 80.549 70.6762C80.6126 69.7918 80.7904 69.0747 81.0826 68.5249C81.3747 67.9751 81.7682 67.5776 82.2631 67.3325C82.7579 67.0873 83.3358 66.9885 83.9968 67.036C84.7043 67.0868 85.3256 67.2952 85.8608 67.6612C86.4059 68.0185 86.8206 68.4975 87.105 69.0981C87.3986 69.6993 87.5174 70.391 87.4612 71.173C87.4043 71.9642 87.1876 72.6364 86.811 73.1895C86.4437 73.7433 85.9647 74.158 85.3741 74.4337C84.7928 74.7101 84.1484 74.8229 83.4409 74.772ZM78.8137 77.0502L79.5482 66.8286L81.6289 66.9781L81.5185 68.5141L81.316 70.7454L81.2961 72.9757L80.992 77.2068L78.8137 77.0502ZM83.1923 72.9575C83.5553 72.9836 83.8825 72.9229 84.1739 72.7754C84.4745 72.6286 84.7196 72.4076 84.9093 72.1124C85.1089 71.8086 85.2241 71.4426 85.2549 71.0144C85.2863 70.5769 85.2246 70.1981 85.0698 69.8782C84.9243 69.559 84.7133 69.3052 84.4368 69.1169C84.1695 68.9292 83.8544 68.8224 83.4913 68.7963C83.1283 68.7702 82.7964 68.8306 82.4958 68.9774C82.1952 69.1242 81.95 69.3452 81.7604 69.6404C81.5707 69.9355 81.4602 70.3019 81.4287 70.7394C81.398 71.1677 81.455 71.5461 81.5998 71.8746C81.7453 72.1939 81.9563 72.4476 82.2329 72.6359C82.5094 72.8243 82.8292 72.9315 83.1923 72.9575Z" fill="black"/>
<path d="M16.2622 83.9474C15.7302 83.9092 15.2273 83.7929 14.7533 83.5984C14.2799 83.3973 13.9128 83.157 13.6522 82.8776L14.0771 82.1261C14.3264 82.378 14.6516 82.5952 15.0529 82.7777C15.4542 82.9603 15.8776 83.0676 16.3231 83.0996C16.7287 83.1288 17.0612 83.1059 17.3206 83.0309C17.58 82.956 17.7752 82.8431 17.9064 82.6921C18.038 82.5344 18.1113 82.3525 18.1261 82.1464C18.1433 81.907 18.0773 81.7085 17.9283 81.5507C17.7858 81.3934 17.5914 81.2625 17.3449 81.1579C17.1056 81.0471 16.8387 80.9477 16.5442 80.8597C16.2498 80.7717 15.9527 80.6735 15.6531 80.5651C15.3605 80.4505 15.0929 80.3143 14.8503 80.1565C14.6143 79.9992 14.4282 79.7986 14.292 79.5549C14.1562 79.3045 14.1017 78.9932 14.1285 78.6208C14.1543 78.2617 14.2711 77.9393 14.4788 77.6534C14.6936 77.3614 15.0036 77.1397 15.4088 76.9884C15.8212 76.8309 16.3332 76.7741 16.945 76.818C17.3506 76.8472 17.7491 76.9293 18.1404 77.0644C18.5317 77.1994 18.8665 77.3772 19.1447 77.5977L18.7583 78.372C18.4734 78.151 18.1678 77.9854 17.8415 77.875C17.5157 77.758 17.1966 77.6883 16.884 77.6659C16.4917 77.6377 16.1656 77.6644 15.9058 77.7459C15.6459 77.8275 15.4502 77.9471 15.3186 78.1048C15.1936 78.2629 15.1237 78.445 15.1089 78.6511C15.0912 78.8972 15.1535 79.0988 15.296 79.2561C15.445 79.4139 15.6395 79.5448 15.8793 79.6489C16.1258 79.7535 16.396 79.8532 16.69 79.9478C16.9844 80.0358 17.2782 80.1338 17.5712 80.2417C17.8708 80.3502 18.1387 80.483 18.3747 80.6404C18.6173 80.7982 18.8067 80.9989 18.943 81.2426C19.0792 81.4864 19.1341 81.7911 19.1079 82.1568C19.0825 82.5092 18.9625 82.8315 18.7476 83.1235C18.5333 83.4088 18.2166 83.63 17.7976 83.7871C17.3858 83.938 16.8739 83.9914 16.2622 83.9474ZM22.9872 84.4107C22.5483 84.3791 22.1532 84.2505 21.8018 84.0247C21.4576 83.7928 21.1901 83.4694 20.9993 83.0547C20.8152 82.6404 20.7446 82.1341 20.7876 81.5356C20.8306 80.9372 20.9696 80.4459 21.2044 80.0617C21.4458 79.678 21.7533 79.3993 22.1267 79.2257C22.5067 79.0525 22.9228 78.9821 23.375 79.0146C23.8937 79.0519 24.3444 79.1979 24.7271 79.4526C25.1098 79.7074 25.403 80.0459 25.6065 80.4683C25.8106 80.884 25.8933 81.3611 25.8546 81.8998C25.8159 82.4384 25.6656 82.9021 25.4037 83.291C25.1418 83.6799 24.8033 83.9731 24.388 84.1705C23.9728 84.3679 23.5059 84.448 22.9872 84.4107ZM20.0497 86.0844L20.5686 78.863L21.4863 78.929L21.3838 80.3553L21.2358 81.5779L21.2473 82.8119L21.0072 86.1532L20.0497 86.0844ZM22.9676 83.5671C23.3068 83.5915 23.6148 83.5368 23.8918 83.4029C24.1754 83.2696 24.4037 83.0688 24.5767 82.8005C24.7569 82.526 24.8603 82.2026 24.8871 81.8302C24.9143 81.4512 24.8579 81.1196 24.7179 80.8355C24.5851 80.5453 24.3878 80.3139 24.1262 80.1413C23.8712 79.9693 23.5741 79.8711 23.235 79.8467C22.9025 79.8228 22.5945 79.8775 22.3109 80.0109C22.0339 80.1447 21.8056 80.3455 21.6259 80.6133C21.4534 80.875 21.3535 81.1953 21.3263 81.5743C21.2995 81.9467 21.3523 82.2813 21.4847 82.5783C21.6242 82.869 21.8215 83.1004 22.0765 83.2725C22.3381 83.445 22.6352 83.5432 22.9676 83.5671ZM29.2375 84.8599C28.6723 84.8192 28.1819 84.667 27.7664 84.4032C27.3576 84.1399 27.0481 83.7969 26.8378 83.374C26.6342 82.9517 26.5513 82.4779 26.5891 81.9525C26.6268 81.4272 26.7733 80.9699 27.0286 80.5805C27.2904 80.1916 27.629 79.8985 28.0442 79.7011C28.4666 79.4975 28.9304 79.4138 29.4358 79.4502C29.9478 79.487 30.3918 79.6325 30.7679 79.8868C31.144 80.141 31.4269 80.4822 31.6167 80.9102C31.8137 81.3321 31.8925 81.8157 31.8534 82.3609C31.8505 82.4008 31.8438 82.4471 31.8333 82.4999C31.8295 82.5531 31.8226 82.6027 31.8126 82.6488L27.3142 82.3255L27.3637 81.6373L31.3634 81.9247L30.9572 82.1361C30.9882 81.7975 30.9401 81.4899 30.8129 81.2134C30.6858 80.9369 30.4978 80.7162 30.2489 80.5513C30.0073 80.3802 29.7168 80.2824 29.3777 80.2581C29.0452 80.2342 28.7438 80.2894 28.4735 80.4237C28.2037 80.5513 27.9858 80.7462 27.8199 81.0083C27.6545 81.2638 27.5594 81.5644 27.5346 81.9102L27.5231 82.0698C27.4978 82.4222 27.5549 82.7438 27.6944 83.0346C27.841 83.3191 28.0551 83.5484 28.3367 83.7224C28.6183 83.8963 28.9486 83.9969 29.3276 84.0242C29.6402 84.0466 29.9266 84.0137 30.1869 83.9255C30.4539 83.8378 30.6914 83.6944 30.8996 83.4955L31.3838 84.1519C31.1243 84.414 30.8098 84.6052 30.4402 84.7257C30.0773 84.8467 29.6764 84.8914 29.2375 84.8599ZM36.0309 85.2879L36.1111 84.1708L36.0763 83.9577L36.2132 82.0527C36.2424 81.647 36.1451 81.3259 35.9215 81.0893C35.705 80.8465 35.3607 80.7081 34.8886 80.6742C34.5761 80.6517 34.2664 80.6829 33.9595 80.7678C33.6531 80.846 33.3907 80.9642 33.1721 81.1223L32.8247 80.3755C33.1131 80.1756 33.4509 80.0328 33.8381 79.947C34.2323 79.855 34.6389 79.8241 35.0578 79.8542C35.7826 79.9063 36.3285 80.1226 36.6955 80.5032C37.0625 80.8839 37.22 81.4366 37.1679 82.1614L36.9385 85.3531L36.0309 85.2879ZM34.291 85.223C33.8987 85.1948 33.5577 85.1035 33.268 84.949C32.985 84.795 32.7721 84.5959 32.6292 84.3517C32.4868 84.1008 32.4264 83.8258 32.4479 83.5266C32.4684 83.2406 32.5536 82.9861 32.7033 82.7629C32.8597 82.5402 33.0958 82.37 33.4117 82.2524C33.7343 82.1352 34.1582 82.0955 34.6835 82.1332L36.3592 82.2536L36.3097 82.9419L34.674 82.8243C34.1952 82.7899 33.867 82.8465 33.6892 82.9942C33.5115 83.1418 33.4146 83.3287 33.3983 83.5547C33.3797 83.8141 33.4677 84.0309 33.6624 84.2054C33.8575 84.3731 34.1379 84.4701 34.5037 84.4964C34.8627 84.5222 35.181 84.4649 35.4584 84.3244C35.7425 84.1844 35.9554 83.9658 36.0971 83.6685L36.2393 84.3404C36.0905 84.6439 35.8498 84.8772 35.5173 85.0405C35.1852 85.1971 34.7764 85.2579 34.291 85.223ZM39.4805 84.2525L39.5886 83.0271L42.8308 80.4629L43.9878 80.5461L41.4889 82.6724L40.9387 83.074L39.4805 84.2525ZM38.6108 85.4733L39.1426 78.0724L40.1002 78.1412L39.5683 85.5421L38.6108 85.4733ZM42.6503 85.7636L40.7606 83.0412L41.4342 82.3176L43.8273 85.8482L42.6503 85.7636ZM46.7926 86.1215C46.2274 86.0808 45.7371 85.9286 45.3216 85.6648C44.9127 85.4015 44.6032 85.0585 44.3929 84.6356C44.1894 84.2133 44.1064 83.7395 44.1442 83.2141C44.182 82.6888 44.3284 82.2315 44.5837 81.8421C44.8456 81.4532 45.1841 81.1601 45.5993 80.9627C46.0217 80.7591 46.4855 80.6754 46.9909 80.7118C47.5029 80.7486 47.947 80.8941 48.323 81.1484C48.6991 81.4026 48.982 81.7438 49.1718 82.1718C49.3688 82.5937 49.4477 83.0773 49.4085 83.6225C49.4056 83.6624 49.3989 83.7087 49.3885 83.7615C49.3846 83.8147 49.3777 83.8643 49.3677 83.9104L44.8693 83.5871L44.9188 82.8989L48.9185 83.1863L48.5123 83.3977C48.5433 83.0591 48.4952 82.7515 48.368 82.475C48.2409 82.1985 48.0529 81.9778 47.8041 81.8129C47.5624 81.6418 47.272 81.544 46.9328 81.5197C46.6004 81.4958 46.299 81.551 46.0286 81.6853C45.7588 81.8129 45.5409 82.0078 45.375 82.2699C45.2096 82.5254 45.1145 82.826 45.0897 83.1718L45.0782 83.3314C45.0529 83.6838 45.11 84.0054 45.2495 84.2962C45.3961 84.5807 45.6102 84.81 45.8918 84.984C46.1734 85.1579 46.5037 85.2585 46.8828 85.2858C47.1953 85.3082 47.4817 85.2753 47.742 85.1871C48.009 85.0994 48.2466 84.956 48.4547 84.7571L48.9389 85.4135C48.6794 85.6756 48.3649 85.8668 47.9953 85.9873C47.6324 86.1083 47.2315 86.153 46.7926 86.1215ZM50.4505 86.3242L50.8304 81.0378L51.7481 81.1038L51.6449 82.5401L51.5809 82.1745C51.7535 81.8193 52.0196 81.5577 52.3792 81.3897C52.7388 81.2217 53.1713 81.1559 53.6767 81.1922L53.61 82.1198C53.5706 82.1103 53.531 82.1041 53.4911 82.1013C53.4578 82.0989 53.4246 82.0965 53.3913 82.0941C52.8793 82.0573 52.4627 82.1811 52.1415 82.4655C51.8203 82.7498 51.6389 83.1813 51.5973 83.7598L51.4081 86.393L50.4505 86.3242ZM64.0171 81.9353C64.4427 81.9659 64.8124 82.0761 65.1263 82.2657C65.4402 82.4554 65.6747 82.7262 65.8299 83.0782C65.9917 83.4307 66.054 83.8663 66.0167 84.385L65.7981 87.4271L64.8405 87.3583L65.0513 84.4259C65.0881 83.9139 64.9961 83.5196 64.7754 83.2431C64.5546 82.9665 64.2281 82.8127 63.7959 82.7817C63.4767 82.7587 63.1927 82.8052 62.9437 82.9209C62.6948 83.0367 62.4945 83.2195 62.3429 83.4693C62.1979 83.7195 62.1116 84.0375 62.0838 84.4232L61.8882 87.1461L60.9306 87.0773L61.1414 84.1449C61.1782 83.6329 61.0862 83.2386 60.8654 82.9621C60.6513 82.686 60.3249 82.5322 59.886 82.5007C59.5735 82.4782 59.2927 82.5249 59.0438 82.6407C58.7949 82.7565 58.5946 82.9392 58.4429 83.189C58.2913 83.4388 58.2016 83.7565 58.1739 84.1422L57.9782 86.8652L57.0207 86.7963L57.4006 81.51L58.3182 81.5759L58.2172 82.9823L58.0934 82.6125C58.2845 82.2786 58.5598 82.0277 58.9194 81.8598C59.2791 81.6918 59.6883 81.6243 60.1471 81.6572C60.6525 81.6935 61.0789 81.8512 61.4265 82.1302C61.7746 82.4025 61.9869 82.7954 62.0637 83.3089L61.6861 83.1213C61.8749 82.7272 62.1776 82.4214 62.5942 82.204C63.0109 81.9867 63.4852 81.8971 64.0171 81.9353ZM69.8098 87.7756C69.2446 87.735 68.7543 87.5828 68.3388 87.319C67.9299 87.0557 67.6204 86.7126 67.4101 86.2898C67.2066 85.8674 67.1236 85.3936 67.1614 84.8683C67.1992 84.343 67.3456 83.8856 67.6009 83.4962C67.8628 83.1074 68.2013 82.8142 68.6165 82.6168C69.0389 82.4132 69.5027 82.3296 70.0081 82.3659C70.5201 82.4027 70.9642 82.5482 71.3402 82.8025C71.7163 83.0568 71.9992 83.3979 72.189 83.826C72.386 84.2478 72.4649 84.7314 72.4257 85.2767C72.4228 85.3166 72.4161 85.3629 72.4057 85.4156C72.4018 85.4688 72.3949 85.5184 72.3849 85.5645L67.8865 85.2412L67.936 84.553L71.9357 84.8404L71.5295 85.0519C71.5605 84.7132 71.5124 84.4056 71.3852 84.1291C71.2581 83.8526 71.0701 83.6319 70.8213 83.467C70.5796 83.2959 70.2892 83.1982 69.95 83.1738C69.6176 83.1499 69.3162 83.2051 69.0458 83.3394C68.776 83.4671 68.5581 83.662 68.3922 83.9241C68.2268 84.1795 68.1317 84.4802 68.1069 84.8259L68.0954 84.9855C68.0701 85.338 68.1272 85.6595 68.2667 85.9503C68.4133 86.2349 68.6274 86.4641 68.909 86.6381C69.1906 86.8121 69.5209 86.9127 69.9 86.9399C70.2125 86.9624 70.4989 86.9295 70.7592 86.8412C71.0262 86.7535 71.2638 86.6101 71.4719 86.4112L71.9561 87.0676C71.6966 87.3297 71.3821 87.521 71.0125 87.6415C70.6496 87.7624 70.2487 87.8071 69.8098 87.7756ZM74.9795 88.1471C74.5407 88.1156 74.126 88.0256 73.7357 87.8773C73.352 87.7294 73.0533 87.5609 72.8396 87.3717L73.2931 86.6424C73.5081 86.8115 73.7781 86.9613 74.1029 87.0916C74.4278 87.2219 74.7631 87.2994 75.1088 87.3243C75.5544 87.3563 75.8781 87.3161 76.08 87.2036C76.2886 87.0916 76.401 86.9225 76.4172 86.6964C76.4292 86.5302 76.3786 86.3962 76.2656 86.2945C76.1526 86.1928 75.9981 86.1116 75.8019 86.0507C75.6124 85.9903 75.3992 85.9348 75.1622 85.8844C74.9257 85.8273 74.6896 85.7635 74.4541 85.6931C74.219 85.6161 74.0053 85.5205 73.813 85.4064C73.6211 85.2857 73.4718 85.1313 73.365 84.9431C73.2587 84.7484 73.2166 84.498 73.2385 84.1921C73.2615 83.873 73.3713 83.6001 73.5681 83.3737C73.7648 83.1472 74.0306 82.9825 74.3655 82.8796C74.7076 82.7705 75.1047 82.7322 75.5568 82.7647C75.9026 82.7895 76.2486 82.8578 76.5948 82.9696C76.9482 83.0752 77.2324 83.2126 77.4475 83.3818L76.984 84.1104C76.7561 83.9336 76.5147 83.806 76.2596 83.7275C76.0046 83.649 75.7474 83.6005 75.4881 83.5818C75.0692 83.5517 74.7516 83.5991 74.5354 83.7239C74.3198 83.8421 74.2043 84.0076 74.189 84.2203C74.1761 84.3999 74.2259 84.5438 74.3384 84.6522C74.4581 84.7543 74.6124 84.839 74.8014 84.906C74.9971 84.9735 75.2131 85.0359 75.4497 85.093C75.6867 85.1434 75.9227 85.2072 76.1578 85.2842C76.3933 85.3546 76.604 85.4466 76.7896 85.5602C76.9819 85.6743 77.1315 85.8254 77.2383 86.0135C77.3517 86.2022 77.3977 86.4461 77.3762 86.7453C77.3532 87.0645 77.2403 87.3337 77.0374 87.5531C76.8345 87.7724 76.5587 87.9364 76.21 88.0451C75.8618 88.147 75.4516 88.181 74.9795 88.1471ZM81.5711 83.1969C82.0033 83.2279 82.3764 83.3383 82.6902 83.5279C83.0108 83.7181 83.2519 83.9894 83.4138 84.3419C83.5756 84.6944 83.6378 85.13 83.6006 85.6486L83.3819 88.6908L82.4244 88.622L82.6352 85.6895C82.6719 85.1775 82.5733 84.7828 82.3393 84.5053C82.1119 84.2283 81.7721 84.0735 81.3199 84.041C80.9808 84.0167 80.6801 84.0619 80.4179 84.1767C80.1556 84.2916 79.9454 84.4736 79.7871 84.7229C79.6355 84.9727 79.5458 85.2904 79.5181 85.6761L79.3224 88.3991L78.3649 88.3302L78.8967 80.9293L79.8543 80.9981L79.5998 84.539L79.4375 84.1464C79.6353 83.813 79.9206 83.5628 80.2935 83.3958C80.6665 83.2288 81.0923 83.1625 81.5711 83.1969ZM90.4316 89.2576C89.9928 89.226 89.5976 89.0974 89.2462 88.8716C88.902 88.6397 88.6345 88.3163 88.4437 87.9016C88.2596 87.4873 88.189 86.981 88.2321 86.3825C88.2751 85.7841 88.414 85.2928 88.6488 84.9086C88.8902 84.5249 89.1977 84.2462 89.5711 84.0726C89.9511 83.8994 90.3673 83.829 90.8194 83.8615C91.3381 83.8988 91.7888 84.0448 92.1715 84.2995C92.5542 84.5543 92.8474 84.8928 93.051 85.3152C93.255 85.7309 93.3377 86.208 93.299 86.7467C93.2603 87.2853 93.11 87.749 92.8481 88.1379C92.5862 88.5268 92.2477 88.82 91.8325 89.0174C91.4172 89.2148 90.9503 89.2949 90.4316 89.2576ZM87.4941 90.9313L88.0131 83.7099L88.9307 83.7759L88.8282 85.2022L88.6802 86.4248L88.6918 87.6588L88.4516 91.0001L87.4941 90.9313ZM90.412 88.414C90.7512 88.4384 91.0592 88.3837 91.3362 88.2498C91.6198 88.1165 91.8481 87.9157 92.0211 87.6474C92.2013 87.3729 92.3047 87.0495 92.3315 86.6771C92.3587 86.2981 92.3023 85.9665 92.1624 85.6824C92.0295 85.3922 91.8322 85.1608 91.5706 84.9882C91.3156 84.8162 91.0185 84.718 90.6794 84.6936C90.3469 84.6697 90.0389 84.7244 89.7553 84.8578C89.4783 84.9916 89.25 85.1924 89.0703 85.4602C88.8978 85.7219 88.7979 86.0422 88.7707 86.4212C88.7439 86.7936 88.7967 87.1282 88.9291 87.4252C89.0686 87.7159 89.2659 87.9473 89.5209 88.1194C89.7825 88.2919 90.0796 88.3901 90.412 88.414ZM94.3323 89.4777L94.7122 84.1914L95.6298 84.2573L95.5266 85.6936L95.4626 85.3281C95.6352 84.9729 95.9013 84.7113 96.261 84.5433C96.6206 84.3753 97.0531 84.3095 97.5584 84.3458L97.4918 85.2734C97.4524 85.2639 97.4127 85.2577 97.3728 85.2548C97.3396 85.2524 97.3063 85.2501 97.2731 85.2477C96.7611 85.2109 96.3444 85.3347 96.0232 85.619C95.702 85.9034 95.5206 86.3348 95.4791 86.9134L95.2898 89.5466L94.3323 89.4777ZM100.556 89.9852C99.9911 89.9446 99.5007 89.7924 99.0853 89.5286C98.6764 89.2653 98.3669 88.9222 98.1566 88.4994C97.9531 88.077 97.8701 87.6032 97.9079 87.0779C97.9456 86.5526 98.0921 86.0952 98.3474 85.7058C98.6092 85.317 98.9478 85.0238 99.363 84.8264C99.7854 84.6228 100.249 84.5392 100.755 84.5755C101.267 84.6123 101.711 84.7578 102.087 85.0121C102.463 85.2664 102.746 85.6075 102.936 86.0356C103.132 86.4574 103.211 86.941 103.172 87.4863C103.169 87.5262 103.163 87.5725 103.152 87.6252C103.148 87.6784 103.141 87.728 103.131 87.7741L98.633 87.4508L98.6825 86.7626L102.682 87.05L102.276 87.2615C102.307 86.9228 102.259 86.6152 102.132 86.3387C102.005 86.0622 101.817 85.8415 101.568 85.6766C101.326 85.5055 101.036 85.4078 100.697 85.3834C100.364 85.3595 100.063 85.4147 99.7923 85.549C99.5225 85.6767 99.3046 85.8716 99.1387 86.1337C98.9733 86.3891 98.8782 86.6898 98.8534 87.0355L98.8419 87.1951C98.8166 87.5475 98.8737 87.8691 99.0132 88.1599C99.1598 88.4445 99.3739 88.6737 99.6555 88.8477C99.9371 89.0217 100.267 89.1223 100.646 89.1495C100.959 89.172 101.245 89.1391 101.506 89.0508C101.773 88.9631 102.01 88.8197 102.218 88.6208L102.703 89.2772C102.443 89.5393 102.129 89.7306 101.759 89.8511C101.396 89.972 100.995 90.0167 100.556 89.9852ZM107.013 90.4492C106.574 90.4176 106.179 90.289 105.827 90.0632C105.483 89.8313 105.216 89.5079 105.025 89.0932C104.841 88.6789 104.77 88.1726 104.813 87.5741C104.856 86.9757 104.995 86.4844 105.23 86.1002C105.471 85.7165 105.779 85.4378 106.152 85.2642C106.532 85.091 106.948 85.0206 107.4 85.0531C107.919 85.0904 108.37 85.2364 108.753 85.4911C109.135 85.7459 109.428 86.0844 109.632 86.5068C109.836 86.9225 109.919 87.3996 109.88 87.9383C109.841 88.4769 109.691 88.9406 109.429 89.3295C109.167 89.7184 108.829 90.0116 108.414 90.209C107.998 90.4064 107.531 90.4865 107.013 90.4492ZM104.075 92.1229L104.594 84.9015L105.512 84.9675L105.409 86.3938L105.261 87.6164L105.273 88.8504L105.033 92.1917L104.075 92.1229ZM106.993 89.6056C107.332 89.63 107.64 89.5753 107.917 89.4414C108.201 89.3081 108.429 89.1073 108.602 88.839C108.782 88.5645 108.886 88.2411 108.913 87.8687C108.94 87.4897 108.883 87.1581 108.743 86.874C108.611 86.5838 108.413 86.3524 108.152 86.1798C107.897 86.0078 107.6 85.9096 107.26 85.8852C106.928 85.8613 106.62 85.916 106.336 86.0494C106.059 86.1832 105.831 86.384 105.651 86.6518C105.479 86.9135 105.379 87.2338 105.352 87.6128C105.325 87.9852 105.378 88.3198 105.51 88.6168C105.65 88.9075 105.847 89.1389 106.102 89.311C106.364 89.4835 106.661 89.5817 106.993 89.6056Z" fill="black" fill-opacity="0.6"/>
</g>
<defs>
<filter id="filter0_i_4952_18138" x="0.50423" y="6.98438" width="130.844" height="94.7383" filterUnits="userSpaceOnUse" color-interpolation-filters="sRGB">
<feFlood flood-opacity="0" result="BackgroundImageFix"/>
<feBlend mode="normal" in="SourceGraphic" in2="BackgroundImageFix" result="shape"/>
<feColorMatrix in="SourceAlpha" type="matrix" values="0 0 0 0 0 0 0 0 0 0 0 0 0 0 0 0 0 0 127 0" result="hardAlpha"/>
<feOffset dy="1"/>
<feComposite in2="hardAlpha" operator="arithmetic" k2="-1" k3="1"/>
<feColorMatrix type="matrix" values="0 0 0 0 1 0 0 0 0 1 0 0 0 0 1 0 0 0 0.15 0"/>
<feBlend mode="normal" in2="shape" result="effect1_innerShadow_4952_18138"/>
</filter>
</defs>
</svg>
