<?xml version="1.0" encoding="UTF-8"?>
<svg xmlns="http://www.w3.org/2000/svg" xmlns:xlink="http://www.w3.org/1999/xlink" width="198px" height="262px" viewBox="0 0 198 261" version="1.1">
<defs>
<linearGradient id="linear0" gradientUnits="userSpaceOnUse" x1="14.48" y1="31.257799" x2="23.3351" y2="53.807201" gradientTransform="matrix(3.96,0,0,3.954545,0,0)">
<stop offset="0" style="stop-color:rgb(87.058824%,91.372549%,100%);stop-opacity:1;"/>
<stop offset="1" style="stop-color:rgb(44.313725%,49.019608%,58.431373%);stop-opacity:1;"/>
</linearGradient>
<linearGradient id="linear1" gradientUnits="userSpaceOnUse" x1="32.559601" y1="31.1611" x2="32.559601" y2="61.004799" gradientTransform="matrix(3.96,0,0,3.954545,0,0)">
<stop offset="0" style="stop-color:rgb(87.058824%,91.372549%,100%);stop-opacity:1;"/>
<stop offset="1" style="stop-color:rgb(69.803922%,72.941176%,80%);stop-opacity:1;"/>
</linearGradient>
</defs>
<g id="surface1">
<path style="fill:none;stroke-width:0.19191;stroke-linecap:round;stroke-linejoin:round;stroke:rgb(100%,100%,100%);stroke-opacity:1;stroke-miterlimit:4;" d="M 44.323114 30.668822 C 44.16134 27.833872 43.608941 21.515984 42.699455 18.917116 C 41.562105 15.668283 41.603535 14.938308 42.008957 14.409842 C 42.415365 13.882364 43.674045 11.851473 41.805753 9.334591 C 39.938447 6.816721 33.359967 -1.182381 26.132418 2.187949 " transform="matrix(3.96,0,0,3.954545,0,0)"/>
<path style="fill:none;stroke-width:0.19191;stroke-linecap:round;stroke-linejoin:round;stroke:rgb(100%,100%,100%);stroke-opacity:1;stroke-miterlimit:4;" d="M 40.770991 30.676724 C 40.554964 27.173042 39.855587 19.634249 38.793205 17.509519 C 37.465475 14.853358 35.141454 14.853358 33.812737 13.336117 C 32.485006 11.817888 29.982442 7.290858 26.54869 5.149335 C 23.114938 3.0088 17.742858 1.675287 15.157434 4.462823 C 13.242779 6.526311 10.796441 9.393858 9.62358 11.486979 C 8.065025 14.266613 10.236151 17.498653 13.467685 15.416397 C 14.942393 14.466146 16.46149 13.143499 17.196378 11.856412 " transform="matrix(3.96,0,0,3.954545,0,0)"/>
<path style="fill:none;stroke-width:0.19191;stroke-linecap:round;stroke-linejoin:round;stroke:rgb(100%,100%,100%);stroke-opacity:1;stroke-miterlimit:4;" d="M 9.380919 30.890086 C 9.78634 27.974138 10.71654 21.752065 11.189039 20.18741 C 11.779908 18.231591 12.702217 16.977101 14.437342 15.942888 C 16.17148 14.909662 18.201547 11.920618 19.049874 10.444864 C 19.899187 8.968121 24.694208 5.539511 30.598958 9.045169 " transform="matrix(3.96,0,0,3.954545,0,0)"/>
<path style="fill:none;stroke-width:0.19191;stroke-linecap:round;stroke-linejoin:round;stroke:rgb(100%,100%,100%);stroke-opacity:1;stroke-miterlimit:4;" d="M 6.331873 30.988865 C 6.618924 27.624461 7.374527 20.465966 8.104482 18.74129 C 9.017914 16.585938 7.921993 15.782866 7.48402 15.125 C 7.04506 14.467134 5.912642 12.896552 8.104482 10.267062 C 10.296323 7.636584 13.80307 1.280172 19.100182 1.024335 C 22.922585 0.839619 25.69839 1.701958 28.115136 3.417744 M 28.115136 3.417744 C 29.047309 4.079562 29.925229 4.868804 30.789339 5.773617 C 32.519531 7.585219 33.422112 8.999731 34.362176 10.15643 C 36.85389 14.248833 42.796125 14.28143 40.068655 10.595007 C 38.717251 8.768588 35.046757 2.595905 28.115136 3.417744 Z M 28.115136 3.417744 " transform="matrix(3.96,0,0,3.954545,0,0)"/>
<path style="fill:none;stroke-width:0.19191;stroke-linecap:round;stroke-linejoin:round;stroke:rgb(100%,100%,100%);stroke-opacity:1;stroke-miterlimit:4;" d="M 22.854522 60.04463 C 16.617345 65.802443 8.940972 63.883172 4.623382 56.207076 C 3.045099 53.40176 0.785196 46.131645 0.785196 41.813039 C 0.785196 37.49542 3.184186 36.056214 5.102786 35.097073 " transform="matrix(3.96,0,0,3.954545,0,0)"/>
<path style=" stroke:none;fill-rule:nonzero;fill:url(#linear0);" d="M 54.410156 235.550781 C 62.007812 240.105469 81.007812 240.464844 90.855469 237.335938 L 90.507812 227.960938 C 94.308594 223.535156 97.726562 214.679688 81.007812 214.679688 C 60.109375 214.679688 58.207031 205.195312 48.710938 182.425781 C 39.210938 159.660156 43.007812 148.273438 48.710938 146.378906 C 54.410156 144.480469 62.90625 147.273438 71.507812 155.863281 C 79.109375 163.453125 87.339844 183.691406 90.507812 193.808594 C 92.40625 183.058594 96.585938 161.175781 98.105469 159.660156 C 84.808594 133.097656 71.507812 123.609375 48.710938 123.609375 C 33.828125 123.609375 25.421875 130.078125 20.851562 138.789062 C 13.761719 149.414062 17.058594 168.511719 19.59375 176.734375 C 22.492188 185.898438 26.648438 195.144531 29.710938 203.296875 C 35.410156 218.476562 44.910156 229.859375 54.410156 235.550781 Z M 54.410156 235.550781 "/>
<path style=" stroke:none;fill-rule:nonzero;fill:url(#linear1);" d="M 86.707031 188.121094 C 81.640625 204.988281 75.308594 233.65625 98.105469 241.246094 C 92.40625 214.683594 111.40625 165.355469 136.105469 142.585938 C 150.066406 129.71875 162.703125 134.996094 176.003906 136.894531 C 170.304688 123.613281 136.105469 116.023438 117.105469 133.101562 C 98.105469 150.175781 89.558594 178.632812 86.707031 188.121094 Z M 86.707031 188.121094 "/>
<path style="fill:none;stroke-width:0.19191;stroke-linecap:round;stroke-linejoin:round;stroke:rgb(100%,100%,100%);stroke-opacity:1;stroke-miterlimit:4;" d="M 34.370068 36.055226 C 37.895557 32.801455 41.086648 34.136943 44.445431 34.61602 C 54.520794 38.454562 46.214094 56.061871 41.567038 61.483836 C 38.687658 64.842313 32.930871 65.322378 29.572088 64.842313 C 26.886048 64.458064 25.254498 62.123922 24.774108 61.003772 C 23.334912 54.286818 28.132891 41.813039 34.370068 36.055226 Z M 34.370068 36.055226 " transform="matrix(3.96,0,0,3.954545,0,0)"/>
<path style=" stroke:none;fill-rule:nonzero;fill:rgb(100%,100%,100%);fill-opacity:1;" d="M 157.292969 142.613281 C 157.386719 139.824219 154.105469 137.453125 149.964844 137.3125 C 145.824219 137.171875 142.390625 139.316406 142.296875 142.101562 C 142.199219 144.886719 145.480469 147.261719 149.621094 147.402344 C 153.761719 147.542969 157.195312 145.398438 157.292969 142.613281 Z M 157.292969 142.613281 "/>
<path style=" stroke:none;fill-rule:nonzero;fill:rgb(100%,100%,100%);fill-opacity:1;" d="M 172.84375 138.734375 C 172.765625 141.078125 170.796875 142.914062 168.449219 142.835938 C 166.105469 142.753906 164.265625 140.789062 164.347656 138.445312 C 164.425781 136.101562 165.964844 135.050781 168.449219 135.742188 C 171.386719 135.742188 172.925781 136.390625 172.84375 138.734375 Z M 172.84375 138.734375 "/>
<path style="fill:none;stroke-width:0.19191;stroke-linecap:round;stroke-linejoin:round;stroke:rgb(100%,100%,100%);stroke-opacity:1;stroke-miterlimit:4;" d="M 27.441406 55.865302 C 29.192314 50.363326 31.192787 43.423132 36.444523 39.109465 " transform="matrix(3.96,0,0,3.954545,0,0)"/>
</g>
</svg>
