<svg width="309" height="126" viewBox="0 0 309 126" fill="none" xmlns="http://www.w3.org/2000/svg">
<path d="M1.60547 84V83.0684H4.21875C4.85547 83.0684 5.33789 82.9414 5.66602 82.6875C5.99414 82.4336 6.1582 82.0645 6.1582 81.5801V81.5684C6.1582 81.2441 6.08203 80.9727 5.92969 80.7539C5.77734 80.5352 5.54883 80.3711 5.24414 80.2617C4.94336 80.1523 4.56836 80.0977 4.11914 80.0977H1.60547V79.1895H3.82031C4.46094 79.1895 4.94141 79.0762 5.26172 78.8496C5.58594 78.623 5.74805 78.2871 5.74805 77.8418V77.8301C5.74805 77.4004 5.60156 77.0684 5.30859 76.834C5.01953 76.5957 4.61328 76.4766 4.08984 76.4766H1.60547V75.5449H4.3125C4.83203 75.5449 5.27734 75.6309 5.64844 75.8027C6.02344 75.9746 6.31055 76.2188 6.50977 76.5352C6.71289 76.8477 6.81445 77.2188 6.81445 77.6484V77.6602C6.81445 77.9531 6.74805 78.2285 6.61523 78.4863C6.48633 78.7441 6.3125 78.9609 6.09375 79.1367C5.875 79.3125 5.62891 79.4258 5.35547 79.4766V79.5703C5.74219 79.6172 6.07617 79.7324 6.35742 79.916C6.63867 80.0996 6.85547 80.3379 7.00781 80.6309C7.16406 80.9199 7.24219 81.25 7.24219 81.6211V81.6328C7.24219 82.125 7.12695 82.5488 6.89648 82.9043C6.66992 83.2559 6.34375 83.5273 5.91797 83.7188C5.49219 83.9062 4.97852 84 4.37695 84H1.60547ZM1.07812 84V75.5449H2.13281V84H1.07812ZM10.8141 84.1113C10.2125 84.1113 9.69492 83.9785 9.26133 83.7129C8.83164 83.4473 8.49961 83.0723 8.26523 82.5879C8.03477 82.0996 7.91953 81.5254 7.91953 80.8652V80.8594C7.91953 80.207 8.03477 79.6348 8.26523 79.1426C8.49961 78.6504 8.82969 78.2656 9.25547 77.9883C9.68125 77.7109 10.1793 77.5723 10.7496 77.5723C11.3238 77.5723 11.816 77.7051 12.2262 77.9707C12.6402 78.2363 12.9566 78.6074 13.1754 79.084C13.398 79.5566 13.5094 80.1074 13.5094 80.7363V81.1348H8.44688V80.3203H12.9879L12.484 81.0645V80.6602C12.484 80.1641 12.4098 79.7559 12.2613 79.4355C12.1129 79.1152 11.9078 78.877 11.6461 78.7207C11.3844 78.5605 11.0836 78.4805 10.7438 78.4805C10.4039 78.4805 10.0992 78.5645 9.82969 78.7324C9.56406 78.8965 9.35313 79.1406 9.19688 79.4648C9.04063 79.7891 8.9625 80.1875 8.9625 80.6602V81.0645C8.9625 81.5137 9.03867 81.8984 9.19102 82.2188C9.34336 82.5352 9.56016 82.7793 9.84141 82.9512C10.1227 83.1191 10.4547 83.2031 10.8375 83.2031C11.1227 83.2031 11.3707 83.1641 11.5816 83.0859C11.7926 83.0078 11.9664 82.9082 12.1031 82.7871C12.2398 82.666 12.3355 82.543 12.3902 82.418L12.4137 82.3652H13.4332L13.4215 82.4121C13.3668 82.627 13.2691 82.8359 13.1285 83.0391C12.9918 83.2383 12.8141 83.4199 12.5953 83.584C12.3766 83.7441 12.1168 83.873 11.816 83.9707C11.5191 84.0645 11.1852 84.1113 10.8141 84.1113ZM14.9133 84V78.5273H13.8645V77.6836H14.9133V76.9805C14.9133 76.5586 14.9816 76.2109 15.1184 75.9375C15.259 75.6602 15.466 75.4551 15.7395 75.3223C16.0129 75.1855 16.3488 75.1172 16.7473 75.1172C16.8723 75.1172 16.9895 75.123 17.0988 75.1348C17.2121 75.1426 17.3215 75.1562 17.427 75.1758V75.9902C17.3645 75.9785 17.2922 75.9707 17.2102 75.9668C17.1281 75.9629 17.0422 75.9609 16.9523 75.9609C16.5891 75.9609 16.3273 76.0488 16.1672 76.2246C16.0109 76.4004 15.9328 76.6621 15.9328 77.0098V77.6836H17.3684V78.5273H15.9328V84H14.9133ZM20.577 84.1113C19.9793 84.1113 19.4617 83.9805 19.0242 83.7188C18.5906 83.4531 18.2547 83.0762 18.0164 82.5879C17.782 82.0996 17.6648 81.5195 17.6648 80.8477V80.8359C17.6648 80.1602 17.782 79.5781 18.0164 79.0898C18.2547 78.6016 18.5906 78.2266 19.0242 77.9648C19.4617 77.7031 19.9793 77.5723 20.577 77.5723C21.1785 77.5723 21.6961 77.7031 22.1297 77.9648C22.5633 78.2266 22.8973 78.6016 23.1316 79.0898C23.3699 79.5781 23.4891 80.1602 23.4891 80.8359V80.8477C23.4891 81.5195 23.3699 82.0996 23.1316 82.5879C22.8973 83.0762 22.5633 83.4531 22.1297 83.7188C21.6961 83.9805 21.1785 84.1113 20.577 84.1113ZM20.577 83.209C20.9754 83.209 21.3133 83.1152 21.5906 82.9277C21.868 82.7402 22.0789 82.4707 22.2234 82.1191C22.3719 81.7676 22.4461 81.3438 22.4461 80.8477V80.8359C22.4461 80.3359 22.3719 79.9102 22.2234 79.5586C22.0789 79.207 21.868 78.9395 21.5906 78.7559C21.3133 78.5684 20.9754 78.4746 20.577 78.4746C20.1785 78.4746 19.8406 78.5684 19.5633 78.7559C19.2859 78.9395 19.073 79.207 18.9246 79.5586C18.7801 79.9102 18.7078 80.3359 18.7078 80.8359V80.8477C18.7078 81.3438 18.7801 81.7676 18.9246 82.1191C19.073 82.4707 19.2859 82.7402 19.5633 82.9277C19.8406 83.1152 20.1785 83.209 20.577 83.209ZM24.4711 84V77.6836H25.4906V78.6211H25.5844C25.7055 78.2891 25.9105 78.0312 26.1996 77.8477C26.4887 77.6641 26.8461 77.5723 27.2719 77.5723C27.3695 77.5723 27.4652 77.5781 27.559 77.5898C27.6566 77.5977 27.7309 77.6055 27.7816 77.6133V78.6035C27.6762 78.584 27.5727 78.5703 27.4711 78.5625C27.3734 78.5508 27.268 78.5449 27.1547 78.5449C26.8305 78.5449 26.5434 78.6094 26.2934 78.7383C26.0434 78.8672 25.8461 79.0469 25.7016 79.2773C25.5609 79.5078 25.4906 79.7773 25.4906 80.0859V84H24.4711ZM30.8438 84.1113C30.2422 84.1113 29.7246 83.9785 29.291 83.7129C28.8613 83.4473 28.5293 83.0723 28.2949 82.5879C28.0645 82.0996 27.9492 81.5254 27.9492 80.8652V80.8594C27.9492 80.207 28.0645 79.6348 28.2949 79.1426C28.5293 78.6504 28.8594 78.2656 29.2852 77.9883C29.7109 77.7109 30.209 77.5723 30.7793 77.5723C31.3535 77.5723 31.8457 77.7051 32.2559 77.9707C32.6699 78.2363 32.9863 78.6074 33.2051 79.084C33.4277 79.5566 33.5391 80.1074 33.5391 80.7363V81.1348H28.4766V80.3203H33.0176L32.5137 81.0645V80.6602C32.5137 80.1641 32.4395 79.7559 32.291 79.4355C32.1426 79.1152 31.9375 78.877 31.6758 78.7207C31.4141 78.5605 31.1133 78.4805 30.7734 78.4805C30.4336 78.4805 30.1289 78.5645 29.8594 78.7324C29.5938 78.8965 29.3828 79.1406 29.2266 79.4648C29.0703 79.7891 28.9922 80.1875 28.9922 80.6602V81.0645C28.9922 81.5137 29.0684 81.8984 29.2207 82.2188C29.373 82.5352 29.5898 82.7793 29.8711 82.9512C30.1523 83.1191 30.4844 83.2031 30.8672 83.2031C31.1523 83.2031 31.4004 83.1641 31.6113 83.0859C31.8223 83.0078 31.9961 82.9082 32.1328 82.7871C32.2695 82.666 32.3652 82.543 32.4199 82.418L32.4434 82.3652H33.4629L33.4512 82.4121C33.3965 82.627 33.2988 82.8359 33.1582 83.0391C33.0215 83.2383 32.8438 83.4199 32.625 83.584C32.4062 83.7441 32.1465 83.873 31.8457 83.9707C31.5488 84.0645 31.2148 84.1113 30.8438 84.1113Z" fill="#3B4148"/>
<path d="M181.573 12L184.625 3.54492H185.686V5.02734H185.287L182.955 12H181.573ZM183.043 9.71484L183.412 8.66016H187.262L187.631 9.71484H183.043ZM187.713 12L185.387 5.02734V3.54492H186.049L189.096 12H187.713ZM190.072 12V6.63867H189.023V5.63672H190.072V4.96875C190.072 4.54297 190.143 4.19141 190.283 3.91406C190.428 3.63281 190.646 3.42383 190.939 3.28711C191.232 3.15039 191.602 3.08203 192.047 3.08203C192.187 3.08203 192.318 3.08789 192.439 3.09961C192.564 3.10742 192.684 3.12109 192.797 3.14062V4.07812C192.738 4.06641 192.666 4.05859 192.58 4.05469C192.498 4.04688 192.408 4.04297 192.311 4.04297C191.959 4.04297 191.707 4.12695 191.555 4.29492C191.406 4.46289 191.332 4.70703 191.332 5.02734V5.63672H192.738V6.63867H191.344V12H190.072ZM195.994 12.041C195.298 12.041 194.795 11.9082 194.482 11.6426C194.173 11.373 194.019 10.9336 194.019 10.3242V6.63867H193.023V5.63672H194.019V4.03125H195.32V5.63672H196.685V6.63867H195.32V10.0137C195.32 10.3574 195.388 10.6055 195.525 10.7578C195.662 10.9062 195.888 10.9805 196.205 10.9805C196.298 10.9805 196.379 10.9785 196.445 10.9746C196.515 10.9707 196.595 10.9648 196.685 10.957V11.9766C196.584 11.9922 196.474 12.0059 196.357 12.0176C196.24 12.0332 196.119 12.041 195.994 12.041ZM200.175 12.123C199.554 12.123 199.021 11.9902 198.575 11.7246C198.13 11.4551 197.786 11.0742 197.544 10.582C197.306 10.0898 197.187 9.50781 197.187 8.83594V8.83008C197.187 8.16602 197.306 7.58594 197.544 7.08984C197.786 6.59375 198.126 6.20703 198.564 5.92969C199.005 5.65234 199.521 5.51367 200.111 5.51367C200.704 5.51367 201.214 5.64648 201.64 5.91211C202.07 6.17773 202.4 6.55078 202.63 7.03125C202.861 7.50781 202.976 8.06641 202.976 8.70703V9.15234H197.831V8.24414H202.343L201.734 9.08789V8.57812C201.734 8.125 201.663 7.75 201.523 7.45312C201.386 7.15234 201.196 6.92773 200.954 6.7793C200.712 6.63086 200.433 6.55664 200.116 6.55664C199.8 6.55664 199.517 6.63477 199.267 6.79102C199.021 6.94336 198.825 7.16992 198.681 7.4707C198.54 7.77148 198.47 8.14062 198.47 8.57812V9.08789C198.47 9.50586 198.54 9.86328 198.681 10.1602C198.821 10.457 199.021 10.6836 199.279 10.8398C199.54 10.9961 199.849 11.0742 200.204 11.0742C200.478 11.0742 200.712 11.0371 200.907 10.9629C201.107 10.8848 201.269 10.7891 201.394 10.6758C201.523 10.5625 201.611 10.4512 201.657 10.3418L201.681 10.2949H202.911L202.9 10.3477C202.845 10.5586 202.749 10.7695 202.612 10.9805C202.476 11.1875 202.294 11.377 202.068 11.5488C201.845 11.7207 201.575 11.8594 201.259 11.9648C200.946 12.0703 200.585 12.123 200.175 12.123ZM203.887 12V5.63672H205.159V6.59766H205.259C205.372 6.25781 205.571 5.99414 205.856 5.80664C206.145 5.61914 206.501 5.52539 206.923 5.52539C207.028 5.52539 207.132 5.53125 207.233 5.54297C207.335 5.55469 207.417 5.56836 207.479 5.58398V6.75586C207.366 6.73242 207.253 6.71484 207.139 6.70312C207.03 6.69141 206.915 6.68555 206.794 6.68555C206.47 6.68555 206.184 6.74805 205.938 6.87305C205.696 6.99805 205.505 7.17383 205.364 7.40039C205.227 7.62305 205.159 7.88867 205.159 8.19727V12H203.887ZM213.779 12.2051C213.143 12.2051 212.588 12.1055 212.115 11.9062C211.643 11.7031 211.27 11.4219 210.996 11.0625C210.723 10.7031 210.566 10.2871 210.527 9.81445L210.521 9.73828H211.816L211.822 9.80273C211.85 10.0566 211.949 10.2773 212.121 10.4648C212.297 10.6523 212.531 10.7988 212.824 10.9043C213.121 11.0098 213.459 11.0625 213.838 11.0625C214.193 11.0625 214.51 11.0059 214.787 10.8926C215.064 10.7793 215.281 10.623 215.437 10.4238C215.598 10.2246 215.678 9.99609 215.678 9.73828V9.73242C215.678 9.4082 215.555 9.13867 215.309 8.92383C215.062 8.70898 214.66 8.54102 214.102 8.41992L213.176 8.22656C212.32 8.04297 211.697 7.75195 211.307 7.35352C210.916 6.95117 210.721 6.4375 210.721 5.8125V5.80664C210.725 5.31836 210.855 4.88867 211.113 4.51758C211.375 4.14648 211.736 3.85742 212.197 3.65039C212.658 3.44336 213.187 3.33984 213.785 3.33984C214.383 3.33984 214.904 3.44336 215.35 3.65039C215.799 3.85352 216.152 4.13086 216.41 4.48242C216.672 4.83398 216.818 5.23047 216.85 5.67188L216.855 5.74805H215.572L215.561 5.67188C215.525 5.44141 215.43 5.23633 215.273 5.05664C215.121 4.87695 214.916 4.73633 214.658 4.63477C214.404 4.5293 214.107 4.47852 213.768 4.48242C213.439 4.48242 213.146 4.5332 212.889 4.63477C212.631 4.73242 212.426 4.875 212.273 5.0625C212.125 5.25 212.051 5.47656 212.051 5.74219V5.74805C212.051 6.06055 212.17 6.32227 212.408 6.5332C212.65 6.74023 213.043 6.90234 213.586 7.01953L214.512 7.22461C215.102 7.34961 215.58 7.51562 215.947 7.72266C216.314 7.92969 216.582 8.18555 216.75 8.49023C216.922 8.79102 217.008 9.15039 217.008 9.56836V9.57422C217.008 10.1133 216.875 10.5801 216.609 10.9746C216.348 11.3652 215.975 11.668 215.49 11.8828C215.006 12.0977 214.436 12.2051 213.779 12.2051ZM220.685 12.123C220.064 12.123 219.527 11.9902 219.074 11.7246C218.625 11.459 218.279 11.0801 218.037 10.5879C217.795 10.0918 217.673 9.50391 217.673 8.82422V8.8125C217.673 8.12891 217.795 7.54102 218.037 7.04883C218.283 6.55664 218.63 6.17773 219.08 5.91211C219.533 5.64648 220.068 5.51367 220.685 5.51367C221.306 5.51367 221.841 5.64648 222.291 5.91211C222.74 6.17383 223.086 6.55273 223.328 7.04883C223.574 7.54102 223.697 8.12891 223.697 8.8125V8.82422C223.697 9.50391 223.574 10.0918 223.328 10.5879C223.086 11.0801 222.74 11.459 222.291 11.7246C221.845 11.9902 221.31 12.123 220.685 12.123ZM220.685 11.0566C221.048 11.0566 221.357 10.9688 221.611 10.793C221.865 10.6133 222.058 10.3574 222.191 10.0254C222.324 9.69336 222.39 9.29297 222.39 8.82422V8.8125C222.39 8.33984 222.324 7.9375 222.191 7.60547C222.058 7.27344 221.865 7.01953 221.611 6.84375C221.357 6.66406 221.048 6.57422 220.685 6.57422C220.322 6.57422 220.013 6.66406 219.759 6.84375C219.505 7.01953 219.31 7.27344 219.173 7.60547C219.041 7.9375 218.974 8.33984 218.974 8.8125V8.82422C218.974 9.29297 219.041 9.69336 219.173 10.0254C219.31 10.3574 219.505 10.6133 219.759 10.793C220.013 10.9688 220.322 11.0566 220.685 11.0566ZM226.73 12.123C226.253 12.123 225.851 12.0312 225.523 11.8477C225.198 11.6602 224.954 11.3906 224.79 11.0391C224.63 10.6836 224.55 10.2559 224.55 9.75586V5.63672H225.821V9.45703C225.821 9.98047 225.925 10.373 226.132 10.6348C226.339 10.8965 226.677 11.0273 227.146 11.0273C227.396 11.0273 227.618 10.9902 227.814 10.916C228.009 10.8379 228.173 10.7266 228.306 10.582C228.439 10.4375 228.536 10.2637 228.599 10.0605C228.665 9.85742 228.698 9.62695 228.698 9.36914V5.63672H229.976V12H228.698V11.0391H228.605C228.503 11.2656 228.364 11.4609 228.189 11.625C228.013 11.7852 227.802 11.9082 227.556 11.9941C227.314 12.0801 227.038 12.123 226.73 12.123ZM231.204 12V5.63672H232.475V6.59766H232.575C232.731 6.25781 232.962 5.99219 233.266 5.80078C233.571 5.60938 233.956 5.51367 234.421 5.51367C235.136 5.51367 235.682 5.71875 236.061 6.12891C236.44 6.53906 236.63 7.12305 236.63 7.88086V12H235.352V8.17969C235.352 7.64844 235.241 7.25391 235.018 6.99609C234.8 6.73438 234.456 6.60352 233.987 6.60352C233.679 6.60352 233.411 6.67188 233.184 6.80859C232.958 6.94141 232.782 7.13281 232.657 7.38281C232.536 7.62891 232.475 7.92383 232.475 8.26758V12H231.204ZM240.12 12.1055C239.588 12.1055 239.123 11.9727 238.725 11.707C238.33 11.4375 238.024 11.0566 237.805 10.5645C237.59 10.0723 237.483 9.49219 237.483 8.82422V8.8125C237.483 8.14062 237.59 7.55859 237.805 7.06641C238.02 6.57422 238.325 6.19531 238.719 5.92969C239.114 5.66016 239.58 5.52539 240.12 5.52539C240.412 5.52539 240.686 5.57227 240.94 5.66602C241.194 5.75586 241.418 5.88477 241.614 6.05273C241.809 6.2168 241.963 6.41406 242.077 6.64453H242.17V3.14062H243.448V12H242.17V10.998H242.077C241.952 11.2285 241.793 11.4277 241.602 11.5957C241.411 11.7598 241.19 11.8867 240.94 11.9766C240.69 12.0625 240.416 12.1055 240.12 12.1055ZM240.483 11.0156C240.834 11.0156 241.139 10.9277 241.397 10.752C241.655 10.5762 241.852 10.3242 241.989 9.99609C242.125 9.66406 242.194 9.27344 242.194 8.82422V8.8125C242.194 8.35938 242.123 7.96875 241.983 7.64062C241.846 7.3125 241.649 7.06055 241.391 6.88477C241.137 6.70508 240.834 6.61523 240.483 6.61523C240.131 6.61523 239.827 6.70508 239.569 6.88477C239.315 7.06055 239.12 7.3125 238.983 7.64062C238.85 7.96484 238.784 8.35547 238.784 8.8125V8.82422C238.784 9.27734 238.85 9.66797 238.983 9.99609C239.12 10.3242 239.315 10.5762 239.569 10.752C239.827 10.9277 240.131 11.0156 240.483 11.0156ZM247.55 12V3.54492H252.918V4.68164H248.863V7.14844H252.701V8.23828H248.863V10.8633H252.918V12H247.55ZM253.29 14.1797C253.243 14.1797 253.195 14.1777 253.144 14.1738C253.093 14.1738 253.048 14.1738 253.009 14.1738V13.1309C253.04 13.1309 253.07 13.1309 253.097 13.1309C253.124 13.1309 253.154 13.1309 253.185 13.1309C253.513 13.1309 253.745 13.0664 253.882 12.9375C254.019 12.8086 254.087 12.5859 254.087 12.2695V5.63672H255.359V12.2754C255.359 12.9277 255.187 13.4082 254.843 13.7168C254.503 14.0254 253.986 14.1797 253.29 14.1797ZM254.72 4.5C254.505 4.5 254.318 4.42188 254.157 4.26562C254.001 4.10938 253.923 3.92187 253.923 3.70312C253.923 3.48438 254.001 3.29883 254.157 3.14648C254.318 2.99023 254.505 2.91211 254.72 2.91211C254.943 2.91211 255.132 2.99023 255.288 3.14648C255.445 3.29883 255.523 3.48438 255.523 3.70312C255.523 3.92187 255.445 4.10938 255.288 4.26562C255.132 4.42188 254.943 4.5 254.72 4.5ZM259.282 12.123C258.661 12.123 258.128 11.9902 257.682 11.7246C257.237 11.4551 256.893 11.0742 256.651 10.582C256.413 10.0898 256.294 9.50781 256.294 8.83594V8.83008C256.294 8.16602 256.413 7.58594 256.651 7.08984C256.893 6.59375 257.233 6.20703 257.671 5.92969C258.112 5.65234 258.628 5.51367 259.218 5.51367C259.811 5.51367 260.321 5.64648 260.747 5.91211C261.177 6.17773 261.507 6.55078 261.737 7.03125C261.968 7.50781 262.083 8.06641 262.083 8.70703V9.15234H256.938V8.24414H261.45L260.841 9.08789V8.57812C260.841 8.125 260.77 7.75 260.63 7.45312C260.493 7.15234 260.304 6.92773 260.061 6.7793C259.819 6.63086 259.54 6.55664 259.223 6.55664C258.907 6.55664 258.624 6.63477 258.374 6.79102C258.128 6.94336 257.932 7.16992 257.788 7.4707C257.647 7.77148 257.577 8.14062 257.577 8.57812V9.08789C257.577 9.50586 257.647 9.86328 257.788 10.1602C257.929 10.457 258.128 10.6836 258.386 10.8398C258.647 10.9961 258.956 11.0742 259.311 11.0742C259.585 11.0742 259.819 11.0371 260.014 10.9629C260.214 10.8848 260.376 10.7891 260.501 10.6758C260.63 10.5625 260.718 10.4512 260.764 10.3418L260.788 10.2949H262.018L262.007 10.3477C261.952 10.5586 261.856 10.7695 261.72 10.9805C261.583 11.1875 261.401 11.377 261.175 11.5488C260.952 11.7207 260.682 11.8594 260.366 11.9648C260.054 12.0703 259.692 12.123 259.282 12.123ZM265.672 12.123C265.055 12.123 264.522 11.9902 264.073 11.7246C263.627 11.4551 263.284 11.0723 263.041 10.5762C262.799 10.0801 262.678 9.48828 262.678 8.80078V8.78906C262.678 8.11328 262.797 7.53125 263.036 7.04297C263.278 6.55469 263.621 6.17773 264.067 5.91211C264.516 5.64648 265.049 5.51367 265.666 5.51367C266.202 5.51367 266.661 5.60742 267.043 5.79492C267.43 5.97852 267.737 6.23242 267.963 6.55664C268.194 6.87695 268.338 7.24219 268.397 7.65234L268.403 7.68164H267.178L267.172 7.66992C267.102 7.35742 266.94 7.09766 266.686 6.89062C266.432 6.67969 266.094 6.57422 265.672 6.57422C265.321 6.57422 265.018 6.66406 264.764 6.84375C264.51 7.01953 264.315 7.27344 264.178 7.60547C264.045 7.9375 263.979 8.33203 263.979 8.78906V8.80078C263.979 9.26953 264.047 9.67188 264.184 10.0078C264.321 10.3438 264.516 10.6035 264.77 10.7871C265.024 10.9668 265.325 11.0566 265.672 11.0566C266.071 11.0566 266.393 10.9688 266.639 10.793C266.889 10.6172 267.065 10.3574 267.166 10.0137L267.178 9.98438L268.397 9.97852L268.385 10.0312C268.311 10.4453 268.161 10.8086 267.934 11.1211C267.707 11.4336 267.405 11.6797 267.026 11.8594C266.651 12.0352 266.2 12.123 265.672 12.123ZM271.734 12.041C271.039 12.041 270.535 11.9082 270.223 11.6426C269.914 11.373 269.76 10.9336 269.76 10.3242V6.63867H268.764V5.63672H269.76V4.03125H271.061V5.63672H272.426V6.63867H271.061V10.0137C271.061 10.3574 271.129 10.6055 271.266 10.7578C271.402 10.9062 271.629 10.9805 271.945 10.9805C272.039 10.9805 272.119 10.9785 272.186 10.9746C272.256 10.9707 272.336 10.9648 272.426 10.957V11.9766C272.324 11.9922 272.215 12.0059 272.098 12.0176C271.98 12.0332 271.859 12.041 271.734 12.041Z" fill="#5184EA"/>
<path d="M11 115.5C26.1667 105.667 60.8599 85.6016 104 81C179 73 214.5 137.5 301.5 10" stroke="#5184EA" stroke-width="2" stroke-linecap="round"/>
<path d="M104 81C60.8599 85.6016 26.1667 105.667 11 115.5V125H305L306 125.804V10.8038L301.5 10C214.5 137.5 179 73 104 81Z" fill="url(#paint0_linear_4033_9849)"/>
<circle cx="10" cy="115" r="8" fill="white"/>
<rect x="293" width="16" height="16" rx="8" fill="#5184EA"/>
<path d="M297.5 8L300 10.5L305 5.5" stroke="white" stroke-width="1.5" stroke-linecap="round" stroke-linejoin="round"/>
<defs>
<linearGradient id="paint0_linear_4033_9849" x1="156.25" y1="10" x2="156.25" y2="125" gradientUnits="userSpaceOnUse">
<stop stop-color="#5184EA" stop-opacity="0.15"/>
<stop offset="1" stop-color="#5184EA" stop-opacity="0"/>
</linearGradient>
</defs>
</svg>
