<svg width="57" height="44" viewBox="0 0 57 44" fill="none" xmlns="http://www.w3.org/2000/svg">
<path d="M2.75781 16.4551V40.0503H10.8687V22.7226" stroke="white" stroke-width="0.201817"/>
<path d="M3.5 39H10V22.1094L3.5 16V39Z" fill="url(#paint0_linear_5148_3370)"/>
<path d="M6.44407 0.233581C0.913936 1.33961 -0.560765 8.34444 0.176586 12.0312C1.53135 18.805 10.0203 24.3035 16.767 23.4602C21.5598 22.8611 25.2465 18.2987 25.2465 13.5059C25.2465 4.84951 14.0834 -1.29428 6.44407 0.233581Z" fill="url(#paint1_linear_5148_3370)"/>
<ellipse cx="20.5985" cy="17.3615" rx="4.92872" ry="2.21205" transform="rotate(-54.9492 20.5985 17.3615)" fill="black"/>
<rect x="5.7207" y="3.18359" width="9.32376" height="5.64289" rx="2.82144" transform="rotate(31.687 5.7207 3.18359)" fill="black"/>
<path d="M2.75781 40.0508H10.8687V40.0508C10.8687 41.6797 9.54818 43.0002 7.91927 43.0002H5.70722C4.07831 43.0002 2.75781 41.6797 2.75781 40.0508V40.0508Z" stroke="white" stroke-width="0.2"/>
<path d="M7.18164 33.7832V36.3639H8.65634" stroke="black" stroke-width="0.5"/>
<path d="M53.2656 16.4551V40.0503H45.1548V22.7226" stroke="white" stroke-width="0.2"/>
<path d="M52.5 38.8663L46 39.0002V22.1096L52.5 15.8663V38.8663Z" fill="url(#paint2_linear_5148_3370)"/>
<path d="M47.7353 35.9943V33.7832C47.8581 33.7832 48.2512 33.7832 48.8409 33.7832C49.5779 33.7832 49.9464 34.8888 48.8409 34.8888C48.6943 34.8888 48.5727 34.8888 48.4723 34.8888M47.7353 34.8888C47.6328 34.8888 47.9672 34.8888 48.4723 34.8888M48.4723 34.8888C48.718 35.1345 48.8408 35.2573 49.2094 35.9943" stroke="black" stroke-width="0.5" stroke-linecap="round" stroke-linejoin="round"/>
<path d="M49.5794 0.233581C55.1095 1.33961 56.5842 8.34444 55.8469 12.0312C54.4921 18.805 46.0031 24.3035 39.2565 23.4602C34.4637 22.8611 30.7769 18.2987 30.7769 13.5059C30.7769 4.84951 41.9401 -1.29428 49.5794 0.233581Z" fill="url(#paint3_linear_5148_3370)"/>
<ellipse cx="4.92872" cy="2.21205" rx="4.92872" ry="2.21205" transform="matrix(-0.574303 -0.818643 -0.818643 0.574303 40.0664 20.126)" fill="black"/>
<rect width="9.32376" height="5.64289" rx="2.82144" transform="matrix(-0.850931 0.525278 0.525278 0.850931 50.3027 3.18359)" fill="black"/>
<path d="M53.2656 40.0508H45.1548V40.0508C45.1548 41.6797 46.4753 43.0002 48.1042 43.0002H50.3162C51.9451 43.0002 53.2656 41.6797 53.2656 40.0508V40.0508Z" stroke="white" stroke-width="0.2"/>
<defs>
<linearGradient id="paint0_linear_5148_3370" x1="7" y1="39" x2="7" y2="16" gradientUnits="userSpaceOnUse">
<stop stop-color="#DEE9FF"/>
<stop offset="1" stop-color="#717D95"/>
</linearGradient>
<linearGradient id="paint1_linear_5148_3370" x1="12.6233" y1="0" x2="12.6233" y2="23.5458" gradientUnits="userSpaceOnUse">
<stop stop-color="#DEE9FF"/>
<stop offset="1" stop-color="#B2BACC"/>
</linearGradient>
<linearGradient id="paint2_linear_5148_3370" x1="49" y1="39.0002" x2="49" y2="16.0002" gradientUnits="userSpaceOnUse">
<stop stop-color="#DEE9FF"/>
<stop offset="1" stop-color="#717D95"/>
</linearGradient>
<linearGradient id="paint3_linear_5148_3370" x1="43.4002" y1="0" x2="43.4002" y2="23.5458" gradientUnits="userSpaceOnUse">
<stop stop-color="#DEE9FF"/>
<stop offset="1" stop-color="#B2BACC"/>
</linearGradient>
</defs>
</svg>
