<svg width="375" height="175" viewBox="0 0 375 175" fill="none" xmlns="http://www.w3.org/2000/svg">
<g opacity="0.35">
<rect y="8" width="2" height="159" rx="1" fill="url(#paint0_linear_4002_5693)"/>
<rect x="14" y="18.5" width="2" height="138" rx="1" fill="url(#paint1_linear_4002_5693)"/>
<rect x="28" y="4" width="2" height="167" rx="1" fill="url(#paint2_linear_4002_5693)"/>
<rect x="42" y="15.5" width="2" height="144" rx="1" fill="url(#paint3_linear_4002_5693)"/>
<rect x="56" y="18.5" width="2" height="138" rx="1" fill="url(#paint4_linear_4002_5693)"/>
<rect x="70" y="20" width="2" height="135" rx="1" fill="url(#paint5_linear_4002_5693)"/>
<rect x="84" y="5" width="2" height="165" rx="1" fill="url(#paint6_linear_4002_5693)"/>
<rect x="98" y="10.5" width="2" height="154" rx="1" fill="url(#paint7_linear_4002_5693)"/>
<rect x="112" y="7" width="2" height="161" rx="1" fill="url(#paint8_linear_4002_5693)"/>
<rect x="126" y="12.5" width="2" height="150" rx="1" fill="url(#paint9_linear_4002_5693)"/>
<rect x="140" y="10.5" width="2" height="154" rx="1" fill="url(#paint10_linear_4002_5693)"/>
<rect x="154" y="2.5" width="2" height="170" rx="1" fill="url(#paint11_linear_4002_5693)"/>
<rect x="168" y="16" width="2" height="143" rx="1" fill="url(#paint12_linear_4002_5693)"/>
<rect x="182" y="7" width="2" height="161" rx="1" fill="url(#paint13_linear_4002_5693)"/>
<rect x="196" y="17" width="2" height="141" rx="1" fill="url(#paint14_linear_4002_5693)"/>
<rect x="210" y="3" width="2" height="169" rx="1" fill="url(#paint15_linear_4002_5693)"/>
<rect x="224" y="12.5" width="2" height="150" rx="1" fill="url(#paint16_linear_4002_5693)"/>
<rect x="238" y="6.5" width="2" height="162" rx="1" fill="url(#paint17_linear_4002_5693)"/>
<rect x="252" y="4" width="2" height="167" rx="1" fill="url(#paint18_linear_4002_5693)"/>
<rect x="266" y="20.5" width="2" height="134" rx="1" fill="url(#paint19_linear_4002_5693)"/>
<rect x="280" y="0.5" width="2" height="174" rx="1" fill="url(#paint20_linear_4002_5693)"/>
<rect x="294" y="19" width="2" height="137" rx="1" fill="url(#paint21_linear_4002_5693)"/>
<rect x="308" y="10.5" width="2" height="154" rx="1" fill="url(#paint22_linear_4002_5693)"/>
<rect x="322" y="2.5" width="2" height="170" rx="1" fill="url(#paint23_linear_4002_5693)"/>
<rect x="336" y="5" width="2" height="165" rx="1" fill="url(#paint24_linear_4002_5693)"/>
<rect x="350" y="7" width="2" height="161" rx="1" fill="url(#paint25_linear_4002_5693)"/>
<rect x="364" y="16" width="2" height="143" rx="1" fill="url(#paint26_linear_4002_5693)"/>
</g>
<defs>
<linearGradient id="paint0_linear_4002_5693" x1="1" y1="8" x2="1" y2="167" gradientUnits="userSpaceOnUse">
<stop stop-color="#ABBCDF"/>
<stop offset="1" stop-color="#ABBCDF" stop-opacity="0"/>
</linearGradient>
<linearGradient id="paint1_linear_4002_5693" x1="15" y1="18.5" x2="15" y2="156.5" gradientUnits="userSpaceOnUse">
<stop stop-color="#ABBCDF"/>
<stop offset="1" stop-color="#ABBCDF" stop-opacity="0"/>
</linearGradient>
<linearGradient id="paint2_linear_4002_5693" x1="29" y1="4" x2="29" y2="171" gradientUnits="userSpaceOnUse">
<stop stop-color="#ABBCDF"/>
<stop offset="1" stop-color="#ABBCDF" stop-opacity="0"/>
</linearGradient>
<linearGradient id="paint3_linear_4002_5693" x1="43" y1="15.5" x2="43" y2="159.5" gradientUnits="userSpaceOnUse">
<stop stop-color="#ABBCDF"/>
<stop offset="1" stop-color="#ABBCDF" stop-opacity="0"/>
</linearGradient>
<linearGradient id="paint4_linear_4002_5693" x1="57" y1="18.5" x2="57" y2="156.5" gradientUnits="userSpaceOnUse">
<stop stop-color="#ABBCDF"/>
<stop offset="1" stop-color="#ABBCDF" stop-opacity="0"/>
</linearGradient>
<linearGradient id="paint5_linear_4002_5693" x1="71" y1="20" x2="71" y2="155" gradientUnits="userSpaceOnUse">
<stop stop-color="#ABBCDF"/>
<stop offset="1" stop-color="#ABBCDF" stop-opacity="0"/>
</linearGradient>
<linearGradient id="paint6_linear_4002_5693" x1="85" y1="5" x2="85" y2="170" gradientUnits="userSpaceOnUse">
<stop stop-color="#ABBCDF"/>
<stop offset="1" stop-color="#ABBCDF" stop-opacity="0"/>
</linearGradient>
<linearGradient id="paint7_linear_4002_5693" x1="99" y1="10.5" x2="99" y2="164.5" gradientUnits="userSpaceOnUse">
<stop stop-color="#ABBCDF"/>
<stop offset="1" stop-color="#ABBCDF" stop-opacity="0"/>
</linearGradient>
<linearGradient id="paint8_linear_4002_5693" x1="113" y1="7" x2="113" y2="168" gradientUnits="userSpaceOnUse">
<stop stop-color="#ABBCDF"/>
<stop offset="1" stop-color="#ABBCDF" stop-opacity="0"/>
</linearGradient>
<linearGradient id="paint9_linear_4002_5693" x1="127" y1="12.5" x2="127" y2="162.5" gradientUnits="userSpaceOnUse">
<stop stop-color="#ABBCDF"/>
<stop offset="1" stop-color="#ABBCDF" stop-opacity="0"/>
</linearGradient>
<linearGradient id="paint10_linear_4002_5693" x1="141" y1="10.5" x2="141" y2="164.5" gradientUnits="userSpaceOnUse">
<stop stop-color="#ABBCDF"/>
<stop offset="1" stop-color="#ABBCDF" stop-opacity="0"/>
</linearGradient>
<linearGradient id="paint11_linear_4002_5693" x1="155" y1="2.5" x2="155" y2="172.5" gradientUnits="userSpaceOnUse">
<stop stop-color="#ABBCDF"/>
<stop offset="1" stop-color="#ABBCDF" stop-opacity="0"/>
</linearGradient>
<linearGradient id="paint12_linear_4002_5693" x1="169" y1="16" x2="169" y2="159" gradientUnits="userSpaceOnUse">
<stop stop-color="#ABBCDF"/>
<stop offset="1" stop-color="#ABBCDF" stop-opacity="0"/>
</linearGradient>
<linearGradient id="paint13_linear_4002_5693" x1="183" y1="7" x2="183" y2="168" gradientUnits="userSpaceOnUse">
<stop stop-color="#ABBCDF"/>
<stop offset="1" stop-color="#ABBCDF" stop-opacity="0"/>
</linearGradient>
<linearGradient id="paint14_linear_4002_5693" x1="197" y1="17" x2="197" y2="158" gradientUnits="userSpaceOnUse">
<stop stop-color="#ABBCDF"/>
<stop offset="1" stop-color="#ABBCDF" stop-opacity="0"/>
</linearGradient>
<linearGradient id="paint15_linear_4002_5693" x1="211" y1="3" x2="211" y2="172" gradientUnits="userSpaceOnUse">
<stop stop-color="#ABBCDF"/>
<stop offset="1" stop-color="#ABBCDF" stop-opacity="0"/>
</linearGradient>
<linearGradient id="paint16_linear_4002_5693" x1="225" y1="12.5" x2="225" y2="162.5" gradientUnits="userSpaceOnUse">
<stop stop-color="#ABBCDF"/>
<stop offset="1" stop-color="#ABBCDF" stop-opacity="0"/>
</linearGradient>
<linearGradient id="paint17_linear_4002_5693" x1="239" y1="6.5" x2="239" y2="168.5" gradientUnits="userSpaceOnUse">
<stop stop-color="#ABBCDF"/>
<stop offset="1" stop-color="#ABBCDF" stop-opacity="0"/>
</linearGradient>
<linearGradient id="paint18_linear_4002_5693" x1="253" y1="4" x2="253" y2="171" gradientUnits="userSpaceOnUse">
<stop stop-color="#ABBCDF"/>
<stop offset="1" stop-color="#ABBCDF" stop-opacity="0"/>
</linearGradient>
<linearGradient id="paint19_linear_4002_5693" x1="267" y1="20.5" x2="267" y2="154.5" gradientUnits="userSpaceOnUse">
<stop stop-color="#ABBCDF"/>
<stop offset="1" stop-color="#ABBCDF" stop-opacity="0"/>
</linearGradient>
<linearGradient id="paint20_linear_4002_5693" x1="281" y1="0.5" x2="281" y2="174.5" gradientUnits="userSpaceOnUse">
<stop stop-color="#ABBCDF"/>
<stop offset="1" stop-color="#ABBCDF" stop-opacity="0"/>
</linearGradient>
<linearGradient id="paint21_linear_4002_5693" x1="295" y1="19" x2="295" y2="156" gradientUnits="userSpaceOnUse">
<stop stop-color="#ABBCDF"/>
<stop offset="1" stop-color="#ABBCDF" stop-opacity="0"/>
</linearGradient>
<linearGradient id="paint22_linear_4002_5693" x1="309" y1="10.5" x2="309" y2="164.5" gradientUnits="userSpaceOnUse">
<stop stop-color="#ABBCDF"/>
<stop offset="1" stop-color="#ABBCDF" stop-opacity="0"/>
</linearGradient>
<linearGradient id="paint23_linear_4002_5693" x1="323" y1="2.5" x2="323" y2="172.5" gradientUnits="userSpaceOnUse">
<stop stop-color="#ABBCDF"/>
<stop offset="1" stop-color="#ABBCDF" stop-opacity="0"/>
</linearGradient>
<linearGradient id="paint24_linear_4002_5693" x1="337" y1="5" x2="337" y2="170" gradientUnits="userSpaceOnUse">
<stop stop-color="#ABBCDF"/>
<stop offset="1" stop-color="#ABBCDF" stop-opacity="0"/>
</linearGradient>
<linearGradient id="paint25_linear_4002_5693" x1="351" y1="7" x2="351" y2="168" gradientUnits="userSpaceOnUse">
<stop stop-color="#ABBCDF"/>
<stop offset="1" stop-color="#ABBCDF" stop-opacity="0"/>
</linearGradient>
<linearGradient id="paint26_linear_4002_5693" x1="365" y1="16" x2="365" y2="159" gradientUnits="userSpaceOnUse">
<stop stop-color="#ABBCDF"/>
<stop offset="1" stop-color="#ABBCDF" stop-opacity="0"/>
</linearGradient>
</defs>
</svg>
