<svg width="241" height="74" viewBox="0 0 241 74" fill="none" xmlns="http://www.w3.org/2000/svg">
<path d="M26.8117 64.1934C26.2526 64.4573 24.0538 64.5672 24.0538 64.5672C24.0538 64.5672 22.8764 64.6625 22.7905 64.6613C22.7462 64.6601 22.6924 64.6588 22.6269 64.6564C22.6108 64.654 22.5943 64.6564 22.5764 64.654C22.5598 64.6528 22.542 64.6515 22.5236 64.6515C22.4848 64.6491 22.4467 64.6466 22.4032 64.6418C22.0669 64.6173 21.5674 64.555 20.9465 64.384C20.8673 64.3644 20.7894 64.3376 20.7069 64.3132C20.6271 64.2863 20.5437 64.2643 20.4588 64.2313C20.3752 64.2032 20.2894 64.1714 20.1997 64.1397C20.1125 64.1055 20.0242 64.0701 19.9332 64.0322C19.6691 63.9235 19.3897 63.7891 19.1053 63.6401C19.1021 63.6315 19.0972 63.6242 19.0935 63.6169C19.068 63.5619 19.0459 63.5057 19.027 63.4483C19.0076 63.3896 18.9921 63.331 18.9817 63.2711C18.9695 63.2125 18.9633 63.1478 18.961 63.0855C18.9515 62.835 19.0195 62.5736 19.1996 62.3097C19.1996 62.3097 19.2478 62.157 19.3242 61.9237C19.3969 61.6916 19.4949 61.3777 19.6002 61.0466C19.7007 60.7168 19.8015 60.3809 19.8676 60.0974C19.9012 59.9533 19.9252 59.8226 19.9346 59.7151C19.9379 59.6601 19.9379 59.6125 19.9346 59.5697C19.9309 59.5257 19.9228 59.4879 19.9077 59.4573C19.8809 59.3938 19.8544 59.3352 19.8332 59.2729L19.8163 59.2277L19.7997 59.1776C19.7903 59.147 19.7794 59.1153 19.7695 59.0835C19.7493 59.0188 19.7304 58.954 19.711 58.8881C19.6921 58.8209 19.6738 58.7525 19.6549 58.6816C19.6153 58.5424 19.5747 58.3897 19.5223 58.2309C19.4964 58.1514 19.4699 58.0647 19.4389 57.9768C19.4223 57.934 19.4043 57.8876 19.3874 57.8424C19.3709 57.7972 19.3525 57.7483 19.3336 57.6994C19.3147 57.6518 19.2978 57.5993 19.2823 57.5443C19.2672 57.4893 19.2544 57.4258 19.2449 57.3635C19.2251 57.2352 19.2105 57.1021 19.2081 56.9543C19.2044 56.8126 19.2091 56.6623 19.2228 56.5084C19.2331 56.3545 19.2525 56.2042 19.2775 56.0503C19.2893 55.9758 19.3025 55.9001 19.3172 55.8292C19.3251 55.7913 19.3336 55.7559 19.3407 55.7205C19.3487 55.685 19.3577 55.6496 19.3647 55.6142C19.4006 55.4713 19.436 55.3406 19.4746 55.2245C19.5525 54.9863 19.6351 54.7982 19.7007 54.6943C19.7007 54.6943 19.5978 54.8507 19.4256 55.1072C19.3407 55.2379 19.236 55.3943 19.1214 55.5678C19.0039 55.7461 18.876 55.944 18.7388 56.1517C18.6025 56.3618 18.4557 56.5854 18.3067 56.8126C18.1561 57.0471 18.0019 57.2829 17.8453 57.5174C17.6878 57.7544 17.5273 57.9939 17.3664 58.2211C17.208 58.4483 17.0476 58.6657 16.8877 58.8685C16.7608 59.0261 16.6608 59.191 16.5853 59.3608C16.5093 59.527 16.4603 59.6968 16.4339 59.869C16.4183 59.9557 16.4098 60.0437 16.406 60.1317C16.4037 60.2172 16.4069 60.3027 16.415 60.3894C16.4215 60.4773 16.4339 60.5641 16.4513 60.6484C16.4697 60.7339 16.4918 60.8182 16.5197 60.9037C16.6249 61.2445 16.8036 61.5633 17.0249 61.8516C17.25 62.1363 17.5122 62.3928 17.7891 62.587C18.0652 62.7862 18.2902 62.9963 18.4765 63.2162C18.5133 63.2626 18.551 63.3078 18.5874 63.353C17.8439 62.9108 17.0593 62.3391 16.2772 61.6293C15.5739 60.9904 14.8775 60.2416 14.2049 59.4048C14.1869 59.1959 14.1955 58.9772 14.2718 58.7647C14.3529 58.5362 14.5058 58.3225 14.761 58.1539C14.761 58.1539 14.8592 58.033 15.005 57.8436C15.152 57.6555 15.3479 57.4014 15.5413 57.129C15.6395 56.9946 15.7347 56.8565 15.8266 56.7185C15.9164 56.5817 16.0013 56.4461 16.0706 56.319C16.1414 56.192 16.197 56.0747 16.2334 55.9709C16.2716 55.8646 16.2857 55.773 16.2725 55.7009C16.2616 55.6264 16.2522 55.5543 16.2428 55.4835C16.2352 55.4114 16.2319 55.3381 16.2258 55.2648C16.2238 55.1915 16.2196 55.1194 16.2149 55.0437C16.2126 54.9692 16.2088 54.891 16.2065 54.8141C16.2032 54.7347 16.1993 54.6553 16.1946 54.5697C16.1899 54.4867 16.1867 54.3987 16.1782 54.3059C16.172 54.2142 16.1597 54.1226 16.1493 54.0213C16.1385 53.9199 16.1253 53.816 16.1065 53.7048C16.0885 53.5961 16.0862 53.4703 16.0909 53.3359C16.0946 53.27 16.0993 53.2016 16.1065 53.1319C16.1159 53.0599 16.1282 52.989 16.1399 52.9145C16.1659 52.7691 16.1985 52.6189 16.2399 52.4674C16.2834 52.3184 16.3287 52.1681 16.3834 52.0227C16.4357 51.8786 16.4918 51.7381 16.5509 51.6074C16.6079 51.4755 16.6702 51.3521 16.7272 51.2434C16.7886 51.1334 16.8447 51.0369 16.8971 50.9563C16.9518 50.8756 17.0009 50.8133 17.0429 50.7694C17.0429 50.7694 16.5244 51.2947 15.8531 51.9726C15.6838 52.1449 15.5007 52.3293 15.3111 52.5162C15.121 52.7044 14.9261 52.8961 14.7285 53.0867C14.5294 53.2748 14.3279 53.4642 14.1284 53.6413C13.9298 53.8197 13.7293 53.9883 13.5335 54.1373C13.2264 54.378 13.0081 54.6601 12.874 54.9704C12.7391 55.2844 12.6859 55.6215 12.6953 55.9648C12.7169 56.6525 13.001 57.3562 13.3784 57.8974C13.4741 58.0317 13.5501 58.1686 13.6184 58.3005C13.6864 58.4361 13.7411 58.5704 13.7864 58.7024C13.8213 58.7964 13.8444 58.8881 13.8681 58.9797C13.8384 58.9406 13.8062 58.9052 13.777 58.8649C12.976 57.8057 12.2184 56.6184 11.5409 55.3332C11.2773 54.8336 11.0272 54.3144 10.7885 53.7842C10.7899 53.7696 10.7885 53.7549 10.7908 53.7415C10.8054 53.634 10.8296 53.5277 10.864 53.4214C10.9012 53.3139 10.9504 53.2089 11.0121 53.1124C11.1414 52.9181 11.33 52.752 11.6037 52.6506C11.6037 52.6506 11.632 52.6299 11.6834 52.5883C11.7353 52.5468 11.8074 52.4894 11.8985 52.4173C12.0754 52.2719 12.3132 52.0765 12.5518 51.8651C12.6713 51.7576 12.7896 51.6489 12.9033 51.5377C13.0165 51.4302 13.1237 51.3203 13.2156 51.214C13.3996 51.0064 13.5256 50.8158 13.5335 50.6704C13.5477 50.3821 13.6024 50.1158 13.6543 49.8153C13.6817 49.665 13.709 49.5075 13.7308 49.3315C13.7434 49.2411 13.7548 49.1495 13.7629 49.053C13.7713 48.9565 13.7793 48.8563 13.7879 48.7464C13.7954 48.6401 13.8152 48.5229 13.8468 48.3995C13.8807 48.2761 13.9251 48.1454 13.9784 48.0147C14.0294 47.8827 14.094 47.7484 14.1629 47.6164C14.2312 47.4833 14.3054 47.3538 14.3836 47.2292C14.4628 47.1058 14.544 46.9861 14.6237 46.8762C14.7053 46.765 14.7855 46.6648 14.8629 46.5744C15.0149 46.3924 15.1545 46.2617 15.2502 46.197C15.2502 46.197 14.6634 46.583 13.9039 47.0838C13.518 47.3391 13.0792 47.625 12.6377 47.9011C12.1933 48.1784 11.74 48.4495 11.3169 48.6536C10.9843 48.8172 10.7252 49.0384 10.5371 49.3022C10.4436 49.4329 10.3658 49.5759 10.304 49.7237C10.2417 49.8739 10.1988 50.0279 10.1677 50.1891C10.0432 50.8304 10.1558 51.5402 10.3852 52.118C10.4436 52.2609 10.4832 52.4051 10.5163 52.5443C10.5498 52.6812 10.5715 52.818 10.5824 52.9475C10.5951 53.0818 10.5988 53.2052 10.5951 53.3261C10.5951 53.3371 10.5951 53.3469 10.5928 53.3579C10.2946 52.6701 10.0186 51.9629 9.7672 51.2397C9.52048 50.5202 9.29779 49.7909 9.10673 49.0469C8.98174 48.5583 8.87269 48.0611 8.77511 47.5651C8.78972 47.5138 8.79914 47.4662 8.8204 47.4149C8.89443 47.2267 8.99962 47.0362 9.15903 46.8835C9.32001 46.7271 9.5299 46.616 9.80307 46.5744C9.80307 46.5744 9.92988 46.5146 10.1248 46.4181C10.3181 46.3216 10.5762 46.1884 10.8437 46.043C11.1102 45.8952 11.3815 45.7352 11.5966 45.5825C11.8112 45.4286 11.9717 45.282 12.0071 45.1525C12.0452 45.0242 12.0952 44.9045 12.1442 44.7836C12.1707 44.7225 12.1942 44.6602 12.2235 44.5991C12.2509 44.538 12.2806 44.4757 12.3093 44.4097C12.3392 44.3474 12.3679 44.2791 12.3981 44.2106C12.4273 44.1422 12.4585 44.0702 12.4901 43.9956C12.5203 43.9199 12.5495 43.8429 12.5807 43.7587C12.6112 43.6744 12.6439 43.5876 12.674 43.4948C12.6891 43.4496 12.708 43.4007 12.7297 43.3506C12.751 43.303 12.7802 43.2529 12.808 43.2016C12.8675 43.099 12.9373 42.9964 13.0165 42.8925C13.0977 42.7887 13.1863 42.6861 13.2793 42.5871C13.3251 42.5395 13.3736 42.4906 13.4241 42.443C13.4741 42.3966 13.5241 42.3501 13.5741 42.3049C13.6241 42.2585 13.6746 42.2158 13.7246 42.1755C13.7746 42.1327 13.8275 42.0936 13.8775 42.057C13.9784 41.9812 14.076 41.9128 14.1666 41.8554C14.2148 41.8249 14.2601 41.7968 14.3002 41.7699C14.3421 41.7443 14.3836 41.7198 14.4224 41.6978C14.4979 41.6551 14.562 41.6245 14.6143 41.605C14.6143 41.605 14.4591 41.6587 14.201 41.7467C14.1356 41.7687 14.0648 41.7943 13.9879 41.8188C13.9109 41.8432 13.8307 41.8689 13.7434 41.8957C13.5684 41.9519 13.3736 42.0154 13.1694 42.0802C12.9589 42.1486 12.7429 42.2207 12.5146 42.294C12.2877 42.3709 12.0514 42.4454 11.8159 42.5199C11.3451 42.669 10.8687 42.8119 10.4319 42.9084C10.086 42.9854 9.80307 43.1283 9.56806 43.3262C9.44874 43.4252 9.34827 43.5375 9.25769 43.6585C9.16712 43.7819 9.08789 43.9138 9.02751 44.0518C8.96326 44.1911 8.90759 44.3365 8.86798 44.4867C8.82982 44.637 8.80011 44.7897 8.78163 44.9436C8.76654 45.0975 8.75953 45.2551 8.76098 45.4054C8.76569 45.5568 8.77982 45.7071 8.79914 45.8525C8.80856 45.9221 8.81569 45.9917 8.82136 46.0601C8.8274 46.131 8.82837 46.197 8.82837 46.2641C8.8274 46.3313 8.82366 46.3948 8.81895 46.4596C8.81424 46.5231 8.80856 46.5866 8.80011 46.6465C8.78308 46.7699 8.75953 46.8859 8.72934 46.9959C8.71895 47.0411 8.70482 47.0814 8.69021 47.1254C8.67089 47.0167 8.64577 46.9079 8.62935 46.798C8.37405 45.2869 8.24954 43.7587 8.29482 42.2634C8.29724 42.1694 8.29953 42.0777 8.3034 41.9849C8.30666 41.8908 8.31282 41.798 8.31849 41.7039C8.32369 41.6135 8.32972 41.5207 8.33311 41.4266C8.34156 41.3326 8.34953 41.2409 8.35666 41.1481C8.35666 41.142 8.35666 41.1383 8.35895 41.1359C8.40243 41.0541 8.45242 40.9685 8.51474 40.8842C8.6256 40.7316 8.77608 40.5862 8.96145 40.4848C9.1449 40.3834 9.3653 40.3309 9.62277 40.3614C9.62277 40.3614 9.75295 40.337 9.95258 40.2967C10.1521 40.2539 10.4206 40.1965 10.7012 40.1281C10.9809 40.0585 11.2692 39.979 11.5032 39.8935C11.6188 39.8495 11.7225 39.8031 11.8042 39.7555C11.8891 39.7091 11.9517 39.6602 11.9858 39.6052C12.124 39.3951 12.2744 39.2131 12.4514 39.0091C12.5387 38.9065 12.626 38.7978 12.7193 38.6756C12.8161 38.5534 12.9161 38.4191 13.0165 38.2639C13.0292 38.2456 13.0438 38.2249 13.0586 38.2065C13.0727 38.187 13.0888 38.1674 13.1061 38.1479C13.1396 38.1076 13.1774 38.0685 13.218 38.0294C13.2972 37.9512 13.3878 37.873 13.486 37.7948C13.5835 37.7191 13.6934 37.6458 13.8035 37.5762C13.9156 37.5041 14.0294 37.4381 14.1426 37.3771C14.3771 37.2561 14.6063 37.1572 14.8021 37.0875C15.0002 37.0179 15.1676 36.9776 15.27 36.9678C15.27 36.9678 14.6454 37.0155 13.8369 37.0741C13.6303 37.09 13.4105 37.1059 13.1849 37.1217C12.9618 37.1388 12.7288 37.1547 12.4957 37.1682C12.2627 37.1816 12.0287 37.1938 11.7995 37.1999C11.6844 37.2036 11.5725 37.2048 11.4626 37.2048C11.3513 37.2048 11.2437 37.2036 11.139 37.1999C10.8093 37.1877 10.5116 37.2512 10.2493 37.3758C10.1818 37.4064 10.1186 37.4406 10.0568 37.4797C9.99545 37.5175 9.937 37.5578 9.88133 37.6018C9.77143 37.691 9.66576 37.7936 9.56903 37.9035C9.47229 38.0135 9.39114 38.1332 9.31711 38.259C9.24308 38.3824 9.17654 38.5156 9.11893 38.6512C9.06471 38.7856 9.01845 38.9224 8.98174 39.0616C8.94442 39.1985 8.91472 39.3353 8.89914 39.4684C8.88223 39.6052 8.85385 39.7311 8.81895 39.8496C8.80011 39.9094 8.77982 39.9681 8.75808 40.0242C8.73876 40.0817 8.71751 40.1342 8.69347 40.1904C8.61051 40.3883 8.50242 40.5581 8.39772 40.7047C8.40098 40.668 8.40339 40.6314 8.4081 40.5923C8.42887 40.4078 8.45097 40.2258 8.47175 40.0413C8.56848 39.3108 8.69347 38.595 8.84914 37.8962C9.00904 37.1999 9.19876 36.5219 9.41288 35.8659C9.46758 35.701 9.52519 35.541 9.57748 35.3798C9.63738 35.2197 9.6974 35.0597 9.75537 34.9021C9.75911 34.8899 9.76479 34.8801 9.76853 34.8667C9.84268 34.7751 9.95778 34.6566 10.0954 34.5515C10.1677 34.4965 10.2456 34.4452 10.3285 34.4013C10.3715 34.3805 10.4149 34.3622 10.4587 34.3451C10.5045 34.328 10.5522 34.3133 10.6012 34.3023C10.7932 34.2559 11.0059 34.262 11.2296 34.3512C11.2296 34.3512 11.7249 34.3927 12.2627 34.4061C12.5315 34.4147 12.8114 34.4135 13.0453 34.3927C13.2784 34.3707 13.4647 34.328 13.5576 34.2486C13.7387 34.0897 13.9228 33.9627 14.1379 33.8173C14.1907 33.7795 14.244 33.7428 14.2992 33.7025C14.3529 33.6622 14.4105 33.617 14.47 33.5755C14.5907 33.4838 14.7157 33.3812 14.8498 33.2615C14.9908 33.1418 15.1842 33.0258 15.4064 32.9244C15.5172 32.8755 15.6356 32.8291 15.7578 32.7839C15.8187 32.7643 15.8781 32.7423 15.939 32.724C16.0003 32.7045 16.0612 32.6849 16.123 32.6678C16.6126 32.5298 17.0825 32.4699 17.2755 32.4883C17.2755 32.4883 17.1301 32.4736 16.89 32.443C16.7692 32.4272 16.6235 32.4088 16.4612 32.3856C16.2975 32.3624 16.1169 32.338 15.9271 32.3124C15.5413 32.2598 15.103 32.1938 14.6751 32.1193C14.243 32.0436 13.8119 31.9569 13.4331 31.8457C13.1373 31.7602 12.8515 31.7541 12.5815 31.8066C12.3085 31.8579 12.0608 31.974 11.8315 32.1279C11.774 32.167 11.7178 32.2061 11.6646 32.2525C11.6107 32.294 11.5593 32.3404 11.5079 32.3881C11.4088 32.4858 11.3145 32.5872 11.2286 32.6959C11.1437 32.8046 11.0659 32.917 10.9965 33.0319C10.9621 33.0893 10.9272 33.1467 10.8979 33.2053C10.8677 33.2627 10.8408 33.3214 10.8149 33.3812C10.764 33.4949 10.705 33.6023 10.6403 33.7001C10.5762 33.799 10.5116 33.8906 10.4413 33.9725C10.3706 34.0568 10.2969 34.135 10.2238 34.2021C10.1503 34.2706 10.0795 34.3329 10.0078 34.3878C9.98374 34.4086 9.96249 34.422 9.9393 34.4391C9.94075 34.4391 9.94075 34.4367 9.94075 34.4342C9.97335 34.3585 10.0026 34.2803 10.0351 34.2046C10.0662 34.1276 10.1021 34.0531 10.1342 33.9774C10.1677 33.9004 10.1988 33.8259 10.2318 33.7501C10.2658 33.6756 10.2969 33.6023 10.3342 33.5278C10.4017 33.3812 10.471 33.2359 10.5403 33.0905C10.6092 32.9463 10.6837 32.8059 10.7554 32.6642C10.7899 32.5933 10.8244 32.5237 10.8606 32.4528C10.8979 32.3856 10.9353 32.316 10.9725 32.2464C11.0088 32.178 11.047 32.1108 11.0814 32.0424C11.1008 32.0082 11.1182 31.974 11.1375 31.9398C11.1565 31.9068 11.1763 31.8738 11.1951 31.8408C11.2706 31.7064 11.3451 31.5745 11.4206 31.4438C11.498 31.3143 11.5744 31.186 11.6513 31.0614C11.6896 30.9979 11.7249 30.9332 11.7646 30.8721C11.8042 30.8086 11.8423 30.7475 11.8829 30.6876C12.2197 30.1501 12.5622 29.6517 12.9005 29.1838C12.9033 29.1887 12.9128 29.1973 12.9128 29.1973C12.9128 29.1973 12.9665 29.1484 13.0594 29.0788C13.1491 29.0091 13.2831 28.9249 13.4368 28.8565C13.593 28.7881 13.7689 28.7343 13.9553 28.7343C14.1416 28.7343 14.3336 28.7807 14.5152 28.9065C14.5152 28.9065 14.9601 29.0434 15.4484 29.157C15.6942 29.2119 15.9521 29.2632 16.1739 29.2816C16.3951 29.3036 16.5806 29.2962 16.6853 29.2327C16.8947 29.1093 17.0976 29.0189 17.3339 28.9065C17.566 28.7929 17.8288 28.661 18.142 28.4582C18.3028 28.3544 18.5133 28.264 18.751 28.1883C18.9888 28.1101 19.2449 28.0478 19.4988 27.9989C20.0026 27.9012 20.4781 27.8621 20.662 27.8951C20.662 27.8951 20.5238 27.8706 20.2955 27.8242C20.0648 27.7778 19.7445 27.7106 19.386 27.6239C18.6638 27.4516 17.7764 27.2122 17.1112 26.9092C16.5876 26.6698 16.047 26.7284 15.564 26.9459C15.4422 26.9984 15.3262 27.0632 15.2139 27.1365C15.1021 27.2085 14.9931 27.2879 14.8917 27.3734C14.7912 27.4589 14.6969 27.5469 14.6073 27.6398C14.562 27.6874 14.52 27.7326 14.4794 27.7815C14.4388 27.8291 14.4021 27.8792 14.3653 27.928C14.2916 28.0245 14.2148 28.1113 14.1331 28.1895C14.052 28.2677 13.9704 28.3385 13.8874 28.4008C13.8035 28.4619 13.7199 28.5181 13.6364 28.5645C13.5548 28.6133 13.4741 28.6561 13.3972 28.6928C13.3298 28.7233 13.2637 28.7502 13.2029 28.7722C13.3808 28.5352 13.5548 28.3043 13.727 28.0869C13.9218 27.8389 14.1104 27.6031 14.2945 27.3808C14.6039 27.0045 15.7432 25.3114 16.1263 24.7409C16.3951 24.5381 16.7117 24.3928 17.0702 24.4025C17.0702 24.4025 19.2633 23.7624 19.4842 23.1822C19.7072 22.6007 20.0219 22.1511 20.3073 21.2349C20.5937 20.3175 21.848 18.9103 22.2504 18.6782C22.2504 18.6782 19.8342 20.0476 18.0759 20.4495C16.6895 20.7659 16.1914 22.2831 16.1914 23.4839C16.1914 23.9286 16.0489 24.3146 15.8672 24.6334C14.8172 25.811 13.3496 27.4577 13.2038 27.6422C13.0712 27.812 12.9245 27.9867 12.7765 28.1662C12.7812 28.1149 12.7849 28.0648 12.7929 28.0099C12.824 27.8315 12.8769 27.6312 12.9651 27.4211C13.0104 27.316 13.0665 27.211 13.1297 27.1047C13.1967 27.0009 13.2703 26.8958 13.3637 26.7932C13.7223 26.3839 14.0591 25.8636 14.2218 25.3138C14.3054 25.0414 14.343 24.7605 14.3218 24.4832C14.2992 24.2095 14.2157 23.9383 14.0473 23.6818C13.6231 23.038 13.2608 22.1267 13.0104 21.3803C12.8864 21.0041 12.7859 20.673 12.7193 20.4324C12.6518 20.1917 12.6151 20.0451 12.6151 20.0451C12.6627 20.243 12.6448 20.7573 12.5622 21.3266C12.5216 21.6075 12.4655 21.9093 12.3919 22.1829C12.3197 22.4602 12.2301 22.7143 12.124 22.9134C11.699 23.7123 11.6131 24.2144 11.3862 24.7507C11.2716 25.0243 11.4744 25.5777 11.7169 26.0602C11.8362 26.2997 11.9636 26.5232 12.0636 26.6832C12.1613 26.8457 12.2301 26.9471 12.2301 26.9471C12.4226 27.0937 12.5264 27.2733 12.5783 27.4638C12.6307 27.652 12.625 27.8474 12.6018 28.027C12.5783 28.209 12.5306 28.369 12.4877 28.4851C12.4797 28.5046 12.4764 28.5168 12.4702 28.5315C12.0264 29.0592 11.5584 29.6248 11.1565 30.2637C11.1159 30.3273 11.0753 30.3908 11.0361 30.4543C10.9956 30.519 10.9574 30.585 10.9177 30.6497C10.839 30.7805 10.7601 30.9124 10.679 31.048C10.6022 31.1811 10.5248 31.3167 10.447 31.4548C10.428 31.489 10.4064 31.522 10.3875 31.5574C10.3681 31.594 10.3493 31.627 10.33 31.6637C10.2931 31.7321 10.255 31.8042 10.2177 31.8738C10.1785 31.9459 10.1399 32.0167 10.1021 32.0876C10.063 32.1596 10.029 32.2329 9.99074 32.305C9.91949 32.4504 9.84268 32.5957 9.77143 32.7448C9.69921 32.8975 9.62748 33.0465 9.55635 33.198C9.51903 33.2762 9.48642 33.3519 9.45345 33.4313C9.41759 33.5071 9.38413 33.584 9.34923 33.6646C9.34066 33.6842 9.33124 33.7049 9.32182 33.7245C9.32001 33.5877 9.32327 33.4435 9.34537 33.2872C9.35201 33.2273 9.36529 33.1675 9.37942 33.1076C9.39452 33.0465 9.41143 32.9854 9.43172 32.9231C9.47229 32.7985 9.52229 32.6703 9.5898 32.5457C9.72711 32.2928 9.83327 32.0106 9.91949 31.7199C9.94075 31.6453 9.96007 31.5733 9.97661 31.4988C9.99316 31.423 10.0078 31.3485 10.0209 31.2716C10.0469 31.1213 10.063 30.971 10.0677 30.8171C10.0719 30.6632 10.0696 30.5141 10.0521 30.3627C10.0351 30.2136 10.004 30.0658 9.96007 29.9229C9.87191 29.6358 9.72469 29.3634 9.50116 29.1264C9.36046 28.9762 9.22037 28.8051 9.08318 28.6231C8.94732 28.4411 8.81424 28.2457 8.68635 28.0478C8.56003 27.8474 8.43829 27.6397 8.32502 27.4345C8.21137 27.2293 8.10715 27.029 8.01175 26.8335C7.82311 26.4438 7.66937 26.0883 7.56745 25.8355C7.46456 25.5777 7.40755 25.4189 7.40755 25.4189C7.44245 25.5264 7.47494 25.7304 7.49946 25.9918C7.52832 26.2545 7.54861 26.5733 7.55513 26.9068C7.5759 27.5799 7.55042 28.3092 7.40043 28.7966C7.36082 28.9175 7.32966 29.0311 7.29995 29.1386C7.27205 29.2461 7.2514 29.3487 7.2316 29.4452C7.19331 29.6395 7.16735 29.8117 7.15044 29.973C7.1339 30.1379 7.11977 30.2882 7.10515 30.4384C7.09658 30.5142 7.08583 30.5899 7.07774 30.6656C7.06687 30.7401 7.05468 30.8208 7.04187 30.9002C7.01362 31.0614 7.08583 31.274 7.21034 31.5024C7.33678 31.7321 7.516 31.9764 7.7009 32.1963C7.88724 32.4174 8.07503 32.6153 8.21935 32.7582C8.36511 32.8999 8.46233 32.9866 8.46233 32.9866C8.69867 33.088 8.8553 33.2481 8.95856 33.4276C9.06374 33.6072 9.11145 33.81 9.14019 34.0006C9.1478 34.0494 9.1478 34.091 9.14961 34.1374V34.1386C9.08548 34.2987 9.01713 34.4587 8.95856 34.6224C8.89817 34.7873 8.83646 34.9498 8.77511 35.1159C8.7175 35.2845 8.66135 35.4518 8.60338 35.6204C8.38069 36.2996 8.18493 37.002 8.01742 37.7228C7.85898 38.4459 7.72879 39.1875 7.6288 39.9412C7.616 40.0438 7.60561 40.1464 7.59245 40.2466C7.55513 40.1281 7.52168 39.9998 7.49946 39.8618C7.48303 39.7359 7.47313 39.6065 7.47398 39.4684C7.47398 39.4025 7.47784 39.3316 7.48388 39.2595C7.491 39.1875 7.49716 39.1154 7.51359 39.0421C7.54245 38.8943 7.56129 38.7428 7.57071 38.5877C7.5759 38.5107 7.5759 38.4325 7.5759 38.3543C7.57832 38.2749 7.5759 38.1943 7.57216 38.1173C7.5637 37.9573 7.54475 37.7973 7.51455 37.6397C7.48859 37.4797 7.45284 37.3221 7.40284 37.167C7.30369 36.8554 7.16977 36.5598 6.98101 36.2923C6.88669 36.1579 6.78054 36.0321 6.65977 35.9185C6.54142 35.8036 6.40785 35.6998 6.25931 35.6082C5.88421 35.3798 5.48798 35.0695 5.10587 34.7262C4.72703 34.3842 4.36763 34.0079 4.05581 33.6524C3.89821 33.4741 3.7609 33.3018 3.63494 33.1467C3.50995 32.9879 3.40005 32.8437 3.31044 32.724C3.12977 32.4797 3.02736 32.3246 3.02736 32.3246C3.08968 32.4272 3.18871 32.6422 3.29716 32.9219C3.35198 33.0575 3.40802 33.2114 3.4684 33.3764C3.53023 33.54 3.5911 33.7147 3.65245 33.8931C3.68071 33.9835 3.71042 34.0727 3.73928 34.1643C3.76658 34.2534 3.79532 34.3475 3.82273 34.4367C3.87889 34.6187 3.93082 34.8032 3.97176 34.9778C3.99494 35.0646 4.01137 35.1513 4.02984 35.2368C4.04723 35.3236 4.06378 35.4042 4.07368 35.4848C4.10013 35.6461 4.11281 35.7963 4.1081 35.9344C4.10339 36.0712 4.1081 36.1982 4.11378 36.3143C4.12187 36.434 4.12984 36.5415 4.14071 36.6429C4.15242 36.7431 4.16474 36.8383 4.18032 36.9287C4.19542 37.0191 4.21377 37.1046 4.23128 37.1865C4.30435 37.5114 4.3756 37.7838 4.42233 38.1247C4.44407 38.2957 4.58271 38.4924 4.77992 38.6866C4.98039 38.8821 5.24077 39.0751 5.4974 39.2437C5.75306 39.4122 6.00643 39.5552 6.19748 39.6578C6.29047 39.7091 6.37199 39.7494 6.42669 39.7738C6.48285 39.8031 6.51401 39.8178 6.51401 39.8178C6.78392 39.8496 6.99284 39.9656 7.15564 40.1171C7.31879 40.271 7.43207 40.4591 7.516 40.6412C7.52832 40.6644 7.53388 40.6839 7.54475 40.7083C7.54148 40.7377 7.53774 40.767 7.53533 40.7975C7.52832 40.8904 7.51842 40.9893 7.51129 41.0846C7.50284 41.1799 7.49571 41.2776 7.48629 41.3729C7.48158 41.4669 7.47494 41.5634 7.46927 41.6612C7.46456 41.7565 7.4584 41.8542 7.45369 41.9519C7.45284 42.0472 7.44898 42.1437 7.44572 42.2414C7.40043 43.7928 7.52832 45.3736 7.7905 46.9287C7.79195 46.9433 7.79533 46.9568 7.79763 46.9702C7.73821 46.8762 7.67735 46.7748 7.6259 46.6648C7.51359 46.4242 7.42265 46.1456 7.39101 45.8341C7.32121 45.2087 7.06216 44.5564 6.65276 43.9956C6.45036 43.7159 6.20219 43.4569 5.92479 43.2456C5.78373 43.1393 5.63374 43.044 5.47385 42.9646C5.31576 42.8791 5.14874 42.8144 4.97194 42.763C4.74732 42.702 4.51098 42.6189 4.26763 42.5236C4.14638 42.4748 4.02513 42.4247 3.89966 42.3709C3.77599 42.3159 3.65342 42.2561 3.53168 42.1962C3.0392 41.9544 2.55094 41.6722 2.12826 41.3973C1.91499 41.2581 1.71596 41.12 1.53904 40.9942C1.3626 40.872 1.20838 40.7596 1.07953 40.6631C0.820121 40.4701 0.666266 40.3467 0.666266 40.3467C0.76155 40.4322 0.930984 40.6228 1.13665 40.8684C1.23809 40.9917 1.35367 41.1383 1.47202 41.2935C1.52962 41.3692 1.59049 41.4486 1.65136 41.528C1.71126 41.6111 1.77297 41.6942 1.83576 41.7772C1.95931 41.947 2.08394 42.1181 2.20084 42.2903C2.32028 42.4625 2.43634 42.6336 2.53911 42.8021C2.64152 42.9719 2.73825 43.1332 2.81506 43.2896C2.89102 43.4459 2.95092 43.5974 2.99246 43.7355C3.03207 43.8759 3.0741 44.0005 3.11565 44.1166C3.1561 44.2326 3.20187 44.3365 3.24486 44.4342C3.33206 44.626 3.41708 44.786 3.50475 44.9301C3.59207 45.0743 3.67697 45.2075 3.75619 45.3455C3.83879 45.4811 3.91572 45.6228 3.98782 45.7889C4.0581 45.9551 4.26292 46.1127 4.52281 46.2531C4.65445 46.3215 4.79732 46.3863 4.94779 46.4474C5.09971 46.5048 5.25731 46.5597 5.41395 46.6086C5.72431 46.7051 6.02394 46.7784 6.24747 46.8261C6.47113 46.8749 6.61786 46.8994 6.61786 46.8994C6.89852 46.8554 7.14429 46.914 7.35369 47.0215C7.4584 47.0741 7.55332 47.14 7.64148 47.2133C7.72976 47.2854 7.81043 47.3648 7.88023 47.4479C7.88398 47.4515 7.88724 47.4576 7.89098 47.4613C8.00619 48.0587 8.13215 48.6548 8.28311 49.2411C8.47887 50.0046 8.70808 50.7571 8.96242 51.4938C9.19163 52.1571 9.44633 52.8082 9.71624 53.4447C9.46058 53.1894 9.21712 52.8595 9.05903 52.4332C8.83078 51.8126 8.37888 51.225 7.79292 50.7718C7.49716 50.5495 7.17592 50.3565 6.82305 50.2196C6.47343 50.0804 6.10074 49.9961 5.71393 49.9876C5.22145 49.979 4.66097 49.9081 4.09071 49.8019C3.94821 49.7738 3.80619 49.7469 3.66284 49.7151C3.52226 49.6846 3.38121 49.6504 3.24245 49.6162C2.96324 49.5466 2.692 49.472 2.43295 49.3963C1.92018 49.2436 1.47202 49.0848 1.14836 48.9638C0.986657 48.9052 0.858284 48.8515 0.770125 48.816C0.681362 48.7806 0.632812 48.7611 0.632812 48.7611C0.693196 48.7928 0.781839 48.8417 0.893185 48.9101C1.0026 48.9785 1.13568 49.0604 1.28386 49.1581C1.43047 49.2522 1.59182 49.3621 1.76125 49.4781C1.9325 49.5942 2.11123 49.72 2.28767 49.8483C2.46689 49.979 2.65094 50.1121 2.82448 50.2477C2.91276 50.3149 2.99766 50.3821 3.08062 50.4505C3.16468 50.5202 3.24716 50.5886 3.3265 50.657C3.4835 50.7926 3.62371 50.9306 3.74918 51.0638C3.87273 51.1994 3.9784 51.3313 4.05339 51.4584C4.20725 51.7149 4.35434 51.914 4.48972 52.0813C4.62945 52.2438 4.75589 52.3721 4.87992 52.4894C5.00298 52.6066 5.12242 52.7093 5.23751 52.8204C5.29692 52.8766 5.35308 52.934 5.40924 52.9975C5.4672 53.0598 5.52614 53.1295 5.58616 53.2016C5.70028 53.3494 5.94326 53.463 6.24518 53.5399C6.54661 53.6193 6.90082 53.6658 7.24102 53.6902C7.92455 53.7378 8.543 53.7024 8.543 53.7024C8.67934 53.6462 8.81424 53.6181 8.94587 53.612C9.07751 53.6059 9.20347 53.6218 9.32472 53.6523C9.55248 53.7073 9.7544 53.8221 9.93374 53.9431C10.2026 54.5429 10.4832 55.1341 10.7838 55.7034C11.4791 57.019 12.2546 58.2382 13.0792 59.3303C13.0151 59.29 12.9495 59.2545 12.8864 59.2045C12.7679 59.1153 12.651 59.0139 12.5387 58.8991C12.4273 58.783 12.3197 58.6535 12.2212 58.5069C11.8296 57.9316 11.207 57.4564 10.4819 57.1412C10.1224 56.9861 9.73085 56.8749 9.3351 56.8175C9.13692 56.7881 8.93549 56.7735 8.73405 56.7771C8.53358 56.7808 8.33311 56.7991 8.13493 56.8394C7.88398 56.8871 7.61032 56.9262 7.32254 56.9531C7.17919 56.9726 7.03101 56.9811 6.88053 56.9921C6.73296 57.0007 6.58055 57.0093 6.42911 57.0129C6.12478 57.0227 5.81537 57.0227 5.51068 57.0178C5.20586 57.0105 4.9124 56.997 4.62945 56.9763C4.34686 56.9604 4.07839 56.9384 3.83879 56.9103C3.59678 56.8859 3.38217 56.8578 3.20187 56.8346C3.02024 56.8126 2.87448 56.7882 2.77545 56.7735C2.674 56.7588 2.61833 56.7503 2.61833 56.7503C2.75709 56.7833 3.04053 56.8749 3.39763 56.9995C3.57456 57.0667 3.7737 57.1363 3.98311 57.2133C4.193 57.2914 4.40821 57.3782 4.63319 57.4686C4.85589 57.5565 5.07942 57.6518 5.29837 57.7483C5.51817 57.8461 5.73048 57.9462 5.92853 58.0513C6.32911 58.259 6.66919 58.4776 6.89285 58.7085C7.33679 59.1702 7.67964 59.3865 7.98639 59.5599C8.06319 59.6002 8.13734 59.6406 8.21137 59.6796C8.2854 59.7212 8.35666 59.759 8.43117 59.8006C8.50242 59.8433 8.57645 59.8886 8.65193 59.9399C8.72463 59.9875 8.80011 60.0461 8.87982 60.1084C8.96145 60.1719 9.07038 60.2196 9.20009 60.2526C9.26615 60.2685 9.33595 60.2807 9.41058 60.2892C9.48413 60.299 9.56577 60.3039 9.64692 60.3076C9.97516 60.3186 10.3478 60.2843 10.7027 60.2281C11.0573 60.1719 11.3881 60.0974 11.632 60.0376C11.7542 60.0046 11.8527 59.9777 11.9216 59.9582C11.9905 59.9398 12.0287 59.9276 12.0287 59.9276C12.2791 59.7481 12.5495 59.6833 12.8099 59.687C12.9396 59.6882 13.068 59.7053 13.192 59.7334C13.2863 59.753 13.3751 59.7847 13.4613 59.8165C14.1808 60.7168 14.9308 61.5279 15.6918 62.2206C16.5004 62.956 17.3174 63.5545 18.1038 64.0224C18.0712 64.0163 18.0402 64.009 18.0095 64.0029C17.9722 63.9931 17.934 63.9833 17.8977 63.9723C17.7448 63.9284 17.5886 63.8758 17.4344 63.8013C17.358 63.7659 17.2806 63.7243 17.2033 63.6804C17.1263 63.6364 17.0509 63.5839 16.9763 63.5301C16.8226 63.4238 16.664 63.3237 16.4909 63.2382C16.4037 63.1978 16.3193 63.1551 16.2287 63.1172C16.1385 63.0793 16.0456 63.0439 15.9513 63.0134C15.8578 62.9792 15.7625 62.9474 15.6649 62.923C15.5668 62.8949 15.4658 62.8705 15.3658 62.846C15.2653 62.8265 15.1639 62.8045 15.0601 62.7911C15.0092 62.7813 14.9558 62.7727 14.9035 62.7666C14.8521 62.7605 14.7998 62.7544 14.7474 62.7471C14.6422 62.7361 14.5365 62.7275 14.4294 62.7226C14.3218 62.7178 14.2157 62.7153 14.1081 62.7153C13.8968 62.7165 13.6793 62.73 13.467 62.7593C13.0438 62.8118 12.6273 62.923 12.2457 63.105C11.7655 63.3322 11.1763 63.5435 10.553 63.7109C9.93459 63.8856 9.27895 64.0163 8.6855 64.1104C8.3883 64.158 8.10148 64.1971 7.8457 64.2264C7.58907 64.2533 7.3584 64.2765 7.16264 64.2948C6.96929 64.3083 6.80976 64.3217 6.70276 64.3266C6.59419 64.3315 6.53381 64.3351 6.53381 64.3351C6.83911 64.3486 7.82927 64.4598 8.8873 64.6173C9.15106 64.6576 9.41614 64.7004 9.68267 64.748C9.94884 64.7957 10.205 64.8494 10.4522 64.9081C10.6988 64.9643 10.9272 65.0302 11.14 65.1023C11.3513 65.1756 11.5352 65.2574 11.6943 65.3491C11.8527 65.4431 11.9962 65.5238 12.1316 65.5885C12.2688 65.6532 12.3944 65.707 12.5099 65.751C12.5684 65.7717 12.625 65.7925 12.6783 65.8084C12.7359 65.8255 12.7882 65.845 12.8396 65.8585C12.9434 65.8853 13.0401 65.9086 13.1321 65.9318C13.3185 65.9709 13.4963 66.0014 13.677 66.0417C13.7676 66.0625 13.8586 66.0869 13.9553 66.1162C14.0544 66.1443 14.1557 66.181 14.2648 66.2225C14.4818 66.3117 14.7998 66.286 15.1413 66.1956C15.3096 66.1504 15.488 66.0869 15.6649 66.0136C15.8399 65.9391 16.013 65.856 16.1795 65.7681C16.5126 65.5909 16.8113 65.3979 17.0263 65.2501C17.2386 65.1023 17.3703 64.9997 17.3703 64.9997C17.5354 64.7285 17.774 64.5648 18.0254 64.4646C18.2326 64.3901 18.452 64.3535 18.6614 64.3351C18.9826 64.5037 19.2978 64.6564 19.5964 64.7798C19.6959 64.8201 19.7936 64.8604 19.8879 64.8971C19.9861 64.9313 20.0799 64.9679 20.1734 64.9997C20.2653 65.0351 20.3573 65.0595 20.4469 65.0864C20.5365 65.1157 20.6224 65.1451 20.7102 65.1671C21.3966 65.3552 21.9565 65.4272 22.3376 65.4529C22.3839 65.4578 22.4292 65.4602 22.4712 65.4639C22.492 65.4651 22.5132 65.4651 22.5326 65.4676C22.5514 65.4676 22.5702 65.4676 22.5896 65.4676C22.6028 65.4712 22.6108 65.4712 22.6241 65.4712C23.2633 66.0185 23.7987 66.942 22.492 68.2674C21.4966 69.274 21.9329 72.2193 21.975 72.4844C21.9495 72.3085 21.8607 71.137 23.469 68.6804C24.5964 66.9555 24.1912 65.9342 23.7628 65.4248C24.0793 65.4077 24.3488 65.3906 24.3488 65.3906C26.2805 65.1939 26.3635 66.1907 26.3635 66.1907C25.8079 67.1326 26.5498 68.2601 26.5498 68.2601C26.4023 67.2437 27.3697 66.5682 27.6315 65.3906C27.7528 64.8396 27.9076 64.4842 27.7018 64.2912C27.4679 64.0688 27.1089 64.053 26.8117 64.1934Z" fill="#5184EA"/>
<g clip-path="url(#clip0_4033_8662)">
<path d="M75.7495 15.3469L71.3656 17.8008L72.3447 12.8731L68.6562 9.46215L73.6452 8.87062L75.7495 4.30859L77.8538 8.87062L82.8427 9.46215L79.1543 12.8731L80.1334 17.8008L75.7495 15.3469Z" fill="#5184EA"/>
</g>
<g clip-path="url(#clip1_4033_8662)">
<path d="M95.9933 15.9003L90.9832 18.7048L92.1021 13.0732L87.8867 9.17493L93.5884 8.4989L95.9933 3.28516L98.3982 8.4989L104.1 9.17493L99.8845 13.0732L101.003 18.7048L95.9933 15.9003Z" fill="#5184EA"/>
</g>
<g clip-path="url(#clip2_4033_8662)">
<path d="M120.233 17.4282L113.501 21.1967L115.004 13.6292L109.34 8.39095L117.002 7.48253L120.233 0.476562L123.465 7.48253L131.126 8.39095L125.462 13.6292L126.965 21.1967L120.233 17.4282Z" fill="#5184EA"/>
</g>
<g clip-path="url(#clip3_4033_8662)">
<path d="M144.47 15.9003L139.46 18.7048L140.579 13.0732L136.363 9.17493L142.065 8.4989L144.47 3.28516L146.875 8.4989L152.576 9.17493L148.361 13.0732L149.48 18.7048L144.47 15.9003Z" fill="#5184EA"/>
</g>
<g clip-path="url(#clip4_4033_8662)">
<path d="M164.714 15.3469L160.33 17.8008L161.31 12.8731L157.621 9.46215L162.61 8.87062L164.714 4.30859L166.819 8.87062L171.808 9.46215L168.119 12.8731L169.098 17.8008L164.714 15.3469Z" fill="#5184EA"/>
</g>
<path d="M44.7581 48.5625V33.2936H51.0857C52.2355 33.2936 53.2161 33.4912 54.0273 33.8862C54.8456 34.2742 55.4699 34.8315 55.9002 35.558C56.3305 36.2846 56.5457 37.1558 56.5457 38.1716V38.1928C56.5457 39.1804 56.2988 40.0657 55.805 40.8487C55.3182 41.6317 54.6445 42.189 53.7839 42.5206L57.0007 48.5625H53.3818L50.5355 43.0073C50.5143 43.0073 50.4896 43.0073 50.4614 43.0073C50.4332 43.0073 50.405 43.0073 50.3767 43.0073H47.9536V48.5625H44.7581ZM47.9536 40.6371H50.7365C51.5336 40.6371 52.1544 40.4219 52.5988 39.9916C53.0503 39.5613 53.276 38.9723 53.276 38.2245V38.2034C53.276 37.4697 53.0432 36.8842 52.5777 36.4469C52.1191 36.0095 51.4913 35.7908 50.6942 35.7908H47.9536V40.6371ZM63.6301 48.8059C62.4661 48.8059 61.4609 48.566 60.6144 48.0863C59.7749 47.5996 59.126 46.9083 58.6674 46.0124C58.216 45.1165 57.9902 44.0549 57.9902 42.8274V42.8168C57.9902 41.5965 58.216 40.5383 58.6674 39.6424C59.126 38.7465 59.7679 38.0517 60.5932 37.5579C61.4186 37.0641 62.3885 36.8172 63.5031 36.8172C64.6247 36.8172 65.5947 37.0571 66.413 37.5368C67.2313 38.0164 67.8591 38.6901 68.2964 39.5578C68.7409 40.4184 68.9631 41.4307 68.9631 42.5946V43.5469H59.5245V41.6H67.4923L66.032 43.4306V42.2137C66.032 41.5365 65.9262 40.9686 65.7146 40.5101C65.51 40.0516 65.2208 39.7059 64.8469 39.4731C64.4801 39.2403 64.0498 39.124 63.556 39.124C63.0693 39.124 62.6354 39.2439 62.2545 39.4837C61.8806 39.7236 61.5843 40.0763 61.3657 40.5418C61.154 41.0004 61.0482 41.5577 61.0482 42.2137V43.4411C61.0482 44.0831 61.154 44.6333 61.3657 45.0918C61.5843 45.5433 61.8912 45.8925 62.2862 46.1394C62.6813 46.3792 63.1504 46.4991 63.6936 46.4991C64.138 46.4991 64.5154 46.4321 64.8258 46.2981C65.1432 46.1641 65.3972 46.0018 65.5876 45.8114C65.7851 45.6138 65.9192 45.4269 65.9897 45.2505L66.0109 45.1871H68.8678L68.8467 45.3034C68.755 45.6914 68.5857 46.09 68.3388 46.4991C68.0989 46.9083 67.7674 47.2892 67.3441 47.6419C66.9279 47.9876 66.413 48.2697 65.7992 48.4884C65.1855 48.7001 64.4625 48.8059 63.6301 48.8059ZM75.984 48.8059C74.7989 48.8059 73.7831 48.5696 72.9366 48.0969C72.0971 47.6172 71.4517 46.9294 71.0002 46.0336C70.5487 45.1306 70.323 44.0513 70.323 42.7957V42.7851C70.323 41.5365 70.5487 40.4678 71.0002 39.5789C71.4517 38.6901 72.0971 38.0094 72.9366 37.5368C73.7831 37.0571 74.7918 36.8172 75.9628 36.8172C76.9927 36.8172 77.8816 37.0006 78.6293 37.3674C79.3771 37.7343 79.9661 38.2422 80.3964 38.8912C80.8267 39.5401 81.0736 40.2879 81.1371 41.1344V41.1873H78.2696L78.259 41.1238C78.1602 40.5736 77.9204 40.1221 77.5394 39.7694C77.1585 39.4167 76.6436 39.2403 75.9946 39.2403C75.4655 39.2403 75.0105 39.3814 74.6296 39.6636C74.2557 39.9387 73.9665 40.3408 73.7619 40.8699C73.5644 41.3989 73.4656 42.0373 73.4656 42.7851V42.8063C73.4656 43.5681 73.5644 44.2171 73.7619 44.7532C73.9665 45.2823 74.2557 45.6879 74.6296 45.9701C75.0105 46.2452 75.4655 46.3827 75.9946 46.3827C76.6224 46.3827 77.1268 46.224 77.5077 45.9066C77.8886 45.5821 78.1391 45.1271 78.259 44.5416L78.2696 44.4781H81.1477L81.1371 44.5416C81.0595 45.374 80.802 46.1112 80.3647 46.7531C79.9344 47.395 79.3489 47.8994 78.6082 48.2662C77.8675 48.626 76.9927 48.8059 75.984 48.8059ZM88.084 48.8059C86.92 48.8059 85.9113 48.566 85.0577 48.0863C84.2112 47.6067 83.5551 46.9224 83.0896 46.0336C82.631 45.1377 82.4018 44.0654 82.4018 42.8168V42.7957C82.4018 41.5612 82.6346 40.496 83.1001 39.6001C83.5657 38.7042 84.2218 38.0164 85.0683 37.5368C85.9218 37.0571 86.9271 36.8172 88.084 36.8172C89.2479 36.8172 90.2531 37.0571 91.0996 37.5368C91.9532 38.0164 92.6128 38.7042 93.0783 39.6001C93.5439 40.4889 93.7767 41.5541 93.7767 42.7957V42.8168C93.7767 44.0654 93.5439 45.1377 93.0783 46.0336C92.6198 46.9224 91.9673 47.6067 91.1208 48.0863C90.2743 48.566 89.262 48.8059 88.084 48.8059ZM88.0945 46.3827C88.6236 46.3827 89.0751 46.2417 89.4489 45.9595C89.8228 45.6773 90.112 45.2717 90.3166 44.7426C90.5212 44.2136 90.6235 43.5716 90.6235 42.8168V42.7957C90.6235 42.0479 90.5212 41.4095 90.3166 40.8805C90.112 40.3514 89.8193 39.9458 89.4384 39.6636C89.0645 39.3814 88.613 39.2403 88.084 39.2403C87.569 39.2403 87.1211 39.3814 86.7401 39.6636C86.3592 39.9458 86.0665 40.3514 85.8619 40.8805C85.6573 41.4095 85.555 42.0479 85.555 42.7957V42.8168C85.555 43.5716 85.6573 44.2136 85.8619 44.7426C86.0665 45.2717 86.3557 45.6773 86.7295 45.9595C87.1105 46.2417 87.5655 46.3827 88.0945 46.3827ZM95.6445 48.5625V37.0606H98.7343V38.9229H98.8613C99.1011 38.2669 99.5032 37.7519 100.068 37.378C100.632 37.0042 101.295 36.8172 102.057 36.8172C102.586 36.8172 103.062 36.9054 103.485 37.0818C103.916 37.2581 104.279 37.5156 104.575 37.8542C104.879 38.1857 105.101 38.5878 105.242 39.0605H105.369C105.545 38.6019 105.803 38.2069 106.141 37.8754C106.487 37.5438 106.892 37.2863 107.358 37.1029C107.831 36.9125 108.339 36.8172 108.882 36.8172C109.644 36.8172 110.303 36.9759 110.86 37.2934C111.425 37.6108 111.859 38.0588 112.162 38.6372C112.472 39.2157 112.628 39.8964 112.628 40.6794V48.5625H109.538V41.4624C109.538 41.0039 109.467 40.623 109.326 40.3196C109.185 40.0093 108.973 39.7765 108.691 39.6213C108.416 39.459 108.067 39.3779 107.644 39.3779C107.242 39.3779 106.889 39.4696 106.586 39.653C106.289 39.8364 106.06 40.0904 105.898 40.4149C105.736 40.7323 105.654 41.1027 105.654 41.5259V48.5625H102.618V41.3354C102.618 40.9263 102.54 40.5771 102.385 40.2879C102.237 39.9916 102.022 39.7659 101.739 39.6107C101.464 39.4555 101.129 39.3779 100.734 39.3779C100.339 39.3779 99.9899 39.4767 99.6866 39.6742C99.3903 39.8646 99.1575 40.1292 98.9882 40.4678C98.8189 40.7993 98.7343 41.1838 98.7343 41.6211V48.5625H95.6445ZM114.919 48.5625V37.0606H118.008V38.9229H118.135C118.375 38.2669 118.777 37.7519 119.342 37.378C119.906 37.0042 120.569 36.8172 121.331 36.8172C121.86 36.8172 122.336 36.9054 122.759 37.0818C123.19 37.2581 123.553 37.5156 123.849 37.8542C124.153 38.1857 124.375 38.5878 124.516 39.0605H124.643C124.819 38.6019 125.077 38.2069 125.415 37.8754C125.761 37.5438 126.167 37.2863 126.632 37.1029C127.105 36.9125 127.613 36.8172 128.156 36.8172C128.918 36.8172 129.577 36.9759 130.135 37.2934C130.699 37.6108 131.133 38.0588 131.436 38.6372C131.746 39.2157 131.902 39.8964 131.902 40.6794V48.5625H128.812V41.4624C128.812 41.0039 128.741 40.623 128.6 40.3196C128.459 40.0093 128.248 39.7765 127.965 39.6213C127.69 39.459 127.341 39.3779 126.918 39.3779C126.516 39.3779 126.163 39.4696 125.86 39.653C125.563 39.8364 125.334 40.0904 125.172 40.4149C125.01 40.7323 124.929 41.1027 124.929 41.5259V48.5625H121.892V41.3354C121.892 40.9263 121.814 40.5771 121.659 40.2879C121.511 39.9916 121.296 39.7659 121.013 39.6107C120.738 39.4555 120.403 39.3779 120.008 39.3779C119.613 39.3779 119.264 39.4767 118.961 39.6742C118.664 39.8646 118.432 40.1292 118.262 40.4678C118.093 40.7993 118.008 41.1838 118.008 41.6211V48.5625H114.919ZM139.325 48.8059C138.161 48.8059 137.156 48.566 136.309 48.0863C135.47 47.5996 134.821 46.9083 134.362 46.0124C133.911 45.1165 133.685 44.0549 133.685 42.8274V42.8168C133.685 41.5965 133.911 40.5383 134.362 39.6424C134.821 38.7465 135.463 38.0517 136.288 37.5579C137.113 37.0641 138.083 36.8172 139.198 36.8172C140.319 36.8172 141.289 37.0571 142.108 37.5368C142.926 38.0164 143.554 38.6901 143.991 39.5578C144.435 40.4184 144.658 41.4307 144.658 42.5946V43.5469H135.219V41.6H143.187L141.727 43.4306V42.2137C141.727 41.5365 141.621 40.9686 141.409 40.5101C141.205 40.0516 140.915 39.7059 140.542 39.4731C140.175 39.2403 139.744 39.124 139.251 39.124C138.764 39.124 138.33 39.2439 137.949 39.4837C137.575 39.7236 137.279 40.0763 137.06 40.5418C136.849 41.0004 136.743 41.5577 136.743 42.2137V43.4411C136.743 44.0831 136.849 44.6333 137.06 45.0918C137.279 45.5433 137.586 45.8925 137.981 46.1394C138.376 46.3792 138.845 46.4991 139.388 46.4991C139.833 46.4991 140.21 46.4321 140.52 46.2981C140.838 46.1641 141.092 46.0018 141.282 45.8114C141.48 45.6138 141.614 45.4269 141.684 45.2505L141.706 45.1871H144.562L144.541 45.3034C144.45 45.6914 144.28 46.09 144.033 46.4991C143.794 46.9083 143.462 47.2892 143.039 47.6419C142.623 47.9876 142.108 48.2697 141.494 48.4884C140.88 48.7001 140.157 48.8059 139.325 48.8059ZM146.526 48.5625V37.0606H149.615V38.8912H149.742C150.017 38.2492 150.441 37.7449 151.012 37.378C151.583 37.0042 152.292 36.8172 153.139 36.8172C154.409 36.8172 155.382 37.1946 156.059 37.9494C156.744 38.7042 157.086 39.7659 157.086 41.1344V48.5625H153.996V41.801C153.996 41.018 153.823 40.4184 153.477 40.0022C153.132 39.586 152.603 39.3779 151.89 39.3779C151.425 39.3779 151.019 39.4837 150.673 39.6953C150.335 39.907 150.074 40.2032 149.89 40.5842C149.707 40.9651 149.615 41.413 149.615 41.928V48.5625H146.526ZM163.535 48.7741C162.576 48.7741 161.747 48.5343 161.049 48.0546C160.35 47.5749 159.811 46.8906 159.43 46.0018C159.049 45.113 158.858 44.0513 158.858 42.8168V42.7957C158.858 41.5612 159.045 40.4995 159.419 39.6107C159.8 38.7219 160.34 38.0411 161.038 37.5685C161.736 37.0888 162.569 36.849 163.535 36.849C164.071 36.849 164.565 36.9371 165.017 37.1135C165.468 37.2828 165.867 37.5262 166.212 37.8436C166.558 38.154 166.83 38.5314 167.027 38.9758H167.154V32.8598H170.244V48.5625H167.154V46.7002H167.027C166.822 47.1305 166.551 47.5008 166.212 47.8112C165.881 48.1146 165.489 48.3509 165.038 48.5202C164.586 48.6895 164.085 48.7741 163.535 48.7741ZM164.583 46.2134C165.105 46.2134 165.56 46.0759 165.948 45.8008C166.336 45.5257 166.636 45.1341 166.847 44.6262C167.066 44.1183 167.175 43.5152 167.175 42.8168V42.8063C167.175 42.1079 167.066 41.5048 166.847 40.9968C166.636 40.4889 166.336 40.0974 165.948 39.8223C165.56 39.5472 165.105 39.4096 164.583 39.4096C164.054 39.4096 163.595 39.5472 163.207 39.8223C162.826 40.0974 162.53 40.4889 162.318 40.9968C162.107 41.4977 162.001 42.0973 162.001 42.7957V42.8168C162.001 43.5152 162.103 44.1183 162.308 44.6262C162.519 45.1341 162.819 45.5257 163.207 45.8008C163.595 46.0759 164.054 46.2134 164.583 46.2134ZM177.826 48.8059C176.662 48.8059 175.656 48.566 174.81 48.0863C173.97 47.5996 173.321 46.9083 172.863 46.0124C172.411 45.1165 172.186 44.0549 172.186 42.8274V42.8168C172.186 41.5965 172.411 40.5383 172.863 39.6424C173.321 38.7465 173.963 38.0517 174.789 37.5579C175.614 37.0641 176.584 36.8172 177.699 36.8172C178.82 36.8172 179.79 37.0571 180.608 37.5368C181.427 38.0164 182.055 38.6901 182.492 39.5578C182.936 40.4184 183.159 41.4307 183.159 42.5946V43.5469H173.72V41.6H181.688L180.227 43.4306V42.2137C180.227 41.5365 180.122 40.9686 179.91 40.5101C179.705 40.0516 179.416 39.7059 179.042 39.4731C178.676 39.2403 178.245 39.124 177.751 39.124C177.265 39.124 176.831 39.2439 176.45 39.4837C176.076 39.7236 175.78 40.0763 175.561 40.5418C175.349 41.0004 175.244 41.5577 175.244 42.2137V43.4411C175.244 44.0831 175.349 44.6333 175.561 45.0918C175.78 45.5433 176.087 45.8925 176.482 46.1394C176.877 46.3792 177.346 46.4991 177.889 46.4991C178.333 46.4991 178.711 46.4321 179.021 46.2981C179.339 46.1641 179.593 46.0018 179.783 45.8114C179.981 45.6138 180.115 45.4269 180.185 45.2505L180.206 45.1871H183.063L183.042 45.3034C182.95 45.6914 182.781 46.09 182.534 46.4991C182.294 46.9083 181.963 47.2892 181.54 47.6419C181.123 47.9876 180.608 48.2697 179.995 48.4884C179.381 48.7001 178.658 48.8059 177.826 48.8059ZM189.195 48.7741C188.236 48.7741 187.407 48.5343 186.709 48.0546C186.01 47.5749 185.471 46.8906 185.09 46.0018C184.709 45.113 184.518 44.0513 184.518 42.8168V42.7957C184.518 41.5612 184.705 40.4995 185.079 39.6107C185.46 38.7219 186 38.0411 186.698 37.5685C187.397 37.0888 188.229 36.849 189.195 36.849C189.732 36.849 190.225 36.9371 190.677 37.1135C191.128 37.2828 191.527 37.5262 191.872 37.8436C192.218 38.154 192.49 38.5314 192.687 38.9758H192.814V32.8598H195.904V48.5625H192.814V46.7002H192.687C192.483 47.1305 192.211 47.5008 191.872 47.8112C191.541 48.1146 191.149 48.3509 190.698 48.5202C190.246 48.6895 189.746 48.7741 189.195 48.7741ZM190.243 46.2134C190.765 46.2134 191.22 46.0759 191.608 45.8008C191.996 45.5257 192.296 45.1341 192.507 44.6262C192.726 44.1183 192.835 43.5152 192.835 42.8168V42.8063C192.835 42.1079 192.726 41.5048 192.507 40.9968C192.296 40.4889 191.996 40.0974 191.608 39.8223C191.22 39.5472 190.765 39.4096 190.243 39.4096C189.714 39.4096 189.255 39.5472 188.867 39.8223C188.486 40.0974 188.19 40.4889 187.979 40.9968C187.767 41.4977 187.661 42.0973 187.661 42.7957V42.8168C187.661 43.5152 187.763 44.1183 187.968 44.6262C188.18 45.1341 188.479 45.5257 188.867 45.8008C189.255 46.0759 189.714 46.2134 190.243 46.2134Z" fill="#111111"/>
<path d="M73.5906 70.4844V68.8972H76.9951C77.7517 68.8972 78.3257 68.7437 78.7173 68.4369C79.1088 68.1247 79.3045 67.6777 79.3045 67.0957V67.0798C79.3045 66.6936 79.2146 66.3682 79.0347 66.1037C78.8548 65.8392 78.585 65.6408 78.2252 65.5085C77.8707 65.3762 77.4316 65.3101 76.9078 65.3101H73.5906V63.8578H76.5904C77.3152 63.8578 77.8655 63.7203 78.2411 63.4451C78.622 63.17 78.8125 62.7732 78.8125 62.2547V62.2389C78.8125 61.731 78.6405 61.3342 78.2966 61.0485C77.9528 60.7628 77.4713 60.6199 76.8523 60.6199H73.5906V59.0327H77.3443C78.0744 59.0327 78.6987 59.1491 79.2172 59.3819C79.7357 59.6094 80.1352 59.9374 80.4156 60.366C80.696 60.7892 80.8362 61.2945 80.8362 61.8818V61.8976C80.8362 62.2997 80.7436 62.6754 80.5584 63.0245C80.3785 63.3737 80.1352 63.6647 79.8283 63.8975C79.5267 64.1303 79.1828 64.2784 78.7966 64.3419V64.4848C79.3098 64.5324 79.7595 64.6805 80.1457 64.9292C80.5372 65.1725 80.8415 65.4926 81.0584 65.8894C81.2806 66.2862 81.3917 66.7306 81.3917 67.2227V67.2386C81.3917 67.9052 81.233 68.4819 80.9155 68.9686C80.6034 69.4553 80.1537 69.831 79.5664 70.0955C78.9791 70.3548 78.2781 70.4844 77.4634 70.4844H73.5906ZM72.5669 70.4844V59.0327H74.6143V70.4844H72.5669ZM84.3518 73.5318C84.2301 73.5318 84.1032 73.5292 83.9709 73.5239C83.8439 73.5186 83.7196 73.5106 83.5979 73.5001V71.9843C83.6773 71.9949 83.7698 72.0002 83.8757 72.0002C83.9815 72.0054 84.0846 72.0081 84.1852 72.0081C84.5925 72.0081 84.9179 71.9181 85.1613 71.7383C85.4099 71.5637 85.5872 71.2806 85.693 70.8891L85.7962 70.4923L82.6932 61.8103H84.8518L87.1373 69.4924L86.5977 68.5877H87.2802L86.7564 69.4924L89.042 61.8103H91.1212L88.0103 70.6748C87.7616 71.3944 87.476 71.9631 87.1532 72.3811C86.8305 72.799 86.4416 73.0953 85.9866 73.2699C85.5369 73.4445 84.992 73.5318 84.3518 73.5318ZM101.263 70.7701C100.486 70.7701 99.8006 70.6246 99.208 70.3336C98.6154 70.0426 98.1446 69.6484 97.7954 69.1511C97.4462 68.6485 97.2452 68.0851 97.1923 67.4608L97.1843 67.3576H99.0652L99.081 67.4131C99.1339 67.7253 99.2583 68.0083 99.454 68.2623C99.6498 68.5162 99.9037 68.7199 100.216 68.8734C100.528 69.0215 100.88 69.0956 101.271 69.0956C101.716 69.0956 102.107 68.9977 102.446 68.8019C102.79 68.6062 103.057 68.3364 103.247 67.9925C103.438 67.6433 103.533 67.2465 103.533 66.8021V66.7862C103.533 66.3418 103.435 65.9503 103.239 65.6117C103.049 65.2678 102.784 65.0006 102.446 64.8101C102.113 64.6144 101.726 64.5165 101.287 64.5165C100.965 64.5165 100.666 64.5641 100.39 64.6594C100.121 64.7546 99.8799 64.8974 99.6683 65.0879C99.5625 65.1778 99.4646 65.2784 99.3747 65.3895C99.2847 65.4953 99.2054 65.6117 99.1366 65.7386H97.3827L97.9382 59.0327H104.811V60.7072H99.5334L99.208 64.1991H99.3509C99.5096 63.9398 99.7106 63.7203 99.954 63.5404C100.197 63.3552 100.475 63.215 100.787 63.1198C101.099 63.0192 101.433 62.969 101.787 62.969C102.507 62.969 103.142 63.133 103.692 63.461C104.247 63.7837 104.684 64.2308 105.001 64.8022C105.319 65.3683 105.477 66.0164 105.477 66.7465V66.7624C105.477 67.556 105.298 68.2544 104.938 68.8575C104.583 69.4553 104.089 69.9236 103.454 70.2622C102.819 70.6008 102.089 70.7701 101.263 70.7701ZM107.866 70.4844V59.0327H110.215L113.659 67.8496H113.794L117.231 59.0327H119.58V70.4844H117.739V62.342H116.739L118.77 59.3502L114.421 70.4844H113.025L108.684 59.3502L110.715 62.342H109.707V70.4844H107.866ZM129.404 70.659C128.759 70.659 128.217 70.5346 127.778 70.286C127.338 70.032 127.008 69.6643 126.786 69.1829C126.563 68.6961 126.452 68.1089 126.452 67.4211V61.8103H128.428V66.9687C128.428 67.6406 128.561 68.1459 128.825 68.4845C129.09 68.8231 129.521 68.9924 130.119 68.9924C130.436 68.9924 130.717 68.9448 130.96 68.8496C131.209 68.749 131.415 68.6062 131.579 68.421C131.743 68.2358 131.867 68.0136 131.952 67.7544C132.037 67.4899 132.079 67.1936 132.079 66.8656V61.8103H134.055V70.4844H132.079V69.167H131.944C131.812 69.4739 131.627 69.741 131.388 69.9685C131.15 70.1907 130.865 70.3627 130.531 70.4844C130.198 70.6008 129.822 70.659 129.404 70.659ZM139.745 70.659C139.01 70.659 138.375 70.5558 137.84 70.3495C137.311 70.1378 136.893 69.8468 136.587 69.4765C136.28 69.1009 136.097 68.667 136.039 68.175V68.1591H137.999L138.007 68.175C138.113 68.4766 138.311 68.7226 138.602 68.913C138.893 69.1035 139.285 69.1987 139.777 69.1987C140.105 69.1987 140.393 69.1538 140.642 69.0638C140.891 68.9686 141.086 68.839 141.229 68.675C141.372 68.511 141.443 68.3205 141.443 68.1036V68.0877C141.443 67.8338 141.34 67.6221 141.134 67.4528C140.928 67.2782 140.586 67.138 140.11 67.0322L138.705 66.7148C138.155 66.5931 137.7 66.4238 137.34 66.2069C136.981 65.99 136.711 65.7228 136.531 65.4053C136.356 65.0879 136.269 64.7175 136.269 64.2943V64.2864C136.269 63.7626 136.415 63.3023 136.706 62.9055C137.002 62.5087 137.412 62.1992 137.936 61.977C138.459 61.7548 139.063 61.6437 139.745 61.6437C140.449 61.6437 141.055 61.7495 141.562 61.9611C142.07 62.1727 142.467 62.4637 142.753 62.8341C143.039 63.2044 143.203 63.625 143.245 64.0959V64.1118H141.388L141.38 64.088C141.306 63.8128 141.129 63.5801 140.848 63.3896C140.573 63.1938 140.203 63.096 139.737 63.096C139.446 63.096 139.184 63.1409 138.951 63.2309C138.724 63.3208 138.544 63.4478 138.412 63.6118C138.285 63.7705 138.221 63.9583 138.221 64.1753V64.1832C138.221 64.3525 138.264 64.5006 138.348 64.6276C138.438 64.7546 138.579 64.8657 138.769 64.9609C138.959 65.0562 139.211 65.1408 139.523 65.2149L140.928 65.5244C141.779 65.7148 142.409 65.9979 142.816 66.3735C143.224 66.7492 143.427 67.2544 143.427 67.8893V67.9052C143.427 68.4554 143.269 68.9369 142.951 69.3495C142.634 69.7622 142.197 70.0849 141.642 70.3177C141.086 70.5452 140.454 70.659 139.745 70.659ZM149.133 70.659C148.271 70.659 147.53 70.4764 146.911 70.1114C146.298 69.7463 145.824 69.2278 145.491 68.5559C145.157 67.884 144.991 67.0878 144.991 66.1672V66.1593C144.991 65.2493 145.155 64.4557 145.483 63.7785C145.816 63.1012 146.287 62.5775 146.895 62.2071C147.504 61.8315 148.218 61.6437 149.038 61.6437C149.863 61.6437 150.572 61.8262 151.165 62.1913C151.763 62.551 152.223 63.0563 152.546 63.707C152.869 64.3578 153.03 65.1196 153.03 65.9926V66.6434H145.983V65.318H152.062L151.125 66.5561V65.7704C151.125 65.1937 151.038 64.7149 150.863 64.334C150.689 63.953 150.445 63.6674 150.133 63.4769C149.826 63.2864 149.469 63.1912 149.062 63.1912C148.655 63.1912 148.292 63.2917 147.975 63.4928C147.663 63.6885 147.414 63.9795 147.229 64.3657C147.049 64.7466 146.959 65.2149 146.959 65.7704V66.564C146.959 67.0983 147.049 67.556 147.229 67.9369C147.409 68.3126 147.663 68.6035 147.991 68.8099C148.324 69.0109 148.718 69.1114 149.173 69.1114C149.528 69.1114 149.832 69.0612 150.086 68.9607C150.345 68.8548 150.554 68.7305 150.713 68.5877C150.871 68.4395 150.982 68.2993 151.046 68.1671L151.07 68.1115H152.943L152.927 68.1829C152.858 68.4633 152.731 68.749 152.546 69.04C152.366 69.3257 152.12 69.5929 151.808 69.8416C151.501 70.0849 151.125 70.2833 150.681 70.4368C150.236 70.5849 149.721 70.659 149.133 70.659ZM155.006 70.4844V61.8103H156.982V63.1436H157.117C157.265 62.678 157.53 62.3156 157.911 62.0563C158.297 61.7971 158.776 61.6675 159.347 61.6675C159.495 61.6675 159.641 61.6781 159.783 61.6992C159.932 61.7151 160.053 61.7363 160.149 61.7627V63.5324C159.99 63.4954 159.828 63.469 159.664 63.4531C159.506 63.4319 159.339 63.4213 159.164 63.4213C158.725 63.4213 158.342 63.5033 158.014 63.6674C157.686 63.8314 157.432 64.0668 157.252 64.3737C157.072 64.6752 156.982 65.0323 156.982 65.445V70.4844H155.006ZM164.839 70.659C164.103 70.659 163.468 70.5558 162.934 70.3495C162.405 70.1378 161.987 69.8468 161.68 69.4765C161.373 69.1009 161.191 68.667 161.133 68.175V68.1591H163.093L163.101 68.175C163.207 68.4766 163.405 68.7226 163.696 68.913C163.987 69.1035 164.378 69.1987 164.87 69.1987C165.198 69.1987 165.487 69.1538 165.735 69.0638C165.984 68.9686 166.18 68.839 166.323 68.675C166.466 68.511 166.537 68.3205 166.537 68.1036V68.0877C166.537 67.8338 166.434 67.6221 166.228 67.4528C166.021 67.2782 165.68 67.138 165.204 67.0322L163.799 66.7148C163.249 66.5931 162.794 66.4238 162.434 66.2069C162.074 65.99 161.805 65.7228 161.625 65.4053C161.45 65.0879 161.363 64.7175 161.363 64.2943V64.2864C161.363 63.7626 161.508 63.3023 161.799 62.9055C162.096 62.5087 162.506 62.1992 163.029 61.977C163.553 61.7548 164.156 61.6437 164.839 61.6437C165.542 61.6437 166.148 61.7495 166.656 61.9611C167.164 62.1727 167.561 62.4637 167.846 62.8341C168.132 63.2044 168.296 63.625 168.338 64.0959V64.1118H166.481L166.474 64.088C166.399 63.8128 166.222 63.5801 165.942 63.3896C165.667 63.1938 165.296 63.096 164.831 63.096C164.54 63.096 164.278 63.1409 164.045 63.2309C163.818 63.3208 163.638 63.4478 163.505 63.6118C163.378 63.7705 163.315 63.9583 163.315 64.1753V64.1832C163.315 64.3525 163.357 64.5006 163.442 64.6276C163.532 64.7546 163.672 64.8657 163.863 64.9609C164.053 65.0562 164.304 65.1408 164.617 65.2149L166.021 65.5244C166.873 65.7148 167.503 65.9979 167.91 66.3735C168.317 66.7492 168.521 67.2544 168.521 67.8893V67.9052C168.521 68.4554 168.362 68.9369 168.045 69.3495C167.727 69.7622 167.291 70.0849 166.735 70.3177C166.18 70.5452 165.548 70.659 164.839 70.659Z" fill="#3B4148"/>
<path d="M240.222 48.816C240.132 48.8515 240.003 48.9052 239.836 48.9638C239.508 49.0848 239.048 49.2436 238.527 49.3963C238.264 49.472 237.986 49.5466 237.702 49.6162C237.56 49.6504 237.416 49.6846 237.272 49.7151C237.127 49.7469 236.981 49.7738 236.837 49.8019C236.255 49.9081 235.685 49.979 235.182 49.9876C234.788 49.9961 234.406 50.0804 234.051 50.2196C233.691 50.3565 233.362 50.5495 233.061 50.7718C232.464 51.225 232.004 51.8126 231.771 52.4332C231.61 52.8595 231.36 53.1894 231.102 53.4447C231.377 52.8082 231.635 52.1571 231.87 51.4938C232.128 50.7571 232.362 50.0046 232.561 49.2411C232.716 48.6548 232.844 48.0587 232.962 47.4613C232.966 47.4576 232.969 47.4515 232.972 47.4479C233.045 47.3648 233.127 47.2854 233.215 47.2133C233.308 47.14 233.402 47.0741 233.51 47.0215C233.724 46.914 233.973 46.8554 234.259 46.8994C234.259 46.8994 234.409 46.8749 234.638 46.8261C234.865 46.7784 235.17 46.7051 235.487 46.6086C235.647 46.5597 235.807 46.5048 235.963 46.4474C236.117 46.3863 236.264 46.3215 236.397 46.2531C236.661 46.1127 236.87 45.9551 236.942 45.7889C237.015 45.6228 237.094 45.4811 237.178 45.3455C237.259 45.2075 237.346 45.0743 237.433 44.9301C237.523 44.786 237.61 44.626 237.7 44.4342C237.743 44.3365 237.789 44.2326 237.83 44.1166C237.873 44.0005 237.915 43.8759 237.955 43.7355C237.998 43.5974 238.06 43.4459 238.137 43.2896C238.215 43.1332 238.315 42.9719 238.42 42.8021C238.524 42.6336 238.641 42.4625 238.762 42.2903C238.883 42.1181 239.01 41.947 239.136 41.7772C239.201 41.6942 239.263 41.6111 239.323 41.528C239.386 41.4486 239.448 41.3692 239.508 41.2935C239.627 41.1383 239.746 40.9917 239.85 40.8684C240.058 40.6228 240.232 40.4322 240.329 40.3467C240.329 40.3467 240.171 40.4701 239.908 40.6631C239.776 40.7596 239.617 40.872 239.437 40.9942C239.258 41.12 239.054 41.2581 238.839 41.3973C238.408 41.6722 237.908 41.9544 237.407 42.1962C237.282 42.2561 237.157 42.3159 237.031 42.3709C236.904 42.4247 236.779 42.4748 236.655 42.5236C236.408 42.6189 236.167 42.702 235.938 42.763C235.757 42.8143 235.587 42.8791 235.426 42.9646C235.262 43.044 235.11 43.1393 234.966 43.2456C234.684 43.4569 234.43 43.7159 234.224 43.9956C233.806 44.5563 233.542 45.2087 233.473 45.8341C233.44 46.1456 233.346 46.4242 233.233 46.6648C233.178 46.7748 233.118 46.8762 233.056 46.9702C233.059 46.9568 233.063 46.9433 233.065 46.9287C233.333 45.3736 233.462 43.7928 233.416 42.2414C233.412 42.1437 233.409 42.0472 233.407 41.9519C233.402 41.8542 233.395 41.7565 233.393 41.6612C233.385 41.5634 233.379 41.4669 233.373 41.3729C233.366 41.2776 233.358 41.1799 233.349 41.0846C233.342 40.9893 233.333 40.8904 233.324 40.7975C233.321 40.767 233.318 40.7377 233.316 40.7083C233.325 40.6839 233.333 40.6644 233.344 40.6412C233.429 40.4591 233.545 40.271 233.711 40.1171C233.878 39.9656 234.091 39.8496 234.366 39.8178C234.366 39.8178 234.398 39.8031 234.454 39.7738C234.511 39.7494 234.592 39.7091 234.688 39.6578C234.882 39.5552 235.141 39.4122 235.403 39.2437C235.665 39.0751 235.929 38.8821 236.135 38.6866C236.333 38.4924 236.476 38.2957 236.499 38.1247C236.546 37.7838 236.62 37.5114 236.693 37.1865C236.712 37.1046 236.73 37.0191 236.747 36.9287C236.761 36.8383 236.774 36.7431 236.786 36.6429C236.798 36.5415 236.806 36.434 236.812 36.3143C236.819 36.1982 236.824 36.0712 236.819 35.9344C236.814 35.7963 236.827 35.6461 236.852 35.4848C236.865 35.4042 236.88 35.3236 236.9 35.2368C236.917 35.1513 236.935 35.0646 236.957 34.9778C237 34.8032 237.052 34.6187 237.108 34.4367C237.137 34.3475 237.167 34.2534 237.194 34.1643C237.224 34.0727 237.255 33.9835 237.284 33.8931C237.346 33.7147 237.408 33.54 237.47 33.3764C237.532 33.2114 237.589 33.0575 237.645 32.9219C237.757 32.6422 237.857 32.4272 237.922 32.3245C237.922 32.3245 237.815 32.4797 237.633 32.724C237.541 32.8437 237.428 32.9879 237.302 33.1467C237.173 33.3018 237.033 33.4741 236.872 33.6524C236.554 34.0079 236.187 34.3842 235.802 34.7262C235.412 35.0695 235.008 35.3798 234.625 35.6082C234.474 35.6998 234.339 35.8036 234.218 35.9185C234.094 36.0321 233.986 36.1579 233.89 36.2923C233.698 36.5598 233.561 36.8554 233.459 37.167C233.409 37.3221 233.372 37.4797 233.346 37.6397C233.315 37.7973 233.295 37.9573 233.287 38.1173C233.283 38.1943 233.282 38.2749 233.283 38.3543C233.284 38.4325 233.284 38.5107 233.287 38.5877C233.298 38.7428 233.317 38.8943 233.346 39.0421C233.362 39.1154 233.371 39.1875 233.376 39.2595C233.382 39.3316 233.385 39.4024 233.388 39.4684C233.388 39.6065 233.379 39.7359 233.361 39.8618C233.337 39.9998 233.304 40.1281 233.265 40.2466C233.254 40.1464 233.241 40.0438 233.228 39.9412C233.127 39.1875 232.995 38.4459 232.832 37.7228C232.662 37.002 232.461 36.2996 232.235 35.6204C232.177 35.4518 232.119 35.2845 232.062 35.1159C231.998 34.9498 231.935 34.7873 231.873 34.6224C231.814 34.4587 231.742 34.2987 231.679 34.1386L231.678 34.1374C231.68 34.091 231.682 34.0494 231.689 34.0006C231.716 33.81 231.765 33.6072 231.873 33.4276C231.977 33.2481 232.138 33.088 232.378 32.9866C232.378 32.9866 232.479 32.8999 232.627 32.7582C232.774 32.6153 232.966 32.4174 233.155 32.1963C233.344 31.9764 233.527 31.7321 233.657 31.5024C233.783 31.274 233.855 31.0614 233.828 30.9002C233.813 30.8208 233.802 30.7401 233.792 30.6656C233.782 30.5899 233.773 30.5142 233.763 30.4384C233.748 30.2882 233.734 30.1379 233.717 29.973C233.698 29.8117 233.673 29.6395 233.634 29.4452C233.614 29.3487 233.593 29.2461 233.564 29.1386C233.535 29.0311 233.503 28.9175 233.462 28.7966C233.308 28.3092 233.284 27.5799 233.304 26.9068C233.312 26.5733 233.333 26.2545 233.361 25.9918C233.385 25.7304 233.419 25.5264 233.456 25.4189C233.456 25.4189 233.397 25.5777 233.293 25.8355C233.188 26.0883 233.032 26.4438 232.837 26.8335C232.741 27.029 232.635 27.2293 232.519 27.4345C232.404 27.6397 232.279 27.8474 232.15 28.0478C232.021 28.2457 231.885 28.4411 231.746 28.6231C231.606 28.8051 231.463 28.9762 231.319 29.1264C231.093 29.3634 230.943 29.6358 230.853 29.9229C230.807 30.0658 230.776 30.2136 230.758 30.3627C230.74 30.5141 230.739 30.6632 230.741 30.8171C230.747 30.971 230.763 31.1213 230.791 31.2716C230.804 31.3485 230.818 31.423 230.835 31.4988C230.851 31.5733 230.872 31.6453 230.892 31.7199C230.981 32.0106 231.091 32.2928 231.23 32.5457C231.298 32.6703 231.349 32.7985 231.391 32.9231C231.411 32.9854 231.429 33.0465 231.444 33.1076C231.459 33.1675 231.473 33.2273 231.479 33.2872C231.502 33.4435 231.506 33.5877 231.504 33.7245C231.493 33.7049 231.483 33.6842 231.474 33.6646C231.439 33.584 231.405 33.5071 231.368 33.4313C231.335 33.3519 231.303 33.2762 231.264 33.198C231.19 33.0465 231.118 32.8975 231.044 32.7448C230.973 32.5957 230.894 32.4504 230.822 32.305C230.783 32.2329 230.747 32.1596 230.706 32.0876C230.67 32.0167 230.628 31.9459 230.59 31.8738C230.551 31.8042 230.512 31.7321 230.474 31.6637C230.455 31.627 230.436 31.594 230.416 31.5574C230.396 31.522 230.375 31.489 230.356 31.4548C230.276 31.3167 230.197 31.1811 230.118 31.048C230.036 30.9124 229.956 30.7805 229.876 30.6497C229.836 30.585 229.796 30.519 229.754 30.4543C229.714 30.3908 229.673 30.3273 229.633 30.2637C229.222 29.6248 228.745 29.0592 228.294 28.5315C228.286 28.5168 228.282 28.5046 228.275 28.4851C228.232 28.369 228.183 28.209 228.158 28.027C228.136 27.8474 228.13 27.652 228.182 27.4638C228.236 27.2733 228.342 27.0937 228.538 26.9471C228.538 26.9471 228.607 26.8457 228.708 26.6832C228.808 26.5232 228.939 26.2997 229.061 26.0602C229.308 25.5777 229.514 25.0243 229.399 24.7507C229.167 24.2144 229.079 23.7123 228.646 22.9134C228.536 22.7143 228.446 22.4602 228.371 22.1829C228.298 21.9093 228.24 21.6075 228.198 21.3266C228.114 20.7573 228.097 20.243 228.145 20.0451C228.145 20.0451 228.108 20.1917 228.039 20.4324C227.972 20.673 227.87 21.0041 227.743 21.3803C227.487 22.1267 227.118 23.038 226.685 23.6818C226.514 23.9383 226.428 24.2095 226.404 24.4832C226.383 24.7605 226.421 25.0414 226.507 25.3138C226.674 25.8636 227.015 26.3839 227.382 26.7932C227.476 26.8958 227.551 27.0009 227.62 27.1047C227.686 27.211 227.743 27.316 227.788 27.4211C227.879 27.6312 227.933 27.8315 227.964 28.0099C227.972 28.0648 227.975 28.1149 227.98 28.1662C227.828 27.9867 227.681 27.812 227.544 27.6422C227.395 27.4577 225.9 25.811 224.828 24.6334C224.643 24.3146 224.498 23.9286 224.498 23.4839C224.498 22.2831 223.991 20.7659 222.577 20.4495C220.784 20.0476 218.32 18.6782 218.32 18.6782C218.73 18.9103 220.011 20.3175 220.303 21.2349C220.594 22.1511 220.914 22.6007 221.141 23.1822C221.367 23.7624 223.603 24.4025 223.603 24.4025C223.967 24.3928 224.292 24.5381 224.565 24.7409C224.955 25.3114 226.117 27.0045 226.434 27.3808C226.619 27.6031 226.813 27.8389 227.011 28.0869C227.185 28.3043 227.364 28.5352 227.547 28.7722C227.484 28.7502 227.418 28.7233 227.347 28.6928C227.269 28.6561 227.187 28.6133 227.104 28.5645C227.018 28.5181 226.932 28.4619 226.847 28.4008C226.762 28.3385 226.678 28.2677 226.597 28.1895C226.514 28.1113 226.436 28.0245 226.36 27.928C226.324 27.8792 226.285 27.8291 226.243 27.7815C226.202 27.7326 226.158 27.6874 226.115 27.6398C226.022 27.5469 225.927 27.4589 225.824 27.3734C225.72 27.2879 225.609 27.2085 225.496 27.1365C225.382 27.0632 225.262 26.9984 225.139 26.9459C224.646 26.7284 224.094 26.6698 223.561 26.9092C222.881 27.2122 221.978 27.4516 221.242 27.6239C220.875 27.7106 220.547 27.7778 220.314 27.8242C220.081 27.8706 219.939 27.8951 219.939 27.8951C220.129 27.8621 220.612 27.9012 221.126 27.9989C221.384 28.0478 221.646 28.1101 221.889 28.1883C222.132 28.264 222.346 28.3544 222.507 28.4582C222.828 28.661 223.095 28.7929 223.333 28.9065C223.574 29.0189 223.782 29.1093 223.994 29.2327C224.103 29.2962 224.29 29.3036 224.516 29.2816C224.743 29.2632 225.004 29.2119 225.255 29.157C225.755 29.0434 226.207 28.9065 226.207 28.9065C226.392 28.7807 226.588 28.7343 226.778 28.7343C226.968 28.7343 227.147 28.7881 227.306 28.8565C227.465 28.9249 227.6 29.0091 227.693 29.0788C227.787 29.1484 227.841 29.1973 227.841 29.1973C227.841 29.1973 227.851 29.1887 227.853 29.1838C228.2 29.6517 228.548 30.1501 228.891 30.6876C228.931 30.7475 228.97 30.8086 229.011 30.8721C229.052 30.9332 229.088 30.9979 229.128 31.0614C229.205 31.186 229.283 31.3143 229.364 31.4438C229.439 31.5745 229.514 31.7064 229.594 31.8408C229.613 31.8738 229.633 31.9068 229.651 31.9398C229.671 31.974 229.69 32.0082 229.707 32.0424C229.745 32.1108 229.783 32.178 229.819 32.2464C229.858 32.316 229.896 32.3856 229.934 32.4528C229.971 32.5237 230.007 32.5933 230.042 32.6642C230.115 32.8059 230.189 32.9463 230.261 33.0905C230.331 33.2359 230.401 33.3812 230.472 33.5278C230.509 33.6023 230.54 33.6756 230.574 33.7501C230.608 33.8259 230.64 33.9004 230.675 33.9774C230.708 34.0531 230.745 34.1276 230.776 34.2046C230.808 34.2803 230.839 34.3585 230.872 34.4342C230.872 34.4367 230.872 34.4391 230.874 34.4391C230.848 34.422 230.827 34.4086 230.802 34.3878C230.73 34.3329 230.659 34.2706 230.584 34.2022C230.509 34.135 230.433 34.0568 230.362 33.9725C230.29 33.8906 230.223 33.799 230.158 33.7001C230.092 33.6023 230.032 33.4949 229.98 33.3812C229.955 33.3214 229.927 33.2627 229.896 33.2053C229.866 33.1467 229.83 33.0893 229.796 33.0319C229.724 32.917 229.645 32.8046 229.561 32.6959C229.472 32.5872 229.374 32.4858 229.273 32.3881C229.221 32.3404 229.169 32.294 229.115 32.2525C229.061 32.2061 229.002 32.167 228.944 32.1279C228.71 31.974 228.456 31.8579 228.179 31.8066C227.903 31.7541 227.612 31.7602 227.31 31.8457C226.924 31.9569 226.485 32.0436 226.045 32.1193C225.608 32.1938 225.161 32.2598 224.769 32.3123C224.573 32.338 224.39 32.3624 224.223 32.3856C224.058 32.4088 223.91 32.4272 223.786 32.443C223.541 32.4736 223.393 32.4883 223.393 32.4883C223.59 32.4699 224.068 32.5298 224.567 32.6678C224.63 32.6849 224.693 32.7045 224.755 32.724C224.818 32.7423 224.879 32.7643 224.941 32.7839C225.065 32.8291 225.185 32.8755 225.299 32.9244C225.526 33.0258 225.723 33.1418 225.865 33.2615C226.003 33.3812 226.13 33.4838 226.254 33.5755C226.314 33.617 226.371 33.6622 226.428 33.7025C226.484 33.7428 226.538 33.7795 226.593 33.8173C226.811 33.9627 226.999 34.0897 227.185 34.2486C227.279 34.328 227.469 34.3707 227.707 34.3927C227.945 34.4135 228.23 34.4147 228.505 34.4061C229.052 34.3927 229.556 34.3512 229.556 34.3512C229.786 34.262 230.002 34.2559 230.199 34.3023C230.248 34.3133 230.297 34.328 230.344 34.3451C230.389 34.3622 230.433 34.3805 230.477 34.4013C230.562 34.4452 230.64 34.4965 230.713 34.5515C230.854 34.6566 230.97 34.7751 231.047 34.8667C231.052 34.8801 231.057 34.8899 231.06 34.9021C231.121 35.0597 231.181 35.2197 231.242 35.3797C231.297 35.541 231.354 35.701 231.41 35.8659C231.628 36.5219 231.822 37.1999 231.985 37.8962C232.143 38.595 232.272 39.3108 232.37 40.0413C232.392 40.2258 232.413 40.4078 232.435 40.5923C232.439 40.6314 232.442 40.668 232.445 40.7047C232.339 40.5581 232.229 40.3883 232.143 40.1904C232.118 40.1342 232.096 40.0817 232.076 40.0242C232.055 39.968 232.034 39.9094 232.017 39.8496C231.98 39.7311 231.95 39.6052 231.933 39.4684C231.919 39.3353 231.889 39.1985 231.849 39.0616C231.812 38.9224 231.765 38.7855 231.71 38.6512C231.652 38.5156 231.584 38.3824 231.507 38.259C231.432 38.1332 231.349 38.0135 231.25 37.9035C231.152 37.7936 231.044 37.691 230.932 37.6018C230.874 37.5578 230.816 37.5175 230.752 37.4797C230.69 37.4406 230.626 37.4064 230.559 37.3758C230.288 37.2512 229.987 37.1877 229.65 37.1999C229.543 37.2036 229.434 37.2048 229.321 37.2048C229.208 37.2048 229.093 37.2036 228.977 37.1999C228.744 37.1938 228.504 37.1816 228.268 37.1682C228.029 37.1547 227.793 37.1388 227.563 37.1217C227.334 37.1059 227.111 37.09 226.899 37.0741C226.074 37.0155 225.439 36.9678 225.439 36.9678C225.542 36.9776 225.713 37.0179 225.915 37.0875C226.115 37.1572 226.348 37.2561 226.587 37.3771C226.704 37.4381 226.82 37.5041 226.932 37.5762C227.045 37.6458 227.158 37.7191 227.257 37.7948C227.357 37.873 227.449 37.9512 227.53 38.0294C227.573 38.0685 227.61 38.1076 227.644 38.1479C227.661 38.1674 227.678 38.187 227.694 38.2065C227.707 38.2249 227.722 38.2456 227.734 38.2639C227.839 38.4191 227.939 38.5534 228.039 38.6756C228.135 38.7978 228.224 38.9065 228.311 39.0091C228.492 39.2131 228.645 39.3951 228.787 39.6052C228.822 39.6602 228.886 39.7091 228.97 39.7555C229.054 39.8031 229.162 39.8495 229.28 39.8935C229.517 39.979 229.812 40.0585 230.095 40.1281C230.382 40.1965 230.657 40.2539 230.861 40.2967C231.064 40.337 231.196 40.3614 231.196 40.3614C231.459 40.3309 231.683 40.3834 231.872 40.4848C232.059 40.5862 232.212 40.7316 232.325 40.8843C232.389 40.9685 232.44 41.0541 232.485 41.1359C232.485 41.1383 232.485 41.142 232.486 41.1481C232.494 41.2409 232.501 41.3326 232.51 41.4266C232.514 41.5207 232.519 41.6135 232.526 41.7039C232.53 41.798 232.538 41.8908 232.541 41.9849C232.545 42.0777 232.546 42.1694 232.55 42.2634C232.596 43.7587 232.47 45.2869 232.21 46.798C232.192 46.9079 232.167 47.0166 232.147 47.1254C232.133 47.0814 232.118 47.0411 232.106 46.9959C232.076 46.8859 232.052 46.7699 232.034 46.6465C232.026 46.5866 232.02 46.5231 232.015 46.4596C232.01 46.3948 232.007 46.3313 232.007 46.2641C232.007 46.197 232.008 46.131 232.014 46.0601C232.019 45.9917 232.027 45.9221 232.036 45.8525C232.057 45.7071 232.07 45.5568 232.075 45.4054C232.076 45.2551 232.07 45.0975 232.053 44.9436C232.034 44.7897 232.004 44.637 231.966 44.4867C231.925 44.3365 231.868 44.1911 231.804 44.0518C231.741 43.9138 231.661 43.7819 231.568 43.6585C231.475 43.5375 231.373 43.4252 231.252 43.3262C231.013 43.1283 230.723 42.9854 230.37 42.9084C229.925 42.8119 229.438 42.669 228.96 42.5199C228.721 42.4454 228.479 42.3709 228.247 42.294C228.015 42.2207 227.793 42.1486 227.581 42.0802C227.371 42.0154 227.173 41.9519 226.995 41.8957C226.906 41.8689 226.822 41.8432 226.745 41.8188C226.668 41.7943 226.594 41.7687 226.527 41.7467C226.266 41.6587 226.105 41.605 226.105 41.605C226.158 41.6245 226.225 41.6551 226.303 41.6978C226.343 41.7198 226.383 41.7442 226.426 41.7699C226.469 41.7968 226.514 41.8249 226.562 41.8554C226.656 41.9128 226.755 41.9812 226.859 42.057C226.909 42.0936 226.962 42.1327 227.014 42.1755C227.065 42.2158 227.117 42.2585 227.168 42.3049C227.218 42.3501 227.269 42.3966 227.32 42.443C227.371 42.4906 227.421 42.5395 227.467 42.5871C227.562 42.6861 227.652 42.7887 227.736 42.8925C227.817 42.9964 227.888 43.099 227.947 43.2016C227.977 43.2529 228.007 43.303 228.029 43.3506C228.051 43.4007 228.07 43.4496 228.085 43.4948C228.116 43.5876 228.148 43.6744 228.179 43.7587C228.212 43.8429 228.242 43.9199 228.273 43.9956C228.304 44.0702 228.337 44.1422 228.368 44.2106C228.397 44.2791 228.427 44.3474 228.456 44.4097C228.486 44.4757 228.516 44.538 228.544 44.5991C228.575 44.6602 228.599 44.7225 228.626 44.7836C228.676 44.9045 228.726 45.0242 228.765 45.1525C228.802 45.282 228.964 45.4286 229.184 45.5825C229.403 45.7352 229.679 45.8952 229.951 46.043C230.223 46.1884 230.488 46.3216 230.684 46.4181C230.881 46.5146 231.012 46.5744 231.012 46.5744C231.291 46.616 231.505 46.7271 231.669 46.8835C231.831 47.0362 231.938 47.2267 232.015 47.4149C232.034 47.4662 232.045 47.5138 232.062 47.5651C231.961 48.0611 231.851 48.5583 231.722 49.0469C231.526 49.7909 231.3 50.5202 231.047 51.2397C230.793 51.9629 230.511 52.6701 230.206 53.3579C230.206 53.3469 230.204 53.3371 230.204 53.3261C230.199 53.2052 230.206 53.0818 230.219 52.9475C230.23 52.818 230.251 52.6812 230.284 52.5443C230.319 52.4051 230.359 52.2609 230.418 52.118C230.652 51.5402 230.768 50.8304 230.64 50.1891C230.608 50.0279 230.565 49.8739 230.501 49.7237C230.438 49.5759 230.359 49.4329 230.265 49.3022C230.072 49.0384 229.808 48.8172 229.468 48.6536C229.038 48.4495 228.575 48.1784 228.123 47.9011C227.671 47.625 227.224 47.3391 226.83 47.0838C226.056 46.583 225.458 46.1969 225.458 46.1969C225.557 46.2617 225.699 46.3924 225.853 46.5744C225.932 46.6648 226.014 46.765 226.096 46.8762C226.178 46.9861 226.26 47.1058 226.341 47.2292C226.421 47.3538 226.497 47.4833 226.567 47.6164C226.635 47.7484 226.701 47.8827 226.755 48.0147C226.81 48.1454 226.853 48.2761 226.888 48.3995C226.921 48.5229 226.942 48.6401 226.948 48.7464C226.957 48.8563 226.965 48.9565 226.974 49.053C226.984 49.1495 226.995 49.2411 227.009 49.3315C227.03 49.5075 227.057 49.665 227.086 49.8153C227.137 50.1158 227.194 50.3821 227.208 50.6704C227.217 50.8158 227.344 51.0064 227.532 51.214C227.627 51.3203 227.734 51.4302 227.851 51.5377C227.967 51.6489 228.088 51.7576 228.21 51.8651C228.453 52.0765 228.696 52.2719 228.877 52.4173C228.968 52.4894 229.042 52.5468 229.093 52.5883C229.146 52.6299 229.176 52.6506 229.176 52.6506C229.455 52.752 229.648 52.9181 229.779 53.1124C229.843 53.2089 229.892 53.3139 229.931 53.4214C229.965 53.5277 229.99 53.634 230.004 53.7415C230.007 53.7549 230.007 53.7696 230.008 53.7842C229.764 54.3144 229.509 54.8336 229.24 55.3332C228.549 56.6184 227.777 57.8057 226.961 58.8649C226.93 58.9052 226.899 58.9406 226.868 58.9797C226.891 58.8881 226.916 58.7964 226.95 58.7024C226.996 58.5704 227.053 58.4361 227.122 58.3005C227.191 58.1686 227.269 58.0317 227.366 57.8974C227.752 57.3562 228.042 56.6525 228.063 55.9648C228.073 55.6215 228.019 55.2844 227.88 54.9704C227.744 54.6601 227.522 54.378 227.207 54.1373C227.009 53.9883 226.805 53.8197 226.601 53.6413C226.398 53.4642 226.192 53.2748 225.99 53.0867C225.788 52.8961 225.591 52.7044 225.396 52.5162C225.203 52.3293 225.017 52.1449 224.843 51.9726C224.158 51.2947 223.631 50.7694 223.631 50.7694C223.674 50.8133 223.723 50.8756 223.778 50.9563C223.832 51.0369 223.89 51.1334 223.951 51.2434C224.01 51.3521 224.073 51.4755 224.133 51.6074C224.192 51.7381 224.249 51.8786 224.304 52.0227C224.358 52.1681 224.405 52.3184 224.448 52.4674C224.49 52.6189 224.525 52.7691 224.551 52.9145C224.564 52.989 224.575 53.0599 224.585 53.1319C224.592 53.2016 224.597 53.27 224.599 53.3359C224.605 53.4703 224.603 53.5961 224.585 53.7048C224.566 53.816 224.553 53.9199 224.541 54.0213C224.53 54.1226 224.519 54.2142 224.511 54.3059C224.503 54.3987 224.498 54.4867 224.495 54.5697C224.49 54.6553 224.486 54.7347 224.483 54.8141C224.479 54.891 224.478 54.9692 224.475 55.0437C224.47 55.1194 224.465 55.1915 224.463 55.2648C224.458 55.3381 224.453 55.4114 224.446 55.4835C224.438 55.5543 224.427 55.6264 224.414 55.7009C224.402 55.773 224.418 55.8646 224.456 55.9709C224.491 56.0747 224.549 56.192 224.622 56.319C224.692 56.4461 224.778 56.5817 224.87 56.7185C224.965 56.8565 225.062 56.9946 225.161 57.129C225.359 57.4014 225.559 57.6555 225.707 57.8436C225.856 58.033 225.956 58.1539 225.956 58.1539C226.217 58.3225 226.373 58.5362 226.457 58.7647C226.535 58.9772 226.542 59.1959 226.525 59.4048C225.839 60.2416 225.128 60.9904 224.412 61.6293C223.613 62.3391 222.814 62.9108 222.057 63.353C222.093 63.3078 222.132 63.2626 222.168 63.2162C222.358 62.9963 222.587 62.7862 222.869 62.587C223.153 62.3928 223.42 62.1363 223.648 61.8516C223.873 61.5633 224.058 61.2445 224.165 60.9037C224.192 60.8182 224.215 60.7339 224.231 60.6484C224.25 60.5641 224.263 60.4773 224.271 60.3894C224.278 60.3027 224.283 60.2172 224.28 60.1317C224.275 60.0437 224.267 59.9557 224.253 59.869C224.224 59.6968 224.173 59.527 224.097 59.3608C224.02 59.191 223.917 59.0261 223.788 58.8685C223.625 58.6657 223.462 58.4483 223.301 58.2211C223.135 57.9939 222.974 57.7544 222.812 57.5174C222.652 57.2829 222.495 57.0471 222.341 56.8126C222.19 56.5854 222.041 56.3618 221.901 56.1517C221.762 55.944 221.63 55.7461 221.51 55.5678C221.393 55.3943 221.288 55.2379 221.201 55.1072C221.025 54.8507 220.92 54.6943 220.92 54.6943C220.988 54.7982 221.071 54.9863 221.151 55.2245C221.19 55.3406 221.227 55.4713 221.262 55.6142C221.271 55.6496 221.28 55.685 221.288 55.7205C221.294 55.7559 221.304 55.7913 221.311 55.8292C221.325 55.9001 221.338 55.9758 221.351 56.0503C221.379 56.2042 221.397 56.3545 221.408 56.5084C221.422 56.6623 221.426 56.8126 221.423 56.9543C221.419 57.1021 221.406 57.2352 221.384 57.3635C221.376 57.4258 221.362 57.4893 221.348 57.5443C221.332 57.5993 221.314 57.6518 221.294 57.6994C221.274 57.7483 221.257 57.7972 221.241 57.8424C221.221 57.8876 221.204 57.934 221.188 57.9768C221.155 58.0647 221.129 58.1514 221.102 58.2309C221.048 58.3897 221.007 58.5423 220.966 58.6816C220.947 58.7525 220.929 58.8209 220.908 58.8881C220.889 58.954 220.87 59.0188 220.849 59.0835C220.84 59.1153 220.829 59.147 220.819 59.1776L220.803 59.2277L220.785 59.2729C220.762 59.3352 220.736 59.3938 220.707 59.4573C220.694 59.4879 220.685 59.5257 220.683 59.5697C220.678 59.6125 220.678 59.6601 220.683 59.7151C220.692 59.8226 220.716 59.9533 220.75 60.0974C220.817 60.3809 220.921 60.7168 221.024 61.0466C221.129 61.3777 221.231 61.6916 221.304 61.9237C221.382 62.157 221.431 62.3097 221.431 62.3097C221.616 62.5736 221.687 62.835 221.675 63.0855C221.673 63.1478 221.666 63.2125 221.654 63.2711C221.642 63.331 221.628 63.3896 221.607 63.4483C221.587 63.5057 221.564 63.5619 221.54 63.6169C221.535 63.6242 221.531 63.6315 221.527 63.6401C221.237 63.7891 220.953 63.9235 220.683 64.0322C220.591 64.0701 220.499 64.1055 220.411 64.1397C220.321 64.1714 220.232 64.2032 220.147 64.2313C220.062 64.2643 219.976 64.2863 219.893 64.3132C219.811 64.3376 219.73 64.3644 219.65 64.384C219.016 64.555 218.508 64.6173 218.164 64.6418C218.12 64.6466 218.081 64.6491 218.042 64.6515C218.023 64.6515 218.006 64.6528 217.988 64.654C217.969 64.6564 217.953 64.654 217.936 64.6564C217.87 64.6588 217.813 64.6601 217.77 64.6613C217.682 64.6625 216.481 64.5672 216.481 64.5672C216.481 64.5672 214.238 64.4573 213.669 64.1934C213.367 64.053 213.001 64.0688 212.763 64.2912C212.553 64.4842 212.71 64.8396 212.833 65.3906C213.1 66.5682 214.087 67.2437 213.936 68.2601C213.936 68.2601 214.694 67.1326 214.126 66.1907C214.126 66.1907 214.212 65.1939 216.18 65.3906C216.18 65.3906 216.456 65.4077 216.779 65.4248C216.343 65.9342 215.929 66.9555 217.079 68.6804C218.718 71.137 218.627 72.3085 218.602 72.4844C218.644 72.2193 219.09 69.274 218.075 68.2674C216.742 66.942 217.289 66.0185 217.938 65.4712C217.953 65.4712 217.961 65.4712 217.974 65.4676C217.994 65.4676 218.013 65.4676 218.031 65.4676C218.053 65.4651 218.073 65.4651 218.095 65.4639C218.138 65.4602 218.184 65.4578 218.232 65.4529C218.62 65.4272 219.191 65.3552 219.891 65.1671C219.979 65.1451 220.067 65.1157 220.159 65.0864C220.252 65.0595 220.345 65.0351 220.438 64.9997C220.533 64.9679 220.629 64.9313 220.729 64.8971C220.827 64.8604 220.924 64.8201 221.026 64.7798C221.332 64.6564 221.653 64.5037 221.978 64.3351C222.194 64.3535 222.417 64.3901 222.628 64.4646C222.885 64.5648 223.128 64.7285 223.296 64.9997C223.296 64.9997 223.432 65.1023 223.648 65.2501C223.865 65.3979 224.171 65.5909 224.511 65.7681C224.679 65.856 224.857 65.9391 225.036 66.0136C225.216 66.0869 225.398 66.1504 225.569 66.1956C225.916 66.286 226.241 66.3117 226.461 66.2225C226.574 66.181 226.678 66.1443 226.778 66.1162C226.877 66.0869 226.969 66.0625 227.062 66.0417C227.246 66.0014 227.427 65.9709 227.615 65.9318C227.711 65.9086 227.81 65.8853 227.916 65.8585C227.968 65.845 228.023 65.8255 228.079 65.8084C228.136 65.7925 228.193 65.7717 228.252 65.751C228.369 65.707 228.498 65.6532 228.638 65.5885C228.777 65.5238 228.921 65.4431 229.083 65.3491C229.247 65.2574 229.434 65.1756 229.649 65.1023C229.866 65.0302 230.098 64.9643 230.35 64.9081C230.602 64.8494 230.863 64.7957 231.134 64.748C231.406 64.7004 231.678 64.6576 231.945 64.6173C233.023 64.4598 234.034 64.3486 234.345 64.3351C234.345 64.3351 234.284 64.3315 234.174 64.3266C234.063 64.3217 233.903 64.3083 233.704 64.2948C233.506 64.2765 233.269 64.2533 233.008 64.2264C232.747 64.1971 232.455 64.158 232.15 64.1104C231.548 64.0163 230.879 63.8856 230.248 63.7109C229.611 63.5435 229.01 63.3322 228.522 63.105C228.132 62.923 227.707 62.8118 227.276 62.7593C227.058 62.73 226.839 62.7165 226.621 62.7153C226.514 62.7153 226.404 62.7178 226.295 62.7226C226.186 62.7275 226.078 62.7361 225.971 62.7471C225.917 62.7544 225.865 62.7605 225.813 62.7666C225.759 62.7727 225.705 62.7813 225.651 62.7911C225.546 62.8045 225.442 62.8265 225.34 62.846C225.239 62.8705 225.135 62.8949 225.036 62.923C224.936 62.9474 224.838 62.9792 224.743 63.0134C224.646 63.0439 224.553 63.0793 224.46 63.1172C224.368 63.1551 224.28 63.1978 224.193 63.2382C224.017 63.3237 223.854 63.4238 223.7 63.5301C223.623 63.5839 223.544 63.6364 223.467 63.6804C223.387 63.7243 223.308 63.7659 223.229 63.8013C223.072 63.8758 222.913 63.9284 222.76 63.9723C222.722 63.9833 222.684 63.9931 222.646 64.0029C222.614 64.009 222.583 64.0163 222.55 64.0224C223.35 63.5545 224.182 62.956 225.008 62.2206C225.784 61.5279 226.548 60.7168 227.281 59.8165C227.37 59.7847 227.46 59.753 227.556 59.7334C227.683 59.7053 227.815 59.6882 227.946 59.687C228.212 59.6833 228.487 59.7481 228.741 59.9276C228.741 59.9276 228.782 59.9398 228.852 59.9582C228.923 59.9777 229.023 60.0046 229.147 60.0376C229.395 60.0974 229.733 60.1719 230.094 60.2281C230.456 60.2843 230.836 60.3186 231.171 60.3076C231.255 60.3039 231.337 60.299 231.412 60.2892C231.489 60.2807 231.56 60.2685 231.627 60.2526C231.759 60.2196 231.872 60.1719 231.953 60.1084C232.034 60.0461 232.111 59.9875 232.186 59.9399C232.262 59.8885 232.338 59.8433 232.411 59.8006C232.486 59.759 232.561 59.7212 232.635 59.6796C232.71 59.6406 232.786 59.6002 232.864 59.5599C233.176 59.3865 233.527 59.1702 233.979 58.7085C234.208 58.4776 234.554 58.259 234.961 58.0513C235.165 57.9462 235.381 57.8461 235.607 57.7483C235.829 57.6518 236.057 57.5565 236.283 57.4686C236.512 57.3782 236.732 57.2914 236.946 57.2133C237.159 57.1363 237.363 57.0667 237.544 56.9995C237.907 56.8749 238.195 56.7833 238.337 56.7503C238.337 56.7503 238.28 56.7588 238.179 56.7735C238.075 56.7882 237.928 56.8126 237.743 56.8346C237.56 56.8578 237.341 56.8859 237.094 56.9103C236.849 56.9384 236.576 56.9604 236.288 56.9763C235.998 56.997 235.699 57.0105 235.388 57.0178C235.079 57.0227 234.762 57.0227 234.452 57.0129C234.297 57.0093 234.142 57.0007 233.992 56.9921C233.839 56.9811 233.688 56.9726 233.541 56.9531C233.248 56.9262 232.969 56.8871 232.713 56.8394C232.51 56.7991 232.308 56.7808 232.103 56.7771C231.895 56.7735 231.691 56.7881 231.489 56.8175C231.086 56.8749 230.687 56.9861 230.319 57.1412C229.581 57.4564 228.946 57.9316 228.548 58.5069C228.446 58.6535 228.337 58.783 228.224 58.8991C228.108 59.0139 227.988 59.1153 227.868 59.2045C227.803 59.2545 227.737 59.29 227.671 59.3303C228.512 58.2382 229.303 57.019 230.013 55.7034C230.319 55.1341 230.606 54.5429 230.879 53.9431C231.062 53.8221 231.267 53.7073 231.5 53.6523C231.624 53.6218 231.753 53.6059 231.886 53.612C232.02 53.6181 232.157 53.6462 232.298 53.7024C232.298 53.7024 232.926 53.7378 233.624 53.6902C233.972 53.6658 234.332 53.6193 234.639 53.5399C234.947 53.463 235.193 53.3494 235.313 53.2016C235.373 53.1295 235.434 53.0598 235.491 52.9975C235.549 52.934 235.608 52.8766 235.667 52.8204C235.784 52.7093 235.906 52.6066 236.031 52.4894C236.159 52.3721 236.288 52.2438 236.43 52.0813C236.568 51.914 236.716 51.7149 236.873 51.4584C236.952 51.3313 237.058 51.1994 237.183 51.0638C237.313 50.9306 237.455 50.7926 237.617 50.657C237.695 50.5886 237.78 50.5202 237.866 50.4505C237.951 50.3821 238.037 50.3149 238.128 50.2477C238.306 50.1121 238.493 49.979 238.673 49.8483C238.856 49.72 239.037 49.5942 239.213 49.4781C239.384 49.3621 239.549 49.2521 239.7 49.1581C239.851 49.0604 239.986 48.9785 240.098 48.9101C240.21 48.8417 240.3 48.7928 240.362 48.7611C240.362 48.7611 240.314 48.7806 240.222 48.816Z" fill="#5184EA"/>
<defs>
<clipPath id="clip0_4033_8662">
<rect width="14.9166" height="14.9166" fill="white" transform="translate(68.2891 3.99609)"/>
</clipPath>
<clipPath id="clip1_4033_8662">
<rect width="17.0475" height="17.0475" fill="white" transform="translate(87.4688 2.92969)"/>
</clipPath>
<clipPath id="clip2_4033_8662">
<rect width="22.9076" height="22.9076" fill="white" transform="translate(108.777)"/>
</clipPath>
<clipPath id="clip3_4033_8662">
<rect width="17.0475" height="17.0475" fill="white" transform="translate(135.945 2.92969)"/>
</clipPath>
<clipPath id="clip4_4033_8662">
<rect width="14.9166" height="14.9166" fill="white" transform="translate(157.254 3.99609)"/>
</clipPath>
</defs>
</svg>
