<svg width="183" height="16" viewBox="0 0 183 16" fill="none" xmlns="http://www.w3.org/2000/svg">
<ellipse cx="91.5003" cy="8.01415" rx="90.5335" ry="7.81396" fill="#4BA7D9"/>
<path d="M95.916 0.209961C94.4965 3.18536 91.9049 6.15798 87.4551 7.36133C79.3323 9.55778 85.2059 12.3417 78.4004 15.7451C66.3023 15.5938 54.9791 15.2364 44.9258 14.7148C52.1847 9.19595 61.5301 12.6505 66.9326 6.71777C72.2632 0.863694 79.7854 6.8432 85.2031 0.22168C87.2839 0.20934 89.3839 0.200195 91.501 0.200195C92.9812 0.200195 94.4532 0.203898 95.916 0.209961Z" fill="white"/>
<path d="M109.242 0.350586C117.473 0.491732 125.301 0.731218 132.563 1.05078C133.65 3.17966 132.314 5.40155 137.633 7.65527C141.444 9.27001 143.19 11.9731 143.876 14.3857C138.303 14.7275 132.263 15.0161 125.854 15.2432C120.402 3.6029 112.615 5.59296 109.242 0.350586Z" fill="white"/>
</svg>
