<svg width="10" height="14" viewBox="0 0 10 14" fill="none" xmlns="http://www.w3.org/2000/svg">
<path d="M8.33398 13.6663H1.66732C1.30065 13.6663 0.986873 13.5359 0.725984 13.275C0.465095 13.0141 0.334429 12.7001 0.333984 12.333V1.66634C0.333984 1.29967 0.464651 0.985897 0.725984 0.725008C0.987318 0.464119 1.3011 0.333452 1.66732 0.333008H8.33398C8.70065 0.333008 9.01465 0.463675 9.27598 0.725008C9.53732 0.986341 9.66776 1.30012 9.66732 1.66634V12.333C9.66732 12.6997 9.53687 13.0137 9.27598 13.275C9.0151 13.5363 8.7011 13.6668 8.33398 13.6663ZM5.00065 4.99967C5.36732 4.99967 5.68132 4.86923 5.94265 4.60834C6.20398 4.34745 6.33443 4.03345 6.33398 3.66634C6.33354 3.29923 6.2031 2.98545 5.94265 2.72501C5.68221 2.46456 5.36821 2.3339 5.00065 2.33301C4.6331 2.33212 4.31932 2.46279 4.05932 2.72501C3.79932 2.98723 3.66865 3.30101 3.66732 3.66634C3.66598 4.03167 3.79665 4.34567 4.05932 4.60834C4.32198 4.87101 4.63576 5.00145 5.00065 4.99967ZM5.00065 11.6663C5.73398 11.6663 6.36176 11.4052 6.88398 10.883C7.40621 10.3608 7.66732 9.73301 7.66732 8.99967C7.66732 8.26634 7.40621 7.63856 6.88398 7.11634C6.36176 6.59412 5.73398 6.33301 5.00065 6.33301C4.26732 6.33301 3.63954 6.59412 3.11732 7.11634C2.5951 7.63856 2.33398 8.26634 2.33398 8.99967C2.33398 9.73301 2.5951 10.3608 3.11732 10.883C3.63954 11.4052 4.26732 11.6663 5.00065 11.6663ZM5.00065 10.333C4.63398 10.333 4.32021 10.2026 4.05932 9.94168C3.79843 9.68079 3.66776 9.36679 3.66732 8.99967C3.66687 8.63256 3.79754 8.31879 4.05932 8.05834C4.3211 7.7979 4.63487 7.66723 5.00065 7.66634C5.36643 7.66545 5.68043 7.79612 5.94265 8.05834C6.20487 8.32056 6.33532 8.63434 6.33398 8.99967C6.33265 9.36501 6.20221 9.67901 5.94265 9.94168C5.6831 10.2043 5.3691 10.3348 5.00065 10.333Z" fill="#38FFB9"/>
</svg>
