<svg width="108" height="64" viewBox="0 0 108 64" fill="none" xmlns="http://www.w3.org/2000/svg">
<path d="M82.3839 47.1803C84.1344 46.3511 85.0558 46.4433 85.7929 46.3511C86.8985 45.7369 89.2388 43.8819 89.7547 41.3758C90.3199 38.6308 91.0265 34.5415 89.8908 30.5959C89.7305 30.0389 89.5334 29.4847 89.294 28.9375C87.9734 26.5442 83.6738 21.4061 77.04 20.0003C52.274 19.337 39.6862 21.2595 36.4881 22.3037C35.4464 24.8835 35.3866 32.3465 35.4869 35.7555C35.6711 45.8904 34.2891 48.8388 33.3677 51.3264C32.6307 53.3166 30.4808 55.2883 29.498 56.0254C34.3812 56.0254 40.5543 55.9332 42.5813 55.749C43.5734 56.3018 46.4549 57.2784 50.0443 56.7624C53.2137 56.5413 63.5268 54.3976 68.2871 53.3534C70.8346 52.9039 70.4574 51.7232 71.169 51.05C71.3325 50.8954 71.5534 50.7676 71.8804 50.6815C74.1838 50.0365 79.5092 48.4334 82.3839 47.1803Z" fill="url(#paint0_linear_5147_3530)"/>
<path d="M64.9375 39.34C64.8366 36.8173 64.7357 36.1109 64.332 33.6891C66.552 33.6891 67.7629 33.4873 69.7811 33.1846C69.7811 34.3955 69.9829 37.2209 70.1847 38.5327C68.772 38.7345 66.4511 38.9363 64.9375 39.34Z" fill="black"/>
<path d="M16.3008 24.4046C17.209 23.9001 18.4199 24.001 19.8326 24.9092C21.2453 25.8173 25.0798 29.9546 25.5843 38.2291" stroke="white" stroke-width="0.201817"/>
<path d="M88.2482 47.1095C89.0554 47.0085 91.4772 45.6967 94.4036 43.4768C95.5066 42.0922 96.1893 40.5439 96.566 38.9359C98.7153 29.762 94.0597 22.3186 87.34 16.9379C83.7084 14.0299 78.9448 11.2287 75.5337 9.87428C68.672 7.14975 63.8284 7.04884 48.5912 7.85611C33.3541 8.66338 21.0432 19.6624 17.5114 22.286C17.125 22.4848 16.7916 22.6896 16.5024 22.9M88.2482 47.1095C87.4409 47.2104 86.4318 47.1095 84.5146 48.0176C82.5973 48.9258 74.9283 51.3476 73.011 51.8521C72.6529 51.9464 72.4109 52.0864 72.2319 52.2558M88.2482 47.1095C89.4591 46.4367 92.0221 44.4051 92.5872 41.6604C93.2062 38.654 93.9801 34.1754 92.7363 29.8541M26.5932 57.7048C31.9413 57.7048 38.7022 57.6039 40.9222 57.4021C41.4247 57.6952 42.1705 57.9884 43.1812 58.2094M26.5932 57.7048C25.7859 58.0076 24.575 58.4112 22.9605 58.4112C22.3256 58.4112 21.441 58.3644 20.5153 58.2094M26.5932 57.7048C27.6696 56.8976 30.0241 54.7381 30.8313 52.5585C31.8404 49.834 33.3541 46.6049 33.1522 35.505C33.0294 28.7509 33.2055 24.0143 34.2488 20.7724M37.4913 16.2315C41.4267 13.7088 44.9585 12.9015 57.673 12.4979C70.3874 12.0943 73.7174 12.0943 74.6256 17.947M37.4913 16.2315C41.1531 13.4019 45.1212 11.61 49.7012 11.0352C53.9262 10.5049 59.5102 10.177 64.1311 10.177C71.0938 10.177 74.2219 11.4198 78.7628 13.8097C82.5973 15.8279 89.9636 23.1942 92.0827 28.0378C92.3449 28.637 92.5607 29.244 92.7363 29.8541M37.4913 16.2315C35.9505 17.2192 34.9201 18.6864 34.2488 20.7724M34.2488 20.7724C37.7515 19.6288 51.5377 17.5231 78.6619 18.2497C82.1922 19.0233 89.9494 22.4273 92.7363 29.8541M20.5153 58.2094C19.0872 57.9702 17.5613 57.4735 16.7042 56.4939C15.2915 54.8794 14.1815 53.164 13.3742 52.4576C12.5669 51.7512 12.0624 49.4303 12.0624 48.8249C12.0624 48.2194 11.4282 47.3353 11.2551 45.6967C10.9625 42.9268 10.5488 40.0459 11.4569 37.4222C12.3056 34.9706 11.6588 31.4687 13.2733 28.9459C14.7112 26.6993 14.1482 24.6127 16.5024 22.9M20.5153 58.2094C20.8258 57.5703 21.7496 56.0499 22.9605 55.0812C24.4741 53.8703 25.3823 46.1004 26.5932 43.8804C27.8041 41.6604 27.1986 33.9914 26.0887 30.9641C24.9787 27.9369 24.3732 26.0196 22.456 25.3133C20.5387 24.6069 19.7314 22.0004 16.5024 22.9M43.1812 58.2094C44.606 58.5209 46.5573 58.6892 49.0957 58.5121C52.567 58.2699 63.862 55.9221 69.0756 54.7785C71.8656 54.2861 71.4525 52.993 72.2319 52.2558M43.1812 58.2094C44.4127 56.9648 46.8171 55.2073 50.8112 54.5767C52.7284 54.2739 54.8475 54.173 57.9757 53.7694M72.2319 52.2558C71.9198 51.8521 70.791 51.1256 68.7729 51.4485C66.7547 51.7714 65.0393 52.1212 64.4338 52.2558" stroke="white" stroke-width="0.201817"/>
<ellipse cx="20.8416" cy="40.1465" rx="4.8436" ry="10.999" fill="url(#paint1_linear_5147_3530)"/>
<path d="M21.3462 52.7599C18.0581 52.7599 15.3926 46.9771 15.3926 39.8437C15.3926 32.7102 17.8144 27.0283 21.8507 27.0283" stroke="white" stroke-width="0.201817"/>
<circle cx="58.2786" cy="53.6683" r="0.706358" fill="black"/>
<circle cx="60.095" cy="53.265" r="0.706358" fill="black"/>
<circle cx="61.9114" cy="52.8616" r="0.706358" fill="black"/>
<circle cx="63.7278" cy="52.4573" r="0.706358" fill="black"/>
<ellipse cx="60.4082" cy="21.1961" rx="4.54087" ry="1.20764" transform="rotate(-2.53404 60.4082 21.1961)" fill="black"/>
<defs>
<linearGradient id="paint0_linear_5147_3530" x1="59.9973" y1="19.8643" x2="59.9973" y2="56.9083" gradientUnits="userSpaceOnUse">
<stop stop-color="#DEE9FF"/>
<stop offset="1" stop-color="#B2BACC"/>
</linearGradient>
<linearGradient id="paint1_linear_5147_3530" x1="20.8416" y1="29.1475" x2="20.8416" y2="51.1455" gradientUnits="userSpaceOnUse">
<stop stop-color="#DEE9FF"/>
<stop offset="1" stop-color="#B2BACC"/>
</linearGradient>
</defs>
</svg>
