<?xml version="1.0" encoding="UTF-8"?>
<svg xmlns="http://www.w3.org/2000/svg" xmlns:xlink="http://www.w3.org/1999/xlink" width="202px" height="243px" viewBox="0 0 202 243" version="1.1">
<defs>
<linearGradient id="linear0" gradientUnits="userSpaceOnUse" x1="26.9991" y1="38.952099" x2="26.9991" y2="65" gradientTransform="matrix(3.740741,0,0,3.738462,0,0)">
<stop offset="0" style="stop-color:rgb(87.058824%,91.372549%,100%);stop-opacity:1;"/>
<stop offset="1" style="stop-color:rgb(69.803922%,72.941176%,80%);stop-opacity:1;"/>
</linearGradient>
</defs>
<g id="surface1">
<path style=" stroke:none;fill-rule:nonzero;fill:url(#linear0);" d="M 3.558594 145.621094 L 198.433594 145.621094 L 198.433594 166.964844 C 198.433594 193.582031 198.433594 206.886719 193.253906 217.054688 C 188.695312 225.996094 181.417969 233.265625 172.472656 237.820312 C 162.300781 243 148.984375 243 122.355469 243 L 79.636719 243 C 53.007812 243 39.691406 243 29.519531 237.820312 C 20.574219 233.265625 13.300781 225.996094 8.742188 217.054688 C 3.558594 206.886719 3.558594 193.582031 3.558594 166.964844 Z M 3.558594 145.621094 "/>
<path style="fill:none;stroke-width:0.208383;stroke-linecap:butt;stroke-linejoin:miter;stroke:rgb(100%,100%,100%);stroke-opacity:1;stroke-miterlimit:4;" d="M 10.49884 21.031379 L 8.979463 21.031379 C 4.545599 21.031379 0.951307 24.625772 0.951307 29.060249 C 0.951307 34.522891 5.37995 38.952144 10.843441 38.952144 L 43.154471 38.952144 C 48.617961 38.952144 53.046604 34.522891 53.046604 29.060249 C 53.046604 24.625772 49.452313 21.031379 45.018448 21.031379 C 44.434715 21.031379 43.862469 21.031379 43.299621 21.031379 M 15.15304 21.031379 C 23.852645 21.031379 30.276841 21.031379 38.699722 21.031379 " transform="matrix(3.740741,0,0,3.738462,0,0)"/>
<path style=" stroke:none;fill-rule:nonzero;fill:rgb(100%,100%,100%);fill-opacity:0.101961;" d="M 9.015625 109.785156 C 9.015625 94.726562 21.230469 82.519531 36.296875 82.519531 L 165.695312 82.519531 C 180.765625 82.519531 192.980469 94.726562 192.980469 109.785156 C 192.980469 124.84375 180.765625 137.050781 165.695312 137.050781 L 36.296875 137.050781 C 21.230469 137.050781 9.015625 124.84375 9.015625 109.785156 Z M 9.015625 109.785156 "/>
<path style="fill:none;stroke-width:0.208383;stroke-linecap:butt;stroke-linejoin:miter;stroke:rgb(100%,100%,100%);stroke-opacity:1;stroke-miterlimit:4;" d="M 6.300975 36.875965 C 7.273167 37.274064 8.340385 37.49349 9.463993 37.49349 L 44.536007 37.49349 C 46.103419 37.49349 47.560141 37.066133 48.805925 36.322177 " transform="matrix(3.740741,0,0,3.738462,0,0)"/>
<path style=" stroke:none;fill-rule:nonzero;fill:rgb(100%,100%,100%);fill-opacity:1;" d="M 58.121094 137.054688 L 77.609375 137.054688 L 77.609375 144.84375 L 58.121094 144.84375 Z M 58.121094 137.054688 "/>
<path style=" stroke:none;fill-rule:nonzero;fill:rgb(100%,100%,100%);fill-opacity:1;" d="M 124.378906 137.054688 L 143.867188 137.054688 L 143.867188 144.84375 L 124.378906 144.84375 Z M 124.378906 137.054688 "/>
<path style="fill:none;stroke-width:0.208383;stroke-linecap:butt;stroke-linejoin:miter;stroke:rgb(100%,100%,100%);stroke-opacity:1;stroke-miterlimit:4;" d="M 10.49884 22.413757 C 6.835628 23.143084 5.21496 26.774048 4.702235 30.408147 C 4.347192 32.921087 6.994353 35.617927 10.224203 35.617927 C 12.46933 35.617927 15.433942 34.26376 18.976021 33.82282 C 23.501779 33.259629 26.753558 31.4384 25.165261 26.657022 C 24.430113 24.445007 22.665339 22.281057 19.392675 22.281057 C 17.516166 22.281057 16.177444 22.281057 15.181235 22.281057 " transform="matrix(3.740741,0,0,3.738462,0,0)"/>
<path style=" stroke:none;fill-rule:nonzero;fill:rgb(100%,100%,100%);fill-opacity:1;" d="M 67.085938 26.425781 C 58.902344 31.101562 51.617188 42.675781 54.222656 53.304688 C 56.832031 63.929688 68.253906 66.9375 76.441406 63.820312 C 90.71875 58.382812 98.332031 35.574219 82.675781 26.667969 C 78.046875 24.03125 72.121094 23.550781 67.085938 26.425781 Z M 67.085938 26.425781 "/>
<path style="fill:none;stroke-width:0.208383;stroke-linecap:butt;stroke-linejoin:miter;stroke:rgb(100%,100%,100%);stroke-opacity:1;stroke-miterlimit:4;" d="M 14.287361 15.926087 C 12.620746 15.648148 9.16325 14.17173 6.994353 11.862542 C 3.764503 8.423836 5.557472 -0.156732 11.995243 1.130562 C 16.162825 1.964378 19.392675 4.672711 19.809329 6.235854 " transform="matrix(3.740741,0,0,3.738462,0,0)"/>
<path style=" stroke:none;fill-rule:nonzero;fill:rgb(100%,100%,100%);fill-opacity:1;" d="M 41.996094 17.296875 L 48.703125 21.902344 C 50.753906 23.3125 51.273438 26.113281 49.867188 28.164062 C 48.457031 30.210938 45.652344 30.730469 43.601562 29.324219 L 36.894531 24.714844 C 34.84375 23.308594 34.324219 20.503906 35.734375 18.457031 C 37.140625 16.40625 39.945312 15.886719 41.996094 17.296875 Z M 41.996094 17.296875 "/>
<path style=" stroke:none;fill-rule:nonzero;fill:rgb(0%,0%,0%);fill-opacity:1;" d="M 75.765625 50.824219 L 81.410156 43.222656 C 82.546875 41.691406 84.707031 41.375 86.238281 42.507812 C 87.765625 43.644531 88.085938 45.800781 86.949219 47.332031 L 81.304688 54.929688 C 80.171875 56.460938 78.011719 56.78125 76.480469 55.644531 C 74.953125 54.511719 74.632812 52.351562 75.765625 50.824219 Z M 75.765625 50.824219 "/>
<path style="fill:none;stroke-width:0.208383;stroke-linecap:butt;stroke-linejoin:miter;stroke:rgb(100%,100%,100%);stroke-opacity:1;stroke-miterlimit:4;" d="M 10.537477 14.467432 L 10.537477 26.241159 L 15.121713 26.241159 C 15.121713 22.593477 15.121713 20.309365 15.121713 17.281298 " transform="matrix(3.740741,0,0,3.738462,0,0)"/>
<path style="fill:none;stroke-width:0.208383;stroke-linecap:butt;stroke-linejoin:miter;stroke:rgb(100%,100%,100%);stroke-opacity:1;stroke-miterlimit:4;" d="M 10.537477 26.240114 L 15.121713 26.240114 C 15.121713 27.160655 14.375077 27.907745 13.454053 27.907745 L 12.204092 27.907745 C 11.283068 27.907745 10.537477 27.160655 10.537477 26.240114 Z M 10.537477 26.240114 " transform="matrix(3.740741,0,0,3.738462,0,0)"/>
<path style="fill:none;stroke-width:0.208383;stroke-linecap:butt;stroke-linejoin:miter;stroke:rgb(100%,100%,100%);stroke-opacity:1;stroke-miterlimit:4;" d="M 43.280825 22.405398 C 46.974319 23.114873 48.60543 26.760465 49.120243 30.408147 C 49.475286 32.921087 46.828125 35.617927 43.598275 35.617927 C 41.353148 35.617927 38.388537 34.26376 34.846457 33.82282 C 30.320699 33.259629 27.06892 31.4384 28.657217 26.657022 C 29.391321 24.445007 31.15714 22.281057 34.429804 22.281057 C 36.336595 22.281057 37.687848 22.281057 38.689279 22.281057 " transform="matrix(3.740741,0,0,3.738462,0,0)"/>
<path style=" stroke:none;fill-rule:nonzero;fill:rgb(100%,100%,100%);fill-opacity:1;" d="M 134.25 26.425781 C 142.433594 31.101562 149.71875 42.675781 147.113281 53.304688 C 144.503906 63.929688 133.082031 66.9375 124.894531 63.820312 C 110.617188 58.382812 103.003906 35.574219 118.660156 26.667969 C 123.289062 24.03125 129.210938 23.550781 134.25 26.425781 Z M 134.25 26.425781 "/>
<path style="fill:none;stroke-width:0.208383;stroke-linecap:butt;stroke-linejoin:miter;stroke:rgb(100%,100%,100%);stroke-opacity:1;stroke-miterlimit:4;" d="M 39.535118 15.926087 C 41.201733 15.648148 44.658184 14.17173 46.828125 11.862542 C 50.057975 8.423836 48.263962 -0.156732 41.827235 1.130562 C 37.659653 1.964378 34.429804 4.672711 34.012106 6.235854 " transform="matrix(3.740741,0,0,3.738462,0,0)"/>
<path style=" stroke:none;fill-rule:nonzero;fill:rgb(100%,100%,100%);fill-opacity:1;" d="M 159.339844 17.296875 L 152.628906 21.902344 C 150.582031 23.3125 150.058594 26.113281 151.46875 28.164062 C 152.878906 30.210938 155.683594 30.730469 157.734375 29.324219 L 164.441406 24.714844 C 166.492188 23.308594 167.011719 20.503906 165.601562 18.457031 C 164.195312 16.40625 161.390625 15.886719 159.339844 17.296875 Z M 159.339844 17.296875 "/>
<path style=" stroke:none;fill-rule:nonzero;fill:rgb(0%,0%,0%);fill-opacity:1;" d="M 125.566406 50.824219 L 119.921875 43.222656 C 118.789062 41.691406 116.628906 41.375 115.097656 42.507812 C 113.570312 43.644531 113.25 45.800781 114.382812 47.332031 L 120.027344 54.929688 C 121.164062 56.460938 123.324219 56.78125 124.855469 55.644531 C 126.382812 54.511719 126.703125 52.351562 125.566406 50.824219 Z M 125.566406 50.824219 "/>
<path style="fill:none;stroke-width:0.208383;stroke-linecap:butt;stroke-linejoin:miter;stroke:rgb(100%,100%,100%);stroke-opacity:1;stroke-miterlimit:4;" d="M 43.285002 14.467432 L 43.285002 26.241159 L 38.700766 26.241159 C 38.700766 22.593477 38.700766 20.309365 38.700766 17.281298 " transform="matrix(3.740741,0,0,3.738462,0,0)"/>
<path style="fill:none;stroke-width:0.208383;stroke-linecap:butt;stroke-linejoin:miter;stroke:rgb(100%,100%,100%);stroke-opacity:1;stroke-miterlimit:4;" d="M 43.285002 26.240114 L 38.700766 26.240114 C 38.700766 27.160655 39.447401 27.907745 40.367381 27.907745 L 41.618386 27.907745 C 42.538366 27.907745 43.285002 27.160655 43.285002 26.240114 Z M 43.285002 26.240114 " transform="matrix(3.740741,0,0,3.738462,0,0)"/>
</g>
</svg>
