<svg width="16" height="20" viewBox="0 0 16 20" fill="none" xmlns="http://www.w3.org/2000/svg">
<path d="M9.77778 20V17.6571C11.1111 17.1619 12.1852 16.2095 13 14.8C13.8148 13.3905 14.2222 11.7905 14.2222 10C14.2222 8.20952 13.8148 6.60952 13 5.2C12.1852 3.79048 11.1111 2.8381 9.77778 2.34286V0C11.6148 0.533333 13.1111 1.72857 14.2667 3.58571C15.4222 5.44286 16 7.58095 16 10C16 12.419 15.4222 14.5571 14.2667 16.4143C13.1111 18.2714 11.6148 19.4667 9.77778 20ZM0 13.4571V6.6H3.55556L8 0.885714V19.1714L3.55556 13.4571H0ZM9.77778 14.6V5.4C10.4741 5.81905 11.0185 6.44762 11.4111 7.28571C11.8037 8.12381 12 9.0381 12 10.0286C12 11 11.8037 11.9 11.4111 12.7286C11.0185 13.5571 10.4741 14.181 9.77778 14.6ZM6.22222 6.42857L4.31111 8.88571H1.77778V11.1714H4.31111L6.22222 13.6286V6.42857Z" fill="white"/>
</svg>
