<svg width="18" height="27" viewBox="0 0 18 27" fill="none" xmlns="http://www.w3.org/2000/svg">
<path d="M9 0.744141C9 0.744141 0 10.6379 0 17.6379C0 23.1604 3.4775 26.6379 9 26.6379C14.5225 26.6379 18 23.1604 18 17.6379C18 10.6379 9 0.744141 9 0.744141ZM10 23.3879V21.8879C10.9942 21.8867 11.9474 21.4913 12.6504 20.7883C13.3534 20.0853 13.7488 19.1321 13.75 18.1379H15.25C15.2485 19.5298 14.6949 20.8643 13.7107 21.8486C12.7264 22.8328 11.3919 23.3864 10 23.3879Z" fill="url(#paint0_linear_5147_3575)"/>
<defs>
<linearGradient id="paint0_linear_5147_3575" x1="9" y1="0.744141" x2="9" y2="26.6379" gradientUnits="userSpaceOnUse">
<stop stop-color="#DEE9FF"/>
<stop offset="1" stop-color="#B2BACC"/>
</linearGradient>
</defs>
</svg>
